<svg xmlns="http://www.w3.org/2000/svg" data-name="Layer 1" viewBox="0 0 293.69 293.69"><defs><style>.cls-1{fill:#183b8c;}</style></defs><path class="cls-1" d="M159.27,123.55c2.73,1.16,4.08,4.07,4.65,6.82l8.62.06c-.33-3.68-1.36-7.48-3.94-10.25-3.44-3.83-8.7-5.63-13.76-5.62C142.6,114.08,131,123.25,128,135c-1.69,5.61-1.18,12.25,2.53,17a17.86,17.86,0,0,0,14,7.05,24.25,24.25,0,0,0,8-.78,20.28,20.28,0,0,0,9.09-5.86c.07,2-.31,4-.42,6,2.25,0,4.51,0,6.76,0,.71-4.13,1.48-8.25,2.16-12.38.66-3.87,1.52-7.7,2-11.59-7.5,0-15,0-22.49,0-.28,2.7-.94,5.35-1.4,8,4.26.09,8.54-.05,12.8,0-3.35,7.43-13.59,10.64-20.58,6.44-2.51-1.42-3.68-4.25-4.37-6.91A17.25,17.25,0,0,1,138.15,132C141.62,124.28,151.47,120.37,159.27,123.55Z" transform="translate(-3.16 -3.16)"></path><path class="cls-1" d="M72,158.33c1.78-2.4,3.09-5.14,4.65-7.69.25-.29.44-.86.91-.8,6.39.08,12.8-.07,19.18.07.77,2.8,1.21,5.68,2,8.49,3.11.06,6.22,0,9.34,0-2.45-8.76-4.38-17.66-6.76-26.43-1.4-5.65-2.86-11.29-4.24-16.94-2.73.08-5.47-.1-8.19.13C82,126.56,75,137.92,68.05,149.34c-1.74,3.07-3.84,5.92-5.51,9C65.68,158.37,68.83,158.51,72,158.33Zm12.46-20.71c2.2-3.82,4.44-7.6,6.66-11.4,1.3,5.15,2.47,10.34,3.68,15.52-4.26,0-8.51,0-12.76,0A47.06,47.06,0,0,1,84.43,137.62Z" transform="translate(-3.16 -3.16)"></path><path class="cls-1" d="M229.4,158.38c1.54-7.48,2.59-15.08,4.08-22.58,1.19-6.86,2.46-13.71,3.56-20.59-2.88,0-5.75,0-8.63,0-1.57,9.58-3.44,19.12-5,28.72a11.47,11.47,0,0,1-1.64-2.28c-4-6.17-8.37-12.15-12.43-18.31-1.59-2.31-3.29-4.56-4.78-6.94-.37-.45-.66-1.17-1.35-1.13-1.6-.1-3.2,0-4.8,0-2.56,14.37-5,28.75-7.63,43.11,2.91,0,5.82.09,8.73,0,1.52-9.05,3.17-18.09,4.67-27.14,1.19,1,1.77,2.47,2.75,3.65,5,7.53,10.15,15,15.15,22.53.3.39.6,1,1.18,1C225.32,158.47,227.36,158.45,229.4,158.38Z" transform="translate(-3.16 -3.16)"></path><path class="cls-1" d="M119.62,149.71a6.42,6.42,0,0,0-4.16-.53,5.15,5.15,0,0,0-3.55,3.82c-.6,2.5,1.37,5,3.74,5.63a5.17,5.17,0,0,0,6.22-3.78C122.43,152.86,121.18,150.86,119.62,149.71Z" transform="translate(-3.16 -3.16)"></path><path class="cls-1" d="M183.42,150.07a5.22,5.22,0,0,0-4.61-.89,5.42,5.42,0,0,0-3.74,4.53,5.2,5.2,0,0,0,8.5,3.84A4.88,4.88,0,0,0,183.42,150.07Z" transform="translate(-3.16 -3.16)"></path><path class="cls-1" d="M150,3.16C69,3.16,3.16,69,3.16,150S69,296.84,150,296.84,296.84,231,296.84,150,231,3.16,150,3.16Zm0,286.17c-76.83,0-139.33-62.5-139.33-139.33S73.17,10.67,150,10.67,289.33,73.17,289.33,150,226.83,289.33,150,289.33Z" transform="translate(-3.16 -3.16)"></path><rect class="cls-1" x="124.2" y="82.06" width="79.5" height="1.1"></rect><rect class="cls-1" x="105.15" y="90.49" width="117.23" height="1.1"></rect><rect class="cls-1" x="89.76" y="98.92" width="148.01" height="1.1"></rect><path class="cls-1" d="M81.92,178.66c.62.22.79,1,1.17,1.43.47,0,.94.06,1.42.06a3.46,3.46,0,0,0-1.72-2.47,3.71,3.71,0,0,0-4.28.9,5.9,5.9,0,0,0-.78,4,3.61,3.61,0,0,0,2,3.16,4.7,4.7,0,0,0,4.62-.71,30,30,0,0,0,0-3.42c-1.07.05-2.14,0-3.21,0,0,.27,0,.83,0,1.11.59,0,1.19,0,1.79,0-.16.65.32,1.83-.6,2a2.2,2.2,0,0,1-2.57-.64,5.26,5.26,0,0,1-.13-4.72A1.85,1.85,0,0,1,81.92,178.66Z" transform="translate(-3.16 -3.16)"></path><path class="cls-1" d="M94.3,182.77c.59,1,1.06,2.11,1.6,3.17l1.74.05c-.65-1.18-1.34-2.35-1.93-3.57a3.41,3.41,0,0,0,1.51-2,2.53,2.53,0,0,0-1.65-2.68,22.18,22.18,0,0,0-4.46-.25c0,2.82,0,5.64,0,8.46l1.54.06c0-1.1,0-2.19,0-3.29A7,7,0,0,1,94.3,182.77Zm-1.65-4.07c.91.06,1.95-.15,2.75.38a2,2,0,0,1,.07,1.86c-.72.76-1.86.51-2.8.54C92.66,180.55,92.65,179.62,92.65,178.7Z" transform="translate(-3.16 -3.16)"></path><path class="cls-1" d="M109.2,177.5c-1.84,0-3.67,0-5.51-.06,0,2.84,0,5.69,0,8.53,1.85,0,3.69,0,5.53-.08,0-.27,0-.82,0-1.09-1.31,0-2.62-.05-3.94,0a15.19,15.19,0,0,1-.09-2.61c1.12,0,2.25,0,3.37,0,0-.39,0-.78.07-1.17-1.15,0-2.3,0-3.45,0,0-.75,0-1.49,0-2.23,1.34,0,2.68,0,4,0C109.23,178.3,109.22,177.9,109.2,177.5Z" transform="translate(-3.16 -3.16)"></path><path class="cls-1" d="M121,177.51c-1.82,0-3.65,0-5.47-.06-.08,2.83,0,5.66,0,8.49,1.85,0,3.72,0,5.58,0,0-.39,0-.78-.05-1.17-1.33,0-2.66,0-4,0a14.36,14.36,0,0,1,0-2.54c1.14-.07,2.28,0,3.43-.07,0-.28,0-.82,0-1.09-1.17,0-2.33,0-3.49,0l0-2.3c1.33,0,2.65,0,4,0C121,178.31,121,177.91,121,177.51Z" transform="translate(-3.16 -3.16)"></path><path class="cls-1" d="M132.15,183.62a3.08,3.08,0,0,1-.08.53,1.89,1.89,0,0,1-3-.1,6.39,6.39,0,0,1-.18-4.23,1.87,1.87,0,0,1,2.72-1c.65.25.61,1,.83,1.59l1.48-.11a3.36,3.36,0,0,0-1.41-2.39,3.89,3.89,0,0,0-3.62-.07,3.61,3.61,0,0,0-1.7,3.24c0,1.35,0,2.88.89,4a3.71,3.71,0,0,0,4.29.67c.95-.48,1.6-2.51,1.6-2.51S132.33,182.82,132.15,183.62Z" transform="translate(-3.16 -3.16)"></path><path class="cls-1" d="M145.73,178.74c0-.42,0-.84,0-1.26-1.82,0-3.64,0-5.46,0,0,2.83,0,5.66,0,8.49h5.57c0-.28,0-.86.05-1.14-1.35-.06-2.7,0-4-.09-.07-.85,0-1.7,0-2.55,1.12,0,2.24,0,3.36,0,0-.4,0-.79.07-1.17-1.15,0-2.3,0-3.45,0,0-.77,0-1.54,0-2.31Z" transform="translate(-3.16 -3.16)"></path><path class="cls-1" d="M159.93,185.94l1.42.07c.06-2.83,0-5.66,0-8.49l-1.45-.07C159.86,180.28,159.91,183.11,159.93,185.94Z" transform="translate(-3.16 -3.16)"></path><path class="cls-1" d="M172.77,179.92l1.49.08c-.16-2.59-3.61-3.38-5.39-1.91a2.07,2.07,0,0,0-.45,2.7c.77,1.33,2.5,1.3,3.7,2a1,1,0,0,1,.32,1.6,1.87,1.87,0,0,1-3.15-1.06l-1.55,0a3.82,3.82,0,0,0,1,1.9,4.19,4.19,0,0,0,3.91.53,2.19,2.19,0,0,0,1.23-3.2c-.78-1.34-2.49-1.38-3.74-2a1,1,0,0,1-.18-1.68A1.73,1.73,0,0,1,172.77,179.92Z" transform="translate(-3.16 -3.16)"></path><path class="cls-1" d="M195.6,177.51c-1.21,2.78-2.12,5.69-3.28,8.5l1.63-.07c.22-.66.44-1.32.67-2,1.09,0,2.18,0,3.26,0,.22.66.43,1.31.66,2h1.55c-1-2.85-2.16-5.65-3.18-8.49A7.15,7.15,0,0,0,195.6,177.51ZM195,182.8c.46-1.14.74-2.35,1.22-3.48h.1c.32,1.15.63,2.32,1,3.45Q196.21,182.77,195,182.8Z" transform="translate(-3.16 -3.16)"></path><path class="cls-1" d="M211.71,178.72l-.09-1.23c-1.81,0-3.64,0-5.46-.05,0,2.83,0,5.67,0,8.5,1.85,0,3.71,0,5.57,0l-.09-1.23c-1.32,0-2.63,0-3.94,0,0-.86,0-1.71,0-2.57,1.16,0,2.33,0,3.5,0,0-.36,0-.72.07-1.08-1.19-.06-2.38-.06-3.57,0,0-.76,0-1.52,0-2.28Z" transform="translate(-3.16 -3.16)"></path><path class="cls-1" d="M218,177.47c0,2.82,0,5.64,0,8.46,1.79,0,3.58,0,5.36-.05,0-.37,0-.75,0-1.12-1.29,0-2.57,0-3.85,0,0-2.42,0-4.84,0-7.26Z" transform="translate(-3.16 -3.16)"></path><path class="cls-1" d="M185.48,185.93a7.21,7.21,0,0,0,1.54,0c-.62-1.15-1.21-2.33-1.89-3.45a3.73,3.73,0,0,0,1.39-1.71,2.4,2.4,0,0,0-1.59-3.1,23,23,0,0,0-4.39-.21c.1,2.84.1,5.7.08,8.55l1.54-.1c0-1.09,0-2.17,0-3.26l1.6.05A17.62,17.62,0,0,0,185.48,185.93Zm-3.32-7.27c1,.14,2.56-.26,2.92,1a1.27,1.27,0,0,1-.58,1.61,8.38,8.38,0,0,1-2.29.31A21.6,21.6,0,0,1,182.16,178.66Z" transform="translate(-3.16 -3.16)"></path><path class="cls-1" d="M107.78,210.83c-2.31-3.94-4.59-7.92-6.92-11.86a1.6,1.6,0,0,0-.6.73c-1.71,3.24-3.49,6.45-5.16,9.71A13,13,0,0,1,93,212.74c-.56.56-1.4.74-1.88,1.39,2.24,0,4.48.06,6.7-.12-.7-.67-1.9-.59-2.43-1.48s-.2-1.75,0-2.6c2.28-.11,4.56,0,6.85-.08.45,1,1.3,1.88,1.19,3-.61.78-1.87.39-2.44,1.19,2.35.17,4.71,0,7.08,0a9.49,9.49,0,0,0,3.1-.19,16.14,16.14,0,0,1-1.8-.8A9.74,9.74,0,0,1,107.78,210.83Zm-12-1.5c1-1.85,1.92-3.7,2.9-5.53.93,1.88,2.09,3.64,3.07,5.51C99.8,209.3,97.81,209.28,95.82,209.33Z" transform="translate(-3.16 -3.16)"></path><path class="cls-1" d="M207.06,208.67c-2-3.24-3.74-6.64-5.85-9.81-1.76,3.46-3.68,6.83-5.46,10.28a15.17,15.17,0,0,1-2.12,3.44c-.58.64-1.46.89-2,1.55,2.27-.09,4.55.08,6.81-.13-.77-.6-2-.56-2.5-1.46a3.21,3.21,0,0,1,0-2.63c2.28,0,4.56,0,6.85,0a9.13,9.13,0,0,1,1.2,2.69c-.26,1.12-2,.51-2.43,1.48,3.36.07,6.72,0,10.08,0-.6-.64-1.58-.75-2.12-1.46A39.89,39.89,0,0,1,207.06,208.67Zm-10.72.64c1-1.83,1.88-3.69,2.93-5.47.92,1.88,2.09,3.62,3,5.49C200.32,209.28,198.33,209.32,196.34,209.31Z" transform="translate(-3.16 -3.16)"></path><path class="cls-1" d="M169.44,205.1c-2-.51-4-.72-6-1.16a2.73,2.73,0,0,1-2-1.33,2.21,2.21,0,0,1,1.7-2.58,7.83,7.83,0,0,1,7.06,1.48c1,.9,1.44,2.25,2.21,3.34.1-1.92,0-3.84,0-5.76-.69.48-1.39.95-2.07,1.44-3.2-1.66-7.42-2-10.47.17a4.17,4.17,0,0,0,.38,6.77c2.7,1.61,6,1.25,8.9,2.36a2,2,0,0,1,1,2.18,3,3,0,0,1-2.28,1.62,8.55,8.55,0,0,1-6.85-1.2c-1.32-1-1.73-2.58-2.59-3.86-.08,2-.08,4.05-.08,6.07a8.41,8.41,0,0,1,2.2-1.5,17.11,17.11,0,0,0,4.25,1.29,9.38,9.38,0,0,0,7.08-2,4.16,4.16,0,0,0,.65-5.41A5.22,5.22,0,0,0,169.44,205.1Z" transform="translate(-3.16 -3.16)"></path><path class="cls-1" d="M67.67,208.25a6.64,6.64,0,0,1-4.75-.71c2.13-.23,4.44-.32,6.25-1.6a3.16,3.16,0,0,0,.1-4.95,7.71,7.71,0,0,0-4.37-1.41c-4.51-.12-9-.07-13.54,0,.82.71,2,.57,2.88,1.27.65.48.58,1.37.62,2.09,0,2.53,0,5.07,0,7.61a3.26,3.26,0,0,1-.51,2.21c-.87.71-2.18.54-3,1.37,3.76,0,7.53,0,11.3,0-.66-1.1-2.62-.51-3.14-1.85a26.32,26.32,0,0,1-.22-4.78h2.8c1.29,2.18,2.53,4.38,3.7,6.63,2.19,0,4.37,0,6.55,0-.43-.71-1.44-.6-1.92-1.25A45.69,45.69,0,0,1,67.67,208.25Zm-8.32-1.37c0-2.27-.05-4.55,0-6.82a17.44,17.44,0,0,1,4.51.26c2.63.91,2.55,5.25.06,6.28C62.48,207.13,60.87,206.83,59.35,206.88Z" transform="translate(-3.16 -3.16)"></path><path class="cls-1" d="M90.51,208.4c-.9,1.28-1.16,3-2.48,4-2.06,1.69-4.89,1-7.33,1.13,0-2.24,0-4.49,0-6.73,1.15.06,2.5-.22,3.45.6s1.11,2.16,1.65,3.24a74.77,74.77,0,0,0,0-8.2c-.69,1-.69,2.49-1.79,3.24s-2.22.5-3.34.6q0-3.07,0-6.13c2.53.11,5.57-.7,7.64,1.2,1.12.87,1.25,2.39,2.1,3.45,0-1.75,0-3.49,0-5.23-5.94,0-11.88-.12-17.82,0,1.1.82,3.07.48,3.5,2.09.15,2.93,0,5.87.08,8.81,0,.75.16,1.73-.58,2.22-.81.83-2.16.58-3,1.35,6,.11,12,0,18,0A53.84,53.84,0,0,0,90.51,208.4Z" transform="translate(-3.16 -3.16)"></path><path class="cls-1" d="M125.76,212.15c-1.76,1.77-4.42,1.38-6.68,1.34,0-3.63,0-7.25,0-10.87,0-.54,0-1.19.37-1.61.87-1,2.35-.64,3.32-1.42-3.86-.17-7.73,0-11.59,0,.82.83,2.23.58,3,1.47a2.9,2.9,0,0,1,.41,1.9c0,2.64,0,5.27,0,7.91a2.5,2.5,0,0,1-.47,1.81c-.82.85-2.25.54-3,1.48,5.66,0,11.32,0,17,0-.06-2.05,0-4.1-.08-6.14C127.13,209.27,127.09,211.1,125.76,212.15Z" transform="translate(-3.16 -3.16)"></path><path class="cls-1" d="M155,208.47c-.69,1.57-1.27,3.42-2.88,4.3-2,1.16-4.49.66-6.72.75,0-2.25,0-4.5,0-6.75,1.15.06,2.51-.2,3.45.63s1,2.16,1.68,3.14a77.57,77.57,0,0,0,0-8.07c-.64.95-.68,2.23-1.57,3s-2.32.61-3.48.77c0-2,0-4.09,0-6.14,1.61,0,3.23-.08,4.84,0a4.54,4.54,0,0,1,3.6,2.22c.48.76.57,1.75,1.25,2.38.06-1.73,0-3.46,0-5.18-5.91,0-11.83-.12-17.74,0a7.16,7.16,0,0,0,2.21.86,1.82,1.82,0,0,1,1.25,1.86c.05,2.83,0,5.67,0,8.5a2.7,2.7,0,0,1-.51,1.92c-.85.77-2.17.58-3,1.34,6,.12,12,0,18,0,0-1.31-.06-2.61,0-3.92A3.3,3.3,0,0,0,155,208.47Z" transform="translate(-3.16 -3.16)"></path><path class="cls-1" d="M192.88,199.55c-6.16,0-12.32-.06-18.48,0,.11,2,0,4.05.08,6.08,1.16-1.28,1.51-3.11,2.77-4.33a4.44,4.44,0,0,1,4.06-1.17c.1,3.45.06,6.92,0,10.38,0,.87,0,2-.89,2.5s-2.15.15-2.67,1.08c3.8,0,7.6,0,11.39-.05l.19-.23c-1.12-.57-3.22-.32-3.4-2-.11-3.48,0-7-.06-10.46.05-.42-.08-.9.16-1.28,1.21,0,2.63-.12,3.56.81,1.52,1.28,2,3.32,3.16,4.85C192.94,203.69,192.78,201.62,192.88,199.55Z" transform="translate(-3.16 -3.16)"></path><path class="cls-1" d="M210.32,199.53c.07,2.08,0,4.15.14,6.22,1.16-1.59,1.7-3.64,3.27-4.93,1-.83,2.32-.69,3.51-.8q.06,5.41,0,10.8c-.07.68.09,1.56-.57,2-.88.72-2.23.44-3,1.26,3.91,0,7.84.06,11.76,0-.86-.91-2.56-.37-3.31-1.51a6.25,6.25,0,0,1-.28-2.32c0-3.39,0-6.78,0-10.16,1.31,0,2.84-.09,3.81,1,1.48,1.23,1.83,3.25,3.08,4.63.06-2,0-4.08,0-6.11C222.62,199.55,216.47,199.52,210.32,199.53Z" transform="translate(-3.16 -3.16)"></path><path class="cls-1" d="M245.21,212.47c-2,1.66-4.82.89-7.22,1,0-2.25,0-4.5,0-6.75,1.22,0,2.66-.14,3.61.79.87.74.78,2,1.55,2.83.12-2.63.07-5.27,0-7.9-.75.88-.64,2.25-1.58,3s-2.35.72-3.55.75c-.05-2-.06-4.07,0-6.1,1.63,0,3.26-.05,4.89,0a4.41,4.41,0,0,1,3.36,1.84c.69.88.81,2,1.48,2.92.1-1.78,0-3.57,0-5.35-5.93,0-11.87-.07-17.8,0,1,.85,2.73.58,3.4,1.83.27,2.92,0,5.89.12,8.83,0,.91.18,2.1-.73,2.66s-2.06.38-2.75,1.2c6,0,11.92,0,17.87,0a31.18,31.18,0,0,0-.2-5.8C247,209.79,246.56,211.48,245.21,212.47Z" transform="translate(-3.16 -3.16)"></path><path class="cls-1" d="M235.41,183.49l.79,1.34.78-1.34h1.56l-.77-1.37.76-1.35H237l-.79-1.37-.77,1.35h-1.57l.78,1.36-.78,1.38Zm.79.49-.28-.5h.57Zm1.62-.93h-.58l.28-.49Zm0-1.86-.3.49-.28-.49Zm-1.62-.93.29.5h-.57Zm-.54.94h1.08l.52.93-.52.91h-1.07l-.54-.9Zm-1.07,0h.58l-.29.49Zm.29,1.36.29.49h-.58Z" transform="translate(-3.16 -3.16)"></path><rect class="cls-1" x="223.29" y="182.14" width="19.48" height="1.9"></rect><rect class="cls-1" x="223.29" y="173.76" width="19.48" height="1.98"></rect><polygon class="cls-1" points="54.58 177.35 54.58 180.02 69.85 180.02 69.85 178.66 57.26 178.66 57.26 177.35 54.58 177.35"></polygon><rect class="cls-1" x="50.56" y="181.34" width="19.29" height="1.37"></rect><rect class="cls-1" x="50.56" y="184.01" width="19.29" height="1.37"></rect><polygon class="cls-1" points="53.22 173.29 54.58 173.29 54.58 175.99 57.26 175.99 57.26 177.34 69.85 177.34 69.85 175.97 57.26 175.97 57.26 174.66 69.85 174.66 69.85 173.29 57.26 173.29 50.56 173.29 50.56 174.66 50.56 175.97 50.56 175.99 53.22 175.99 53.22 173.29"></polygon><polygon class="cls-1" points="53.22 177.35 50.56 177.35 50.56 178.66 50.56 179.59 50.56 180.02 53.22 180.02 53.22 177.35"></polygon></svg>