<svg xmlns="http://www.w3.org/2000/svg" xmlns:xlink="http://www.w3.org/1999/xlink" width="500" zoomAndPan="magnify" viewBox="0 0 375 374.999991" height="500" preserveAspectRatio="xMidYMid meet" version="1.0"><defs><clipPath id="204801f385"><path d="M 28.125 46 L 334 46 L 334 333 L 28.125 333 Z M 28.125 46 " clip-rule="nonzero"/></clipPath></defs><g clip-path="url(#204801f385)"><path fill="#000000" d="M 98.859375 66.921875 C 111.289062 66.921875 121.363281 76.992188 121.363281 89.429688 C 121.363281 97.25 117.347656 104.246094 111.089844 108.3125 C 124.742188 109.027344 135.617188 120.394531 135.617188 134.136719 L 135.617188 156.046875 C 135.617188 158.242188 133.835938 160.023438 131.640625 160.023438 L 66.09375 160.023438 C 63.894531 160.023438 62.117188 158.242188 62.117188 156.046875 L 62.117188 134.136719 C 62.117188 120.390625 72.992188 109.019531 86.644531 108.3125 C 74.644531 100.53125 72.804688 83.648438 82.953125 73.503906 C 87.035156 69.429688 92.65625 66.921875 98.859375 66.921875 Z M 109.160156 79.109375 C 100.011719 69.976562 84.292969 76.480469 84.292969 89.421875 C 84.292969 102.363281 100.003906 108.875 109.160156 99.71875 C 114.855469 94.042969 114.855469 84.8125 109.160156 79.109375 Z M 109.753906 116.226562 L 87.964844 116.226562 C 78.125 116.226562 70.0625 124.292969 70.0625 134.136719 L 70.0625 152.070312 L 127.679688 152.070312 L 127.679688 134.136719 C 127.679688 124.292969 119.597656 116.226562 109.753906 116.226562 Z M 98.859375 46.097656 C 136.46875 46.097656 166.808594 76.890625 166.207031 114.574219 C 170.539062 112.527344 175.058594 110.894531 179.746094 109.714844 L 179.746094 102.644531 C 179.746094 96.582031 184.695312 91.632812 190.753906 91.632812 L 206.675781 91.632812 C 212.746094 91.632812 217.703125 96.582031 217.703125 102.644531 L 217.703125 109.714844 C 224.773438 111.515625 231.464844 114.292969 237.691406 118.007812 L 242.699219 112.996094 C 246.992188 108.722656 253.980469 108.722656 258.28125 112.996094 L 269.53125 124.273438 C 273.824219 128.566406 273.824219 135.558594 269.53125 139.859375 L 264.546875 144.851562 C 268.234375 151.097656 271.035156 157.792969 272.832031 164.867188 L 279.902344 164.867188 C 285.960938 164.867188 290.910156 169.816406 290.910156 175.894531 L 290.910156 191.800781 C 290.910156 197.875 285.960938 202.832031 279.902344 202.832031 L 272.832031 202.832031 C 271.035156 209.902344 268.242188 216.601562 264.546875 222.847656 L 269.53125 227.835938 C 273.824219 232.128906 273.824219 239.125 269.53125 243.421875 L 258.28125 254.699219 C 253.988281 258.972656 246.996094 258.972656 242.699219 254.699219 L 237.691406 249.691406 C 231.464844 253.402344 224.773438 256.179688 217.703125 257.980469 L 217.703125 265.054688 C 217.703125 271.113281 212.753906 276.0625 206.675781 276.0625 L 190.753906 276.0625 C 184.695312 276.0625 179.746094 271.113281 179.746094 265.054688 L 179.746094 257.980469 C 176.519531 257.152344 173.296875 256.109375 170.222656 254.863281 C 163.601562 260.25 155.1875 263.472656 146.054688 263.472656 L 66.574219 263.472656 C 45.429688 263.472656 28.117188 246.164062 28.117188 225.003906 C 28.117188 203.832031 45.410156 186.515625 66.574219 186.515625 L 106.53125 186.515625 L 106.53125 180.421875 C 66.503906 184.960938 31.519531 153.675781 31.519531 113.480469 C 31.511719 76.257812 61.660156 46.097656 98.859375 46.097656 Z M 165.402344 123.894531 C 161.199219 150.925781 140.914062 172.730469 114.476562 179.019531 L 114.476562 186.5 L 146.054688 186.5 C 146.75 186.5 147.421875 186.519531 148.117188 186.554688 C 146.523438 157.539062 169.699219 133.140625 198.726562 133.140625 C 226.695312 133.140625 249.40625 155.832031 249.40625 183.835938 C 249.40625 218.007812 216.3125 242.277344 183.816406 232.28125 C 182.632812 238.375 180.011719 243.964844 176.316406 248.671875 C 178.378906 249.386719 182.273438 250.542969 184.246094 250.878906 C 186.195312 251.144531 187.679688 252.8125 187.679688 254.816406 L 187.679688 265.019531 C 187.679688 266.707031 189.066406 268.097656 190.753906 268.097656 L 206.675781 268.097656 C 208.363281 268.097656 209.75 266.707031 209.75 265.019531 L 209.75 254.816406 L 209.769531 254.816406 C 209.769531 252.976562 211.046875 251.332031 212.917969 250.933594 C 217.058594 250.074219 221.09375 248.816406 224.9375 247.203125 C 228.78125 245.605469 232.4375 243.695312 235.871094 241.480469 C 237.425781 240.28125 239.660156 240.394531 241.082031 241.816406 L 248.300781 249.035156 C 249.496094 250.230469 251.46875 250.230469 252.664062 249.035156 L 263.917969 237.78125 C 265.101562 236.59375 265.101562 234.609375 263.917969 233.425781 L 256.699219 226.207031 L 256.699219 226.1875 C 255.402344 224.890625 255.144531 222.832031 256.191406 221.238281 C 258.460938 217.730469 260.445312 214 262.078125 210.0625 C 263.652344 206.273438 264.871094 202.355469 265.753906 198.285156 C 266.019531 196.355469 267.667969 194.871094 269.691406 194.871094 L 279.890625 194.871094 C 281.578125 194.871094 282.964844 193.460938 282.964844 191.773438 L 282.964844 175.867188 C 282.964844 174.179688 281.578125 172.773438 279.890625 172.773438 L 269.691406 172.773438 C 267.832031 172.773438 266.207031 171.476562 265.808594 169.621094 C 264.929688 165.460938 263.671875 161.445312 262.078125 157.582031 C 260.484375 153.734375 258.570312 150.097656 256.355469 146.664062 C 255.160156 145.109375 255.273438 142.859375 256.695312 141.429688 L 263.910156 134.210938 C 265.09375 133.027344 265.09375 131.042969 263.910156 129.855469 L 252.660156 118.601562 C 251.460938 117.40625 249.492188 117.40625 248.292969 118.601562 L 241.078125 125.820312 L 241.078125 125.800781 C 239.78125 127.097656 237.722656 127.355469 236.128906 126.324219 C 232.625 124.035156 228.894531 122.070312 224.9375 120.433594 C 221.167969 118.859375 217.230469 117.621094 213.183594 116.757812 C 211.253906 116.492188 209.75 114.824219 209.75 112.820312 L 209.75 102.617188 C 209.75 100.929688 208.363281 99.539062 206.675781 99.539062 L 190.753906 99.539062 C 189.066406 99.539062 187.679688 100.929688 187.679688 102.617188 L 187.679688 112.820312 C 187.679688 114.660156 186.382812 116.304688 184.511719 116.703125 C 177.835938 118.121094 171.347656 120.582031 165.402344 123.894531 Z M 140.882812 71.4375 C 117.671875 48.242188 80.054688 48.242188 56.84375 71.4375 C 33.65625 94.636719 33.65625 132.285156 56.84375 155.484375 C 80.054688 178.699219 117.671875 178.699219 140.882812 155.484375 C 164.070312 132.277344 164.070312 94.636719 140.882812 71.4375 Z M 80.824219 236.277344 C 83 236.277344 84.777344 238.058594 84.777344 240.253906 C 84.777344 242.453125 83 244.230469 80.824219 244.230469 L 72.195312 244.230469 C 61.601562 244.230469 52.960938 235.5625 52.960938 224.988281 C 52.960938 214.390625 61.605469 205.75 72.195312 205.75 L 80.824219 205.75 C 83 205.75 84.777344 207.527344 84.777344 209.707031 C 84.777344 211.902344 83 213.683594 80.824219 213.683594 L 72.195312 213.683594 C 62.296875 213.683594 57.050781 225.777344 64.226562 232.964844 C 66.269531 235.007812 69.101562 236.285156 72.195312 236.285156 L 80.824219 236.285156 Z M 130.714844 240.253906 C 130.714844 242.453125 128.9375 244.230469 126.738281 244.230469 C 124.5625 244.230469 122.785156 242.453125 122.785156 240.253906 L 122.785156 209.699219 C 122.785156 206.246094 127.058594 204.199219 129.757812 207.132812 L 141.210938 218.632812 L 152.894531 206.925781 C 155.386719 204.414062 159.640625 206.210938 159.640625 209.707031 L 159.660156 209.707031 L 159.660156 240.261719 C 159.660156 242.457031 157.878906 244.238281 155.683594 244.238281 C 153.488281 244.238281 151.730469 242.457031 151.730469 240.261719 L 151.730469 219.304688 L 144.011719 227.035156 C 142.476562 228.570312 139.960938 228.570312 138.421875 227.015625 L 130.714844 219.304688 Z M 108.914062 228.121094 L 115.027344 238.210938 C 116.167969 240.070312 115.566406 242.503906 113.695312 243.628906 C 111.835938 244.773438 109.402344 244.171875 108.277344 242.300781 L 100.011719 228.640625 L 98.304688 228.640625 L 98.304688 240.253906 C 98.304688 242.453125 96.542969 244.230469 94.347656 244.230469 C 92.152344 244.230469 90.375 242.453125 90.375 240.253906 L 90.375 209.699219 C 90.375 207.523438 92.152344 205.742188 94.347656 205.742188 L 105.375 205.742188 C 115.78125 205.742188 121.277344 218.082031 113.664062 225.339844 C 112.339844 226.605469 110.714844 227.558594 108.914062 228.121094 Z M 98.296875 213.683594 L 98.296875 220.714844 L 105.367188 220.714844 C 108.78125 220.714844 110.539062 217.023438 108.199219 214.789062 C 107.484375 214.113281 106.492188 213.683594 105.367188 213.683594 Z M 156.160156 187.871094 C 172.359375 192.296875 184.152344 207.019531 184.511719 224.203125 C 211.960938 233.882812 241.453125 213.589844 241.453125 183.839844 C 241.453125 160.226562 222.332031 141.078125 198.726562 141.078125 C 173.578125 141.078125 153.871094 162.609375 156.160156 187.871094 Z M 146.054688 194.453125 L 66.574219 194.453125 C 49.792969 194.453125 36.050781 208.203125 36.050781 224.988281 C 36.050781 241.777344 49.792969 255.527344 66.574219 255.527344 L 146.054688 255.527344 C 162.835938 255.527344 176.578125 241.777344 176.578125 224.988281 C 176.578125 208.203125 162.835938 194.453125 146.054688 194.453125 Z M 169.867188 60.03125 C 167.75 60.523438 165.613281 59.183594 165.125 57.046875 C 164.632812 54.910156 165.96875 52.792969 168.105469 52.304688 C 214.175781 41.691406 261.441406 55.605469 294.15625 88.351562 C 346.882812 141.09375 346.882812 226.578125 294.15625 279.320312 C 254.839844 318.648438 195.140625 329.976562 144.082031 307.320312 L 151.246094 327.574219 C 151.980469 329.636719 150.890625 331.90625 148.824219 332.636719 C 146.761719 333.347656 144.511719 332.277344 143.777344 330.214844 L 133.375 300.84375 C 132.640625 298.777344 133.730469 296.507812 135.792969 295.78125 L 165.15625 285.371094 C 167.21875 284.636719 169.488281 285.730469 170.203125 287.792969 C 170.9375 289.859375 169.847656 292.128906 167.78125 292.84375 L 147.324219 300.101562 C 195.324219 321.375 251.535156 310.714844 288.550781 273.695312 C 338.15625 224.070312 338.15625 143.605469 288.550781 93.976562 C 257.785156 63.203125 213.085938 50 169.867188 60.03125 Z M 169.867188 60.03125 " fill-opacity="1" fill-rule="nonzero"/><path fill="#0cc0df" d="M 98.859375 66.910156 C 111.289062 66.910156 121.363281 76.980469 121.363281 89.414062 C 121.363281 97.234375 117.347656 104.222656 111.089844 108.292969 C 124.742188 109.007812 135.617188 120.371094 135.617188 134.109375 L 135.617188 156.007812 C 135.617188 158.203125 133.835938 159.984375 131.640625 159.984375 L 66.09375 159.984375 C 63.894531 159.984375 62.117188 158.203125 62.117188 156.007812 L 62.117188 134.109375 C 62.117188 120.363281 72.992188 109 86.644531 108.292969 C 74.644531 100.511719 72.804688 83.632812 82.953125 73.492188 C 87.035156 69.417969 92.65625 66.910156 98.859375 66.910156 Z M 109.160156 79.097656 C 100.011719 69.96875 84.292969 76.46875 84.292969 89.40625 C 84.292969 102.34375 100.003906 108.855469 109.160156 99.699219 C 114.855469 94.023438 114.855469 84.796875 109.160156 79.097656 Z M 109.753906 116.203125 L 87.964844 116.203125 C 78.125 116.203125 70.0625 124.265625 70.0625 134.109375 L 70.0625 152.035156 L 127.679688 152.035156 L 127.679688 134.109375 C 127.679688 124.265625 119.597656 116.203125 109.753906 116.203125 Z M 98.859375 46.097656 C 136.46875 46.097656 166.808594 76.878906 166.207031 114.550781 C 170.539062 112.503906 175.058594 110.871094 179.746094 109.695312 L 179.746094 102.625 C 179.746094 96.566406 184.695312 91.617188 190.753906 91.617188 L 206.675781 91.617188 C 212.746094 91.617188 217.703125 96.566406 217.703125 102.625 L 217.703125 109.695312 C 224.773438 111.492188 231.464844 114.273438 237.691406 117.980469 L 242.699219 112.976562 C 246.992188 108.703125 253.980469 108.703125 258.28125 112.976562 L 269.53125 124.246094 C 273.824219 128.539062 273.824219 135.53125 269.53125 139.828125 L 264.546875 144.816406 C 268.234375 151.0625 271.035156 157.753906 272.832031 164.824219 L 279.902344 164.824219 C 285.960938 164.824219 290.910156 169.773438 290.910156 175.851562 L 290.910156 191.753906 C 290.910156 197.824219 285.960938 202.78125 279.902344 202.78125 L 272.832031 202.78125 C 271.035156 209.851562 268.242188 216.542969 264.546875 222.789062 L 269.53125 227.773438 C 273.824219 232.066406 273.824219 239.058594 269.53125 243.359375 L 258.28125 254.628906 C 253.988281 258.902344 246.996094 258.902344 242.699219 254.628906 L 237.691406 249.621094 C 231.464844 253.332031 224.773438 256.113281 217.703125 257.910156 L 217.703125 264.980469 C 217.703125 271.039062 212.753906 275.988281 206.675781 275.988281 L 190.753906 275.988281 C 184.695312 275.988281 179.746094 271.039062 179.746094 264.980469 L 179.746094 257.910156 C 176.519531 257.082031 173.296875 256.039062 170.222656 254.796875 C 163.601562 260.179688 155.1875 263.402344 146.054688 263.402344 L 66.574219 263.402344 C 45.429688 263.402344 28.117188 246.097656 28.117188 224.945312 C 28.117188 203.777344 45.410156 186.46875 66.574219 186.46875 L 106.53125 186.46875 L 106.53125 180.375 C 66.503906 184.914062 31.519531 153.640625 31.519531 113.457031 C 31.511719 76.246094 61.660156 46.097656 98.859375 46.097656 Z M 165.402344 123.867188 C 161.199219 150.890625 140.914062 172.691406 114.476562 178.972656 L 114.476562 186.453125 L 146.054688 186.453125 C 146.75 186.453125 147.421875 186.476562 148.117188 186.507812 C 146.523438 157.503906 169.699219 133.109375 198.726562 133.109375 C 226.695312 133.109375 249.40625 155.796875 249.40625 183.789062 C 249.40625 217.953125 216.3125 242.214844 183.816406 232.21875 C 182.632812 238.3125 180.011719 243.902344 176.316406 248.605469 C 178.378906 249.320312 182.273438 250.476562 184.246094 250.8125 C 186.195312 251.078125 187.679688 252.746094 187.679688 254.75 L 187.679688 264.949219 C 187.679688 266.636719 189.066406 268.023438 190.753906 268.023438 L 206.675781 268.023438 C 208.363281 268.023438 209.75 266.636719 209.75 264.949219 L 209.75 254.75 L 209.769531 254.75 C 209.769531 252.910156 211.046875 251.261719 212.917969 250.867188 C 217.058594 250.007812 221.09375 248.75 224.9375 247.136719 C 228.78125 245.542969 232.4375 243.628906 235.871094 241.414062 C 237.425781 240.21875 239.660156 240.328125 241.082031 241.75 L 248.300781 248.96875 C 249.496094 250.164062 251.46875 250.164062 252.664062 248.96875 L 263.917969 237.71875 C 265.101562 236.53125 265.101562 234.546875 263.917969 233.363281 L 256.699219 226.148438 L 256.699219 226.128906 C 255.402344 224.832031 255.144531 222.773438 256.191406 221.179688 C 258.460938 217.675781 260.445312 213.945312 262.078125 210.007812 C 263.652344 206.21875 264.871094 202.304688 265.753906 198.234375 C 266.019531 196.304688 267.667969 194.820312 269.691406 194.820312 L 279.890625 194.820312 C 281.578125 194.820312 282.964844 193.414062 282.964844 191.726562 L 282.964844 175.824219 C 282.964844 174.140625 281.578125 172.730469 279.890625 172.730469 L 269.691406 172.730469 C 267.832031 172.730469 266.207031 171.433594 265.808594 169.582031 C 264.929688 165.421875 263.671875 161.40625 262.078125 157.542969 C 260.484375 153.699219 258.570312 150.0625 256.355469 146.628906 C 255.160156 145.074219 255.273438 142.824219 256.695312 141.398438 L 263.910156 134.179688 C 265.09375 132.996094 265.09375 131.011719 263.910156 129.828125 L 252.660156 118.578125 C 251.460938 117.378906 249.492188 117.378906 248.292969 118.578125 L 241.078125 125.792969 L 241.078125 125.773438 C 239.78125 127.070312 237.722656 127.328125 236.128906 126.296875 C 232.625 124.007812 228.894531 122.042969 224.9375 120.410156 C 221.167969 118.835938 217.230469 117.597656 213.183594 116.730469 C 211.253906 116.46875 209.75 114.800781 209.75 112.796875 L 209.75 102.597656 C 209.75 100.910156 208.363281 99.519531 206.675781 99.519531 L 190.753906 99.519531 C 189.066406 99.519531 187.679688 100.910156 187.679688 102.597656 L 187.679688 112.796875 C 187.679688 114.636719 186.382812 116.28125 184.511719 116.679688 C 177.835938 118.09375 171.347656 120.554688 165.402344 123.867188 Z M 140.882812 71.429688 C 117.671875 48.238281 80.054688 48.238281 56.84375 71.429688 C 33.65625 94.621094 33.65625 132.257812 56.84375 155.445312 C 80.054688 178.65625 117.671875 178.65625 140.882812 155.445312 C 164.070312 132.25 164.070312 94.621094 140.882812 71.429688 Z M 80.824219 236.214844 C 83 236.214844 84.777344 237.996094 84.777344 240.191406 C 84.777344 242.386719 83 244.164062 80.824219 244.164062 L 72.195312 244.164062 C 61.601562 244.164062 52.960938 235.5 52.960938 224.929688 C 52.960938 214.335938 61.605469 205.695312 72.195312 205.695312 L 80.824219 205.695312 C 83 205.695312 84.777344 207.476562 84.777344 209.652344 C 84.777344 211.847656 83 213.628906 80.824219 213.628906 L 72.195312 213.628906 C 62.296875 213.628906 57.050781 225.71875 64.226562 232.902344 C 66.269531 234.945312 69.101562 236.222656 72.195312 236.222656 L 80.824219 236.222656 Z M 130.714844 240.191406 C 130.714844 242.386719 128.9375 244.164062 126.738281 244.164062 C 124.5625 244.164062 122.785156 242.386719 122.785156 240.191406 L 122.785156 209.644531 C 122.785156 206.191406 127.058594 204.148438 129.757812 207.078125 L 141.210938 218.574219 L 152.894531 206.875 C 155.386719 204.359375 159.640625 206.160156 159.640625 209.652344 L 159.660156 209.652344 L 159.660156 240.195312 C 159.660156 242.394531 157.878906 244.171875 155.683594 244.171875 C 153.488281 244.171875 151.730469 242.394531 151.730469 240.195312 L 151.730469 219.25 L 144.011719 226.976562 C 142.476562 228.507812 139.960938 228.507812 138.421875 226.957031 L 130.714844 219.25 Z M 108.914062 228.058594 L 115.027344 238.148438 C 116.167969 240.003906 115.566406 242.441406 113.695312 243.5625 C 111.835938 244.707031 109.402344 244.105469 108.277344 242.234375 L 100.011719 228.582031 L 98.304688 228.582031 L 98.304688 240.191406 C 98.304688 242.386719 96.542969 244.164062 94.347656 244.164062 C 92.152344 244.164062 90.375 242.386719 90.375 240.191406 L 90.375 209.644531 C 90.375 207.46875 92.152344 205.691406 94.347656 205.691406 L 105.375 205.691406 C 115.78125 205.691406 121.277344 218.027344 113.664062 225.28125 C 112.339844 226.546875 110.714844 227.496094 108.914062 228.058594 Z M 98.296875 213.628906 L 98.296875 220.65625 L 105.367188 220.65625 C 108.78125 220.65625 110.539062 216.96875 108.199219 214.730469 C 107.484375 214.058594 106.492188 213.628906 105.367188 213.628906 Z M 156.160156 187.824219 C 172.359375 192.25 184.152344 206.964844 184.511719 224.144531 C 211.960938 233.820312 241.453125 213.535156 241.453125 183.796875 C 241.453125 160.1875 222.332031 141.046875 198.726562 141.046875 C 173.578125 141.046875 153.871094 162.570312 156.160156 187.824219 Z M 146.054688 194.40625 L 66.574219 194.40625 C 49.792969 194.40625 36.050781 208.148438 36.050781 224.929688 C 36.050781 241.710938 49.792969 255.457031 66.574219 255.457031 L 146.054688 255.457031 C 162.835938 255.457031 176.578125 241.710938 176.578125 224.929688 C 176.578125 208.148438 162.835938 194.40625 146.054688 194.40625 Z M 169.867188 60.027344 C 167.75 60.515625 165.613281 59.179688 165.125 57.042969 C 164.632812 54.90625 165.96875 52.789062 168.105469 52.300781 C 214.175781 41.691406 261.441406 55.601562 294.15625 88.335938 C 346.882812 141.058594 346.882812 226.519531 294.15625 279.242188 C 254.839844 318.558594 195.140625 329.882812 144.082031 307.234375 L 151.246094 327.480469 C 151.980469 329.546875 150.890625 331.8125 148.824219 332.542969 C 146.761719 333.253906 144.511719 332.183594 143.777344 330.121094 L 133.375 300.757812 C 132.640625 298.695312 133.730469 296.425781 135.792969 295.699219 L 165.15625 285.292969 C 167.21875 284.558594 169.488281 285.652344 170.203125 287.714844 C 170.9375 289.777344 169.847656 292.046875 167.78125 292.761719 L 147.324219 300.019531 C 195.324219 321.285156 251.535156 310.628906 288.550781 273.621094 C 338.15625 224.011719 338.15625 143.574219 288.550781 93.957031 C 257.785156 63.195312 213.085938 50 169.867188 60.027344 Z M 169.867188 60.027344 " fill-opacity="1" fill-rule="nonzero"/></g></svg>