<svg xmlns="http://www.w3.org/2000/svg" width="500" height="500" viewBox="0 0 375 375">
  <defs>
    <clipPath id="a">
      <path d="M195 73.195h102V258H195Zm0 0"/>
    </clipPath>
    <clipPath id="b">
      <path d="M287 215h49v86.945h-49Zm0 0"/>
    </clipPath>
    <clipPath id="c">
      <path d="M286 215h50v86.945h-50Zm0 0"/>
    </clipPath>
    <clipPath id="d">
      <path d="M254 212h42v89.945h-42Zm0 0"/>
    </clipPath>
    <clipPath id="e">
      <path d="M285 301h74.004v.945H285Zm0 0"/>
    </clipPath>
    <clipPath id="f">
      <path d="M16.254 73.195H67V97H16.254Zm0 0"/>
    </clipPath>
    <clipPath id="g">
      <path d="M195 73.195h102V258H195Zm0 0"/>
    </clipPath>
    <clipPath id="h">
      <path d="M287 215h49v86.945h-49Zm0 0"/>
    </clipPath>
    <clipPath id="i">
      <path d="M286 215h50v86.945h-50Zm0 0"/>
    </clipPath>
    <clipPath id="j">
      <path d="M254 212h42v89.945h-42Zm0 0"/>
    </clipPath>
    <clipPath id="k">
      <path d="M285 301h74.004v.945H285Zm0 0"/>
    </clipPath>
    <clipPath id="l">
      <path d="M16.254 73.195H67V97H16.254Zm0 0"/>
    </clipPath>
  </defs>
  <g clip-path="url(#a)">
    <path fill="#fff" d="M205.516 257.223h81.09c5.43 0 9.87-4.446 9.87-9.871V83.414c0-5.43-4.44-9.871-9.87-9.871h-81.09c-5.43 0-9.871 4.441-9.871 9.871v163.938c0 5.425 4.44 9.87 9.87 9.87"/>
    <path d="M205.516 73.816c-5.293 0-9.598 4.309-9.598 9.598v163.938c0 5.289 4.305 9.593 9.598 9.593h81.09c5.289 0 9.597-4.304 9.597-9.593V83.414c0-5.289-4.308-9.598-9.598-9.598Zm81.09 183.68h-81.09c-5.598 0-10.149-4.55-10.149-10.144V83.414c0-5.594 4.551-10.148 10.149-10.148h81.09c5.593 0 10.148 4.554 10.148 10.148v163.938c0 5.593-4.555 10.144-10.149 10.144"/>
  </g>
  <path fill="#fff" d="M208.07 251.39h75.98c4.114 0 7.481-3.367 7.481-7.48V86.348c0-4.114-3.367-7.48-7.48-7.48h-75.98c-4.114 0-7.481 3.366-7.481 7.48V243.91c0 4.113 3.367 7.48 7.48 7.48"/>
  <path d="M208.07 79.14c-3.972 0-7.207 3.235-7.207 7.208V243.91c0 3.973 3.235 7.203 7.207 7.203h75.98a7.21 7.21 0 0 0 7.204-7.203V86.348c0-3.973-3.23-7.207-7.203-7.207Zm75.98 172.524h-75.98c-4.277 0-7.754-3.476-7.754-7.754V86.348c0-4.278 3.477-7.758 7.754-7.758h75.98c4.274 0 7.755 3.48 7.755 7.758V243.91c0 4.278-3.48 7.754-7.754 7.754"/>
  <path d="M255.508 84.34h-20.04a.275.275 0 0 1-.273-.278c0-.152.121-.273.274-.273h20.039a.275.275 0 1 1 0 .55"/>
  <path fill="#fff" d="M283.426 161.922h-74.73v-41.297h74.73z"/>
  <path d="M208.969 161.645h74.18v-40.743h-74.18Zm74.457.55h-74.73a.275.275 0 0 1-.278-.273v-41.297c0-.148.125-.273.277-.273h74.73c.153 0 .274.125.274.273v41.297a.27.27 0 0 1-.273.273"/>
  <path fill="#e2eaff" d="M283.426 238.895h-74.73v-69.31h74.73z"/>
  <path d="M221.648 91.75c-5.199 0-9.43 4.227-9.43 9.426 0 5.195 4.231 9.426 9.43 9.426h52.059c5.2 0 9.426-4.23 9.426-9.426s-4.227-9.426-9.426-9.426Zm52.059 19.402h-52.059c-5.503 0-9.98-4.476-9.98-9.976s4.477-9.977 9.98-9.977h52.059c5.504 0 9.977 4.477 9.977 9.977s-4.473 9.976-9.977 9.976"/>
  <path d="M221.465 96.422a3.62 3.62 0 0 0-3.617 3.617 3.62 3.62 0 0 0 3.617 3.613 3.62 3.62 0 0 0 3.617-3.613 3.62 3.62 0 0 0-3.617-3.617m0 7.781a4.17 4.17 0 0 1-4.164-4.164 4.17 4.17 0 0 1 4.164-4.168 4.174 4.174 0 0 1 4.168 4.168 4.17 4.17 0 0 1-4.168 4.164"/>
  <path d="M227.848 106.602a.3.3 0 0 1-.196-.079l-3.582-3.582a.274.274 0 0 1 0-.39.27.27 0 0 1 .387 0l3.586 3.582a.28.28 0 0 1 0 .39.3.3 0 0 1-.195.079"/>
  <path fill="#e2eaff" d="M254.352 101.176a3.48 3.48 0 0 1 3.48-3.477 3.474 3.474 0 1 1 0 6.95 3.477 3.477 0 0 1-3.48-3.473M244.2 101.176a3.474 3.474 0 0 1 3.476-3.477 3.48 3.48 0 0 1 3.48 3.477 3.477 3.477 0 0 1-3.48 3.472 3.473 3.473 0 0 1-3.477-3.472M234.043 101.176a3.48 3.48 0 0 1 3.48-3.477 3.48 3.48 0 0 1 3.48 3.477 3.477 3.477 0 0 1-3.48 3.472 3.477 3.477 0 0 1-3.48-3.472"/>
  <path fill="#fff" d="M93.387 201.707c0-18.164 14.73-32.883 32.898-32.883s32.899 14.719 32.899 32.883c0 18.16-14.73 32.883-32.899 32.883-18.168 0-32.898-14.723-32.898-32.883m-20.57 0c0 5.777 4.687 10.465 10.468 10.465.434 0 .856-.035 1.274-.086a42.7 42.7 0 0 0 4.875 11.77 11 11 0 0 0-.957.84c-4.09 4.085-4.09 10.71 0 14.8 4.09 4.086 10.718 4.086 14.808 0 .305-.305.578-.629.84-.96a42.5 42.5 0 0 0 11.773 4.874c-.05.418-.082.84-.082 1.27 0 5.78 4.688 10.468 10.47 10.468 5.78 0 10.472-4.687 10.472-10.468 0-.43-.035-.852-.086-1.27a42.5 42.5 0 0 0 11.773-4.875c.262.332.535.656.84.961 4.09 4.086 10.719 4.086 14.809 0 4.09-4.09 4.09-10.715 0-14.8a10 10 0 0 0-.957-.84 42.7 42.7 0 0 0 4.875-11.77c.418.05.84.086 1.273.086 5.781 0 10.469-4.688 10.469-10.465 0-5.781-4.688-10.469-10.469-10.469-.433 0-.855.035-1.273.086-1.043-4.199-2.7-8.16-4.875-11.77a11 11 0 0 0 .957-.835c4.09-4.09 4.09-10.715 0-14.801-4.09-4.09-10.719-4.09-14.809 0-.305.305-.578.625-.84.957A42.6 42.6 0 0 0 136.672 160c.05-.418.086-.84.086-1.27 0-5.78-4.692-10.464-10.473-10.464s-10.469 4.683-10.469 10.464c0 .43.032.852.082 1.27a42.6 42.6 0 0 0-11.773 4.875 11 11 0 0 0-.84-.957c-4.09-4.09-10.719-4.09-14.808 0-4.09 4.086-4.09 10.71 0 14.8.304.302.628.579.957.837a42.8 42.8 0 0 0-4.875 11.77c-.418-.052-.84-.087-1.274-.087-5.781 0-10.469 4.688-10.469 10.469"/>
  <path d="M126.285 169.098c-17.988 0-32.625 14.629-32.625 32.609 0 17.977 14.637 32.606 32.625 32.606s32.625-14.63 32.625-32.606c0-17.98-14.637-32.61-32.625-32.61m0 65.765c-18.293 0-33.176-14.875-33.176-33.156 0-18.285 14.883-33.16 33.176-33.16s33.176 14.875 33.176 33.16c0 18.281-14.883 33.156-33.176 33.156m-22.16 3.399c.047 0 .098.011.14.039a42.4 42.4 0 0 0 11.7 4.844c.137.03.222.16.207.3-.055.457-.082.864-.082 1.235 0 5.62 4.574 10.191 10.195 10.191s10.195-4.57 10.195-10.191c0-.371-.027-.778-.082-1.235a.276.276 0 0 1 .207-.3 42.4 42.4 0 0 0 11.7-4.844.28.28 0 0 1 .36.066c.28.36.55.668.815.934 3.977 3.972 10.442 3.972 14.418 0a10.13 10.13 0 0 0 2.989-7.207c0-2.723-1.063-5.281-2.989-7.207a10 10 0 0 0-.933-.813.28.28 0 0 1-.067-.36 42.4 42.4 0 0 0 4.848-11.694.28.28 0 0 1 .3-.208c.458.06.864.083 1.24.083 5.62 0 10.194-4.57 10.194-10.188 0-5.621-4.574-10.191-10.195-10.191-.375 0-.781.027-1.238.082a.28.28 0 0 1-.3-.207 42.4 42.4 0 0 0-4.849-11.696.28.28 0 0 1 .067-.36c.363-.28.668-.546.933-.812a10.13 10.13 0 0 0 2.989-7.207c0-2.722-1.063-5.28-2.989-7.207-3.976-3.972-10.441-3.972-14.418 0-.265.27-.535.575-.816.934a.28.28 0 0 1-.36.066 42.4 42.4 0 0 0-11.699-4.843.276.276 0 0 1-.207-.301c.055-.457.082-.86.082-1.235 0-5.62-4.574-10.19-10.195-10.19-5.62 0-10.195 4.57-10.195 10.19 0 .375.027.778.082 1.235.016.14-.07.27-.207.3a42.4 42.4 0 0 0-11.7 4.844.28.28 0 0 1-.359-.066c-.281-.36-.55-.664-.816-.934-3.977-3.972-10.442-3.972-14.418 0a10.13 10.13 0 0 0-2.988 7.207c0 2.723 1.062 5.282 2.988 7.207.266.266.57.532.933.817.11.086.137.238.067.355a42.4 42.4 0 0 0-4.848 11.696.275.275 0 0 1-.3.207 10 10 0 0 0-1.239-.082c-5.62 0-10.195 4.57-10.195 10.191 0 5.617 4.574 10.188 10.195 10.188.375 0 .781-.024 1.238-.083a.28.28 0 0 1 .301.208 42.4 42.4 0 0 0 4.848 11.695.28.28 0 0 1-.067.36c-.363.28-.668.55-.933.812a10.13 10.13 0 0 0-2.988 7.207c0 2.722 1.062 5.281 2.988 7.207 3.976 3.972 10.441 3.972 14.418 0 .265-.266.535-.574.816-.934a.28.28 0 0 1 .219-.105m22.16 17.16c-5.926 0-10.746-4.817-10.746-10.742 0-.328.02-.676.059-1.059a43.2 43.2 0 0 1-11.41-4.723c-.243.297-.473.555-.708.79-4.19 4.19-11.007 4.19-15.199 0a10.68 10.68 0 0 1-3.148-7.594 10.68 10.68 0 0 1 3.941-8.305 43 43 0 0 1-4.726-11.402c-.383.039-.73.058-1.063.058-5.926 0-10.746-4.816-10.746-10.738s4.82-10.742 10.746-10.742c.332 0 .68.02 1.063.058a43 43 0 0 1 4.726-11.402 10.67 10.67 0 0 1-3.941-8.305 10.67 10.67 0 0 1 3.148-7.593c4.192-4.188 11.008-4.188 15.2 0 .234.23.464.492.707.793a43 43 0 0 1 11.41-4.723c-.04-.387-.059-.734-.059-1.063 0-5.925 4.82-10.742 10.746-10.742s10.746 4.817 10.746 10.742c0 .329-.02.676-.058 1.063a43 43 0 0 1 11.41 4.723q.362-.45.707-.793c4.191-4.188 11.008-4.188 15.2 0a10.67 10.67 0 0 1 3.148 7.593 10.67 10.67 0 0 1-3.942 8.305 42.9 42.9 0 0 1 4.727 11.402c.382-.039.73-.058 1.062-.058 5.922 0 10.746 4.82 10.746 10.742s-4.824 10.738-10.746 10.738c-.332 0-.68-.02-1.062-.058a43 43 0 0 1-4.727 11.402q.444.361.793.711a10.68 10.68 0 0 1 3.149 7.594c0 2.867-1.122 5.566-3.149 7.594-4.191 4.19-11.008 4.19-15.2 0-.23-.235-.464-.493-.706-.79a43.2 43.2 0 0 1-11.41 4.723c.039.383.058.73.058 1.059 0 5.925-4.82 10.742-10.746 10.742M116.824 106.586c-.515-1.547-1.562-2.961-3.031-3.664s-3.363-.586-4.582.496c-.836.746-1.285 1.848-1.477 2.953-.293 1.73.008 3.594 1.012 5.04 1 1.444 2.73 2.41 4.484 2.304 3.977-.235 4.618-4.047 3.594-7.13"/>
  <path d="M142.7 124.508c-.259-1.703-.512-3.469-.067-5.133.383-1.441 1.285-2.758 1.328-4.25.047-1.617-.969-3.129-2.29-4.05-1.316-.927-2.91-1.36-4.48-1.696a48 48 0 0 0-11.214-1.055c-2.965.07-6.094.48-8.442 2.309-2.328 1.816-3.512 4.726-4.43 7.547-2.707 8.3-3.988 16.992-5.261 25.636-.211 1.422-.41 2.926.136 4.25.774 1.875 2.793 2.852 4.688 3.536 8 2.886 16.672 3.418 25.156 2.894 2.063-.129 4.211-.344 5.969-1.45 4.098-2.573 1.95-8.464 1.367-12.308z"/>
  <path fill="#fff" d="M196.957 132.484c1.48 2.586 3.184 5.04 5.188 7.25 1.05 1.164 2.167 2.274 3.39 3.258 1.2.969 2.48 1.828 3.8 2.617.364.215.727.422 1.09.63 6.645-12.59 10.38-25.153 10.38-25.153 5.289-3.816 2.226-5.813 2.226-5.813.828-3.3-1.847-3.597-1.847-3.597-.79-3.98-4.329-2.336-4.329-2.336 2.895-4.25 4.317-11.207-4.105-2.508-4.977 5.14-11.363 14.684-17.105 23.195q.626 1.244 1.312 2.457"/>
  <path d="M210.953 145.508c-.023 0-.047 0-.07-.008a.28.28 0 0 1-.2-.336c.122-.476.356-.8.606-1.144q.11-.147.227-.32c3.847-8.243 6.812-15.688 9.07-22.759a.3.3 0 0 1 .101-.14c1.157-.824 2.247-1.602 2.715-2.848.211-.64.43-1.824-.558-2.484a.276.276 0 0 1-.106-.324c.465-1.239-.21-2.711-1.504-3.29-.418-.136-.504-.578-.582-.968-.047-.223-.09-.457-.199-.617-.992-1.325-2.45-1.098-3.496-.672h-.008c-.015.007-.035.011-.05.015 0 0 .003 0 0 0h-.004a.3.3 0 0 1-.125-.011h-.004c-.004 0 0 0 0 0s.004.003 0 0h-.004s.004 0 0 0c0 0-.004 0 0 0 0 0 .004 0 0 0q-.002.001-.004-.004a.4.4 0 0 1-.059-.028s.004 0 0-.004c0 0 0 .004 0 0h-.004l-.004-.004s.004.004 0 0c-.007-.007-.02-.011-.027-.019.004 0 0 0 0 0v-.004s-.004 0 0 0h-.004q-.005-.01-.015-.02a.2.2 0 0 1-.047-.082h-.004v-.003a.4.4 0 0 1-.016-.094.3.3 0 0 1 .047-.149l.25-.39c1.137-1.778 2.422-3.79 1.754-5.79-.094-.05-.285-.058-.387-.058-1.531.43-2.715 1.484-3.863 2.5l-.457.41c-5.777 5.914-10.098 12.403-14.672 19.274a692 692 0 0 1-2.633 3.941.276.276 0 0 1-.383.074.273.273 0 0 1-.074-.382c.887-1.313 1.762-2.63 2.633-3.938 4.586-6.894 8.922-13.402 14.75-19.371.168-.148.32-.281.473-.418 1.199-1.07 2.445-2.176 4.117-2.629a.2.2 0 0 1 .07-.012c.2 0 .61 0 .856.246q.043.049.066.102c.75 2.105-.418 4.184-1.512 5.914a.6.6 0 0 1-.066.164c1.387-.324 2.558.063 3.355 1.125.176.262.239.563.29.828.062.32.109.52.242.563 1.511.672 2.316 2.332 1.89 3.793.801.648 1.02 1.73.598 3-.52 1.383-1.692 2.242-2.84 3.058-2.262 7.075-5.23 14.52-9.078 22.758a.2.2 0 0 1-.02.035 6 6 0 0 1-.25.356c-.234.324-.422.578-.515.957a.275.275 0 0 1-.266.207"/>
  <path d="M209.934 123.785q-.186.002-.38-.031a.28.28 0 0 1-.222-.32.275.275 0 0 1 .32-.223c.895.16 1.711-.488 2.137-1.09.414-.59.652-1.27.906-1.992q.093-.274.192-.543c.304-.828.77-1.852 1.652-2.461.418-.29.89-.46 1.348-.621.203-.074.406-.145.601-.227.5-.21 1.133-.59 1.293-1.195.207-.773-.511-1.586-1.289-1.797-.851-.23-1.781.016-2.66.317-2.437.84-4.469 1.976-6.031 3.375a.277.277 0 0 1-.39-.02.277.277 0 0 1 .023-.39c1.617-1.45 3.71-2.622 6.222-3.485.961-.332 1.989-.598 2.98-.328 1.032.277 1.97 1.363 1.677 2.469-.22.824-.997 1.304-1.61 1.562q-.317.128-.629.238c-.445.157-.863.305-1.222.555-.758.52-1.172 1.45-1.45 2.2q-.093.261-.187.53c-.254.727-.516 1.481-.977 2.13-.46.656-1.316 1.347-2.304 1.347"/>
  <path d="M215.89 118.89q-.104 0-.214-.011c-.66-.078-1.332-.649-1.27-1.375a.276.276 0 0 1 .297-.254.28.28 0 0 1 .254.3c-.035.391.387.735.785.782.39.043.824-.09 1.375-.422 1.93-1.172 3.219-3.305 3.36-5.558a.27.27 0 0 1 .289-.258c.152.011.27.14.257.293-.148 2.43-1.539 4.73-3.62 5.992-.372.226-.915.512-1.512.512"/>
  <path d="M218.473 119.355q-.155 0-.297-.023c-.594-.098-1.074-.523-1.172-1.043a.28.28 0 0 1 .223-.32.273.273 0 0 1 .32.222c.062.325.406.547.715.598.316.05.68-.016 1.14-.215a5.48 5.48 0 0 0 2.887-2.926.274.274 0 0 1 .36-.148c.14.055.206.219.148.36a6.03 6.03 0 0 1-3.18 3.222c-.43.184-.8.273-1.144.273"/>
  <path d="M220.422 120.684a1.45 1.45 0 0 1-.89-.301 1.47 1.47 0 0 1-.532-1.41.275.275 0 1 1 .54.105.93.93 0 0 0 .331.871.91.91 0 0 0 .926.102.277.277 0 0 1 .234.5c-.187.09-.398.133-.61.133"/>
  <path fill="#5479f7" d="M57.082 172.785s10.922 20.684 27.543 20.2c16.625-.481 23.781-15.317 23.781-15.317s-4.922 15.078.512 19.11c5.434 4.03 44.605 7.925 47.328-4.434 1.941-8.836.336-14.696 1.336-21.719 0 0 27.137 3.309 40.727-7.055 8.613-6.57 14.867-22.355 14.867-22.355s-5.559-11.86-16.79-12.293l-6.12 8.59a18.64 18.64 0 0 1-14.73 7.812l-65.876 1.586c-6.82.16-13.176 3.574-17 9.227-4.2 6.207-10.969 13.203-19.777 12.222z"/>
  <path d="M157.352 169.785a.277.277 0 0 1-.278-.27 23.2 23.2 0 0 1 1.98-9.535.28.28 0 0 1 .364-.14c.14.062.203.226.14.363a22.6 22.6 0 0 0-1.933 9.305.275.275 0 0 1-.273.277M125.422 177.934c-.996 0-1.992-.145-2.945-.43a10.4 10.4 0 0 1-5.985-4.762.28.28 0 0 1 .102-.375.275.275 0 0 1 .375.106 9.87 9.87 0 0 0 5.664 4.504c2.37.71 5 .48 7.21-.637a.27.27 0 0 1 .368.12.27.27 0 0 1-.121.368 10.36 10.36 0 0 1-4.668 1.106M146.215 175.73a.28.28 0 0 1-.274-.234.28.28 0 0 1 .23-.316c3.497-.543 6.509-3.598 7.005-7.102.308-2.21-.352-4.543-1.82-6.402a.274.274 0 0 1 .046-.387.274.274 0 0 1 .387.047c1.559 1.976 2.262 4.46 1.93 6.82-.528 3.735-3.735 6.989-7.461 7.57-.016 0-.028.004-.043.004M108.617 176.207q-.019-.002-.031-.004a.273.273 0 0 1-.242-.305c.195-1.601.398-3.257.043-4.843-.297-1.34-1.18-2.97-2.77-3.52a.277.277 0 0 1-.168-.351.274.274 0 0 1 .352-.168c1.508.523 2.703 2.023 3.125 3.922.37 1.675.156 3.457-.035 5.027a.28.28 0 0 1-.274.242M81.719 177.668H56.28a1.43 1.43 0 0 1-1.281-.797L37.535 141.81c-.476-.95.219-2.07 1.281-2.07h25.438c.543 0 1.039.308 1.281.792L83 175.598c.477.949-.219 2.07-1.281 2.07"/>
  <path fill="#fff" d="M53.516 156.781c-.59-.246-1.184.32-1.543.848a13.8 13.8 0 0 0-2.04 4.762q.442-4.746.876-9.493c.097-1.02-.047-2.378-1.051-2.574-.778-.152-1.43.57-1.832 1.25a12.9 12.9 0 0 0-1.64 4.543l1.124-6.558c.09-.504.172-1.051-.058-1.512-.489-.98-2.09-.8-2.758.07-.102.13-.184.27-.258.414q.057-.222.098-.445c.199-1.07-.125-2.453-1.184-2.703-.656-.153-1.352.234-1.742.785-.395.547-.543 1.23-.649 1.898-.453 2.895-.21 5.891.68 8.684 1.633 6.547 6.176 12.484 11.633 16.457-1.367-4.867.8-9.91.941-14.965.016-.562-.078-1.246-.597-1.46"/>
  <path d="M42.953 145.625c-.496 0-.965.34-1.223.703-.359.5-.5 1.152-.597 1.781-.446 2.832-.211 5.79.668 8.555 1.48 5.945 5.445 11.684 10.922 15.863-.61-2.906-.086-5.89.422-8.785.316-1.804.64-3.672.69-5.508.017-.46-.05-1.043-.425-1.199-.402-.168-.89.278-1.207.746a13.7 13.7 0 0 0-2 4.668.275.275 0 0 1-.543-.082l.875-9.492c.031-.348.145-2.09-.832-2.281-.71-.14-1.316.738-1.543 1.12a12.8 12.8 0 0 0-1.547 4.122l-.054.328a.28.28 0 0 1-.317.227.28.28 0 0 1-.226-.317q.024-.166.054-.332l1.07-6.23c.09-.516.15-.973-.035-1.34-.195-.39-.593-.484-.812-.508-.555-.05-1.16.203-1.48.621-.083.11-.16.23-.231.371a.27.27 0 0 1-.34.133.27.27 0 0 1-.172-.324q.053-.211.094-.43c.16-.86-.039-2.164-.977-2.383a1 1 0 0 0-.234-.027m10.219 27.855a.27.27 0 0 1-.16-.05c-5.899-4.29-10.176-10.348-11.742-16.614a19.35 19.35 0 0 1-.68-8.793c.105-.695.265-1.418.691-2.015.418-.582 1.207-1.086 2.032-.89 1 .234 1.48 1.343 1.453 2.448a2.33 2.33 0 0 1 1.582-.449c.574.055 1.02.344 1.25.809.277.558.168 1.207.086 1.68l-.461 2.687q.217-.44.465-.856c.617-1.042 1.37-1.53 2.12-1.382.95.183 1.426 1.257 1.278 2.867l-.645 6.969c.356-.848.797-1.66 1.305-2.414.57-.848 1.274-1.2 1.875-.95.367.153.797.575.766 1.723-.051 1.875-.383 3.762-.7 5.59-.566 3.222-1.097 6.27-.25 9.293a.28.28 0 0 1-.105.3.3.3 0 0 1-.16.047"/>
  <path d="M43.016 157.031a.28.28 0 0 1-.274-.242 15.5 15.5 0 0 1 1.113-7.816.276.276 0 0 1 .508.215 14.9 14.9 0 0 0-1.074 7.535.273.273 0 0 1-.242.304q-.013.005-.031.004M46.395 161.582a.276.276 0 0 1-.27-.227 15 15 0 0 1-.145-4.636.274.274 0 0 1 .31-.239.27.27 0 0 1 .237.305 14.7 14.7 0 0 0 .137 4.469.276.276 0 0 1-.219.324c-.015.004-.035.004-.05.004"/>
  <path fill="#fff" d="m125.605 130.73-1.921 13.903a1.71 1.71 0 0 1-1.41 1.445l-4.297.692s11.566 10.183 23.136-.458l-4.445-.503a1.774 1.774 0 0 1-1.57-1.793l.191-11.45s-1-7.582-9.684-1.836"/>
  <path fill="#fff" d="M122.586 127.113c-.8.621-1.16 1.723-.984 2.719.175 1 .847 1.875 1.718 2.395s1.918.699 2.93.605c.555-.05 1.137-.18 1.66.016.406.148.719.468 1.047.754 1.547 1.34 3.723 1.941 5.727 1.523 2-.418 3.773-1.871 4.515-3.777.613-1.575.528-3.332.258-5-.516-3.192-1.672-6.246-3.004-9.196-2.312.54-4.738.578-7.066.11a8.17 8.17 0 0 1-.176 5.656 8.15 8.15 0 0 1-2.684 3.43c-.238.18-.609.523-.906.586-.367.078-.598-.168-.976-.262a2.46 2.46 0 0 0-2.06.441"/>
  <path d="M122.586 127.113h.004Zm4.676 5.356c.25 0 .5.031.742.12.387.141.687.407.973.665q.082.07.16.14c1.5 1.293 3.601 1.856 5.488 1.461 1.926-.402 3.621-1.82 4.316-3.609.653-1.676.454-3.574.246-4.855-.546-3.375-1.816-6.52-2.89-8.918a17.1 17.1 0 0 1-6.516.14 8.48 8.48 0 0 1-.316 5.41 8.36 8.36 0 0 1-2.774 3.547 3 3 0 0 0-.16.13c-.25.195-.558.44-.851.503-.325.067-.567-.043-.782-.14-.105-.047-.207-.094-.32-.122a2.18 2.18 0 0 0-1.82.387c-.695.54-1.051 1.527-.887 2.457.156.88.75 1.703 1.59 2.207.77.461 1.75.66 2.762.567q.157-.013.316-.032c.238-.03.48-.058.723-.058m6.148 3.058a7.16 7.16 0 0 1-4.633-1.718c-.054-.047-.109-.098-.164-.145-.261-.234-.508-.453-.797-.559-.363-.132-.777-.085-1.214-.03q-.165.016-.329.034c-1.125.102-2.226-.125-3.093-.644-.977-.582-1.668-1.55-1.848-2.586-.2-1.121.234-2.32 1.086-2.984a2.74 2.74 0 0 1 2.293-.489c.16.04.297.102.414.156.195.086.3.13.441.102.164-.035.43-.246.621-.398.063-.051.126-.098.176-.137a7.8 7.8 0 0 0 2.59-3.317 7.88 7.88 0 0 0 .172-5.464.27.27 0 0 1 .055-.27.27.27 0 0 1 .261-.086c2.282.457 4.684.422 6.95-.11a.286.286 0 0 1 .316.157c1.106 2.457 2.453 5.727 3.023 9.266.22 1.343.426 3.34-.277 5.14-.762 1.961-2.61 3.508-4.715 3.946a6.3 6.3 0 0 1-1.328.136"/>
  <path d="M126.195 131.445a.28.28 0 0 1-.234-.132 2.2 2.2 0 0 0-1.77-1.036.275.275 0 1 1 .02-.55 2.73 2.73 0 0 1 2.219 1.3.273.273 0 0 1-.235.418"/>
  <path fill="#fff" d="M126.285 234.59c9.57 0 18.188-4.09 24.2-10.61l-.61-26.792a7.24 7.24 0 0 0-6.984-4.844l-26.164.543a7.24 7.24 0 0 0-6.688 4.867c-.707 2.043-5.148 12.496-9.937 23.86 6.011 7.882 15.5 12.976 26.183 12.976"/>
  <path d="M100.102 221.887a.3.3 0 0 1-.11-.02.276.276 0 0 1-.144-.36l2.289-5.429c3.785-8.969 7.05-16.71 7.64-18.414a.274.274 0 0 1 .352-.168.27.27 0 0 1 .172.348c-.598 1.722-3.871 9.472-7.656 18.449l-2.29 5.426a.28.28 0 0 1-.253.168M150.484 224.254a.27.27 0 0 1-.273-.266l-.613-26.793a.275.275 0 0 1 .27-.28h.007c.148 0 .27.116.273.269l.61 26.789a.27.27 0 0 1-.266.28zM125.66 234.723q-.034.001-.062-.004a.28.28 0 0 1-.207-.328l3.062-13.782a8.02 8.02 0 0 1 4.379-5.515l3.594-1.727a.275.275 0 1 1 .238.496l-3.594 1.727a7.46 7.46 0 0 0-4.078 5.137l-3.066 13.78a.27.27 0 0 1-.266.216"/>
  <path d="M126.285 234.863c-18.293 0-33.176-14.875-33.176-33.156a.275.275 0 1 1 .55 0c.001 17.977 14.638 32.606 32.626 32.606s32.625-14.63 32.625-32.606a.275.275 0 1 1 .55 0c0 18.281-14.882 33.156-33.175 33.156"/>
  <path fill="#fff" d="M127.887 108.371s-5.672 5.04-4.551 14.45l-2.652.574s-2.34-16.04 7.203-15.024"/>
  <path d="M127.05 108.598c-1.546 0-2.827.52-3.816 1.543-3.25 3.379-2.507 11.296-2.316 12.921l2.117-.46c-.828-7.743 2.934-12.579 4.238-14q-.111-.002-.222-.004m-6.366 15.074a.3.3 0 0 1-.157-.05.28.28 0 0 1-.117-.188c-.055-.395-1.367-9.727 2.43-13.676 1.273-1.324 2.984-1.883 5.078-1.66.105.007.2.086.23.187a.27.27 0 0 1-.078.29c-.054.05-5.55 5.066-4.46 14.21a.27.27 0 0 1-.215.3l-2.653.58a.3.3 0 0 1-.058.007"/>
  <path fill="#5479f7" d="M126.828 135.148c-.898 0-1.766-.41-2.297-1.16a2 2 0 0 1-.129-.195.2.2 0 0 1-.027-.066l-1.746-5.97a.275.275 0 0 1 .187-.339c.149-.043.301.039.344.187l1.73 5.93q.043.073.09.133c.625.879 1.825 1.176 2.86.71l5.25-2.37c.14-.063.305 0 .367.14.063.137 0 .301-.14.364l-5.25 2.37c-.403.18-.825.266-1.239.266"/>
  <path fill="#5479f7" d="M135.41 131.484c.227.649-.574 1.52-1.793 1.95s-2.39.25-2.617-.399c-.23-.648.574-1.523 1.793-1.95 1.215-.429 2.387-.253 2.617.4"/>
  <path fill="#fff" d="M128.434 129.297a5.777 5.777 0 0 1-7.157 3.933c-3.058-.89-4.812-4.097-3.922-7.16.895-3.066 4.098-4.828 7.157-3.937 3.058.89 4.812 4.097 3.922 7.164"/>
  <path d="M122.89 122.176c-.91 0-1.816.23-2.636.683a5.47 5.47 0 0 0-2.633 3.286c-.848 2.914.824 5.972 3.734 6.82 1.41.41 2.895.246 4.18-.461a5.47 5.47 0 0 0 2.633-3.285c.848-2.914-.824-5.973-3.734-6.82a5.5 5.5 0 0 0-1.543-.223m.008 11.562a6 6 0 0 1-1.699-.246c-3.199-.93-5.039-4.297-4.11-7.5a6 6 0 0 1 2.9-3.613 5.98 5.98 0 0 1 4.597-.508c3.203.93 5.043 4.297 4.11 7.5a5.99 5.99 0 0 1-2.895 3.613 6 6 0 0 1-2.903.754"/>
  <path fill="#5479f7" d="M126.805 128.82a4.074 4.074 0 0 1-5.051 2.778 4.075 4.075 0 0 1-2.77-5.055 4.074 4.074 0 0 1 5.051-2.777 4.075 4.075 0 0 1 2.77 5.054"/>
  <path d="M58.652 133.566a.272.272 0 0 1-.191-.469l15.984-15.874a.28.28 0 0 1 .39 0 .277.277 0 0 1-.003.39l-15.984 15.875a.3.3 0 0 1-.196.078M74.64 133.566a.26.26 0 0 1-.19-.078.27.27 0 0 1-.009-.386l19.61-20.375a.27.27 0 0 1 .386-.008c.11.105.114.281.008.39l-19.61 20.371a.26.26 0 0 1-.194.086M78.688 150.402a.28.28 0 0 1-.192-.078.277.277 0 0 1-.004-.39l10.016-10.254a.277.277 0 0 1 .39-.008c.11.11.11.281.004.39L78.887 150.32a.28.28 0 0 1-.2.082"/>
  <g clip-path="url(#b)">
    <path fill="#fff" d="M306.04 217.652s5.831 22.524 9.577 31.137c2.863 6.578 13.621 22.852 18.54 30.164a5.61 5.61 0 0 1-.532 6.926l-9.762 10.582a15.92 15.92 0 0 1-11.699 5.133h-2.738c-1.32 0-2.137-1.446-1.465-2.59l2.797-4.754s-19.438-34.098-22.086-41.875c-2.649-7.777-.871-37.055-.871-37.055z"/>
  </g>
  <g clip-path="url(#c)">
    <path d="M288.059 215.629c-.176 3.09-1.59 29.437.87 36.656 2.614 7.664 21.876 41.488 22.071 41.828a.28.28 0 0 1-.004.278l-2.8 4.754c-.266.453-.27.996-.009 1.453.258.453.723.722 1.239.722h2.738c4.348 0 8.54-1.84 11.496-5.047l9.766-10.582a5.31 5.31 0 0 0 .5-6.586c-4.613-6.863-15.664-23.546-18.563-30.207-3.535-8.125-8.98-28.84-9.543-30.996Zm24.105 86.242h-2.738a1.96 1.96 0 0 1-1.715-1 1.98 1.98 0 0 1 .012-2.004l2.718-4.617c-1.359-2.39-19.488-34.324-22.03-41.785-2.638-7.738-.958-35.965-.888-37.16a.283.283 0 0 1 .313-.258l18.238 2.332a.28.28 0 0 1 .235.203c.054.227 5.867 22.606 9.558 31.098 2.883 6.617 13.91 23.27 18.52 30.12a5.86 5.86 0 0 1-.559 7.262l-9.762 10.586a16.26 16.26 0 0 1-11.902 5.223"/>
  </g>
  <path d="M312.453 293.574a.29.29 0 0 1-.242-.137.28.28 0 0 1 .101-.378 78.6 78.6 0 0 0 19.446-15.973.28.28 0 0 1 .39-.027.28.28 0 0 1 .024.39 79.2 79.2 0 0 1-19.582 16.086.25.25 0 0 1-.137.04M303.535 280.184a.274.274 0 0 1-.098-.531 59 59 0 0 0 21.633-14.54.277.277 0 0 1 .39-.011c.11.101.114.277.013.386a59.54 59.54 0 0 1-21.84 14.68.3.3 0 0 1-.098.016"/>
  <g clip-path="url(#d)">
    <path fill="#fff" d="m295.234 218.785-5.879 79.2c-.152 2.035-1.835 3.609-3.863 3.609h-29.36c-1.07 0-1.542-1.352-.71-2.028l6.387-5.164 9.027-81.597z"/>
    <path d="m271.074 213.148-8.992 81.286a.27.27 0 0 1-.102.187l-6.382 5.16a.845.845 0 0 0-.27.965c.094.277.36.574.805.574h29.36c1.87 0 3.448-1.472 3.589-3.355l5.86-78.965Zm14.418 88.723h-29.36a1.4 1.4 0 0 1-1.327-.941 1.41 1.41 0 0 1 .445-1.578l6.297-5.09 9.015-81.489a.273.273 0 0 1 .34-.234l24.399 5.98a.27.27 0 0 1 .207.286l-5.88 79.203c-.16 2.164-1.976 3.863-4.136 3.863"/>
  </g>
  <path d="M288.191 295.984h-.003c-8.7-.203-17.504-.656-26.172-1.343a.28.28 0 0 1-.254-.297.28.28 0 0 1 .297-.254c8.66.691 17.453 1.144 26.14 1.344a.275.275 0 0 1-.008.55M283.746 283.766c-6.734 0-13.469-.594-20.09-1.782a.28.28 0 0 1-.222-.32.274.274 0 0 1 .316-.223 113.3 113.3 0 0 0 25.848 1.622.283.283 0 0 1 .289.261.28.28 0 0 1-.262.293q-2.937.148-5.879.149"/>
  <path fill="#fff" d="M294.305 172.258s9.312.738 13.539 6.62c4.226 5.888 9.437 11.208 5.664 17.235-2.934 4.688-12.149 10.047-12.149 10.047l-3.91-10.047 4.848-4.925z"/>
  <path d="m297.77 196.18 3.726 9.578c1.555-.938 9.2-5.668 11.777-9.79 3.188-5.093-.296-9.745-3.988-14.675-.55-.734-1.117-1.492-1.664-2.25-3.574-4.977-10.969-6.219-12.879-6.461l7.805 18.5a.28.28 0 0 1-.055.3Zm3.59 10.254a.2.2 0 0 1-.09-.016.27.27 0 0 1-.168-.16l-3.907-10.047a.27.27 0 0 1 .059-.29l4.715-4.796-7.918-18.762a.28.28 0 0 1 .031-.265.28.28 0 0 1 .246-.114c.387.028 9.488.817 13.742 6.735.54.758 1.11 1.511 1.657 2.246 3.808 5.082 7.402 9.883 4.015 15.293-2.937 4.691-11.867 9.918-12.246 10.14a.3.3 0 0 1-.137.036"/>
  <path fill="#5479f7" d="M294.305 172.258s-10.75-1.508-19.395 1.16l-7.41 61.371s7.445 2.23 7.848-6.941c0 0 2.418 9.445 18.246 8.332 15.832-1.114 17.57-4.168 17.57-4.168z"/>
  <path fill="#fff" d="M274.91 173.418c6.008 11.562 5.18 20.27 2.82 20.953-2.363.684-4.613-3.184-4.613-3.184-.742.583-1.86 1.266-3.21 1.903-3.759-4.274-4.919-10.871-5.262-13.934 4.562-3.5 10.265-5.738 10.265-5.738"/>
  <path d="M269.906 193.367a.28.28 0 0 1-.207-.094c-3.73-4.25-4.941-10.648-5.328-14.085a.27.27 0 0 1 .106-.25c4.539-3.481 10.273-5.754 10.332-5.774.14-.055.3.012.355.156a.27.27 0 0 1-.152.356c-.059.023-5.617 2.222-10.078 5.601.328 2.778 1.453 9.262 5.043 13.473a19 19 0 0 0 2.39-1.355.27.27 0 0 1 .38.074.27.27 0 0 1-.071.383 20 20 0 0 1-2.653 1.488.3.3 0 0 1-.117.027"/>
  <path fill="#fff" d="M255.996 173.164s-2.039-4.824-2.547-6.871c-.512-2.047 3.367-4.59 5.235-4.691 1.867-.098 1.921 2.144 1.921 2.144 1.926-.172 1.215 2.211 1.215 2.211 1.055-.27.91 1.469.91 1.469.954.015.524 1.652.524 1.652 1.96 4.305-.328 11.512-.328 11.512.543-.5 1.12-.977 1.719-1.434.343 3.063 1.503 9.66 5.261 13.934-4.441 2.094-11.37 3.664-15.547-.63-5.441-5.593 1.637-19.296 1.637-19.296"/>
  <path d="M258.8 161.875q-.046-.001-.105.004c-1.195.062-3.414 1.25-4.476 2.687-.313.422-.656 1.055-.504 1.66.5 2.004 2.515 6.782 2.535 6.829a.3.3 0 0 1-.008.234c-.07.137-6.926 13.594-1.683 18.98 4.593 4.723 12.195 1.946 14.902.723-3.383-4.047-4.598-9.87-5.031-13.32q-.71.564-1.32 1.121a.27.27 0 0 1-.333.027.27.27 0 0 1-.113-.312c.02-.074 2.23-7.156.34-11.317a.27.27 0 0 1-.016-.183c.086-.336.157-.961-.031-1.207-.035-.043-.094-.098-.234-.102a.28.28 0 0 1-.2-.09.3.3 0 0 1-.07-.207c.024-.285-.004-.937-.242-1.136-.05-.04-.133-.09-.32-.04a.27.27 0 0 1-.266-.078.26.26 0 0 1-.066-.265c.09-.309.25-1.196-.094-1.613-.168-.204-.442-.286-.836-.247a.28.28 0 0 1-.3-.27c0-.007-.032-1.01-.614-1.546-.242-.223-.54-.332-.914-.332m2.59 33.598c-2.542 0-5.163-.696-7.226-2.817-5.312-5.465.805-18.07 1.527-19.504-.32-.77-2.039-4.902-2.511-6.793-.16-.644.047-1.379.597-2.12 1.168-1.579 3.547-2.84 4.891-2.91q.862-.047 1.426.476c.535.5.707 1.254.761 1.66q.673.018 1.036.457c.41.5.355 1.285.277 1.742a.8.8 0 0 1 .394.18c.387.324.45.984.45 1.351.156.051.285.145.383.274.351.465.21 1.289.148 1.582 1.531 3.484.445 8.637-.098 10.715q.492-.418 1.032-.828a.27.27 0 0 1 .273-.036c.09.04.156.121.168.223.305 2.715 1.426 9.496 5.195 13.785a.26.26 0 0 1 .063.235.28.28 0 0 1-.153.195c-1.445.68-4.96 2.133-8.632 2.133"/>
  <path d="M261.297 170.43a.3.3 0 0 1-.082-.012c-1.024-.32-1.817-1.23-2.43-2.781q-.118-.305-.23-.617c-.332-.887-.672-1.81-1.317-2.458-.312-.312-.777-.546-1.101-.363-.29.156-.399.57-.352 1.293l.246 3.719a.28.28 0 0 1-.258.293.28.28 0 0 1-.293-.258l-.246-3.715c-.035-.605-.015-1.453.633-1.816.617-.344 1.336.035 1.758.46.73.735 1.094 1.712 1.445 2.653.075.203.149.406.23.606.544 1.386 1.227 2.191 2.079 2.457a.28.28 0 0 1 .18.347.27.27 0 0 1-.262.192"/>
  <path d="M261.55 170.477q-.446-.001-.874-.266a.273.273 0 0 1-.086-.379.273.273 0 0 1 .379-.086c.347.215.68.238 1.027.074.633-.3 1.059-1.101 1.09-1.367a.274.274 0 0 1 .309-.234.27.27 0 0 1 .238.304c-.055.422-.582 1.407-1.399 1.793-.226.11-.457.16-.683.16"/>
  <path d="M260.754 169.426c-.531 0-1.05-.207-1.395-.59a.28.28 0 0 1 .024-.39.276.276 0 0 1 .387.023c.39.433 1.132.531 1.695.226.531-.285.914-.898 1.004-1.593a.274.274 0 1 1 .543.07c-.106.867-.602 1.637-1.285 2.008-.305.164-.641.246-.973.246"/>
  <path d="M259.887 168.004c-.352 0-.688-.106-.953-.313a.275.275 0 1 1 .336-.433c.44.344 1.12.195 1.523-.153.394-.335.668-.886.82-1.632a.273.273 0 0 1 .325-.215.27.27 0 0 1 .214.324c-.175.867-.511 1.523-1 1.941-.367.317-.828.48-1.265.48M258.938 166.25c-.188 0-.383-.04-.567-.125a.274.274 0 1 1 .234-.496c.442.207 1.012-.063 1.31-.438.288-.375.335-.77.394-1.265l.023-.211a.27.27 0 0 1 .305-.238.27.27 0 0 1 .242.304l-.024.207c-.062.54-.12 1.047-.507 1.54-.313.402-.856.722-1.41.722M257.707 164.852a.279.279 0 0 1-.258-.375l.785-2c.055-.141.211-.211.356-.157.14.055.21.215.156.36l-.781 1.996a.27.27 0 0 1-.258.176M259.652 183.906a.26.26 0 0 1-.199-.09.27.27 0 0 1 .012-.386l3.273-3.043a.277.277 0 0 1 .39.015.28.28 0 0 1-.015.391l-3.273 3.039a.27.27 0 0 1-.188.074M246.07 123.781c-2.492 0-4.968.57-7.277 1.696-8.285 4.043-11.754 14.117-7.734 22.453 1.953 4.05 5.359 7.086 9.586 8.55a16.51 16.51 0 0 0 12.73-.77c8.285-4.042 11.754-14.116 7.734-22.452-1.953-4.051-5.355-7.086-9.586-8.551a16.6 16.6 0 0 0-5.453-.926m.028 34.176c-1.895 0-3.793-.316-5.633-.957-4.367-1.512-7.887-4.648-9.903-8.832-4.152-8.61-.566-19.012 7.993-23.188 4.132-2.02 8.8-2.3 13.148-.793 4.367 1.512 7.887 4.649 9.902 8.833 4.153 8.609.567 19.007-7.988 23.187a17.1 17.1 0 0 1-7.52 1.75"/>
  <path d="M256 163.957c.695-.21.973-.098 1.73.61l.653-1.57-3.668-7.606-2.422 1.18zM245.11 146.629a.8.8 0 0 1 .206-.559q.21-.229.59-.23a.77.77 0 0 1 .801.789c0 .215-.07.394-.219.539q-.218.222-.582.223-.38 0-.59-.223a.76.76 0 0 1-.207-.54m.156-3.238c.011-.758.117-1.371.308-1.836q.292-.696 1.25-1.637.957-.943 1.235-1.336a3.2 3.2 0 0 0 .425-.86c.102-.312.149-.667.149-1.07q0-1.206-.645-1.898c-.425-.461-1.027-.691-1.793-.691q-1.16 0-1.87.664-.714.662-.735 1.793h-1.149q.019-1.583 1.075-2.54c.703-.632 1.593-.953 2.68-.953q1.663 0 2.628.973.96.973.961 2.633.001 1.048-.472 1.96-.476.91-1.801 2.13-1.095.92-1.094 2.668z"/>
  <path fill="#fff" d="m276.184 166.863 2.394 5.395-1.437.57s2.84 5.328 9.476 4.66-2.722-11.96-2.722-11.96-6.06-1.348-7.711 1.335"/>
  <path d="M286.617 177.766a.276.276 0 0 1-.273-.25.273.273 0 0 1 .246-.301c1.055-.106 1.7-.485 1.976-1.156 1.145-2.79-4.191-9.5-4.824-10.282-.738-.148-5.719-1.05-7.246 1.11l2.336 5.258c.031.07.031.148.004.218a.28.28 0 0 1-.156.149l-1.203.48a.276.276 0 0 1-.356-.156.27.27 0 0 1 .152-.356l.938-.375-2.277-5.132a.28.28 0 0 1 .015-.254c1.735-2.817 7.75-1.52 8.004-1.461a.26.26 0 0 1 .152.094c.258.308 6.305 7.66 4.97 10.914-.356.867-1.173 1.37-2.43 1.496q-.014.002-.028.004"/>
  <path d="M274.71 155.79c-.53-.794-1.179-1.642-1.073-2.59.172-1.54 2.093-2.137 3.633-2.122 5.507.055 10.511 3.258 14.593 6.98s7.617 8.083 12.102 11.301c3.226 2.313 6.902 4.004 9.851 6.664s5.141 6.727 4.098 10.57c-.902 3.329-4.086 5.677-7.445 6.345-3.36.671-6.852-.086-10.063-1.286-11.21-4.187-20.152-14.113-23.27-25.722-.433-1.598-.023-2.993-.273-4.61a13.8 13.8 0 0 0-2.152-5.53M289.02 154.176c-.434-.574-.5-1.367-.325-2.067.18-.699.575-1.32 1.004-1.898a15.5 15.5 0 0 1 3.438-3.352c.965-.683 2.027-1.261 3.183-1.496 1.157-.238 2.422-.105 3.41.54 1.266.827 1.93 2.44 1.739 3.945-.192 1.504-1.176 2.851-2.489 3.601-1.308.75-2.855.922-4.355 1.078-1.437.153-4.531 1.075-5.605-.351"/>
  <path fill="#fff" d="M275.473 157.074s3.332 1.223 3.023 2.895-.32 2.52.457 3.23c0 0 2.91-.91 3.227 1.117.32 2.028-1.84 2.801-3.442 2.207 0 0-1.718 1.82-4.398.485-2.684-1.336-1.188-5.735 1.133-9.934"/>
  <path d="M275.598 157.418c-1.985 3.64-2.77 6.406-2.27 8.008.192.613.563 1.05 1.133 1.336 2.473 1.226 4.062-.41 4.078-.426a.27.27 0 0 1 .293-.07c.871.324 1.91.195 2.527-.313.465-.379.653-.93.551-1.594-.062-.39-.234-.664-.52-.843-.835-.52-2.34-.059-2.355-.051a.28.28 0 0 1-.265-.063c-.872-.797-.872-1.718-.543-3.484.203-1.094-1.66-2.102-2.63-2.5m.664 10.348c-.602 0-1.29-.137-2.047-.512a2.7 2.7 0 0 1-1.41-1.664c-.563-1.809.254-4.715 2.425-8.649a.28.28 0 0 1 .336-.125c.145.055 3.551 1.325 3.2 3.204-.278 1.5-.305 2.265.27 2.87.456-.117 1.769-.382 2.644.157.425.266.687.676.773 1.226.133.856-.129 1.606-.742 2.11-.734.597-1.887.773-2.906.453a3.98 3.98 0 0 1-2.543.93"/>
  <path d="M278.977 165.379a.26.26 0 0 1-.211-.102.273.273 0 0 1 .035-.386 2.12 2.12 0 0 1 2.12-.313c.142.059.208.219.15.363a.28.28 0 0 1-.36.149 1.57 1.57 0 0 0-1.559.23.3.3 0 0 1-.175.059"/>
  <g clip-path="url(#e)">
    <path d="M358.738 301.871h-73.246a.275.275 0 1 1 0-.55h73.246c.153 0 .274.12.274.273a.275.275 0 0 1-.274.277"/>
  </g>
  <path fill="#fff" d="m340.422 148.21-19.402-1.398a1.39 1.39 0 0 1-1.29-1.492l.985-13.64a1.39 1.39 0 0 1 1.488-1.29l19.406 1.4a1.4 1.4 0 0 1 1.29 1.491l-.985 13.64a1.39 1.39 0 0 1-1.492 1.29"/>
  <path d="M322.102 130.66c-.579 0-1.07.453-1.114 1.04l-.984 13.64a1.123 1.123 0 0 0 1.035 1.2l19.402 1.398a1.123 1.123 0 0 0 1.2-1.036l.984-13.64a1.125 1.125 0 0 0-1.035-1.2l-19.406-1.398c-.028 0-.055-.004-.082-.004m18.425 17.832c-.043 0-.082 0-.125-.004L321 147.086a1.673 1.673 0 0 1-1.547-1.785l.985-13.64a1.665 1.665 0 0 1 1.785-1.544l19.406 1.399a1.67 1.67 0 0 1 1.543 1.785l-.985 13.64a1.664 1.664 0 0 1-1.66 1.551"/>
  <path d="M331.348 140.313a.28.28 0 0 1-.168-.06l-6.79-5.183a.28.28 0 0 1-.05-.386.28.28 0 0 1 .387-.051l6.789 5.183c.117.094.14.266.05.387a.28.28 0 0 1-.218.11"/>
  <path d="M331.395 140.316a.276.276 0 0 1-.133-.515l7.46-4.156a.275.275 0 0 1 .376.105c.074.133.027.3-.11.375l-7.457 4.156a.3.3 0 0 1-.136.035"/>
  <path fill="#fff" d="m322.922 150.992-11.496 1.32a1.393 1.393 0 0 1-1.543-1.226l-.895-7.793a1.395 1.395 0 0 1 1.227-1.543l11.496-1.316a1.39 1.39 0 0 1 1.543 1.226l.894 7.79a1.393 1.393 0 0 1-1.226 1.542"/>
  <path d="M322.922 150.992h.004Zm-1.05-10.293q-.066.001-.13.008l-11.496 1.316a1.12 1.12 0 0 0-.984 1.239l.894 7.793c.035.297.18.562.418.75.23.183.524.27.82.234l11.497-1.32a1.12 1.12 0 0 0 .75-.414c.183-.235.27-.528.234-.825l-.895-7.789a1.12 1.12 0 0 0-1.109-.992m-10.606 11.899c-.38 0-.739-.13-1.036-.364a1.65 1.65 0 0 1-.62-1.117l-.895-7.793a1.67 1.67 0 0 1 1.469-1.847l11.496-1.317a1.65 1.65 0 0 1 1.226.352c.352.277.57.672.621 1.117l.895 7.789c.05.441-.074.879-.352 1.227-.277.351-.675.57-1.117.62l-11.496 1.32a2 2 0 0 1-.191.013"/>
  <path d="M316.676 147.11a.3.3 0 0 1-.121-.028l-4.926-2.477a.28.28 0 0 1-.125-.37.274.274 0 0 1 .371-.122l4.926 2.477a.27.27 0 0 1 .12.367.27.27 0 0 1-.245.152"/>
  <path d="M316.71 147.105a.272.272 0 0 1-.175-.484l4.235-3.531a.274.274 0 0 1 .386.039.274.274 0 0 1-.035.387l-4.238 3.527a.27.27 0 0 1-.172.062"/>
  <path fill="#fff" d="m331.574 164.113-14.394-2.027a1.39 1.39 0 0 1-1.188-1.57l1.403-9.942a1.396 1.396 0 0 1 1.574-1.187l14.394 2.031a1.39 1.39 0 0 1 1.184 1.574l-1.399 9.938a1.39 1.39 0 0 1-1.574 1.183"/>
  <path d="M318.773 149.652c-.242 0-.476.075-.671.223a1.1 1.1 0 0 0-.434.738l-1.402 9.938a1.12 1.12 0 0 0 .953 1.266l14.394 2.027a1.12 1.12 0 0 0 1.262-.953l1.402-9.938a1.125 1.125 0 0 0-.953-1.266l-14.394-2.027c-.051-.008-.106-.008-.157-.008m12.997 14.754c-.075 0-.157-.008-.235-.02l-14.394-2.027a1.65 1.65 0 0 1-1.098-.648 1.65 1.65 0 0 1-.32-1.234l1.398-9.942a1.667 1.667 0 0 1 1.887-1.418l14.394 2.028a1.67 1.67 0 0 1 1.418 1.886l-1.398 9.938a1.67 1.67 0 0 1-1.652 1.437"/>
  <path d="M325.258 157.602a.26.26 0 0 1-.18-.07l-5-4.387a.27.27 0 0 1-.027-.387.273.273 0 0 1 .387-.028l5 4.387a.274.274 0 0 1-.18.485"/>
  <path d="M325.297 157.605a.28.28 0 0 1-.25-.156.277.277 0 0 1 .133-.367l6.015-2.836a.277.277 0 0 1 .235.5l-6.016 2.836a.3.3 0 0 1-.117.023"/>
  <path fill="#e2eaff" d="m96.516 264.336-9.672-11.98c-.805-.997-2.508-1.79-3.785-1.774l-1.63.031c-1.468.028-2.898.39-4.253.95-3.817 1.566-9.977 1.617-18.031-12.336-8.008-13.872-4.965-19.2-1.72-21.735 1.41-1.101 2.555-2.508 3.481-4.043l.36-.601c.66-1.098.82-2.973.363-4.168l-5.543-14.364c-.461-1.195-1.867-1.984-3.129-1.754l-3.57.66c-3.008.551-5.79 2.051-7.778 4.372-8.449 9.863-7.03 29.636 4.309 49.27 11.363 19.679 27.828 30.804 40.61 28.35 2.945-.566 5.585-2.179 7.53-4.464l2.41-2.836c.833-.973.848-2.586.048-3.578"/>
  <path d="M126.285 295.313h-42.59a.274.274 0 0 1-.273-.274v-13.328a.275.275 0 0 1 .55 0v13.05h42.313c.153 0 .278.126.278.278a.28.28 0 0 1-.278.274"/>
  <path fill="#e2eaff" d="M145.195 295.04a2.295 2.295 0 0 1 2.297-2.294 2.292 2.292 0 1 1 0 4.586 2.297 2.297 0 0 1-2.297-2.293M138.496 295.04a2.29 2.29 0 0 1 2.297-2.294 2.292 2.292 0 1 1 0 4.586 2.295 2.295 0 0 1-2.297-2.293M131.793 295.04a2.295 2.295 0 0 1 2.297-2.294 2.292 2.292 0 1 1 0 4.586 2.297 2.297 0 0 1-2.297-2.293"/>
  <path d="M130.61 96.422a.27.27 0 0 1-.274-.274v-17.28c0-.153.121-.278.273-.278h57.028c.152 0 .273.125.273.277a.27.27 0 0 1-.273.274h-56.75v17.007a.275.275 0 0 1-.278.274"/>
  <g clip-path="url(#f)">
    <path fill="#e2eaff" d="M66.879 73.27H16.258v22.878h50.62z"/>
  </g>
  <path fill="#fff" d="M61.316 90.633H53.5a.414.414 0 0 1 0-.828h7.816a.413.413 0 0 1 0 .828M46.738 90.633H21.82a.417.417 0 0 1-.414-.414c0-.227.188-.414.414-.414h24.918c.227 0 .414.187.414.414a.417.417 0 0 1-.414.414M61.316 85.121H37.11a.41.41 0 0 1-.41-.414c0-.227.184-.414.41-.414h24.207c.227 0 .41.187.41.414 0 .23-.183.414-.41.414M31.582 85.121H21.82a.414.414 0 0 1 0-.828h9.762c.227 0 .41.187.41.414 0 .23-.183.414-.41.414M61.316 79.61h-11.3a.414.414 0 0 1-.414-.415c0-.226.187-.41.414-.41h11.3a.41.41 0 0 1 .41.41c0 .23-.183.414-.41.414M43.258 79.61H21.82a.414.414 0 0 1-.414-.415c0-.226.188-.41.414-.41h21.438a.41.41 0 0 1 .41.41c0 .23-.184.414-.41.414"/>
  <path d="M122.895 96.422H74.64a.275.275 0 1 1 0-.55h48.254c.152 0 .277.124.277.276a.275.275 0 0 1-.277.274"/>
  <g clip-path="url(#g)">
    <path fill="#fff" d="M205.516 257.223h81.09c5.43 0 9.87-4.446 9.87-9.871V83.414c0-5.43-4.44-9.871-9.87-9.871h-81.09c-5.43 0-9.871 4.441-9.871 9.871v163.938c0 5.425 4.44 9.87 9.87 9.87"/>
    <path d="M205.516 73.816c-5.293 0-9.598 4.309-9.598 9.598v163.938c0 5.289 4.305 9.593 9.598 9.593h81.09c5.289 0 9.597-4.304 9.597-9.593V83.414c0-5.289-4.308-9.598-9.598-9.598Zm81.09 183.68h-81.09c-5.598 0-10.149-4.55-10.149-10.144V83.414c0-5.594 4.551-10.148 10.149-10.148h81.09c5.593 0 10.148 4.554 10.148 10.148v163.938c0 5.593-4.555 10.144-10.149 10.144"/>
  </g>
  <path fill="#fff" d="M208.07 251.39h75.98c4.114 0 7.481-3.367 7.481-7.48V86.348c0-4.114-3.367-7.48-7.48-7.48h-75.98c-4.114 0-7.481 3.366-7.481 7.48V243.91c0 4.113 3.367 7.48 7.48 7.48"/>
  <path d="M208.07 79.14c-3.972 0-7.207 3.235-7.207 7.208V243.91c0 3.973 3.235 7.203 7.207 7.203h75.98a7.21 7.21 0 0 0 7.204-7.203V86.348c0-3.973-3.23-7.207-7.203-7.207Zm75.98 172.524h-75.98c-4.277 0-7.754-3.476-7.754-7.754V86.348c0-4.278 3.477-7.758 7.754-7.758h75.98c4.274 0 7.755 3.48 7.755 7.758V243.91c0 4.278-3.48 7.754-7.754 7.754"/>
  <path d="M255.508 84.34h-20.04a.275.275 0 0 1-.273-.278c0-.152.121-.273.274-.273h20.039a.275.275 0 1 1 0 .55"/>
  <path fill="#fff" d="M283.426 161.922h-74.73v-41.297h74.73z"/>
  <path d="M208.969 161.645h74.18v-40.743h-74.18Zm74.457.55h-74.73a.275.275 0 0 1-.278-.273v-41.297c0-.148.125-.273.277-.273h74.73c.153 0 .274.125.274.273v41.297a.27.27 0 0 1-.273.273"/>
  <path fill="#e2eaff" d="M283.426 238.895h-74.73v-69.31h74.73z"/>
  <path d="M221.648 91.75c-5.199 0-9.43 4.227-9.43 9.426 0 5.195 4.231 9.426 9.43 9.426h52.059c5.2 0 9.426-4.23 9.426-9.426s-4.227-9.426-9.426-9.426Zm52.059 19.402h-52.059c-5.503 0-9.98-4.476-9.98-9.976s4.477-9.977 9.98-9.977h52.059c5.504 0 9.977 4.477 9.977 9.977s-4.473 9.976-9.977 9.976"/>
  <path d="M221.465 96.422a3.62 3.62 0 0 0-3.617 3.617 3.62 3.62 0 0 0 3.617 3.613 3.62 3.62 0 0 0 3.617-3.613 3.62 3.62 0 0 0-3.617-3.617m0 7.781a4.17 4.17 0 0 1-4.164-4.164 4.17 4.17 0 0 1 4.164-4.168 4.174 4.174 0 0 1 4.168 4.168 4.17 4.17 0 0 1-4.168 4.164"/>
  <path d="M227.848 106.602a.3.3 0 0 1-.196-.079l-3.582-3.582a.274.274 0 0 1 0-.39.27.27 0 0 1 .387 0l3.586 3.582a.28.28 0 0 1 0 .39.3.3 0 0 1-.195.079"/>
  <path fill="#e2eaff" d="M254.352 101.176a3.48 3.48 0 0 1 3.48-3.477 3.474 3.474 0 1 1 0 6.95 3.477 3.477 0 0 1-3.48-3.473M244.2 101.176a3.474 3.474 0 0 1 3.476-3.477 3.48 3.48 0 0 1 3.48 3.477 3.477 3.477 0 0 1-3.48 3.472 3.473 3.473 0 0 1-3.477-3.472M234.043 101.176a3.48 3.48 0 0 1 3.48-3.477 3.48 3.48 0 0 1 3.48 3.477 3.477 3.477 0 0 1-3.48 3.472 3.477 3.477 0 0 1-3.48-3.472"/>
  <path fill="#fff" d="M93.387 201.707c0-18.164 14.73-32.883 32.898-32.883s32.899 14.719 32.899 32.883c0 18.16-14.73 32.883-32.899 32.883-18.168 0-32.898-14.723-32.898-32.883m-20.57 0c0 5.777 4.687 10.465 10.468 10.465.434 0 .856-.035 1.274-.086a42.7 42.7 0 0 0 4.875 11.77 11 11 0 0 0-.957.84c-4.09 4.085-4.09 10.71 0 14.8 4.09 4.086 10.718 4.086 14.808 0 .305-.305.578-.629.84-.96a42.5 42.5 0 0 0 11.773 4.874c-.05.418-.082.84-.082 1.27 0 5.78 4.688 10.468 10.47 10.468 5.78 0 10.472-4.687 10.472-10.468 0-.43-.035-.852-.086-1.27a42.5 42.5 0 0 0 11.773-4.875c.262.332.535.656.84.961 4.09 4.086 10.719 4.086 14.809 0 4.09-4.09 4.09-10.715 0-14.8a10 10 0 0 0-.957-.84 42.7 42.7 0 0 0 4.875-11.77c.418.05.84.086 1.273.086 5.781 0 10.469-4.688 10.469-10.465 0-5.781-4.688-10.469-10.469-10.469-.433 0-.855.035-1.273.086-1.043-4.199-2.7-8.16-4.875-11.77a11 11 0 0 0 .957-.835c4.09-4.09 4.09-10.715 0-14.801-4.09-4.09-10.719-4.09-14.809 0-.305.305-.578.625-.84.957A42.6 42.6 0 0 0 136.672 160c.05-.418.086-.84.086-1.27 0-5.78-4.692-10.464-10.473-10.464s-10.469 4.683-10.469 10.464c0 .43.032.852.082 1.27a42.6 42.6 0 0 0-11.773 4.875 11 11 0 0 0-.84-.957c-4.09-4.09-10.719-4.09-14.808 0-4.09 4.086-4.09 10.71 0 14.8.304.302.628.579.957.837a42.8 42.8 0 0 0-4.875 11.77c-.418-.052-.84-.087-1.274-.087-5.781 0-10.469 4.688-10.469 10.469"/>
  <path d="M126.285 169.098c-17.988 0-32.625 14.629-32.625 32.609 0 17.977 14.637 32.606 32.625 32.606s32.625-14.63 32.625-32.606c0-17.98-14.637-32.61-32.625-32.61m0 65.765c-18.293 0-33.176-14.875-33.176-33.156 0-18.285 14.883-33.16 33.176-33.16s33.176 14.875 33.176 33.16c0 18.281-14.883 33.156-33.176 33.156m-22.16 3.399c.047 0 .098.011.14.039a42.4 42.4 0 0 0 11.7 4.844c.137.03.222.16.207.3-.055.457-.082.864-.082 1.235 0 5.62 4.574 10.191 10.195 10.191s10.195-4.57 10.195-10.191c0-.371-.027-.778-.082-1.235a.276.276 0 0 1 .207-.3 42.4 42.4 0 0 0 11.7-4.844.28.28 0 0 1 .36.066c.28.36.55.668.815.934 3.977 3.972 10.442 3.972 14.418 0a10.13 10.13 0 0 0 2.989-7.207c0-2.723-1.063-5.281-2.989-7.207a10 10 0 0 0-.933-.813.28.28 0 0 1-.067-.36 42.4 42.4 0 0 0 4.848-11.694.28.28 0 0 1 .3-.208c.458.06.864.083 1.24.083 5.62 0 10.194-4.57 10.194-10.188 0-5.621-4.574-10.191-10.195-10.191-.375 0-.781.027-1.238.082a.28.28 0 0 1-.3-.207 42.4 42.4 0 0 0-4.849-11.696.28.28 0 0 1 .067-.36c.363-.28.668-.546.933-.812a10.13 10.13 0 0 0 2.989-7.207c0-2.722-1.063-5.28-2.989-7.207-3.976-3.972-10.441-3.972-14.418 0-.265.27-.535.575-.816.934a.28.28 0 0 1-.36.066 42.4 42.4 0 0 0-11.699-4.843.276.276 0 0 1-.207-.301c.055-.457.082-.86.082-1.235 0-5.62-4.574-10.19-10.195-10.19-5.62 0-10.195 4.57-10.195 10.19 0 .375.027.778.082 1.235.016.14-.07.27-.207.3a42.4 42.4 0 0 0-11.7 4.844.28.28 0 0 1-.359-.066c-.281-.36-.55-.664-.816-.934-3.977-3.972-10.442-3.972-14.418 0a10.13 10.13 0 0 0-2.988 7.207c0 2.723 1.062 5.282 2.988 7.207.266.266.57.532.933.817.11.086.137.238.067.355a42.4 42.4 0 0 0-4.848 11.696.275.275 0 0 1-.3.207 10 10 0 0 0-1.239-.082c-5.62 0-10.195 4.57-10.195 10.191 0 5.617 4.574 10.188 10.195 10.188.375 0 .781-.024 1.238-.083a.28.28 0 0 1 .301.208 42.4 42.4 0 0 0 4.848 11.695.28.28 0 0 1-.067.36c-.363.28-.668.55-.933.812a10.13 10.13 0 0 0-2.988 7.207c0 2.722 1.062 5.281 2.988 7.207 3.976 3.972 10.441 3.972 14.418 0 .265-.266.535-.574.816-.934a.28.28 0 0 1 .219-.105m22.16 17.16c-5.926 0-10.746-4.817-10.746-10.742 0-.328.02-.676.059-1.059a43.2 43.2 0 0 1-11.41-4.723c-.243.297-.473.555-.708.79-4.19 4.19-11.007 4.19-15.199 0a10.68 10.68 0 0 1-3.148-7.594 10.68 10.68 0 0 1 3.941-8.305 43 43 0 0 1-4.726-11.402c-.383.039-.73.058-1.063.058-5.926 0-10.746-4.816-10.746-10.738s4.82-10.742 10.746-10.742c.332 0 .68.02 1.063.058a43 43 0 0 1 4.726-11.402 10.67 10.67 0 0 1-3.941-8.305 10.67 10.67 0 0 1 3.148-7.593c4.192-4.188 11.008-4.188 15.2 0 .234.23.464.492.707.793a43 43 0 0 1 11.41-4.723c-.04-.387-.059-.734-.059-1.063 0-5.925 4.82-10.742 10.746-10.742s10.746 4.817 10.746 10.742c0 .329-.02.676-.058 1.063a43 43 0 0 1 11.41 4.723q.362-.45.707-.793c4.191-4.188 11.008-4.188 15.2 0a10.67 10.67 0 0 1 3.148 7.593 10.67 10.67 0 0 1-3.942 8.305 42.9 42.9 0 0 1 4.727 11.402c.382-.039.73-.058 1.062-.058 5.922 0 10.746 4.82 10.746 10.742s-4.824 10.738-10.746 10.738c-.332 0-.68-.02-1.062-.058a43 43 0 0 1-4.727 11.402q.444.361.793.711a10.68 10.68 0 0 1 3.149 7.594c0 2.867-1.122 5.566-3.149 7.594-4.191 4.19-11.008 4.19-15.2 0-.23-.235-.464-.493-.706-.79a43.2 43.2 0 0 1-11.41 4.723c.039.383.058.73.058 1.059 0 5.925-4.82 10.742-10.746 10.742M116.824 106.586c-.515-1.547-1.562-2.961-3.031-3.664s-3.363-.586-4.582.496c-.836.746-1.285 1.848-1.477 2.953-.293 1.73.008 3.594 1.012 5.04 1 1.444 2.73 2.41 4.484 2.304 3.977-.235 4.618-4.047 3.594-7.13"/>
  <path d="M142.7 124.508c-.259-1.703-.512-3.469-.067-5.133.383-1.441 1.285-2.758 1.328-4.25.047-1.617-.969-3.129-2.29-4.05-1.316-.927-2.91-1.36-4.48-1.696a48 48 0 0 0-11.214-1.055c-2.965.07-6.094.48-8.442 2.309-2.328 1.816-3.512 4.726-4.43 7.547-2.707 8.3-3.988 16.992-5.261 25.636-.211 1.422-.41 2.926.136 4.25.774 1.875 2.793 2.852 4.688 3.536 8 2.886 16.672 3.418 25.156 2.894 2.063-.129 4.211-.344 5.969-1.45 4.098-2.573 1.95-8.464 1.367-12.308z"/>
  <path fill="#fff" d="M196.957 132.484c1.48 2.586 3.184 5.04 5.188 7.25 1.05 1.164 2.167 2.274 3.39 3.258 1.2.969 2.48 1.828 3.8 2.617.364.215.727.422 1.09.63 6.645-12.59 10.38-25.153 10.38-25.153 5.289-3.816 2.226-5.813 2.226-5.813.828-3.3-1.847-3.597-1.847-3.597-.79-3.98-4.329-2.336-4.329-2.336 2.895-4.25 4.317-11.207-4.105-2.508-4.977 5.14-11.363 14.684-17.105 23.195q.626 1.244 1.312 2.457"/>
  <path d="M210.953 145.508c-.023 0-.047 0-.07-.008a.28.28 0 0 1-.2-.336c.122-.476.356-.8.606-1.144q.11-.147.227-.32c3.847-8.243 6.812-15.688 9.07-22.759a.3.3 0 0 1 .101-.14c1.157-.824 2.247-1.602 2.715-2.848.211-.64.43-1.824-.558-2.484a.276.276 0 0 1-.106-.324c.465-1.239-.21-2.711-1.504-3.29-.418-.136-.504-.578-.582-.968-.047-.223-.09-.457-.199-.617-.992-1.325-2.45-1.098-3.496-.672h-.008c-.015.007-.035.011-.05.015 0 0 .003 0 0 0h-.004a.3.3 0 0 1-.125-.011h-.004c-.004 0 0 0 0 0s.004.003 0 0h-.004s.004 0 0 0c0 0-.004 0 0 0 0 0 .004 0 0 0q-.002.001-.004-.004a.4.4 0 0 1-.059-.028s.004 0 0-.004c0 0 0 .004 0 0h-.004l-.004-.004s.004.004 0 0c-.007-.007-.02-.011-.027-.019.004 0 0 0 0 0v-.004s-.004 0 0 0h-.004q-.005-.01-.015-.02a.2.2 0 0 1-.047-.082h-.004v-.003a.4.4 0 0 1-.016-.094.3.3 0 0 1 .047-.149l.25-.39c1.137-1.778 2.422-3.79 1.754-5.79-.094-.05-.285-.058-.387-.058-1.531.43-2.715 1.484-3.863 2.5l-.457.41c-5.777 5.914-10.098 12.403-14.672 19.274a692 692 0 0 1-2.633 3.941.276.276 0 0 1-.383.074.273.273 0 0 1-.074-.382c.887-1.313 1.762-2.63 2.633-3.938 4.586-6.894 8.922-13.402 14.75-19.371.168-.148.32-.281.473-.418 1.199-1.07 2.445-2.176 4.117-2.629a.2.2 0 0 1 .07-.012c.2 0 .61 0 .856.246q.043.049.066.102c.75 2.105-.418 4.184-1.512 5.914a.6.6 0 0 1-.066.164c1.387-.324 2.558.063 3.355 1.125.176.262.239.563.29.828.062.32.109.52.242.563 1.511.672 2.316 2.332 1.89 3.793.801.648 1.02 1.73.598 3-.52 1.383-1.692 2.242-2.84 3.058-2.262 7.075-5.23 14.52-9.078 22.758a.2.2 0 0 1-.02.035 6 6 0 0 1-.25.356c-.234.324-.422.578-.515.957a.275.275 0 0 1-.266.207"/>
  <path d="M209.934 123.785q-.186.002-.38-.031a.28.28 0 0 1-.222-.32.275.275 0 0 1 .32-.223c.895.16 1.711-.488 2.137-1.09.414-.59.652-1.27.906-1.992q.093-.274.192-.543c.304-.828.77-1.852 1.652-2.461.418-.29.89-.46 1.348-.621.203-.074.406-.145.601-.227.5-.21 1.133-.59 1.293-1.195.207-.773-.511-1.586-1.289-1.797-.851-.23-1.781.016-2.66.317-2.437.84-4.469 1.976-6.031 3.375a.277.277 0 0 1-.39-.02.277.277 0 0 1 .023-.39c1.617-1.45 3.71-2.622 6.222-3.485.961-.332 1.989-.598 2.98-.328 1.032.277 1.97 1.363 1.677 2.469-.22.824-.997 1.304-1.61 1.562q-.317.128-.629.238c-.445.157-.863.305-1.222.555-.758.52-1.172 1.45-1.45 2.2q-.093.261-.187.53c-.254.727-.516 1.481-.977 2.13-.46.656-1.316 1.347-2.304 1.347"/>
  <path d="M215.89 118.89q-.104 0-.214-.011c-.66-.078-1.332-.649-1.27-1.375a.276.276 0 0 1 .297-.254.28.28 0 0 1 .254.3c-.035.391.387.735.785.782.39.043.824-.09 1.375-.422 1.93-1.172 3.219-3.305 3.36-5.558a.27.27 0 0 1 .289-.258c.152.011.27.14.257.293-.148 2.43-1.539 4.73-3.62 5.992-.372.226-.915.512-1.512.512"/>
  <path d="M218.473 119.355q-.155 0-.297-.023c-.594-.098-1.074-.523-1.172-1.043a.28.28 0 0 1 .223-.32.273.273 0 0 1 .32.222c.062.325.406.547.715.598.316.05.68-.016 1.14-.215a5.48 5.48 0 0 0 2.887-2.926.274.274 0 0 1 .36-.148c.14.055.206.219.148.36a6.03 6.03 0 0 1-3.18 3.222c-.43.184-.8.273-1.144.273"/>
  <path d="M220.422 120.684a1.45 1.45 0 0 1-.89-.301 1.47 1.47 0 0 1-.532-1.41.275.275 0 1 1 .54.105.93.93 0 0 0 .331.871.91.91 0 0 0 .926.102.277.277 0 0 1 .234.5c-.187.09-.398.133-.61.133"/>
  <path fill="#5479f7" d="M57.082 172.785s10.922 20.684 27.543 20.2c16.625-.481 23.781-15.317 23.781-15.317s-4.922 15.078.512 19.11c5.434 4.03 44.605 7.925 47.328-4.434 1.941-8.836.336-14.696 1.336-21.719 0 0 27.137 3.309 40.727-7.055 8.613-6.57 14.867-22.355 14.867-22.355s-5.559-11.86-16.79-12.293l-6.12 8.59a18.64 18.64 0 0 1-14.73 7.812l-65.876 1.586c-6.82.16-13.176 3.574-17 9.227-4.2 6.207-10.969 13.203-19.777 12.222z"/>
  <path d="M157.352 169.785a.277.277 0 0 1-.278-.27 23.2 23.2 0 0 1 1.98-9.535.28.28 0 0 1 .364-.14c.14.062.203.226.14.363a22.6 22.6 0 0 0-1.933 9.305.275.275 0 0 1-.273.277M125.422 177.934c-.996 0-1.992-.145-2.945-.43a10.4 10.4 0 0 1-5.985-4.762.28.28 0 0 1 .102-.375.275.275 0 0 1 .375.106 9.87 9.87 0 0 0 5.664 4.504c2.37.71 5 .48 7.21-.637a.27.27 0 0 1 .368.12.27.27 0 0 1-.121.368 10.36 10.36 0 0 1-4.668 1.106M146.215 175.73a.28.28 0 0 1-.274-.234.28.28 0 0 1 .23-.316c3.497-.543 6.509-3.598 7.005-7.102.308-2.21-.352-4.543-1.82-6.402a.274.274 0 0 1 .046-.387.274.274 0 0 1 .387.047c1.559 1.976 2.262 4.46 1.93 6.82-.528 3.735-3.735 6.989-7.461 7.57-.016 0-.028.004-.043.004M108.617 176.207q-.019-.002-.031-.004a.273.273 0 0 1-.242-.305c.195-1.601.398-3.257.043-4.843-.297-1.34-1.18-2.97-2.77-3.52a.277.277 0 0 1-.168-.351.274.274 0 0 1 .352-.168c1.508.523 2.703 2.023 3.125 3.922.37 1.675.156 3.457-.035 5.027a.28.28 0 0 1-.274.242M81.719 177.668H56.28a1.43 1.43 0 0 1-1.281-.797L37.535 141.81c-.476-.95.219-2.07 1.281-2.07h25.438c.543 0 1.039.308 1.281.792L83 175.598c.477.949-.219 2.07-1.281 2.07"/>
  <path fill="#fff" d="M53.516 156.781c-.59-.246-1.184.32-1.543.848a13.8 13.8 0 0 0-2.04 4.762q.442-4.746.876-9.493c.097-1.02-.047-2.378-1.051-2.574-.778-.152-1.43.57-1.832 1.25a12.9 12.9 0 0 0-1.64 4.543l1.124-6.558c.09-.504.172-1.051-.058-1.512-.489-.98-2.09-.8-2.758.07-.102.13-.184.27-.258.414q.057-.222.098-.445c.199-1.07-.125-2.453-1.184-2.703-.656-.153-1.352.234-1.742.785-.395.547-.543 1.23-.649 1.898-.453 2.895-.21 5.891.68 8.684 1.633 6.547 6.176 12.484 11.633 16.457-1.367-4.867.8-9.91.941-14.965.016-.562-.078-1.246-.597-1.46"/>
  <path d="M42.953 145.625c-.496 0-.965.34-1.223.703-.359.5-.5 1.152-.597 1.781-.446 2.832-.211 5.79.668 8.555 1.48 5.945 5.445 11.684 10.922 15.863-.61-2.906-.086-5.89.422-8.785.316-1.804.64-3.672.69-5.508.017-.46-.05-1.043-.425-1.199-.402-.168-.89.278-1.207.746a13.7 13.7 0 0 0-2 4.668.275.275 0 0 1-.543-.082l.875-9.492c.031-.348.145-2.09-.832-2.281-.71-.14-1.316.738-1.543 1.12a12.8 12.8 0 0 0-1.547 4.122l-.054.328a.28.28 0 0 1-.317.227.28.28 0 0 1-.226-.317q.024-.166.054-.332l1.07-6.23c.09-.516.15-.973-.035-1.34-.195-.39-.593-.484-.812-.508-.555-.05-1.16.203-1.48.621-.083.11-.16.23-.231.371a.27.27 0 0 1-.34.133.27.27 0 0 1-.172-.324q.053-.211.094-.43c.16-.86-.039-2.164-.977-2.383a1 1 0 0 0-.234-.027m10.219 27.855a.27.27 0 0 1-.16-.05c-5.899-4.29-10.176-10.348-11.742-16.614a19.35 19.35 0 0 1-.68-8.793c.105-.695.265-1.418.691-2.015.418-.582 1.207-1.086 2.032-.89 1 .234 1.48 1.343 1.453 2.448a2.33 2.33 0 0 1 1.582-.449c.574.055 1.02.344 1.25.809.277.558.168 1.207.086 1.68l-.461 2.687q.217-.44.465-.856c.617-1.042 1.37-1.53 2.12-1.382.95.183 1.426 1.257 1.278 2.867l-.645 6.969c.356-.848.797-1.66 1.305-2.414.57-.848 1.274-1.2 1.875-.95.367.153.797.575.766 1.723-.051 1.875-.383 3.762-.7 5.59-.566 3.222-1.097 6.27-.25 9.293a.28.28 0 0 1-.105.3.3.3 0 0 1-.16.047"/>
  <path d="M43.016 157.031a.28.28 0 0 1-.274-.242 15.5 15.5 0 0 1 1.113-7.816.276.276 0 0 1 .508.215 14.9 14.9 0 0 0-1.074 7.535.273.273 0 0 1-.242.304q-.013.005-.031.004M46.395 161.582a.276.276 0 0 1-.27-.227 15 15 0 0 1-.145-4.636.274.274 0 0 1 .31-.239.27.27 0 0 1 .237.305 14.7 14.7 0 0 0 .137 4.469.276.276 0 0 1-.219.324c-.015.004-.035.004-.05.004"/>
  <path fill="#fff" d="m125.605 130.73-1.921 13.903a1.71 1.71 0 0 1-1.41 1.445l-4.297.692s11.566 10.183 23.136-.458l-4.445-.503a1.774 1.774 0 0 1-1.57-1.793l.191-11.45s-1-7.582-9.684-1.836"/>
  <path fill="#fff" d="M122.586 127.113c-.8.621-1.16 1.723-.984 2.719.175 1 .847 1.875 1.718 2.395s1.918.699 2.93.605c.555-.05 1.137-.18 1.66.016.406.148.719.468 1.047.754 1.547 1.34 3.723 1.941 5.727 1.523 2-.418 3.773-1.871 4.515-3.777.613-1.575.528-3.332.258-5-.516-3.192-1.672-6.246-3.004-9.196-2.312.54-4.738.578-7.066.11a8.17 8.17 0 0 1-.176 5.656 8.15 8.15 0 0 1-2.684 3.43c-.238.18-.609.523-.906.586-.367.078-.598-.168-.976-.262a2.46 2.46 0 0 0-2.06.441"/>
  <path d="M122.586 127.113h.004Zm4.676 5.356c.25 0 .5.031.742.12.387.141.687.407.973.665q.082.07.16.14c1.5 1.293 3.601 1.856 5.488 1.461 1.926-.402 3.621-1.82 4.316-3.609.653-1.676.454-3.574.246-4.855-.546-3.375-1.816-6.52-2.89-8.918a17.1 17.1 0 0 1-6.516.14 8.48 8.48 0 0 1-.316 5.41 8.36 8.36 0 0 1-2.774 3.547 3 3 0 0 0-.16.13c-.25.195-.558.44-.851.503-.325.067-.567-.043-.782-.14-.105-.047-.207-.094-.32-.122a2.18 2.18 0 0 0-1.82.387c-.695.54-1.051 1.527-.887 2.457.156.88.75 1.703 1.59 2.207.77.461 1.75.66 2.762.567q.157-.013.316-.032c.238-.03.48-.058.723-.058m6.148 3.058a7.16 7.16 0 0 1-4.633-1.718c-.054-.047-.109-.098-.164-.145-.261-.234-.508-.453-.797-.559-.363-.132-.777-.085-1.214-.03q-.165.016-.329.034c-1.125.102-2.226-.125-3.093-.644-.977-.582-1.668-1.55-1.848-2.586-.2-1.121.234-2.32 1.086-2.984a2.74 2.74 0 0 1 2.293-.489c.16.04.297.102.414.156.195.086.3.13.441.102.164-.035.43-.246.621-.398.063-.051.126-.098.176-.137a7.8 7.8 0 0 0 2.59-3.317 7.88 7.88 0 0 0 .172-5.464.27.27 0 0 1 .055-.27.27.27 0 0 1 .261-.086c2.282.457 4.684.422 6.95-.11a.286.286 0 0 1 .316.157c1.106 2.457 2.453 5.727 3.023 9.266.22 1.343.426 3.34-.277 5.14-.762 1.961-2.61 3.508-4.715 3.946a6.3 6.3 0 0 1-1.328.136"/>
  <path d="M126.195 131.445a.28.28 0 0 1-.234-.132 2.2 2.2 0 0 0-1.77-1.036.275.275 0 1 1 .02-.55 2.73 2.73 0 0 1 2.219 1.3.273.273 0 0 1-.235.418"/>
  <path fill="#fff" d="M126.285 234.59c9.57 0 18.188-4.09 24.2-10.61l-.61-26.792a7.24 7.24 0 0 0-6.984-4.844l-26.164.543a7.24 7.24 0 0 0-6.688 4.867c-.707 2.043-5.148 12.496-9.937 23.86 6.011 7.882 15.5 12.976 26.183 12.976"/>
  <path d="M100.102 221.887a.3.3 0 0 1-.11-.02.276.276 0 0 1-.144-.36l2.289-5.429c3.785-8.969 7.05-16.71 7.64-18.414a.274.274 0 0 1 .352-.168.27.27 0 0 1 .172.348c-.598 1.722-3.871 9.472-7.656 18.449l-2.29 5.426a.28.28 0 0 1-.253.168M150.484 224.254a.27.27 0 0 1-.273-.266l-.613-26.793a.275.275 0 0 1 .27-.28h.007c.148 0 .27.116.273.269l.61 26.789a.27.27 0 0 1-.266.28zM125.66 234.723q-.034.001-.062-.004a.28.28 0 0 1-.207-.328l3.062-13.782a8.02 8.02 0 0 1 4.379-5.515l3.594-1.727a.275.275 0 1 1 .238.496l-3.594 1.727a7.46 7.46 0 0 0-4.078 5.137l-3.066 13.78a.27.27 0 0 1-.266.216"/>
  <path d="M126.285 234.863c-18.293 0-33.176-14.875-33.176-33.156a.275.275 0 1 1 .55 0c.001 17.977 14.638 32.606 32.626 32.606s32.625-14.63 32.625-32.606a.275.275 0 1 1 .55 0c0 18.281-14.882 33.156-33.175 33.156"/>
  <path fill="#fff" d="M127.887 108.371s-5.672 5.04-4.551 14.45l-2.652.574s-2.34-16.04 7.203-15.024"/>
  <path d="M127.05 108.598c-1.546 0-2.827.52-3.816 1.543-3.25 3.379-2.507 11.296-2.316 12.921l2.117-.46c-.828-7.743 2.934-12.579 4.238-14q-.111-.002-.222-.004m-6.366 15.074a.3.3 0 0 1-.157-.05.28.28 0 0 1-.117-.188c-.055-.395-1.367-9.727 2.43-13.676 1.273-1.324 2.984-1.883 5.078-1.66.105.007.2.086.23.187a.27.27 0 0 1-.078.29c-.054.05-5.55 5.066-4.46 14.21a.27.27 0 0 1-.215.3l-2.653.58a.3.3 0 0 1-.058.007"/>
  <path fill="#5479f7" d="M126.828 135.148c-.898 0-1.766-.41-2.297-1.16a2 2 0 0 1-.129-.195.2.2 0 0 1-.027-.066l-1.746-5.97a.275.275 0 0 1 .187-.339c.149-.043.301.039.344.187l1.73 5.93q.043.073.09.133c.625.879 1.825 1.176 2.86.71l5.25-2.37c.14-.063.305 0 .367.14.063.137 0 .301-.14.364l-5.25 2.37c-.403.18-.825.266-1.239.266"/>
  <path fill="#5479f7" d="M135.41 131.484c.227.649-.574 1.52-1.793 1.95s-2.39.25-2.617-.399c-.23-.648.574-1.523 1.793-1.95 1.215-.429 2.387-.253 2.617.4"/>
  <path fill="#fff" d="M128.434 129.297a5.777 5.777 0 0 1-7.157 3.933c-3.058-.89-4.812-4.097-3.922-7.16.895-3.066 4.098-4.828 7.157-3.937 3.058.89 4.812 4.097 3.922 7.164"/>
  <path d="M122.89 122.176c-.91 0-1.816.23-2.636.683a5.47 5.47 0 0 0-2.633 3.286c-.848 2.914.824 5.972 3.734 6.82 1.41.41 2.895.246 4.18-.461a5.47 5.47 0 0 0 2.633-3.285c.848-2.914-.824-5.973-3.734-6.82a5.5 5.5 0 0 0-1.543-.223m.008 11.562a6 6 0 0 1-1.699-.246c-3.199-.93-5.039-4.297-4.11-7.5a6 6 0 0 1 2.9-3.613 5.98 5.98 0 0 1 4.597-.508c3.203.93 5.043 4.297 4.11 7.5a5.99 5.99 0 0 1-2.895 3.613 6 6 0 0 1-2.903.754"/>
  <path fill="#5479f7" d="M126.805 128.82a4.074 4.074 0 0 1-5.051 2.778 4.075 4.075 0 0 1-2.77-5.055 4.074 4.074 0 0 1 5.051-2.777 4.075 4.075 0 0 1 2.77 5.054"/>
  <path d="M58.652 133.566a.272.272 0 0 1-.191-.469l15.984-15.874a.28.28 0 0 1 .39 0 .277.277 0 0 1-.003.39l-15.984 15.875a.3.3 0 0 1-.196.078M74.64 133.566a.26.26 0 0 1-.19-.078.27.27 0 0 1-.009-.386l19.61-20.375a.27.27 0 0 1 .386-.008c.11.105.114.281.008.39l-19.61 20.371a.26.26 0 0 1-.194.086M78.688 150.402a.28.28 0 0 1-.192-.078.277.277 0 0 1-.004-.39l10.016-10.254a.277.277 0 0 1 .39-.008c.11.11.11.281.004.39L78.887 150.32a.28.28 0 0 1-.2.082"/>
  <g clip-path="url(#h)">
    <path fill="#fff" d="M306.04 217.652s5.831 22.524 9.577 31.137c2.863 6.578 13.621 22.852 18.54 30.164a5.61 5.61 0 0 1-.532 6.926l-9.762 10.582a15.92 15.92 0 0 1-11.699 5.133h-2.738c-1.32 0-2.137-1.446-1.465-2.59l2.797-4.754s-19.438-34.098-22.086-41.875c-2.649-7.777-.871-37.055-.871-37.055z"/>
  </g>
  <g clip-path="url(#i)">
    <path d="M288.059 215.629c-.176 3.09-1.59 29.437.87 36.656 2.614 7.664 21.876 41.488 22.071 41.828a.28.28 0 0 1-.004.278l-2.8 4.754c-.266.453-.27.996-.009 1.453.258.453.723.722 1.239.722h2.738c4.348 0 8.54-1.84 11.496-5.047l9.766-10.582a5.31 5.31 0 0 0 .5-6.586c-4.613-6.863-15.664-23.546-18.563-30.207-3.535-8.125-8.98-28.84-9.543-30.996Zm24.105 86.242h-2.738a1.96 1.96 0 0 1-1.715-1 1.98 1.98 0 0 1 .012-2.004l2.718-4.617c-1.359-2.39-19.488-34.324-22.03-41.785-2.638-7.738-.958-35.965-.888-37.16a.283.283 0 0 1 .313-.258l18.238 2.332a.28.28 0 0 1 .235.203c.054.227 5.867 22.606 9.558 31.098 2.883 6.617 13.91 23.27 18.52 30.12a5.86 5.86 0 0 1-.559 7.262l-9.762 10.586a16.26 16.26 0 0 1-11.902 5.223"/>
  </g>
  <path d="M312.453 293.574a.29.29 0 0 1-.242-.137.28.28 0 0 1 .101-.378 78.6 78.6 0 0 0 19.446-15.973.28.28 0 0 1 .39-.027.28.28 0 0 1 .024.39 79.2 79.2 0 0 1-19.582 16.086.25.25 0 0 1-.137.04M303.535 280.184a.274.274 0 0 1-.098-.531 59 59 0 0 0 21.633-14.54.277.277 0 0 1 .39-.011c.11.101.114.277.013.386a59.54 59.54 0 0 1-21.84 14.68.3.3 0 0 1-.098.016"/>
  <g clip-path="url(#j)">
    <path fill="#fff" d="m295.234 218.785-5.879 79.2c-.152 2.035-1.835 3.609-3.863 3.609h-29.36c-1.07 0-1.542-1.352-.71-2.028l6.387-5.164 9.027-81.597z"/>
    <path d="m271.074 213.148-8.992 81.286a.27.27 0 0 1-.102.187l-6.382 5.16a.845.845 0 0 0-.27.965c.094.277.36.574.805.574h29.36c1.87 0 3.448-1.472 3.589-3.355l5.86-78.965Zm14.418 88.723h-29.36a1.4 1.4 0 0 1-1.327-.941 1.41 1.41 0 0 1 .445-1.578l6.297-5.09 9.015-81.489a.273.273 0 0 1 .34-.234l24.399 5.98a.27.27 0 0 1 .207.286l-5.88 79.203c-.16 2.164-1.976 3.863-4.136 3.863"/>
  </g>
  <path d="M288.191 295.984h-.003c-8.7-.203-17.504-.656-26.172-1.343a.28.28 0 0 1-.254-.297.28.28 0 0 1 .297-.254c8.66.691 17.453 1.144 26.14 1.344a.275.275 0 0 1-.008.55M283.746 283.766c-6.734 0-13.469-.594-20.09-1.782a.28.28 0 0 1-.222-.32.274.274 0 0 1 .316-.223 113.3 113.3 0 0 0 25.848 1.622.283.283 0 0 1 .289.261.28.28 0 0 1-.262.293q-2.937.148-5.879.149"/>
  <path fill="#fff" d="M294.305 172.258s9.312.738 13.539 6.62c4.226 5.888 9.437 11.208 5.664 17.235-2.934 4.688-12.149 10.047-12.149 10.047l-3.91-10.047 4.848-4.925z"/>
  <path d="m297.77 196.18 3.726 9.578c1.555-.938 9.2-5.668 11.777-9.79 3.188-5.093-.296-9.745-3.988-14.675-.55-.734-1.117-1.492-1.664-2.25-3.574-4.977-10.969-6.219-12.879-6.461l7.805 18.5a.28.28 0 0 1-.055.3Zm3.59 10.254a.2.2 0 0 1-.09-.016.27.27 0 0 1-.168-.16l-3.907-10.047a.27.27 0 0 1 .059-.29l4.715-4.796-7.918-18.762a.28.28 0 0 1 .031-.265.28.28 0 0 1 .246-.114c.387.028 9.488.817 13.742 6.735.54.758 1.11 1.511 1.657 2.246 3.808 5.082 7.402 9.883 4.015 15.293-2.937 4.691-11.867 9.918-12.246 10.14a.3.3 0 0 1-.137.036"/>
  <path fill="#5479f7" d="M294.305 172.258s-10.75-1.508-19.395 1.16l-7.41 61.371s7.445 2.23 7.848-6.941c0 0 2.418 9.445 18.246 8.332 15.832-1.114 17.57-4.168 17.57-4.168z"/>
  <path fill="#fff" d="M274.91 173.418c6.008 11.562 5.18 20.27 2.82 20.953-2.363.684-4.613-3.184-4.613-3.184-.742.583-1.86 1.266-3.21 1.903-3.759-4.274-4.919-10.871-5.262-13.934 4.562-3.5 10.265-5.738 10.265-5.738"/>
  <path d="M269.906 193.367a.28.28 0 0 1-.207-.094c-3.73-4.25-4.941-10.648-5.328-14.085a.27.27 0 0 1 .106-.25c4.539-3.481 10.273-5.754 10.332-5.774.14-.055.3.012.355.156a.27.27 0 0 1-.152.356c-.059.023-5.617 2.222-10.078 5.601.328 2.778 1.453 9.262 5.043 13.473a19 19 0 0 0 2.39-1.355.27.27 0 0 1 .38.074.27.27 0 0 1-.071.383 20 20 0 0 1-2.653 1.488.3.3 0 0 1-.117.027"/>
  <path fill="#fff" d="M255.996 173.164s-2.039-4.824-2.547-6.871c-.512-2.047 3.367-4.59 5.235-4.691 1.867-.098 1.921 2.144 1.921 2.144 1.926-.172 1.215 2.211 1.215 2.211 1.055-.27.91 1.469.91 1.469.954.015.524 1.652.524 1.652 1.96 4.305-.328 11.512-.328 11.512.543-.5 1.12-.977 1.719-1.434.343 3.063 1.503 9.66 5.261 13.934-4.441 2.094-11.37 3.664-15.547-.63-5.441-5.593 1.637-19.296 1.637-19.296"/>
  <path d="M258.8 161.875q-.046-.001-.105.004c-1.195.062-3.414 1.25-4.476 2.687-.313.422-.656 1.055-.504 1.66.5 2.004 2.515 6.782 2.535 6.829a.3.3 0 0 1-.008.234c-.07.137-6.926 13.594-1.683 18.98 4.593 4.723 12.195 1.946 14.902.723-3.383-4.047-4.598-9.87-5.031-13.32q-.71.564-1.32 1.121a.27.27 0 0 1-.333.027.27.27 0 0 1-.113-.312c.02-.074 2.23-7.156.34-11.317a.27.27 0 0 1-.016-.183c.086-.336.157-.961-.031-1.207-.035-.043-.094-.098-.234-.102a.28.28 0 0 1-.2-.09.3.3 0 0 1-.07-.207c.024-.285-.004-.937-.242-1.136-.05-.04-.133-.09-.32-.04a.27.27 0 0 1-.266-.078.26.26 0 0 1-.066-.265c.09-.309.25-1.196-.094-1.613-.168-.204-.442-.286-.836-.247a.28.28 0 0 1-.3-.27c0-.007-.032-1.01-.614-1.546-.242-.223-.54-.332-.914-.332m2.59 33.598c-2.542 0-5.163-.696-7.226-2.817-5.312-5.465.805-18.07 1.527-19.504-.32-.77-2.039-4.902-2.511-6.793-.16-.644.047-1.379.597-2.12 1.168-1.579 3.547-2.84 4.891-2.91q.862-.047 1.426.476c.535.5.707 1.254.761 1.66q.673.018 1.036.457c.41.5.355 1.285.277 1.742a.8.8 0 0 1 .394.18c.387.324.45.984.45 1.351.156.051.285.145.383.274.351.465.21 1.289.148 1.582 1.531 3.484.445 8.637-.098 10.715q.492-.418 1.032-.828a.27.27 0 0 1 .273-.036c.09.04.156.121.168.223.305 2.715 1.426 9.496 5.195 13.785a.26.26 0 0 1 .063.235.28.28 0 0 1-.153.195c-1.445.68-4.96 2.133-8.632 2.133"/>
  <path d="M261.297 170.43a.3.3 0 0 1-.082-.012c-1.024-.32-1.817-1.23-2.43-2.781q-.118-.305-.23-.617c-.332-.887-.672-1.81-1.317-2.458-.312-.312-.777-.546-1.101-.363-.29.156-.399.57-.352 1.293l.246 3.719a.28.28 0 0 1-.258.293.28.28 0 0 1-.293-.258l-.246-3.715c-.035-.605-.015-1.453.633-1.816.617-.344 1.336.035 1.758.46.73.735 1.094 1.712 1.445 2.653.075.203.149.406.23.606.544 1.386 1.227 2.191 2.079 2.457a.28.28 0 0 1 .18.347.27.27 0 0 1-.262.192"/>
  <path d="M261.55 170.477q-.446-.001-.874-.266a.273.273 0 0 1-.086-.379.273.273 0 0 1 .379-.086c.347.215.68.238 1.027.074.633-.3 1.059-1.101 1.09-1.367a.274.274 0 0 1 .309-.234.27.27 0 0 1 .238.304c-.055.422-.582 1.407-1.399 1.793-.226.11-.457.16-.683.16"/>
  <path d="M260.754 169.426c-.531 0-1.05-.207-1.395-.59a.28.28 0 0 1 .024-.39.276.276 0 0 1 .387.023c.39.433 1.132.531 1.695.226.531-.285.914-.898 1.004-1.593a.274.274 0 1 1 .543.07c-.106.867-.602 1.637-1.285 2.008-.305.164-.641.246-.973.246"/>
  <path d="M259.887 168.004c-.352 0-.688-.106-.953-.313a.275.275 0 1 1 .336-.433c.44.344 1.12.195 1.523-.153.394-.335.668-.886.82-1.632a.273.273 0 0 1 .325-.215.27.27 0 0 1 .214.324c-.175.867-.511 1.523-1 1.941-.367.317-.828.48-1.265.48M258.938 166.25c-.188 0-.383-.04-.567-.125a.274.274 0 1 1 .234-.496c.442.207 1.012-.063 1.31-.438.288-.375.335-.77.394-1.265l.023-.211a.27.27 0 0 1 .305-.238.27.27 0 0 1 .242.304l-.024.207c-.062.54-.12 1.047-.507 1.54-.313.402-.856.722-1.41.722M257.707 164.852a.279.279 0 0 1-.258-.375l.785-2c.055-.141.211-.211.356-.157.14.055.21.215.156.36l-.781 1.996a.27.27 0 0 1-.258.176M259.652 183.906a.26.26 0 0 1-.199-.09.27.27 0 0 1 .012-.386l3.273-3.043a.277.277 0 0 1 .39.015.28.28 0 0 1-.015.391l-3.273 3.039a.27.27 0 0 1-.188.074M246.07 123.781c-2.492 0-4.968.57-7.277 1.696-8.285 4.043-11.754 14.117-7.734 22.453 1.953 4.05 5.359 7.086 9.586 8.55a16.51 16.51 0 0 0 12.73-.77c8.285-4.042 11.754-14.116 7.734-22.452-1.953-4.051-5.355-7.086-9.586-8.551a16.6 16.6 0 0 0-5.453-.926m.028 34.176c-1.895 0-3.793-.316-5.633-.957-4.367-1.512-7.887-4.648-9.903-8.832-4.152-8.61-.566-19.012 7.993-23.188 4.132-2.02 8.8-2.3 13.148-.793 4.367 1.512 7.887 4.649 9.902 8.833 4.153 8.609.567 19.007-7.988 23.187a17.1 17.1 0 0 1-7.52 1.75"/>
  <path d="M256 163.957c.695-.21.973-.098 1.73.61l.653-1.57-3.668-7.606-2.422 1.18zM245.11 146.629a.8.8 0 0 1 .206-.559q.21-.229.59-.23a.77.77 0 0 1 .801.789c0 .215-.07.394-.219.539q-.218.222-.582.223-.38 0-.59-.223a.76.76 0 0 1-.207-.54m.156-3.238c.011-.758.117-1.371.308-1.836q.292-.696 1.25-1.637.957-.943 1.235-1.336a3.2 3.2 0 0 0 .425-.86c.102-.312.149-.667.149-1.07q0-1.206-.645-1.898c-.425-.461-1.027-.691-1.793-.691q-1.16 0-1.87.664-.714.662-.735 1.793h-1.149q.019-1.583 1.075-2.54c.703-.632 1.593-.953 2.68-.953q1.663 0 2.628.973.96.973.961 2.633.001 1.048-.472 1.96-.476.91-1.801 2.13-1.095.92-1.094 2.668z"/>
  <path fill="#fff" d="m276.184 166.863 2.394 5.395-1.437.57s2.84 5.328 9.476 4.66-2.722-11.96-2.722-11.96-6.06-1.348-7.711 1.335"/>
  <path d="M286.617 177.766a.276.276 0 0 1-.273-.25.273.273 0 0 1 .246-.301c1.055-.106 1.7-.485 1.976-1.156 1.145-2.79-4.191-9.5-4.824-10.282-.738-.148-5.719-1.05-7.246 1.11l2.336 5.258c.031.07.031.148.004.218a.28.28 0 0 1-.156.149l-1.203.48a.276.276 0 0 1-.356-.156.27.27 0 0 1 .152-.356l.938-.375-2.277-5.132a.28.28 0 0 1 .015-.254c1.735-2.817 7.75-1.52 8.004-1.461a.26.26 0 0 1 .152.094c.258.308 6.305 7.66 4.97 10.914-.356.867-1.173 1.37-2.43 1.496q-.014.002-.028.004"/>
  <path d="M274.71 155.79c-.53-.794-1.179-1.642-1.073-2.59.172-1.54 2.093-2.137 3.633-2.122 5.507.055 10.511 3.258 14.593 6.98s7.617 8.083 12.102 11.301c3.226 2.313 6.902 4.004 9.851 6.664s5.141 6.727 4.098 10.57c-.902 3.329-4.086 5.677-7.445 6.345-3.36.671-6.852-.086-10.063-1.286-11.21-4.187-20.152-14.113-23.27-25.722-.433-1.598-.023-2.993-.273-4.61a13.8 13.8 0 0 0-2.152-5.53M289.02 154.176c-.434-.574-.5-1.367-.325-2.067.18-.699.575-1.32 1.004-1.898a15.5 15.5 0 0 1 3.438-3.352c.965-.683 2.027-1.261 3.183-1.496 1.157-.238 2.422-.105 3.41.54 1.266.827 1.93 2.44 1.739 3.945-.192 1.504-1.176 2.851-2.489 3.601-1.308.75-2.855.922-4.355 1.078-1.437.153-4.531 1.075-5.605-.351"/>
  <path fill="#fff" d="M275.473 157.074s3.332 1.223 3.023 2.895-.32 2.52.457 3.23c0 0 2.91-.91 3.227 1.117.32 2.028-1.84 2.801-3.442 2.207 0 0-1.718 1.82-4.398.485-2.684-1.336-1.188-5.735 1.133-9.934"/>
  <path d="M275.598 157.418c-1.985 3.64-2.77 6.406-2.27 8.008.192.613.563 1.05 1.133 1.336 2.473 1.226 4.062-.41 4.078-.426a.27.27 0 0 1 .293-.07c.871.324 1.91.195 2.527-.313.465-.379.653-.93.551-1.594-.062-.39-.234-.664-.52-.843-.835-.52-2.34-.059-2.355-.051a.28.28 0 0 1-.265-.063c-.872-.797-.872-1.718-.543-3.484.203-1.094-1.66-2.102-2.63-2.5m.664 10.348c-.602 0-1.29-.137-2.047-.512a2.7 2.7 0 0 1-1.41-1.664c-.563-1.809.254-4.715 2.425-8.649a.28.28 0 0 1 .336-.125c.145.055 3.551 1.325 3.2 3.204-.278 1.5-.305 2.265.27 2.87.456-.117 1.769-.382 2.644.157.425.266.687.676.773 1.226.133.856-.129 1.606-.742 2.11-.734.597-1.887.773-2.906.453a3.98 3.98 0 0 1-2.543.93"/>
  <path d="M278.977 165.379a.26.26 0 0 1-.211-.102.273.273 0 0 1 .035-.386 2.12 2.12 0 0 1 2.12-.313c.142.059.208.219.15.363a.28.28 0 0 1-.36.149 1.57 1.57 0 0 0-1.559.23.3.3 0 0 1-.175.059"/>
  <g clip-path="url(#k)">
    <path d="M358.738 301.871h-73.246a.275.275 0 1 1 0-.55h73.246c.153 0 .274.12.274.273a.275.275 0 0 1-.274.277"/>
  </g>
  <path fill="#fff" d="m340.422 148.21-19.402-1.398a1.39 1.39 0 0 1-1.29-1.492l.985-13.64a1.39 1.39 0 0 1 1.488-1.29l19.406 1.4a1.4 1.4 0 0 1 1.29 1.491l-.985 13.64a1.39 1.39 0 0 1-1.492 1.29"/>
  <path d="M322.102 130.66c-.579 0-1.07.453-1.114 1.04l-.984 13.64a1.123 1.123 0 0 0 1.035 1.2l19.402 1.398a1.123 1.123 0 0 0 1.2-1.036l.984-13.64a1.125 1.125 0 0 0-1.035-1.2l-19.406-1.398c-.028 0-.055-.004-.082-.004m18.425 17.832c-.043 0-.082 0-.125-.004L321 147.086a1.673 1.673 0 0 1-1.547-1.785l.985-13.64a1.665 1.665 0 0 1 1.785-1.544l19.406 1.399a1.67 1.67 0 0 1 1.543 1.785l-.985 13.64a1.664 1.664 0 0 1-1.66 1.551"/>
  <path d="M331.348 140.313a.28.28 0 0 1-.168-.06l-6.79-5.183a.28.28 0 0 1-.05-.386.28.28 0 0 1 .387-.051l6.789 5.183c.117.094.14.266.05.387a.28.28 0 0 1-.218.11"/>
  <path d="M331.395 140.316a.276.276 0 0 1-.133-.515l7.46-4.156a.275.275 0 0 1 .376.105c.074.133.027.3-.11.375l-7.457 4.156a.3.3 0 0 1-.136.035"/>
  <path fill="#fff" d="m322.922 150.992-11.496 1.32a1.393 1.393 0 0 1-1.543-1.226l-.895-7.793a1.395 1.395 0 0 1 1.227-1.543l11.496-1.316a1.39 1.39 0 0 1 1.543 1.226l.894 7.79a1.393 1.393 0 0 1-1.226 1.542"/>
  <path d="M322.922 150.992h.004Zm-1.05-10.293q-.066.001-.13.008l-11.496 1.316a1.12 1.12 0 0 0-.984 1.239l.894 7.793c.035.297.18.562.418.75.23.183.524.27.82.234l11.497-1.32a1.12 1.12 0 0 0 .75-.414c.183-.235.27-.528.234-.825l-.895-7.789a1.12 1.12 0 0 0-1.109-.992m-10.606 11.899c-.38 0-.739-.13-1.036-.364a1.65 1.65 0 0 1-.62-1.117l-.895-7.793a1.67 1.67 0 0 1 1.469-1.847l11.496-1.317a1.65 1.65 0 0 1 1.226.352c.352.277.57.672.621 1.117l.895 7.789c.05.441-.074.879-.352 1.227-.277.351-.675.57-1.117.62l-11.496 1.32a2 2 0 0 1-.191.013"/>
  <path d="M316.676 147.11a.3.3 0 0 1-.121-.028l-4.926-2.477a.28.28 0 0 1-.125-.37.274.274 0 0 1 .371-.122l4.926 2.477a.27.27 0 0 1 .12.367.27.27 0 0 1-.245.152"/>
  <path d="M316.71 147.105a.272.272 0 0 1-.175-.484l4.235-3.531a.274.274 0 0 1 .386.039.274.274 0 0 1-.035.387l-4.238 3.527a.27.27 0 0 1-.172.062"/>
  <path fill="#fff" d="m331.574 164.113-14.394-2.027a1.39 1.39 0 0 1-1.188-1.57l1.403-9.942a1.396 1.396 0 0 1 1.574-1.187l14.394 2.031a1.39 1.39 0 0 1 1.184 1.574l-1.399 9.938a1.39 1.39 0 0 1-1.574 1.183"/>
  <path d="M318.773 149.652c-.242 0-.476.075-.671.223a1.1 1.1 0 0 0-.434.738l-1.402 9.938a1.12 1.12 0 0 0 .953 1.266l14.394 2.027a1.12 1.12 0 0 0 1.262-.953l1.402-9.938a1.125 1.125 0 0 0-.953-1.266l-14.394-2.027c-.051-.008-.106-.008-.157-.008m12.997 14.754c-.075 0-.157-.008-.235-.02l-14.394-2.027a1.65 1.65 0 0 1-1.098-.648 1.65 1.65 0 0 1-.32-1.234l1.398-9.942a1.667 1.667 0 0 1 1.887-1.418l14.394 2.028a1.67 1.67 0 0 1 1.418 1.886l-1.398 9.938a1.67 1.67 0 0 1-1.652 1.437"/>
  <path d="M325.258 157.602a.26.26 0 0 1-.18-.07l-5-4.387a.27.27 0 0 1-.027-.387.273.273 0 0 1 .387-.028l5 4.387a.274.274 0 0 1-.18.485"/>
  <path d="M325.297 157.605a.28.28 0 0 1-.25-.156.277.277 0 0 1 .133-.367l6.015-2.836a.277.277 0 0 1 .235.5l-6.016 2.836a.3.3 0 0 1-.117.023"/>
  <path fill="#e2eaff" d="m96.516 264.336-9.672-11.98c-.805-.997-2.508-1.79-3.785-1.774l-1.63.031c-1.468.028-2.898.39-4.253.95-3.817 1.566-9.977 1.617-18.031-12.336-8.008-13.872-4.965-19.2-1.72-21.735 1.41-1.101 2.555-2.508 3.481-4.043l.36-.601c.66-1.098.82-2.973.363-4.168l-5.543-14.364c-.461-1.195-1.867-1.984-3.129-1.754l-3.57.66c-3.008.551-5.79 2.051-7.778 4.372-8.449 9.863-7.03 29.636 4.309 49.27 11.363 19.679 27.828 30.804 40.61 28.35 2.945-.566 5.585-2.179 7.53-4.464l2.41-2.836c.833-.973.848-2.586.048-3.578"/>
  <path d="M126.285 295.313h-42.59a.274.274 0 0 1-.273-.274v-13.328a.275.275 0 0 1 .55 0v13.05h42.313c.153 0 .278.126.278.278a.28.28 0 0 1-.278.274"/>
  <path fill="#e2eaff" d="M145.195 295.04a2.295 2.295 0 0 1 2.297-2.294 2.292 2.292 0 1 1 0 4.586 2.297 2.297 0 0 1-2.297-2.293M138.496 295.04a2.29 2.29 0 0 1 2.297-2.294 2.292 2.292 0 1 1 0 4.586 2.295 2.295 0 0 1-2.297-2.293M131.793 295.04a2.295 2.295 0 0 1 2.297-2.294 2.292 2.292 0 1 1 0 4.586 2.297 2.297 0 0 1-2.297-2.293"/>
  <path d="M130.61 96.422a.27.27 0 0 1-.274-.274v-17.28c0-.153.121-.278.273-.278h57.028c.152 0 .273.125.273.277a.27.27 0 0 1-.273.274h-56.75v17.007a.275.275 0 0 1-.278.274"/>
  <g clip-path="url(#l)">
    <path fill="#e2eaff" d="M66.879 73.27H16.258v22.878h50.62z"/>
  </g>
  <path fill="#fff" d="M61.316 90.633H53.5a.414.414 0 0 1 0-.828h7.816a.413.413 0 0 1 0 .828M46.738 90.633H21.82a.417.417 0 0 1-.414-.414c0-.227.188-.414.414-.414h24.918c.227 0 .414.187.414.414a.417.417 0 0 1-.414.414M61.316 85.121H37.11a.41.41 0 0 1-.41-.414c0-.227.184-.414.41-.414h24.207c.227 0 .41.187.41.414 0 .23-.183.414-.41.414M31.582 85.121H21.82a.414.414 0 0 1 0-.828h9.762c.227 0 .41.187.41.414 0 .23-.183.414-.41.414M61.316 79.61h-11.3a.414.414 0 0 1-.414-.415c0-.226.187-.41.414-.41h11.3a.41.41 0 0 1 .41.41c0 .23-.183.414-.41.414M43.258 79.61H21.82a.414.414 0 0 1-.414-.415c0-.226.188-.41.414-.41h21.438a.41.41 0 0 1 .41.41c0 .23-.184.414-.41.414"/>
  <path d="M122.895 96.422H74.64a.275.275 0 1 1 0-.55h48.254c.152 0 .277.124.277.276a.275.275 0 0 1-.277.274"/>
</svg>
