<svg xmlns="http://www.w3.org/2000/svg" width="500" height="500" viewBox="0 0 375 375">
  <path fill="#caddff" d="M350.34 147.672c-13.844-70.5-83.5-111.399-142.168-116.836-48.602-4.5-112.074 13.293-134.508 56.305-14.11 27.046 2.84 35.632-8.7 96.918-9.987 53.039-27.472 72.03-16.39 99.062 9.059 22.102 30.23 32.555 43.766 39.238 53.344 26.336 134.379 23.246 192.719-24.796 13.652-11.243 80.941-70.141 65.28-149.891"/>
  <path fill="#5479f7" d="m334.781 263.543-175.496-24.43a8.84 8.84 0 0 1-7.707-8.765l-2.406-122.543s4-2.887 6.27-3.993a6.8 6.8 0 0 1 3.863-.632l174.968 22.336a8.83 8.83 0 0 1 7.707 8.761v120.364c0 2.152-.98 4.05-2.503 5.3-1.399 1.153-4.696 3.602-4.696 3.602"/>
  <path fill="#fff" d="m329.422 265.172-174.969-22.34a8.83 8.83 0 0 1-7.707-8.762V113.71c0-4.136 3.625-7.335 7.723-6.808l174.972 22.336a8.83 8.83 0 0 1 7.707 8.762v120.363c0 4.133-3.625 7.332-7.726 6.809"/>
  <path d="M321.875 128.832q-.035.001-.07-.004L171.69 109.664a.558.558 0 1 1 .141-1.11l150.117 19.165a.558.558 0 0 1-.074 1.113"/>
  <path fill="#caddff" d="m325.703 260.21-167.07-21.327a6.426 6.426 0 0 1-5.606-6.375V116.41a4.584 4.584 0 0 1 5.16-4.547l167.07 21.328a6.425 6.425 0 0 1 5.606 6.371v116.102c0 2.762-2.422 4.899-5.16 4.547"/>
  <path fill="#5479f7" d="m337.191 271.637-.285-.668a3.04 3.04 0 0 0-2.41-1.824L156.82 246.199c-5.445-.699-11.613.352-16.382 3.078l-94.575 54.52-.004 6.75c-.004 1.086.801 2 1.875 2.14l179.61 23.368c5.449.699 10.972-.399 15.738-3.125l92.762-53.094a2.45 2.45 0 0 0 1.258-2.297c-.063-1.117.09-5.902.09-5.902"/>
  <path fill="#99b9ff" d="M227.348 329.672 48.043 306.484c-2.383-.304-3.008-3.464-.926-4.656l92.262-52.754a25.26 25.26 0 0 1 15.738-3.125l179.305 23.188c2.383.308 3.008 3.468.922 4.66l-92.258 52.75a25.23 25.23 0 0 1-15.738 3.125"/>
  <path fill="#caddff" d="M262.453 300.39 106.97 280.138c-2.149-.274-2.711-3.13-.832-4.207l36.558-20.692a22.8 22.8 0 0 1 14.215-2.82l155.48 20.254c2.15.273 2.715 3.129.833 4.207l-36.555 20.691a22.82 22.82 0 0 1-14.215 2.82"/>
  <path d="M230.516 330.434q-1.624-.002-3.243-.204l-37.246-4.82a.556.556 0 0 1-.48-.625.56.56 0 0 1 .625-.484l37.246 4.816c5.289.68 10.754-.406 15.387-3.055l59.632-34.109a.559.559 0 0 1 .555.973l-59.633 34.11a25.97 25.97 0 0 1-12.843 3.398M245.8 258.426q-.033-.001-.073-.008l-44.43-5.836a.556.556 0 0 1-.48-.625.56.56 0 0 1 .624-.484l44.434 5.84a.558.558 0 0 1-.074 1.113M134.18 252.61a.55.55 0 0 1-.485-.286.554.554 0 0 1 .207-.762l5.2-2.972a25.96 25.96 0 0 1 16.085-3.195l23.575 3.097a.56.56 0 1 1-.148 1.11l-23.571-3.098a24.85 24.85 0 0 0-15.387 3.059l-5.199 2.972a.55.55 0 0 1-.277.074"/>
  <path fill="#fff" d="M300.387 232.156c.09 5.938-4.996 10.211-11.324 9.543L170.09 229.15c-5.594-.59-10.121-5.555-10.137-11.09l-.437-138.032c-.016-5.402 4.422-9.668 9.945-9.527l117.289 2.957c6.23.156 11.379 4.973 11.465 10.758z"/>
  <path fill="#5479f7" d="m298.215 84.215.066 4.515-138.75-4.488-.015-4.215c-.016-5.406 4.59-9.664 10.117-9.527l117.308 2.96c6.239.157 11.192 4.966 11.274 10.755"/>
  <path fill="#caddff" d="m284.89 100.375-113.34-4.32c-1.167-.043-2.109.847-2.105 1.992l.125 31.902c.008 1.149.961 2.137 2.13 2.203l113.71 6.407c1.313.074 2.36-.856 2.344-2.075l-.465-33.82c-.016-1.215-1.09-2.238-2.398-2.289M220.992 142.91l-49.258-2.972c-1.175-.07-2.117.808-2.113 1.96l.297 74.485c.004 1.168.96 2.207 2.14 2.328l49.598 4.965c1.242.125 2.242-.75 2.23-1.95l-.644-76.538c-.008-1.184-1.015-2.208-2.25-2.278M285.523 146.8l-52.41-3.16c-1.246-.074-2.242.829-2.23 2.02l.691 76.832c.012 1.203 1.035 2.281 2.293 2.406l52.785 5.286c1.325.132 2.383-.766 2.364-2.004l-1.086-79.02c-.02-1.226-1.098-2.277-2.407-2.36"/>
  <path d="M290.145 242.488q-.664 0-1.332-.07l-118.95-12.563c-5.851-.613-10.62-5.84-10.64-11.644a.558.558 0 1 1 1.117 0c.015 5.25 4.34 9.976 9.637 10.531l118.953 12.563c3.011.316 5.902-.559 7.918-2.403 1.836-1.68 2.824-4.011 2.789-6.574a.555.555 0 0 1 .547-.566h.011c.305 0 .551.246.559.55.043 2.887-1.078 5.52-3.149 7.415-1.953 1.785-4.62 2.761-7.46 2.761M299.492 185.027a.56.56 0 0 1-.558-.55l-1.47-100.082c-.081-5.477-4.976-10.06-10.917-10.207l-117.274-2.97c-2.546-.062-4.937.86-6.71 2.594a8.82 8.82 0 0 0-2.657 6.376l.02 5.628a.558.558 0 1 1-1.117.004l-.02-5.629a9.92 9.92 0 0 1 2.992-7.175c1.992-1.954 4.668-2.993 7.524-2.914l117.27 2.964c6.53.168 11.917 5.243 12.007 11.313l1.469 100.082a.556.556 0 0 1-.551.566z"/>
  <path fill="#5479f7" d="m189.125 128.816-60.496-3.449c-3.79-.215-6.762 2.918-6.762 6.996v71.192c0 4.132 2.996 7.812 6.813 8.215l60.996 6.449c4.101.433 7.398-2.711 7.37-7.024l-.48-74.257c-.027-4.254-3.37-7.891-7.441-8.122"/>
  <path fill="#fff" d="m189.441 139.762-61.43-3.86c-1.167-.074-2.113.887-2.113 2.149l.024 65.367c0 1.277.953 2.41 2.129 2.527l61.804 6.332c1.262.13 2.278-.84 2.27-2.164l-.398-67.836c-.012-1.308-1.036-2.433-2.286-2.515"/>
  <path fill="#caddff" d="m187.516 169.055-58.137-4.59-.016-24.082 58.016 3.793zM155.945 204.457l-26.539-2.652-.023-33.328 26.465 2.148zM187.773 207.64l-27.48-2.75-.113-33.913 27.402 2.226zM188.41 132.3l-40.582-2.386c-.863-.05-1.562.656-1.562 1.578l.004 1.258c0 .922.703 1.715 1.566 1.766l40.601 2.496c.907.054 1.637-.668 1.63-1.614l-.005-1.289c-.007-.945-.746-1.754-1.652-1.808M131.07 131.262c0 1.11-.832 1.957-1.86 1.894-1.026-.062-1.858-1.011-1.862-2.12 0-1.106.832-1.954 1.859-1.891 1.027.058 1.863 1.007 1.863 2.117M136.531 131.59c0 1.113-.84 1.965-1.875 1.898-1.031-.062-1.87-1.011-1.87-2.125 0-1.11.835-1.96 1.866-1.898 1.036.062 1.875 1.012 1.88 2.125M142.023 131.918c0 1.117-.84 1.973-1.882 1.906-1.04-.062-1.883-1.015-1.887-2.133 0-1.113.84-1.964 1.879-1.902 1.043.059 1.887 1.016 1.89 2.129"/>
  <path fill="#99b9ff" d="m336.582 83.559-68.187-2.079c-4.254-.128-7.653 3.274-7.61 7.602l.77 75.547c.047 4.39 3.543 8.223 7.832 8.562l68.777 5.47c4.629.366 8.336-3.056 8.258-7.645l-1.367-79.008c-.078-4.528-3.88-8.309-8.473-8.45"/>
  <path fill="#fff" d="m337.063 95.195-69.149-2.52c-1.316-.05-2.367.997-2.351 2.337l.73 69.379c.016 1.351 1.098 2.53 2.418 2.632l69.633 5.309c1.422.11 2.558-.945 2.535-2.355l-1.215-72.168c-.023-1.391-1.191-2.559-2.601-2.614"/>
  <path fill="#caddff" d="m299.734 140.863-29.8-1.824-.457-41.644 29.687 1.156zM300.055 164.797l-29.868-2.203-.218-20.07 29.812 1.878zM335.04 126.48l-31.177-1.644-.36-26.113 31.099 1.21zM335.715 167.43l-31.293-2.313-.5-36.035 31.187 1.715z"/>
  <path fill="#5479f7" d="m335.816 87.29-45.71-1.485a1.675 1.675 0 0 0-1.739 1.715l.016 1.335c.012.98.808 1.805 1.785 1.836l45.734 1.602c1.02.035 1.836-.75 1.817-1.758l-.02-1.37c-.02-1.005-.86-1.845-1.883-1.876M271.293 87.672c.016 1.176-.914 2.098-2.066 2.058-1.157-.039-2.102-1.023-2.114-2.199-.011-1.176.914-2.094 2.067-2.058 1.152.039 2.101 1.023 2.113 2.199M277.43 87.879c.011 1.18-.918 2.101-2.082 2.062s-2.114-1.027-2.125-2.207c-.016-1.175.914-2.101 2.074-2.062 1.164.035 2.117 1.023 2.133 2.207M283.602 88.086c.015 1.184-.922 2.113-2.09 2.07-1.172-.039-2.13-1.031-2.14-2.215-.017-1.18.917-2.109 2.085-2.07 1.172.04 2.133 1.031 2.145 2.215M273.91 225.379c-14.808-1.438-28.426-8.902-37.469-20.402-1.535-1.954-1.226-4.559.692-5.825 1.918-1.27 4.73-.714 6.277 1.243 7.356 9.3 18.414 15.304 30.39 16.417 18.18 1.688 33.993-8.316 38.184-24.37.594-2.274 3.164-3.497 5.746-2.723 2.59.777 4.207 3.261 3.61 5.55-2.488 9.508-8.582 17.766-17.113 23.227-8.735 5.59-19.235 7.957-30.317 6.883"/>
  <path fill="#5479f7" d="m332.281 201.773-14.476-17.691-17.868 11.3z"/>
  <path fill="#5479f7" d="m332.281 201.773-14.476-17.691-17.868 11.3z"/>
  <path d="M277.883 217.563a45 45 0 0 1-4.133-.196c-12.09-1.12-23.309-7.18-30.777-16.625-1.368-1.73-3.852-2.234-5.536-1.12a3.1 3.1 0 0 0-1.37 2.112c-.16.98.136 2.04.812 2.899a53 53 0 0 0 7.48 7.73.561.561 0 0 1-.719.86 54 54 0 0 1-7.636-7.899c-.871-1.11-1.25-2.48-1.04-3.77a4.2 4.2 0 0 1 1.86-2.867c2.156-1.421 5.305-.812 7.024 1.36 7.277 9.207 18.218 15.113 30.007 16.207 3.262.305 6.508.238 9.641-.188a.56.56 0 0 1 .633.477.56.56 0 0 1-.48.629c-1.891.258-3.82.39-5.766.39"/>
  <path d="M279.086 226.191q-2.59 0-5.23-.257a52 52 0 0 1-4.2-.57.564.564 0 0 1-.453-.65.56.56 0 0 1 .649-.452 56 56 0 0 0 4.113.562c10.984 1.063 21.344-1.285 29.957-6.8 7.234-4.63 12.637-11.188 15.617-18.97a.555.555 0 0 1 .719-.324.56.56 0 0 1 .32.723c-3.062 8.008-8.617 14.754-16.055 19.516-7.441 4.761-16.152 7.222-25.437 7.222"/>
  <path d="M332.281 202.332a.6.6 0 0 1-.113-.012l-12.223-2.52a.56.56 0 0 1 .227-1.097l10.676 2.203-13.16-16.086-2.63 1.664a.563.563 0 0 1-.773-.175.56.56 0 0 1 .176-.77l3.047-1.926a.553.553 0 0 1 .73.121l14.473 17.684a.55.55 0 0 1 .047.644.55.55 0 0 1-.477.27"/>
  <path fill="#99b9ff" d="M153.168 117.027a4.3 4.3 0 0 1-.977-.16c-2.187-.629-3.523-2.84-2.992-4.941 2.211-8.742 7.485-16.543 14.887-21.992 7.684-5.657 17.031-8.512 27.066-8.227 14.637.414 28.598 7.719 37.25 19.629 1.399 1.922.922 4.473-1.066 5.684-1.98 1.21-4.715.632-6.102-1.293-6.953-9.633-18.207-15.575-30.035-15.957-16.375-.536-30.297 9.52-34.07 24.414-.457 1.793-2.125 2.93-3.961 2.843"/>
  <path fill="#99b9ff" d="m140.14 106.465 11.923 15.558 15.542-10.98z"/>
  <path fill="#5479f7" d="m140.14 106.465 11.923 15.558 15.542-10.98z"/>
  <path fill="#99b9ff" d="m140.14 106.465 11.923 15.558 15.542-10.98z"/>
  <path d="M225.055 108.207c-1.633 0-3.27-.762-4.27-2.152-6.84-9.47-17.902-15.348-29.601-15.727-6.461-.21-12.746 1.258-18.164 4.254a.556.556 0 0 1-.758-.223.555.555 0 0 1 .218-.757c5.594-3.09 12.07-4.61 18.739-4.395 12.043.39 23.433 6.445 30.469 16.191 1.218 1.692 3.625 2.204 5.359 1.145.808-.496 1.355-1.266 1.535-2.164.184-.934-.039-1.899-.633-2.715a46 46 0 0 0-3.531-4.289.564.564 0 0 1 .027-.79c.23-.21.582-.198.793.028a48 48 0 0 1 3.617 4.395c.778 1.074 1.07 2.344.825 3.59-.243 1.21-.973 2.238-2.055 2.898-.785.48-1.68.711-2.57.711"/>
  <path d="M150.352 108.75a.5.5 0 0 1-.192-.035.556.556 0 0 1-.336-.715c2.696-7.39 7.512-13.793 13.93-18.516 7.8-5.742 17.281-8.62 27.414-8.336 4.047.114 8.094.754 12.023 1.895.293.09.461.398.38.695a.56.56 0 0 1-.696.38 47 47 0 0 0-11.738-1.852c-9.89-.282-19.125 2.527-26.719 8.117-6.238 4.594-10.922 10.816-13.543 18a.56.56 0 0 1-.523.367"/>
  <path d="M152.063 122.582a.57.57 0 0 1-.446-.219l-11.922-15.558a.57.57 0 0 1-.035-.63.565.565 0 0 1 .57-.265l10.102 1.688c.305.05.508.34.461.64a.56.56 0 0 1-.645.461l-8.703-1.453 10.735 14.008 5.98-4.223a.56.56 0 0 1 .778.133.56.56 0 0 1-.133.781l-6.422 4.532a.55.55 0 0 1-.32.105"/>
  <path fill="#fff" d="M135.012 211.992c0-.453-25.395-4.469-27.032-9.117-2.445-6.93-5.492-15.266-5.492-15.266l-6.343 4.008 4.082 19.946z"/>
  <path d="m100.688 211.012 29.257.36c-11.136-2.403-21.351-5.075-22.492-8.31a1602 1602 0 0 0-5.254-14.609l-5.43 3.434Zm34.324 1.543h-.008l-34.781-.43a.56.56 0 0 1-.54-.45l-4.085-19.945a.56.56 0 0 1 .25-.585l6.34-4.008c.144-.09.32-.11.48-.059a.56.56 0 0 1 .344.34c.031.082 3.078 8.418 5.496 15.273 1.129 3.207 16.281 6.438 22.75 7.817 4.312.922 4.312.922 4.312 1.488a.57.57 0 0 1-.168.399.57.57 0 0 1-.39.16"/>
  <path fill="#5479f7" d="M62.582 166.176c6.055-1.977 15.281-3.395 26.313.12 4.02 1.282 6.906 4.825 7.402 9.02l8.98 51.786c.446 3.765-4.578 7.425-8.12 8.77-3.7 1.401-9.29 2.73-17.208 2.73-8.488 0-14.656.492-18.101-1.016-2.856-1.254-7.157-4.285-7.301-7.402l.621-53.23c-.223-4.852 2.8-9.27 7.414-10.778"/>
  <path fill="#5479f7" d="M105.008 188.43s-7.172-19.887-15.215-21.801l4.09 28.18zM45.86 198.21s.785-13.304 1.933-18.444c2.414-10.817 12.719-12.453 12.719-12.453l1.254 29.05z"/>
  <path fill="#fff" d="M47.867 197.656s-.773 10.153 3.238 16.961c4.797 8.137 28.989-2.82 28.989-2.82l2.816-1.594a7.8 7.8 0 0 1 6.25-.64l4.547 1.468s-3.754-4.504-6.945-6.226c-1.496-.809-3.438-.043-5.078.996-2.817 1.785-6.137 2.625-9.473 2.527l-9.621-.289a3.186 3.186 0 0 1-3.082-2.91l-.73-8.395z"/>
  <path d="M48.398 198.176c-.086 2.058-.203 10.402 3.192 16.16 1.187 2.012 3.71 2.758 6.785 2.758 8.383 0 20.848-5.52 21.469-5.797l2.789-1.582a8.4 8.4 0 0 1 6.699-.684l2.578.832c-1.36-1.445-3.508-3.539-5.414-4.566-1.328-.715-3.187.133-4.512.973-2.863 1.816-6.254 2.726-9.789 2.617l-9.62-.29a3.743 3.743 0 0 1-3.622-3.421l-.683-7.84Zm10.043 19.996c-3.48 0-6.398-.867-7.816-3.27-4.059-6.886-3.348-16.863-3.316-17.285a.56.56 0 0 1 .511-.515l10.91-.926a.565.565 0 0 1 .606.508l.73 8.394a2.625 2.625 0 0 0 2.54 2.402l9.624.29c3.317.093 6.48-.747 9.157-2.442 2.293-1.457 4.191-1.797 5.64-1.016 3.25 1.754 6.953 6.172 7.11 6.364.156.187.172.46.031.668a.55.55 0 0 1-.633.219l-4.543-1.465a7.26 7.26 0 0 0-5.808.59l-2.813 1.593c-.016.008-.031.02-.047.024-.719.328-13.09 5.867-21.883 5.867"/>
  <path fill="#fff" d="m84.992 309.258-5.246 15.664s5.715-.488 6.258-.379c.547.105 7.23-14.29 7.23-14.29z"/>
  <path d="M86.086 323.988q.012.002.023.004c-.007 0-.015-.004-.023-.004m-.711-14.12-4.828 14.425c1.715-.14 4.305-.336 5.258-.32.843-1.157 4.312-8.352 6.597-13.254Zm-5.629 15.612a.557.557 0 0 1-.527-.734l5.242-15.668a.57.57 0 0 1 .598-.379l8.242 1a.56.56 0 0 1 .437.793c-.015.035-1.691 3.64-3.41 7.192-3.668 7.554-3.89 7.511-4.43 7.406-.375-.05-3.398.16-6.105.39z"/>
  <path fill="#99b9ff" d="M80.95 321.48s7.886-3.238 9.343.825c1.855 5.168 4.758 13.05 4.758 13.05a2.212 2.212 0 0 1-1.906 2.954c-2.883.234-7.18.421-9.184-.286-3.164-1.109-8.41-11.128-8.41-11.128l1.617-8.524s2.863-.402 3.781 3.11"/>
  <path d="M76.137 326.809c1.511 2.851 5.633 9.855 8.008 10.691 1.457.508 4.636.598 8.957.254a1.65 1.65 0 0 0 1.422-2.207c-.028-.074-2.922-7.942-4.754-13.05-.223-.626-.633-1.06-1.254-1.337-2.524-1.12-7.309.817-7.356.836a.56.56 0 0 1-.754-.375c-.59-2.262-2.062-2.648-2.773-2.7Zm12.367 12.27c-1.871 0-3.617-.134-4.73-.524-3.274-1.153-8.169-10.356-8.715-11.399a.57.57 0 0 1-.055-.367l1.617-8.523a.56.56 0 0 1 .469-.45c.035-.003 3.023-.382 4.215 2.93 1.441-.512 5.254-1.68 7.664-.61.902.403 1.523 1.067 1.851 1.981a2021 2021 0 0 0 4.754 13.047c.293.824.192 1.711-.277 2.441a2.76 2.76 0 0 1-2.106 1.262 60 60 0 0 1-4.687.211"/>
  <path d="M93.031 335.453H84.93a.558.558 0 1 1 0-1.117h8.101c.305 0 .559.25.559.562a.56.56 0 0 1-.559.555"/>
  <path fill="#fff" d="m70.121 313.105 1.781 15.758 7.168-1.968-.55-14.196z"/>
  <path d="m70.742 313.637 1.64 14.515 6.114-1.675-.512-13.196Zm1.16 15.785a.551.551 0 0 1-.555-.496l-1.78-15.758a.55.55 0 0 1 .128-.426.55.55 0 0 1 .399-.195l8.398-.406a.53.53 0 0 1 .403.144.56.56 0 0 1 .183.39l.55 14.2a.555.555 0 0 1-.41.559l-7.167 1.968a.5.5 0 0 1-.149.02"/>
  <path fill="#99b9ff" d="M71.227 340.473H82.57c1.535 0 2.711-1.36 2.489-2.88-.38-2.566-1.614-6.82-5.313-12.671a2.21 2.21 0 0 0-1.863-1.027h-3.45c-.593 0-1.093.449-1.156 1.043l-.261 2.492-1.5-1.985s-2.68 5.653-2.805 12.465a2.517 2.517 0 0 0 2.516 2.563"/>
  <path d="M71.652 326.55c-.73 1.821-2.293 6.29-2.382 11.372a1.94 1.94 0 0 0 .558 1.406 1.94 1.94 0 0 0 1.399.586H82.57c.57 0 1.11-.246 1.48-.68.372-.43.54-.996.454-1.558-.367-2.488-1.57-6.668-5.23-12.453a1.66 1.66 0 0 0-1.391-.77h-3.45a.61.61 0 0 0-.601.543l-.258 2.492a.57.57 0 0 1-.406.48.57.57 0 0 1-.598-.202Zm10.918 14.485H71.227a3.04 3.04 0 0 1-2.196-.926 3.05 3.05 0 0 1-.879-2.207c.125-6.859 2.746-12.464 2.86-12.699a.557.557 0 0 1 .949-.098l.648.86.114-1.086a1.717 1.717 0 0 1 1.71-1.543h3.45c.953 0 1.828.48 2.336 1.289 3.761 5.95 5.008 10.293 5.39 12.887a3.06 3.06 0 0 1-.71 2.453 3.07 3.07 0 0 1-2.329 1.07"/>
  <path d="M83.96 338.32H70.384a.56.56 0 0 1-.559-.558.56.56 0 0 1 .559-.563H83.96a.56.56 0 0 1 .559.563c0 .308-.25.558-.56.558M97.043 218.465a2.64 2.64 0 0 0-1.645-1.516c-4.148-1.304-18.609-4.734-33.496 4.82a2.65 2.65 0 0 0-1.21 2.043c-.54 7.57-2.547 47.16 9.964 94.036l8.426-.602 1.719-80.144s12.48 29.378 2.332 76.14l8.765 1.617s12.825-16.882 15.122-42.683c2.035-22.824-7.704-48.164-9.977-53.711"/>
  <path fill="#fff" d="M72.805 280.824h-.028c-7.984-.344-8.886-11.176-8.894-11.285a.559.559 0 0 1 1.113-.082c.008.098.836 9.945 7.832 10.25a.553.553 0 0 1 .531.582.556.556 0 0 1-.554.535M81.535 245.008a.56.56 0 0 1-.558-.543l-.297-10.028a.55.55 0 0 1 .234-.472l5.254-3.695a.558.558 0 1 1 .644.91l-5.007 3.527.289 9.723a.56.56 0 0 1-.543.574q-.011.005-.016.004"/>
  <path d="M77.578 147.164c3.203-2.762 3.934-3.137 4.867-4.715.762-1.289 2.461-4.168 1.309-7.215-.992-2.629-3.738-4.218-6.262-4.355-2.265-.121-3.922.95-4.797 1.516-.382.25-3.754 2.503-4.422 6.18-.18 1-.043 1.46-.5 2.085-1.023 1.41-2.878.688-4.16 1.86-1.613 1.468-.867 4.597-.804 4.84.843 3.34 4.445 5.55 7.379 5.242 1.695-.18 1.511-.38 7.39-5.438"/>
  <path fill="#fff" d="M68.746 163.668a5.42 5.42 0 0 0 2.41-4.64l-.176-7.72c-.054-.046-.105-.097-.156-.144 0 0-3.086.207-3.535-1.367-.453-1.574 1.73-1.875 1.73-1.875s-2.058-4.344 3.274-4.293c1.434.012 1.945-2.363 4.293-2.899 0 0 1.164-.097 2.34 2.954l2.582 3.824-1.29.707a14.5 14.5 0 0 1 .259 4.758c-.055.488-.391.898-.86 1.05-.39.125-.91.258-1.527.332l.414 5.165a7.63 7.63 0 0 0 3.223 5.62 38 38 0 0 0 3.445 2.145s-9.512 1.3-20.445-1.195c0 0 2.113-1.156 4.02-2.422"/>
  <path d="M66.277 165.852c7.457 1.496 14.102 1.273 17.114 1.046a38 38 0 0 1-1.985-1.3 8.15 8.15 0 0 1-3.457-6.036l-.414-5.164a.55.55 0 0 1 .492-.597c.485-.059.961-.164 1.418-.309a.71.71 0 0 0 .477-.586 14 14 0 0 0-.25-4.57.56.56 0 0 1 .277-.613l.75-.41-2.234-3.317a.5.5 0 0 1-.059-.11c-.847-2.195-1.613-2.538-1.785-2.585-1.023.262-1.637.933-2.226 1.586-.579.64-1.18 1.3-2.09 1.3h-.11c-1.41 0-2.336.325-2.746.97-.625.98.07 2.507.074 2.523a.56.56 0 0 1-.011.507.57.57 0 0 1-.414.29c-.239.035-.973.218-1.227.609-.062.094-.133.258-.047.559.266.921 2.278 1.007 2.965.96a.57.57 0 0 1 .418.153l.133.12c.11.102.195.27.2.419l.175 7.719a5.94 5.94 0 0 1-2.66 5.12 58 58 0 0 1-2.778 1.716m12.547 2.324c-3.77 0-8.84-.313-14.219-1.543a.558.558 0 0 1-.144-1.035c.02-.012 2.113-1.157 3.977-2.395a4.83 4.83 0 0 0 2.16-4.164l-.168-7.305c-.985 0-3.223-.18-3.68-1.785-.156-.539-.09-1.05.188-1.476.332-.508.894-.79 1.343-.946-.215-.73-.418-1.96.227-2.972.64-1.004 1.926-1.5 3.789-1.489.41-.004.742-.351 1.27-.933.656-.723 1.472-1.621 2.898-1.946.023-.003.047-.011.074-.011.262-.024 1.625.031 2.887 3.246l2.543 3.773a.552.552 0 0 1-.196.801l-.925.508c.293 1.531.355 3.055.183 4.531a1.82 1.82 0 0 1-1.242 1.52 9 9 0 0 1-1.102.277l.376 4.64a7.05 7.05 0 0 0 2.984 5.212 38 38 0 0 0 3.387 2.109.558.558 0 0 1-.188 1.047c-.05.008-2.55.336-6.422.336"/>
  <path fill="#fff" d="M78.09 154.355s-3.383.118-4.727-1.726z"/>
  <path d="M77.953 154.914c-.723 0-3.7-.113-5.043-1.953a.564.564 0 0 1 .121-.781.557.557 0 0 1 .781.12c.961 1.313 3.399 1.528 4.258 1.497a.55.55 0 0 1 .578.539.56.56 0 0 1-.539.578zM140.648 209.984h-32.375l24-36.953a4.12 4.12 0 0 1 3.461-1.851h26.274c1.668 0 2.683 1.785 1.793 3.16z"/>
  <path fill="#caddff" d="M147.555 184.137c-1.055 1.617-3.317 2.93-5.055 2.93s-2.297-1.313-1.242-2.93c1.05-1.621 3.312-2.934 5.05-2.934 1.739 0 2.297 1.313 1.247 2.934"/>
  <path d="M137.418 213.07H83.52a3.35 3.35 0 0 1-3.348-3.351h60.594a3.35 3.35 0 0 1-3.348 3.351"/>
  <path fill="#fff" d="M138.965 210.578H111.16a.56.56 0 0 1-.558-.558.56.56 0 0 1 .558-.563h27.805a.56.56 0 0 1 .558.563c0 .308-.25.558-.558.558"/>
  <path d="M326.277 298.508a3.025 3.025 0 1 0 .379 6.027 3.02 3.02 0 0 0 2.613-3.383 3.03 3.03 0 0 0-2.992-2.644m-.004 7.168a4.146 4.146 0 0 1-4.101-3.617c-.285-2.266 1.316-4.344 3.578-4.633a4.14 4.14 0 0 1 4.625 3.586 4.135 4.135 0 0 1-3.574 4.633 5 5 0 0 1-.528.03M256.55 54.77h-.062l-1.508-.176a.56.56 0 0 1 .129-1.113l1.508.175a.559.559 0 0 1-.066 1.114M249.34 53.938q-.03-.001-.063-.008l-1.507-.172a.56.56 0 0 1-.493-.621.564.564 0 0 1 .621-.492l1.504.175a.56.56 0 0 1 .493.621.56.56 0 0 1-.555.496M251.707 58.652q-.029-.001-.062-.007a.556.556 0 0 1-.493-.618l.168-1.511a.56.56 0 0 1 .618-.496.56.56 0 0 1 .492.617l-.168 1.515a.56.56 0 0 1-.555.5M252.512 51.398l-.063-.003a.56.56 0 0 1-.492-.618l.168-1.515a.56.56 0 0 1 .613-.496c.309.039.532.316.496.62l-.168 1.516a.56.56 0 0 1-.554.496M92.398 107.914a.56.56 0 0 1-.34-1.004l1.2-.926a.56.56 0 0 1 .683.891l-1.203.922a.56.56 0 0 1-.34.117M86.645 112.348a.56.56 0 0 1-.446-.22.563.563 0 0 1 .102-.784l1.203-.926a.558.558 0 0 1 .68.887l-1.2.925a.56.56 0 0 1-.34.118M92.824 113.152a.56.56 0 0 1-.441-.218l-.934-1.204a.555.555 0 0 1 .098-.78.556.556 0 0 1 .785.097l.934 1.203a.56.56 0 0 1-.442.902M88.352 107.387a.56.56 0 0 1-.442-.215l-.933-1.203a.563.563 0 0 1 .097-.785.563.563 0 0 1 .785.097l.934 1.203a.559.559 0 0 1-.441.903M100.332 94.719a.556.556 0 0 1-.453-.883c8.305-11.688 19.418-21.246 33.027-28.414 10.875-5.727 23.356-9.95 37.098-12.543 23.383-4.422 42.594-2.57 42.785-2.55a.557.557 0 0 1 .5.608.56.56 0 0 1-.61.504c-.19-.02-19.269-1.851-42.5 2.54-21.398 4.05-50.808 14.359-69.394 40.503a.55.55 0 0 1-.453.235"/>
  <path d="M130.898 57.875a.558.558 0 0 1-.297-1.035c.114-.07 11.294-6.926 29.508-11.621a140.4 140.4 0 0 1 73.633 1.027.558.558 0 1 1-.308 1.074 139.35 139.35 0 0 0-73.004-1.03c-18.063 4.651-29.13 11.433-29.239 11.503a.6.6 0 0 1-.293.082M124.445 58.984a1 1 0 0 0-.195.016 1.55 1.55 0 0 0-1.344 1.738c.051.41.262.778.59 1.032a1.53 1.53 0 0 0 1.145.312 1.556 1.556 0 0 0-.195-3.098m-.007 4.23a2.64 2.64 0 0 1-1.626-.562 2.63 2.63 0 0 1-1.015-1.773 2.676 2.676 0 0 1 2.308-2.988c1.461-.192 2.801.847 2.985 2.312a2.64 2.64 0 0 1-.535 1.973 2.64 2.64 0 0 1-1.774 1.015 3 3 0 0 1-.344.024M293.246 320.05a.56.56 0 0 1-.344-.116l-1.328-1.032a.56.56 0 0 1-.101-.785.563.563 0 0 1 .785-.097l1.328 1.03a.56.56 0 0 1 .101.786.57.57 0 0 1-.44.215M297.898 323.66a.58.58 0 0 1-.343-.117l-1.328-1.031a.56.56 0 0 1 .683-.883l1.328 1.027a.56.56 0 0 1-.34 1.004M292.59 324.336a.6.6 0 0 1-.34-.113.564.564 0 0 1-.098-.79l1.028-1.328a.555.555 0 0 1 .78-.101.56.56 0 0 1 .103.785l-1.028 1.332a.57.57 0 0 1-.445.215M296.191 319.676a.56.56 0 0 1-.441-.903l1.027-1.332a.56.56 0 0 1 .887.684l-1.031 1.332a.55.55 0 0 1-.442.219"/>
  <path fill="#caddff" d="M347.184 147.672c-13.844-70.5-83.5-111.399-142.168-116.836-48.602-4.5-112.075 13.293-134.508 56.305-14.11 27.046 2.84 35.632-8.7 96.918-9.988 53.039-27.472 72.03-16.39 99.062 9.059 22.102 30.23 32.555 43.766 39.238 53.343 26.336 134.379 23.246 192.718-24.796 13.653-11.243 80.942-70.141 65.282-149.891"/>
  <path fill="#5479f7" d="m331.625 263.543-175.492-24.43a8.84 8.84 0 0 1-7.711-8.765l-2.406-122.543s4-2.887 6.27-3.993a6.8 6.8 0 0 1 3.862-.632l174.97 22.336a8.83 8.83 0 0 1 7.706 8.761v120.364c0 2.152-.98 4.05-2.5 5.3-1.402 1.153-4.699 3.602-4.699 3.602"/>
  <path fill="#fff" d="m326.266 265.172-174.97-22.34a8.83 8.83 0 0 1-7.706-8.762V113.71c0-4.136 3.625-7.335 7.726-6.808l174.97 22.336a8.83 8.83 0 0 1 7.706 8.762v120.363c0 4.133-3.625 7.332-7.726 6.809"/>
  <path d="M318.719 128.832c-.02 0-.047 0-.07-.004l-150.114-19.164a.558.558 0 1 1 .14-1.11l150.118 19.165a.558.558 0 0 1-.074 1.113"/>
  <path fill="#caddff" d="m322.547 260.21-167.07-21.327a6.42 6.42 0 0 1-5.602-6.375V116.41a4.58 4.58 0 0 1 5.156-4.547l167.07 21.328a6.425 6.425 0 0 1 5.606 6.371v116.102c0 2.762-2.422 4.899-5.16 4.547"/>
  <path fill="#5479f7" d="m334.035 271.637-.285-.668a3.04 3.04 0 0 0-2.41-1.824l-177.676-22.946c-5.445-.699-11.613.352-16.383 3.078l-94.574 54.52-.004 6.75c-.004 1.086.8 2 1.875 2.14l179.613 23.368c5.446.699 10.97-.399 15.739-3.125l92.758-53.094a2.45 2.45 0 0 0 1.257-2.297c-.062-1.117.09-5.902.09-5.902"/>
  <path fill="#99b9ff" d="M224.191 329.672 44.887 306.484c-2.383-.304-3.008-3.464-.926-4.656l92.262-52.754a25.26 25.26 0 0 1 15.738-3.125l179.305 23.188c2.382.308 3.007 3.468.925 4.66l-92.261 52.75a25.23 25.23 0 0 1-15.739 3.125"/>
  <path fill="#caddff" d="m259.297 300.39-155.48-20.253c-2.153-.274-2.715-3.13-.837-4.207l36.56-20.692a22.82 22.82 0 0 1 14.214-2.82l155.48 20.254c2.149.273 2.715 3.129.832 4.207l-36.554 20.691a22.82 22.82 0 0 1-14.215 2.82"/>
  <path d="M227.36 330.434q-1.625-.002-3.243-.204l-37.246-4.82a.556.556 0 0 1-.48-.625.56.56 0 0 1 .625-.484l37.246 4.816c5.289.68 10.754-.406 15.386-3.055l59.633-34.109a.559.559 0 0 1 .555.973l-59.633 34.11a25.97 25.97 0 0 1-12.844 3.398M242.645 258.426q-.035-.001-.075-.008l-44.43-5.836a.558.558 0 0 1 .145-1.11l44.434 5.84a.558.558 0 0 1-.074 1.114M131.023 252.61a.55.55 0 0 1-.484-.286.557.557 0 0 1 .207-.762l5.2-2.972a25.96 25.96 0 0 1 16.085-3.195l23.574 3.097a.56.56 0 1 1-.148 1.11l-23.566-3.098a24.86 24.86 0 0 0-15.391 3.059l-5.2 2.972a.55.55 0 0 1-.277.074"/>
  <path fill="#fff" d="M297.23 232.156c.09 5.938-4.996 10.211-11.324 9.543l-118.972-12.55c-5.594-.59-10.121-5.555-10.137-11.09l-.438-138.032c-.015-5.402 4.422-9.668 9.946-9.527l117.289 2.957c6.23.156 11.379 4.973 11.465 10.758z"/>
  <path fill="#5479f7" d="m295.059 84.215.066 4.515-138.75-4.488-.012-4.215c-.02-5.406 4.586-9.664 10.114-9.527l117.308 2.96c6.238.157 11.192 4.966 11.274 10.755"/>
  <path fill="#caddff" d="m281.734 100.375-113.34-4.32c-1.167-.043-2.109.847-2.105 1.992l.129 31.902c.004 1.149.957 2.137 2.125 2.203l113.71 6.407c1.313.074 2.36-.856 2.345-2.075l-.465-33.82c-.016-1.215-1.09-2.238-2.399-2.289M217.84 142.91l-49.262-2.972c-1.176-.07-2.117.808-2.113 1.96l.297 74.485c.004 1.168.96 2.207 2.14 2.328l49.602 4.965c1.238.125 2.238-.75 2.226-1.95l-.644-76.538c-.008-1.184-1.016-2.208-2.246-2.278M282.367 146.8l-52.41-3.16c-1.246-.074-2.242.829-2.23 2.02l.691 76.832c.012 1.203 1.035 2.281 2.293 2.406l52.785 5.286c1.324.132 2.383-.766 2.363-2.004l-1.086-79.02c-.02-1.226-1.097-2.277-2.406-2.36"/>
  <path d="M286.988 242.488q-.662 0-1.332-.07l-118.949-12.563c-5.852-.613-10.621-5.84-10.64-11.644a.558.558 0 1 1 1.117 0c.015 5.25 4.34 9.976 9.636 10.531l118.953 12.563c3.012.316 5.903-.559 7.918-2.403 1.836-1.68 2.825-4.011 2.79-6.574a.56.56 0 0 1 .55-.566h.008a.56.56 0 0 1 .559.55c.043 2.887-1.078 5.52-3.149 7.415-1.953 1.785-4.62 2.761-7.46 2.761M296.336 185.027a.56.56 0 0 1-.559-.55L294.31 84.395c-.082-5.477-4.977-10.06-10.918-10.207l-117.27-2.97c-2.55-.062-4.941.86-6.715 2.594a8.82 8.82 0 0 0-2.656 6.376l.02 5.628c0 .309-.25.563-.555.563h-.004a.56.56 0 0 1-.559-.559l-.015-5.629a9.9 9.9 0 0 1 2.988-7.175c1.992-1.954 4.668-2.993 7.523-2.914l117.27 2.964c6.531.168 11.918 5.243 12.008 11.313l1.469 100.082a.556.556 0 0 1-.551.566z"/>
  <path fill="#5479f7" d="m185.969 128.816-60.496-3.449c-3.79-.215-6.762 2.918-6.762 6.996v71.192c0 4.132 2.996 7.812 6.812 8.215l60.997 6.449c4.101.433 7.398-2.711 7.37-7.024l-.48-74.257c-.027-4.254-3.37-7.891-7.441-8.122"/>
  <path fill="#fff" d="m186.285 139.762-61.43-3.86c-1.168-.074-2.113.887-2.113 2.149l.024 65.367c0 1.277.953 2.41 2.129 2.527l61.804 6.332c1.262.13 2.278-.84 2.27-2.164l-.399-67.836c-.011-1.308-1.03-2.433-2.285-2.515"/>
  <path fill="#caddff" d="m184.36 169.055-58.133-4.59-.02-24.082 58.016 3.793zM152.79 204.457l-26.54-2.652-.023-33.328 26.468 2.148zM184.617 207.64l-27.48-2.75-.11-33.913 27.399 2.226zM185.254 132.3l-40.582-2.386c-.863-.05-1.563.656-1.563 1.578l.004 1.258c0 .922.703 1.715 1.567 1.766l40.601 2.496c.906.054 1.637-.668 1.633-1.614l-.008-1.289c-.004-.945-.746-1.754-1.652-1.808M127.914 131.262c0 1.11-.832 1.957-1.86 1.894-1.027-.062-1.859-1.011-1.859-2.12-.004-1.106.828-1.954 1.856-1.891 1.027.058 1.863 1.007 1.863 2.117M133.375 131.59c0 1.113-.84 1.965-1.871 1.898-1.035-.062-1.871-1.011-1.875-2.125 0-1.11.836-1.96 1.871-1.898 1.031.062 1.871 1.012 1.875 2.125M138.867 131.918c0 1.117-.84 1.973-1.883 1.906-1.039-.062-1.882-1.015-1.882-2.133-.004-1.113.835-1.964 1.875-1.902 1.043.059 1.886 1.016 1.89 2.129"/>
  <path fill="#99b9ff" d="m333.426 83.559-68.188-2.079c-4.254-.128-7.652 3.274-7.61 7.602l.77 75.547c.047 4.39 3.543 8.223 7.832 8.562l68.778 5.47c4.629.366 8.336-3.056 8.258-7.645l-1.368-79.008c-.078-4.528-3.878-8.309-8.472-8.45"/>
  <path fill="#fff" d="m333.906 95.195-69.148-2.52c-1.317-.05-2.367.997-2.352 2.337l.73 69.379c.016 1.351 1.098 2.53 2.419 2.632l69.633 5.309c1.421.11 2.558-.945 2.535-2.355l-1.215-72.168c-.024-1.391-1.192-2.559-2.602-2.614"/>
  <path fill="#caddff" d="m296.578 140.863-29.8-1.824-.454-41.644 29.684 1.156zM296.898 164.797l-29.867-2.203-.219-20.07 29.813 1.878zM331.883 126.48l-31.176-1.644-.36-26.113 31.098 1.21zM332.559 167.43l-31.293-2.313-.496-36.035 31.187 1.715z"/>
  <path fill="#5479f7" d="m332.66 87.29-45.71-1.485a1.675 1.675 0 0 0-1.74 1.715l.017 1.335c.015.98.808 1.805 1.785 1.836l45.734 1.602c1.02.035 1.836-.75 1.817-1.758l-.02-1.37c-.02-1.005-.86-1.845-1.883-1.876M268.137 87.672c.015 1.176-.914 2.098-2.067 2.058-1.156-.039-2.097-1.023-2.11-2.199-.015-1.176.911-2.094 2.063-2.058 1.153.039 2.102 1.023 2.114 2.199M274.273 87.879c.016 1.18-.918 2.101-2.082 2.062-1.16-.039-2.113-1.027-2.125-2.207-.011-1.175.914-2.101 2.075-2.062 1.164.035 2.117 1.023 2.132 2.207M280.445 88.086c.016 1.184-.922 2.113-2.09 2.07-1.171-.039-2.128-1.031-2.14-2.215-.016-1.18.918-2.109 2.086-2.07 1.172.04 2.133 1.031 2.144 2.215M270.754 225.379c-14.805-1.438-28.426-8.902-37.469-20.402-1.535-1.954-1.226-4.559.692-5.825 1.918-1.27 4.73-.714 6.277 1.243 7.355 9.3 18.414 15.304 30.394 16.417 18.176 1.688 33.989-8.316 38.18-24.37.594-2.274 3.164-3.497 5.746-2.723 2.59.777 4.207 3.261 3.61 5.55-2.489 9.508-8.582 17.766-17.114 23.227-8.734 5.59-19.23 7.957-30.316 6.883"/>
  <path fill="#5479f7" d="m329.125 201.773-14.477-17.691-17.867 11.3z"/>
  <path fill="#5479f7" d="m329.125 201.773-14.477-17.691-17.867 11.3z"/>
  <path d="M274.727 217.563a45 45 0 0 1-4.133-.196c-12.09-1.12-23.309-7.18-30.778-16.625-1.367-1.73-3.851-2.234-5.535-1.12a3.1 3.1 0 0 0-1.37 2.112c-.161.98.136 2.04.812 2.899a53 53 0 0 0 7.48 7.73c.234.2.266.555.067.79a.56.56 0 0 1-.786.07 54 54 0 0 1-7.636-7.899c-.871-1.11-1.25-2.48-1.04-3.77a4.2 4.2 0 0 1 1.86-2.867c2.156-1.421 5.305-.812 7.023 1.36 7.278 9.207 18.22 15.113 30.008 16.207 3.262.305 6.508.238 9.64-.188a.56.56 0 0 1 .634.477.56.56 0 0 1-.48.629c-1.891.258-3.821.39-5.766.39"/>
  <path d="M275.93 226.191q-2.59 0-5.23-.257a52 52 0 0 1-4.2-.57.564.564 0 0 1-.453-.65.56.56 0 0 1 .648-.452 56 56 0 0 0 4.114.562c10.984 1.063 21.347-1.285 29.96-6.8 7.231-4.63 12.633-11.188 15.614-18.97a.555.555 0 0 1 .719-.324.56.56 0 0 1 .32.723c-3.063 8.008-8.617 14.754-16.055 19.516-7.441 4.761-16.152 7.222-25.437 7.222"/>
  <path d="M329.125 202.332a.6.6 0 0 1-.113-.012l-12.223-2.52a.555.555 0 0 1-.43-.66c.059-.3.352-.5.657-.437l10.675 2.203-13.16-16.086-2.629 1.664a.563.563 0 0 1-.773-.175.56.56 0 0 1 .176-.77l3.047-1.926a.553.553 0 0 1 .73.121l14.473 17.684a.55.55 0 0 1 .047.644.55.55 0 0 1-.477.27"/>
  <path fill="#99b9ff" d="M150.016 117.027a4.3 4.3 0 0 1-.98-.16c-2.188-.629-3.524-2.84-2.993-4.941 2.21-8.742 7.488-16.543 14.887-21.992 7.683-5.657 17.03-8.512 27.066-8.227 14.637.414 28.598 7.719 37.25 19.629 1.399 1.922.922 4.473-1.066 5.684-1.98 1.21-4.715.632-6.102-1.293-6.953-9.633-18.207-15.575-30.031-15.957-16.379-.536-30.3 9.52-34.074 24.414-.453 1.793-2.125 2.93-3.957 2.843"/>
  <path fill="#99b9ff" d="m136.984 106.465 11.922 15.558 15.543-10.98z"/>
  <path fill="#5479f7" d="m136.984 106.465 11.922 15.558 15.543-10.98z"/>
  <path fill="#99b9ff" d="m136.984 106.465 11.922 15.558 15.543-10.98z"/>
  <path d="M221.898 108.207c-1.632 0-3.27-.762-4.27-2.152-6.835-9.47-17.901-15.348-29.6-15.727-6.462-.21-12.743 1.258-18.165 4.254a.556.556 0 0 1-.758-.223.56.56 0 0 1 .22-.757c5.593-3.09 12.07-4.61 18.738-4.395 12.042.39 23.433 6.445 30.468 16.191 1.219 1.692 3.625 2.204 5.36 1.145.808-.496 1.355-1.266 1.535-2.164.183-.934-.04-1.899-.633-2.715a46 46 0 0 0-3.531-4.289.564.564 0 0 1 .027-.79c.23-.21.582-.198.793.028a47 47 0 0 1 3.617 4.395c.778 1.074 1.07 2.344.824 3.59-.242 1.21-.968 2.238-2.054 2.898-.785.48-1.68.711-2.57.711"/>
  <path d="M147.195 108.75a.56.56 0 0 1-.527-.75c2.695-7.39 7.516-13.793 13.934-18.516 7.796-5.742 17.277-8.62 27.41-8.336 4.047.114 8.093.754 12.023 1.895.293.09.461.398.38.695a.56.56 0 0 1-.696.38 47 47 0 0 0-11.739-1.852c-9.89-.282-19.12 2.527-26.718 8.117-6.239 4.594-10.922 10.816-13.543 18a.56.56 0 0 1-.524.367"/>
  <path d="M148.906 122.582a.57.57 0 0 1-.445-.219l-11.918-15.558a.56.56 0 0 1-.04-.63.57.57 0 0 1 .571-.265l10.102 1.688a.56.56 0 1 1-.184 1.101l-8.703-1.453 10.734 14.008 5.98-4.223a.56.56 0 0 1 .778.133.56.56 0 0 1-.133.781l-6.421 4.532a.55.55 0 0 1-.32.105"/>
  <path fill="#fff" d="M131.855 211.992c0-.453-25.394-4.469-27.03-9.117-2.446-6.93-5.493-15.266-5.493-15.266l-6.344 4.008 4.086 19.946z"/>
  <path d="m97.531 211.012 29.258.36c-11.133-2.403-21.351-5.075-22.492-8.31a1602 1602 0 0 0-5.254-14.609l-5.43 3.434Zm34.324 1.543h-.007l-34.782-.43a.56.56 0 0 1-.539-.45l-4.086-19.945a.56.56 0 0 1 .25-.585l6.344-4.008c.14-.09.317-.11.477-.059a.56.56 0 0 1 .343.34c.032.082 3.079 8.418 5.497 15.273 1.128 3.207 16.28 6.438 22.75 7.817 4.316.922 4.316.922 4.312 1.488a.57.57 0 0 1-.168.399.57.57 0 0 1-.39.16"/>
  <path fill="#5479f7" d="M59.426 166.176c6.054-1.977 15.281-3.395 26.312.12 4.02 1.282 6.907 4.825 7.403 9.02l8.984 51.786c.441 3.765-4.582 7.425-8.125 8.77-3.7 1.401-9.29 2.73-17.207 2.73-8.488 0-14.656.492-18.102-1.016-2.855-1.254-7.156-4.285-7.3-7.402l.625-53.23c-.227-4.852 2.797-9.27 7.41-10.778"/>
  <path fill="#5479f7" d="M101.852 188.43s-7.172-19.887-15.215-21.801l4.09 28.18zM42.703 198.21s.785-13.304 1.934-18.444c2.414-10.817 12.722-12.453 12.722-12.453l1.25 29.05z"/>
  <path fill="#fff" d="M44.71 197.656s-.773 10.153 3.243 16.961c4.793 8.137 28.984-2.82 28.984-2.82l2.817-1.594a7.8 7.8 0 0 1 6.25-.64l4.547 1.468s-3.754-4.504-6.946-6.226c-1.496-.809-3.437-.043-5.078.996-2.816 1.785-6.132 2.625-9.468 2.527l-9.625-.289a3.186 3.186 0 0 1-3.082-2.91l-.73-8.395z"/>
  <path d="M45.242 198.176c-.086 2.058-.203 10.402 3.192 16.16 1.187 2.012 3.714 2.758 6.785 2.758 8.383 0 20.847-5.52 21.469-5.797l2.789-1.582a8.4 8.4 0 0 1 6.699-.684l2.578.832c-1.36-1.445-3.508-3.539-5.414-4.566-1.328-.715-3.188.133-4.512.973-2.863 1.816-6.254 2.726-9.789 2.617l-9.621-.29a3.746 3.746 0 0 1-3.621-3.421l-.684-7.84Zm10.043 19.996c-3.48 0-6.398-.867-7.816-3.27-4.059-6.886-3.348-16.863-3.317-17.285a.56.56 0 0 1 .512-.515l10.91-.926a.565.565 0 0 1 .606.508l.73 8.394a2.63 2.63 0 0 0 2.54 2.402l9.624.29c3.317.093 6.485-.747 9.156-2.442 2.293-1.457 4.192-1.797 5.641-1.016 3.25 1.754 6.953 6.172 7.11 6.364.16.187.171.46.03.668a.55.55 0 0 1-.632.219l-4.543-1.465a7.26 7.26 0 0 0-5.809.59l-2.812 1.593c-.016.008-.031.02-.047.024-.719.328-13.09 5.867-21.883 5.867"/>
  <path fill="#fff" d="m81.836 309.258-5.246 15.664s5.715-.488 6.262-.379c.543.105 7.226-14.29 7.226-14.29z"/>
  <path d="M82.93 323.988q.01.002.023.004c-.008 0-.016-.004-.023-.004m-.711-14.12-4.828 14.425c1.714-.14 4.304-.336 5.257-.32.844-1.157 4.313-8.352 6.598-13.254Zm-5.63 15.612a.557.557 0 0 1-.526-.734l5.242-15.668a.57.57 0 0 1 .597-.379l8.243 1c.18.02.335.13.421.285a.57.57 0 0 1 .02.508c-.02.035-1.695 3.64-3.414 7.192-3.664 7.554-3.89 7.511-4.43 7.406-.37-.05-3.398.16-6.105.39z"/>
  <path fill="#99b9ff" d="M77.793 321.48s7.887-3.238 9.344.825c1.855 5.168 4.758 13.05 4.758 13.05a2.212 2.212 0 0 1-1.907 2.954c-2.883.234-7.18.421-9.183-.286-3.164-1.109-8.41-11.128-8.41-11.128l1.617-8.524s2.863-.402 3.781 3.11"/>
  <path d="M72.98 326.809c1.512 2.851 5.633 9.855 8.008 10.691 1.457.508 4.637.598 8.957.254a1.65 1.65 0 0 0 1.258-.754c.281-.437.34-.969.164-1.453-.027-.074-2.922-7.942-4.754-13.05-.222-.626-.633-1.06-1.254-1.337-2.523-1.12-7.308.817-7.355.836a.56.56 0 0 1-.754-.375c-.59-2.262-2.062-2.648-2.773-2.7Zm12.368 12.27c-1.871 0-3.618-.134-4.73-.524-3.274-1.153-8.169-10.356-8.716-11.399a.57.57 0 0 1-.054-.367l1.617-8.523a.56.56 0 0 1 .469-.45c.035-.003 3.023-.382 4.214 2.93 1.442-.512 5.254-1.68 7.665-.61.902.403 1.523 1.067 1.851 1.981a2021 2021 0 0 0 4.754 13.047c.293.824.191 1.711-.277 2.441a2.76 2.76 0 0 1-2.106 1.262c-1.45.117-3.11.211-4.687.211"/>
  <path d="M89.875 335.453h-8.102a.558.558 0 1 1 0-1.117h8.102a.56.56 0 0 1 0 1.117"/>
  <path fill="#fff" d="m66.965 313.105 1.781 15.758 7.168-1.968-.55-14.196z"/>
  <path d="m67.586 313.637 1.64 14.515 6.114-1.675-.512-13.196Zm1.16 15.785a.551.551 0 0 1-.555-.496l-1.78-15.758a.55.55 0 0 1 .128-.426.55.55 0 0 1 .398-.195l8.399-.406a.53.53 0 0 1 .402.144.56.56 0 0 1 .184.39l.55 14.2a.555.555 0 0 1-.41.559l-7.167 1.968a.5.5 0 0 1-.149.02"/>
  <path fill="#99b9ff" d="M68.07 340.473h11.344c1.535 0 2.711-1.36 2.488-2.88-.379-2.566-1.613-6.82-5.312-12.671a2.21 2.21 0 0 0-1.863-1.027h-3.45c-.593 0-1.093.449-1.156 1.043l-.262 2.492-1.5-1.985s-2.68 5.653-2.804 12.465a2.517 2.517 0 0 0 2.515 2.563"/>
  <path d="M68.496 326.55c-.73 1.821-2.289 6.29-2.383 11.372a1.94 1.94 0 0 0 .559 1.406 1.94 1.94 0 0 0 1.398.586h11.344c.57 0 1.11-.246 1.48-.68.372-.43.54-.996.454-1.558-.368-2.488-1.57-6.668-5.23-12.453a1.66 1.66 0 0 0-1.391-.77h-3.45a.61.61 0 0 0-.601.543l-.258 2.492a.57.57 0 0 1-.406.48.57.57 0 0 1-.598-.202Zm10.918 14.485H68.07a3.04 3.04 0 0 1-2.195-.926 3.05 3.05 0 0 1-.879-2.207c.125-6.859 2.746-12.464 2.86-12.699a.557.557 0 0 1 .949-.098l.648.86.113-1.086a1.717 1.717 0 0 1 1.711-1.543h3.45c.953 0 1.828.48 2.335 1.289 3.762 5.95 5.008 10.293 5.391 12.887a3.06 3.06 0 0 1-.71 2.453 3.07 3.07 0 0 1-2.329 1.07"/>
  <path d="M80.805 338.32H67.227a.56.56 0 0 1-.559-.558.56.56 0 0 1 .559-.563h13.578a.56.56 0 0 1 .558.563c0 .308-.25.558-.558.558M93.887 218.465a2.64 2.64 0 0 0-1.645-1.516c-4.148-1.304-18.61-4.734-33.496 4.82a2.65 2.65 0 0 0-1.21 2.043c-.54 7.57-2.544 47.16 9.964 94.036l8.426-.602 1.719-80.144s12.48 29.378 2.332 76.14l8.765 1.617s12.824-16.882 15.121-42.683c2.035-22.824-7.703-48.164-9.976-53.711"/>
  <path fill="#fff" d="M69.648 280.824h-.023c-7.988-.344-8.89-11.176-8.898-11.285a.559.559 0 0 1 1.113-.082c.008.098.836 9.945 7.832 10.25a.553.553 0 0 1 .531.582.556.556 0 0 1-.555.535M78.379 245.008a.56.56 0 0 1-.559-.543l-.297-10.028a.55.55 0 0 1 .239-.472l5.25-3.695a.558.558 0 1 1 .644.91l-5.008 3.527.29 9.723a.56.56 0 0 1-.543.574q-.008.005-.016.004"/>
  <path d="M74.422 147.164c3.203-2.762 3.933-3.137 4.867-4.715.762-1.289 2.461-4.168 1.309-7.215-.993-2.629-3.739-4.218-6.262-4.355-2.266-.121-3.922.95-4.797 1.516-.383.25-3.754 2.503-4.422 6.18-.18 1-.043 1.46-.5 2.085-1.023 1.41-2.879.688-4.16 1.86-1.613 1.468-.867 4.597-.805 4.84.844 3.34 4.446 5.55 7.38 5.242 1.695-.18 1.511-.38 7.39-5.438"/>
  <path fill="#fff" d="M65.59 163.668a5.42 5.42 0 0 0 2.41-4.64l-.176-7.72-.156-.144s-3.086.207-3.535-1.367c-.453-1.574 1.73-1.875 1.73-1.875s-2.058-4.344 3.274-4.293c1.433.012 1.945-2.363 4.293-2.899 0 0 1.164-.097 2.34 2.954l2.582 3.824-1.29.707a14.5 14.5 0 0 1 .258 4.758c-.054.488-.39.898-.86 1.05-.39.125-.91.258-1.526.332l.414 5.165a7.63 7.63 0 0 0 3.222 5.62 38 38 0 0 0 3.446 2.145s-9.512 1.3-20.442-1.195c0 0 2.11-1.156 4.016-2.422"/>
  <path d="M63.125 165.852c7.453 1.496 14.098 1.273 17.11 1.046a38 38 0 0 1-1.985-1.3 8.15 8.15 0 0 1-3.457-6.036l-.414-5.164a.55.55 0 0 1 .492-.597c.484-.059.961-.164 1.418-.309a.71.71 0 0 0 .477-.586 14 14 0 0 0-.25-4.57.56.56 0 0 1 .277-.613l.75-.41-2.234-3.317a.5.5 0 0 1-.059-.11c-.848-2.195-1.613-2.538-1.785-2.585-1.024.262-1.637.933-2.227 1.586-.578.64-1.18 1.3-2.09 1.3h-.105c-1.414 0-2.34.325-2.75.97-.625.98.07 2.507.078 2.523a.567.567 0 0 1-.43.797c-.238.035-.972.218-1.226.609-.059.094-.133.258-.047.559.266.921 2.277 1.007 2.965.96a.57.57 0 0 1 .418.153l.133.12c.109.102.195.27.199.419l.176 7.719a5.94 5.94 0 0 1-2.66 5.12 60 60 0 0 1-2.774 1.716m12.543 2.324c-3.77 0-8.84-.313-14.219-1.543a.558.558 0 0 1-.144-1.035c.02-.012 2.113-1.157 3.976-2.395a4.83 4.83 0 0 0 2.16-4.164l-.168-7.305c-.984 0-3.222-.18-3.68-1.785-.152-.539-.09-1.05.188-1.476.332-.508.899-.79 1.344-.946-.215-.73-.418-1.96.227-2.972.64-1.004 1.925-1.5 3.789-1.489.41-.004.742-.351 1.27-.933.66-.723 1.476-1.621 2.898-1.946.023-.003.05-.011.074-.011.262-.024 1.625.031 2.887 3.246l2.543 3.773a.552.552 0 0 1-.192.801l-.93.508c.293 1.531.356 3.055.184 4.531a1.82 1.82 0 0 1-1.242 1.52 9 9 0 0 1-1.098.277l.371 4.64a7.05 7.05 0 0 0 2.985 5.212 38 38 0 0 0 3.386 2.109.558.558 0 0 1-.187 1.047c-.047.008-2.547.336-6.422.336"/>
  <path fill="#fff" d="M74.934 154.355s-3.383.118-4.727-1.726z"/>
  <path d="M74.797 154.914c-.723 0-3.7-.113-5.043-1.953a.56.56 0 0 1 .125-.781.553.553 0 0 1 .777.12c.961 1.313 3.399 1.528 4.258 1.497a.55.55 0 0 1 .578.539.56.56 0 0 1-.539.578zM137.492 209.984h-32.375l24-36.953c.75-1.152 2.059-1.851 3.461-1.851h26.274c1.668 0 2.683 1.785 1.793 3.16z"/>
  <path fill="#caddff" d="M144.398 184.137c-1.054 1.617-3.316 2.93-5.054 2.93s-2.293-1.313-1.242-2.93c1.05-1.621 3.312-2.934 5.05-2.934 1.743 0 2.297 1.313 1.246 2.934"/>
  <path d="M134.262 213.07H80.363a3.347 3.347 0 0 1-3.343-3.351h60.59a3.35 3.35 0 0 1-3.348 3.351"/>
  <path fill="#fff" d="M135.809 210.578h-27.805a.56.56 0 0 1-.559-.558.56.56 0 0 1 .559-.563h27.805a.56.56 0 0 1 .558.563c0 .308-.25.558-.558.558"/>
  <path d="M323.121 298.508a3.025 3.025 0 1 0 .379 6.027 3.02 3.02 0 0 0 2.613-3.383 3.03 3.03 0 0 0-2.992-2.644m-.004 7.168a4.15 4.15 0 0 1-4.101-3.617c-.286-2.266 1.316-4.344 3.578-4.633a4.14 4.14 0 0 1 4.625 3.586 4.135 4.135 0 0 1-3.574 4.633 5 5 0 0 1-.528.03M253.395 54.77h-.063l-1.508-.176a.562.562 0 0 1 .133-1.113l1.504.175a.559.559 0 0 1-.066 1.114M246.184 53.938q-.03-.001-.063-.008l-1.508-.172a.56.56 0 0 1-.492-.621.564.564 0 0 1 .621-.492l1.504.175a.56.56 0 0 1 .492.621.56.56 0 0 1-.554.496M248.55 58.652q-.027-.001-.062-.007a.556.556 0 0 1-.492-.618l.168-1.511a.56.56 0 0 1 .617-.496.56.56 0 0 1 .492.617l-.168 1.515a.56.56 0 0 1-.554.5M249.355 51.398l-.062-.003a.56.56 0 0 1-.492-.618l.168-1.515a.56.56 0 0 1 .613-.496c.309.039.531.316.496.62l-.168 1.516a.56.56 0 0 1-.555.496M89.242 107.914a.56.56 0 0 1-.34-1.004l1.2-.926a.56.56 0 0 1 .683.891l-1.203.922a.56.56 0 0 1-.34.117M83.488 112.348a.56.56 0 0 1-.445-.22.563.563 0 0 1 .102-.784l1.203-.926a.564.564 0 0 1 .785.102.56.56 0 0 1-.106.785l-1.199.925a.56.56 0 0 1-.34.118M89.668 113.152a.56.56 0 0 1-.441-.218l-.934-1.204a.555.555 0 0 1 .098-.78.556.556 0 0 1 .785.097l.933 1.203a.563.563 0 0 1-.097.785.56.56 0 0 1-.344.117M85.195 107.387a.56.56 0 0 1-.441-.215l-.934-1.203a.56.56 0 0 1 .883-.688l.934 1.203a.559.559 0 0 1-.442.903M97.176 94.719a.556.556 0 0 1-.453-.883c8.304-11.688 19.418-21.246 33.027-28.414 10.875-5.727 23.355-9.95 37.098-12.543 23.382-4.422 42.593-2.57 42.785-2.55a.557.557 0 0 1 .5.608.56.56 0 0 1-.61.504c-.191-.02-19.27-1.851-42.5 2.54-21.398 4.05-50.808 14.359-69.39 40.503a.56.56 0 0 1-.457.235"/>
  <path d="M127.742 57.875a.558.558 0 0 1-.297-1.035c.114-.07 11.293-6.926 29.508-11.621a140.4 140.4 0 0 1 73.633 1.027.558.558 0 1 1-.309 1.074 139.35 139.35 0 0 0-73.004-1.03c-18.058 4.651-29.128 11.433-29.238 11.503a.56.56 0 0 1-.293.082M121.29 58.984a1 1 0 0 0-.196.016 1.55 1.55 0 0 0-1.344 1.738c.05.41.262.778.59 1.032a1.53 1.53 0 0 0 1.144.312 1.556 1.556 0 0 0-.195-3.098m-.005 4.23c-.59 0-1.156-.194-1.629-.562a2.64 2.64 0 0 1-1.015-1.773 2.676 2.676 0 0 1 2.308-2.988c1.461-.192 2.801.847 2.985 2.312a2.64 2.64 0 0 1-.536 1.973 2.63 2.63 0 0 1-1.773 1.015 2.5 2.5 0 0 1-.34.024M290.09 320.05a.56.56 0 0 1-.344-.116l-1.328-1.032a.56.56 0 0 1-.102-.785.563.563 0 0 1 .786-.097l1.328 1.03a.56.56 0 0 1 .101.786.57.57 0 0 1-.441.215M294.742 323.66a.58.58 0 0 1-.344-.117l-1.328-1.031a.56.56 0 0 1 .684-.883l1.328 1.027a.56.56 0 0 1-.34 1.004M289.434 324.336a.6.6 0 0 1-.34-.113.564.564 0 0 1-.098-.79l1.027-1.328a.555.555 0 0 1 .782-.101.56.56 0 0 1 .101.785l-1.027 1.332a.57.57 0 0 1-.445.215M293.035 319.676a.56.56 0 0 1-.441-.903l1.031-1.332a.555.555 0 0 1 .781-.101c.242.191.29.543.102.785l-1.031 1.332a.54.54 0 0 1-.442.219"/>
</svg>
