<svg xmlns="http://www.w3.org/2000/svg" width="500" height="500" viewBox="0 0 375 375">
  <path fill="#caddff" d="M163.29 36.398c-6.04 1.875-32.845 10.602-59.61 33.754-6.485 5.61-32.696 28.282-43.89 58.758-19.06 51.88 3.745 130.805 69.437 162.524 76.515 36.941 173.168-8.532 195.214-69.387 9.774-26.988 10.215-71.75-14.414-101.266-19.82-23.75-53.718-35.035-52.406-57.504.633-10.824 8.824-13.812 6.55-20.629-5.386-16.164-58.187-19.52-100.882-6.25"/>
  <path fill="#99b9ff" d="M152.516 79.563c-8.305 3.847-18.157.234-22.004-8.067-3.852-8.305-.242-18.156 8.058-22.004 8.305-3.847 18.157-.238 22.004 8.067 3.852 8.304.242 18.156-8.058 22.004m24.59-26.118-2.708-5.843-6.87 1.48a27 27 0 0 0-2.872-3.445l2.676-6.492-5.262-3.704-5.215 4.72a26.7 26.7 0 0 0-4.207-1.54l-.925-6.973-6.41-.578-2.153 6.688c-1.476.129-2.953.39-4.418.773l-4.289-5.57-5.84 2.707 1.485 6.871a26.7 26.7 0 0 0-3.45 2.867l-6.492-2.676-3.699 5.266 4.719 5.211a27 27 0 0 0-1.543 4.207l-6.969.926-.574 6.414 6.683 2.148c.133 1.477.391 2.953.778 4.418l-5.57 4.29 2.707 5.84 6.87-1.481a26.6 26.6 0 0 0 2.872 3.445l-2.676 6.492 5.266 3.707 5.21-4.722a27 27 0 0 0 4.208 1.543l.925 6.968 6.414.578 2.149-6.683a26 26 0 0 0 4.418-.777l4.289 5.574 5.84-2.707-1.48-6.871a27 27 0 0 0 3.445-2.871l6.492 2.68 3.703-5.266-4.723-5.215a27 27 0 0 0 1.543-4.203l6.969-.926.574-6.414-6.684-2.153a26 26 0 0 0-.777-4.418z"/>
  <path fill="#5479f7" d="M247.723 277.285c-4.403-3.594-9.028-6.945-13.762-10.144-9.606-6.489-19.734-12.286-29.969-17.907-5.383-2.957-10.972-5.632-16.488-8.382-5.55-2.77-11.117-5.512-16.688-8.254-5.086-2.504-10.171-5.008-15.254-7.528-11.539-39-24.078-83.21-21.59-83.21l189.27-5.34c4.457 0 7.445 3.62 6.664 8.074L306.97 275.285c-.781 4.453-5.043 8.078-9.496 8.078h-42.118c-2.484-2.093-5.12-4.023-7.632-6.078"/>
  <path fill="#fff" d="M128.57 136.977h190.75c4.211 0 7.024 3.41 6.285 7.62l-22.937 130.688c-.738 4.207-4.75 7.621-8.957 7.621H102.96c-4.211 0-7.023-3.414-6.285-7.62l22.937-130.688c.739-4.211 4.75-7.621 8.957-7.621"/>
  <path fill="#caddff" d="M133.273 142.016h180.274c3.976 0 6.637 3.175 5.941 7.09l-21.675 121.667c-.7 3.918-4.493 7.094-8.47 7.094H109.07c-3.98 0-6.64-3.176-5.941-7.094l21.676-121.668c.699-3.914 4.492-7.09 8.468-7.09"/>
  <path fill="#5479f7" d="M58.777 282.98H294.36c3.141 0 5.692 2.442 5.692 5.579s-2.551 5.578-5.692 5.578H58.777c-3.14 0-5.691-2.434-5.691-5.578 0-3.141 2.55-5.579 5.691-5.579"/>
  <path d="M102.547 242.348a.5.5 0 0 1-.496-.586l14.355-84.426a.502.502 0 0 1 .992.168l-14.359 84.422a.5.5 0 0 1-.492.422M293.707 283.406h-3.824a.502.502 0 1 1 0-1.004h3.824c3.973 0 7.77-3.23 8.465-7.203l22.941-130.691c.332-1.91-.097-3.692-1.215-5.02-1.09-1.297-2.714-2.008-4.578-2.008l-53.218.352h-.004a.502.502 0 1 1-.004-1.004l53.222-.355c2.168 0 4.067.843 5.352 2.37 1.312 1.56 1.82 3.634 1.43 5.837L303.164 275.37c-.777 4.434-5.02 8.035-9.457 8.035M154.793 294.64H58.777c-3.472 0-6.195-2.671-6.195-6.081s2.723-6.082 6.195-6.082H279.16a.505.505 0 0 1 0 1.007H58.777c-2.91 0-5.187 2.227-5.187 5.075 0 2.847 2.277 5.078 5.187 5.078h96.016a.5.5 0 0 1 .5.504c0 .277-.223.5-.5.5"/>
  <path fill="#99b9ff" d="m294.629 226.445-132.399-.418c-2.507 0-4.27-2.109-3.843-4.597l28.972-169.473c.387-2.277 2.473-4.047 4.766-4.047l132.824-.41c2.508 0 4.582 2.516 4.156 5.004L300.133 221.98c-.387 2.274-3.215 4.465-5.504 4.465"/>
  <path fill="#fff" d="M290.91 226.023H157.773c-2.507 0-4.27-2.113-3.843-4.613L182.898 51.3c.391-2.284 2.477-4.062 4.766-4.062h133.14c2.509 0 4.266 2.117 3.84 4.617l-28.968 170.106c-.39 2.285-2.477 4.062-4.766 4.062"/>
  <path fill="#5479f7" d="M187.664 47.742c-2.043 0-3.922 1.602-4.27 3.645l-28.968 170.105c-.184 1.074.074 2.086.726 2.86.637.753 1.57 1.171 2.621 1.171H290.91c2.047 0 3.922-1.601 4.27-3.648L324.152 51.77c.18-1.07-.078-2.086-.73-2.856-.637-.758-1.567-1.172-2.617-1.172ZM290.91 226.527H157.773c-1.355 0-2.558-.543-3.39-1.527-.832-.988-1.18-2.328-.95-3.676L182.407 51.22c.426-2.516 2.739-4.48 5.258-4.48h133.14c1.352 0 2.555.542 3.387 1.527s1.18 2.324.95 3.672l-28.97 170.109c-.429 2.512-2.737 4.48-5.26 4.48"/>
  <path fill="#caddff" d="M286.73 220.523H163.172c-2.305 0-3.918-1.941-3.527-4.238l27.34-160.39c.355-2.098 2.269-3.727 4.37-3.727h123.567c2.3 0 3.914 1.941 3.523 4.234l-27.34 160.391c-.355 2.098-2.27 3.73-4.375 3.73"/>
  <path fill="#99b9ff" d="m196.02 72.215 107.23-.211c2.016-.004 3.43 1.695 3.086 3.707l-23.031 135.195c-.313 1.824-1.977 3.25-3.809 3.258l-107.2.52c-2.019.011-3.44-1.688-3.1-3.704l23.003-135.503c.309-1.832 1.98-3.258 3.82-3.262M316.55 67.531l1.895-11.129c.39-2.293-1.222-4.234-3.523-4.234H191.355c-2.101 0-4.015 1.629-4.37 3.727l-2.06 12.066z"/>
  <path fill="#fff" d="M200.59 60.668c-.223 2.07-2.082 3.75-4.156 3.75-2.07 0-3.575-1.68-3.352-3.75.219-2.074 2.078-3.754 4.152-3.754s3.575 1.68 3.356 3.754M211.836 60.816c-.223 2.075-2.082 3.754-4.156 3.754-2.07 0-3.575-1.68-3.352-3.754.219-2.07 2.078-3.75 4.152-3.75s3.575 1.68 3.356 3.75M223.48 60.742c-.222 2.074-2.082 3.754-4.156 3.754-2.07 0-3.574-1.68-3.355-3.754.222-2.07 2.082-3.75 4.156-3.75 2.07 0 3.574 1.68 3.355 3.75M245.582 57.059l59.098-.286c.945-.003 1.617.782 1.476 1.723l-.543 3.61c-.133.878-.922 1.57-1.8 1.578l-59.297.57c-.973.008-1.66-.82-1.473-1.79l.738-3.89c.16-.855.946-1.511 1.801-1.515"/>
  <path fill="#caddff" d="m236.309 125.668-44.59-.309c-1.352-.011-2.297-1.152-2.07-2.504l5.32-31.535c.21-1.242 1.34-2.207 2.586-2.21l44.82-.005c1.363 0 2.32 1.153 2.082 2.512l-5.547 31.852c-.219 1.242-1.36 2.207-2.601 2.199M289.844 125.555l-44.094-.301c-1.691-.012-2.875-1.45-2.578-3.14l5.3-30.266c.27-1.547 1.684-2.743 3.231-2.739l44.055.094c1.695.004 2.887 1.438 2.594 3.133l-5.262 30.477c-.27 1.554-1.692 2.753-3.246 2.742M294.754 84.906l-41.973.074c-.55 0-.93-.543-.824-1.19l.77-4.673c.097-.582.558-1.039 1.054-1.039l41.977-.074c.55 0 .93.547.824 1.191l-.77 4.672c-.097.586-.558 1.04-1.058 1.04M242.734 84.906l-41.976.074c-.551 0-.93-.546-.824-1.19l.77-4.673c.097-.586.558-1.039 1.058-1.039l41.976-.074c.551 0 .93.547.82 1.187l-.769 4.676c-.094.582-.555 1.035-1.055 1.04M190.516 130.8l97.398-.304c2.582-.012 4.547 2.313 4.113 4.856l-12.312 72.007a4.16 4.16 0 0 1-4.11 3.457l-96.793-.308a4.156 4.156 0 0 1-4.093-4.828l11.707-71.395a4.16 4.16 0 0 1 4.09-3.484"/>
  <path fill="#5479f7" d="m263.137 254.57-132.399-.422c-2.508 0-4.27-2.117-3.843-4.617l28.972-170.105c.387-2.285 2.473-4.063 4.766-4.063l132.824-.41c2.508 0 4.578 2.527 4.156 5.027l-28.972 170.106c-.391 2.285-3.215 4.484-5.504 4.484"/>
  <path fill="#99b9ff" d="M259.418 254.148h-133.14c-2.505 0-4.266-2.117-3.84-4.617l28.968-170.105c.39-2.285 2.477-4.063 4.766-4.063h133.14c2.508 0 4.266 2.117 3.84 4.617l-28.968 170.106c-.391 2.281-2.477 4.062-4.766 4.062"/>
  <path d="M259.418 254.648h-31.55a.502.502 0 1 1 0-1.003h31.55c2.047 0 3.922-1.602 4.27-3.645L292.66 79.895c.18-1.075-.078-2.086-.73-2.86-.637-.754-1.567-1.172-2.618-1.172h-133.14c-2.043 0-3.922 1.602-4.27 3.649l-4.39 25.832a.5.5 0 1 1-.989-.168l4.387-25.832c.43-2.516 2.742-4.485 5.262-4.485h133.14c1.352 0 2.555.543 3.387 1.532.832.984 1.18 2.324.95 3.671l-28.97 170.11c-.429 2.512-2.738 4.476-5.261 4.476"/>
  <path fill="#caddff" d="M255.242 248.645H131.68c-2.301 0-3.918-1.942-3.528-4.235l27.34-160.394c.36-2.098 2.274-3.727 4.375-3.727H283.43c2.3 0 3.914 1.941 3.527 4.234l-27.34 160.395c-.36 2.094-2.273 3.727-4.375 3.727"/>
  <path fill="#99b9ff" d="m164.527 100.34 107.23-.211c2.013-.004 3.43 1.695 3.087 3.703l-23.031 135.195c-.313 1.828-1.977 3.254-3.81 3.262l-107.198.52c-2.02.011-3.442-1.692-3.102-3.704l23.004-135.503c.313-1.832 1.98-3.258 3.82-3.262"/>
  <path fill="#fff" d="m285.059 95.652 1.898-11.129c.387-2.293-1.227-4.234-3.527-4.234H159.867c-2.101 0-4.015 1.629-4.375 3.73l-2.054 12.063z"/>
  <path fill="#99b9ff" d="M169.098 88.793c-.223 2.07-2.082 3.75-4.157 3.75-2.07 0-3.574-1.68-3.351-3.75.219-2.074 2.078-3.754 4.152-3.754s3.574 1.68 3.356 3.754M180.344 88.941c-.219 2.07-2.082 3.75-4.153 3.75-2.074 0-3.578-1.68-3.355-3.75.223-2.074 2.078-3.754 4.152-3.754s3.575 1.68 3.356 3.754M191.988 88.867c-.222 2.07-2.082 3.75-4.152 3.75-2.074 0-3.578-1.68-3.356-3.75.223-2.074 2.083-3.754 4.153-3.754 2.074 0 3.578 1.68 3.355 3.754M214.09 85.184l59.098-.286c.945-.003 1.617.782 1.476 1.723l-.543 3.61c-.129.874-.922 1.57-1.8 1.578l-59.298.566c-.972.008-1.656-.82-1.472-1.79l.738-3.89c.164-.851.945-1.507 1.8-1.511"/>
  <path fill="#caddff" d="m204.816 153.79-44.59-.31c-1.351-.007-2.296-1.152-2.066-2.5l5.317-31.535c.21-1.242 1.343-2.21 2.585-2.21l44.82-.005c1.364-.003 2.321 1.153 2.087 2.512l-5.551 31.852c-.219 1.242-1.356 2.203-2.602 2.195M258.352 153.68l-44.094-.305c-1.692-.012-2.875-1.445-2.578-3.137l5.3-30.265c.27-1.547 1.68-2.743 3.23-2.739l44.056.094c1.695.004 2.886 1.438 2.593 3.133l-5.265 30.477c-.266 1.55-1.688 2.753-3.242 2.742M263.266 113.027l-41.977.075c-.55 0-.93-.543-.824-1.188l.77-4.676c.097-.582.558-1.035 1.058-1.039l41.977-.074c.55 0 .93.547.82 1.191l-.77 4.672c-.093.586-.554 1.04-1.054 1.04M211.242 113.031l-41.976.074c-.551 0-.926-.546-.825-1.19l.77-4.673c.098-.586.559-1.039 1.059-1.039l41.976-.074c.547-.004.926.543.82 1.187l-.77 4.676c-.097.582-.558 1.035-1.054 1.04M257.688 169.785l-102.344.11a.397.397 0 0 1-.399-.48l.922-5.4a.52.52 0 0 1 .496-.421l102.348.054a.4.4 0 0 1 .398.485l-.93 5.234a.51.51 0 0 1-.491.418M255.57 179.914l-101.152.149a.84.84 0 0 1-.84-1.008l.774-4.52c.085-.5.543-.887 1.043-.887l101.117.188c.55 0 .933.469.84 1.012l-.747 4.183a1.08 1.08 0 0 1-1.035.883M253.816 190.266l-101.203.113a.8.8 0 0 1-.804-.95l.699-4.492c.074-.48.512-.859.996-.859l101.191.168c.52 0 .887.438.801.953l-.684 4.215a1.035 1.035 0 0 1-.996.852M252.402 200.617l-101.847.117a.556.556 0 0 1-.555-.664l.84-5.05a.72.72 0 0 1 .687-.59l101.848.152a.55.55 0 0 1 .55.664l-.84 4.793a.71.71 0 0 1-.683.578M249.742 216.793l-102.082.184a.522.522 0 0 1-.523-.622l.855-5.164a.675.675 0 0 1 .649-.554l102.078.113c.34 0 .578.285.515.625l-.851 4.867a.67.67 0 0 1-.64.551M247.902 226.957l-101.91.184c-.367.004-.625-.309-.562-.676l.879-5.14a.72.72 0 0 1 .699-.595l101.898.149c.367 0 .625.312.559.684l-.867 4.804a.725.725 0 0 1-.696.59M246.055 237.086l-101.582.11c-.47.003-.797-.395-.715-.864l.836-4.687a.91.91 0 0 1 .883-.747l101.503.11c.461 0 .79.39.711.855l-.754 4.465a.92.92 0 0 1-.882.758"/>
  <path fill="#5479f7" d="m178.895 272.98-118.227-.375c-2.238 0-3.813-1.886-3.43-4.12l25.867-151.903c.348-2.039 2.211-3.625 4.258-3.625l118.61-.367c2.238 0 4.09 2.254 3.71 4.488l-25.87 151.902c-.348 2.04-2.872 4-4.918 4"/>
  <path fill="#fff" d="M175.574 272.605H56.687c-2.238 0-3.812-1.886-3.433-4.12l25.871-151.903c.348-2.039 2.21-3.625 4.258-3.625H202.27c2.238 0 3.812 1.887 3.43 4.121L179.831 268.98c-.348 2.04-2.21 3.625-4.258 3.625"/>
  <path d="M175.574 273.11H59.797a.502.502 0 0 1 0-1.005h115.777c1.805 0 3.457-1.414 3.762-3.21l17.48-102.633a.501.501 0 1 1 .989.172l-17.477 102.629c-.387 2.269-2.476 4.046-4.754 4.046M56.34 259.988q-.036.001-.078-.004a.51.51 0 0 1-.418-.578l22.785-142.902c.387-2.274 2.476-4.05 4.754-4.05H202.27c1.222 0 2.312.491 3.066 1.382.754.894 1.066 2.105.86 3.324l-1.06 6.703a.503.503 0 0 1-.992-.156l1.06-6.707c.163-.95-.063-1.84-.638-2.516-.558-.664-1.375-1.027-2.296-1.027H83.383c-1.805 0-3.457 1.41-3.762 3.211L56.836 259.566a.5.5 0 0 1-.496.422"/>
  <path fill="#caddff" d="M171.848 267.691H61.508c-2.055 0-3.496-1.734-3.149-3.78l24.414-143.227c.317-1.871 2.028-3.329 3.907-3.329h110.34c2.05 0 3.496 1.735 3.144 3.782l-24.41 143.226c-.32 1.871-2.031 3.328-3.906 3.328"/>
  <path fill="#99b9ff" d="m90.84 135.258 95.754-.188c1.8-.004 3.066 1.516 2.758 3.309l-20.567 120.726c-.277 1.63-1.765 2.903-3.402 2.91l-95.727.465c-1.8.008-3.074-1.507-2.765-3.304L87.43 138.172c.277-1.633 1.77-2.91 3.41-2.914M198.473 131.074l1.691-9.937c.352-2.047-1.094-3.782-3.144-3.782H86.68c-1.88 0-3.59 1.457-3.907 3.329l-1.835 10.773z"/>
  <path fill="#5479f7" d="M94.922 124.945c-.195 1.852-1.86 3.352-3.707 3.352-1.852 0-3.195-1.5-2.996-3.352.195-1.847 1.855-3.347 3.707-3.347s3.191 1.5 2.996 3.347M104.965 125.078c-.2 1.852-1.86 3.352-3.711 3.352-1.852 0-3.192-1.5-2.992-3.352.195-1.848 1.855-3.348 3.707-3.348s3.191 1.5 2.996 3.348M115.363 125.012c-.199 1.851-1.86 3.351-3.71 3.351-1.852 0-3.192-1.5-2.993-3.351.195-1.848 1.856-3.348 3.707-3.348 1.852 0 3.192 1.5 2.996 3.348M135.098 121.723l52.773-.254c.844-.004 1.445.699 1.32 1.539l-.484 3.222c-.117.782-.824 1.403-1.61 1.41l-52.949.508c-.87.008-1.48-.734-1.316-1.597l.66-3.473c.145-.762.844-1.351 1.606-1.355"/>
  <path fill="#fff" d="M171.254 199.234H83.176l10.636-58.039h88.079zM169.348 208.2H81.797l1.039-5.665h87.55z"/>
  <path fill="#caddff" d="M127.043 236.156H77.352l4.41-24.066h49.691zM161.2 259.266l-88.11-.45 3.687-19.195h87.328zM164.465 236.273h-33.207l4.414-24.066h33.207z"/>
  <path fill="#5479f7" d="M123.172 179.492c-4.477-3.972-4.652-10.875-.399-15.414s11.332-4.996 15.809-1.023c4.473 3.972 4.652 10.875.395 15.41-4.254 4.539-11.332 5-15.805 1.027"/>
  <path fill="#fff" d="m127.457 174.754.29-6.828a.5.5 0 0 1 .714-.422l6.887 3.371c.351.172.332.668-.032.84l-7.171 3.46c-.333.157-.7-.07-.688-.421"/>
  <path fill="#99b9ff" d="M95.57 93.906c-5.738 2.66-12.543.164-15.203-5.574-2.66-5.734-.168-12.543 5.57-15.203 5.735-2.656 12.543-.16 15.204 5.574 2.66 5.738.164 12.543-5.57 15.203m16.993-18.043-1.872-4.035-4.75 1.02a18.5 18.5 0 0 0-1.98-2.38l1.848-4.484-3.637-2.562-3.602 3.262a19 19 0 0 0-2.906-1.067l-.64-4.816-4.43-.399-1.489 4.621q-1.532.136-3.05.536l-2.965-3.852-4.031 1.871 1.023 4.75a18 18 0 0 0-2.383 1.98l-4.484-1.851-2.559 3.64 3.262 3.598a18.4 18.4 0 0 0-1.066 2.91l-4.817.637-.398 4.43 4.62 1.488q.136 1.531.536 3.055l-3.848 2.96 1.871 4.036 4.75-1.023a18.5 18.5 0 0 0 1.98 2.382l-1.847 4.485 3.637 2.558 3.602-3.258c.937.434 1.91.79 2.906 1.063l.64 4.816 4.43.399 1.484-4.617c1.02-.09 2.043-.27 3.055-.536l2.961 3.848 4.035-1.867-1.023-4.754a18.5 18.5 0 0 0 2.383-1.98l4.484 1.851 2.559-3.637-3.262-3.601c.433-.938.789-1.91 1.062-2.906l4.817-.641.398-4.43-4.617-1.488a18.4 18.4 0 0 0-.54-3.05z"/>
  <path d="M61.32 146.848a.503.503 0 0 1-.5-.485l-.082-2.129a.5.5 0 0 1 .485-.52.49.49 0 0 1 .52.481l.081 2.133a.5.5 0 0 1-.484.52zM61.574 153.578a.506.506 0 0 1-.5-.484l-.082-2.13a.5.5 0 0 1 .485-.519.49.49 0 0 1 .52.48l.081 2.134a.5.5 0 0 1-.484.52zM56.977 149.313a.503.503 0 0 1-.504-.481.5.5 0 0 1 .484-.52l2.133-.082a.497.497 0 0 1 .52.485.5.5 0 0 1-.485.52l-2.129.077zM63.71 149.063a.507.507 0 0 1-.503-.485.51.51 0 0 1 .484-.523l2.133-.078a.495.495 0 0 1 .52.484.5.5 0 0 1-.485.52l-2.129.082zM288.582 39.688a1.7 1.7 0 0 0-.219 1.273c.102.437.367.812.746 1.055.383.238.832.316 1.274.214a1.67 1.67 0 0 0 1.055-.742 1.69 1.69 0 0 0-.528-2.328 1.696 1.696 0 0 0-2.328.528m1.422 3.593c-.5 0-.996-.14-1.43-.418a2.68 2.68 0 0 1-1.191-1.68 2.696 2.696 0 0 1 4.066-2.871 2.693 2.693 0 0 1-1.445 4.97M107.828 48.762a.5.5 0 0 1-.5-.5v-2.598a.502.502 0 0 1 1.004 0v2.598c0 .277-.227.5-.504.5M107.828 54.816a.505.505 0 0 1-.504-.504v-2.597c0-.278.227-.5.504-.5s.504.222.504.5v2.597a.505.505 0 0 1-.504.504M106.102 50.492H103.5a.502.502 0 0 1 0-1.004h2.602a.502.502 0 0 1 0 1.004M112.156 50.492h-2.601a.502.502 0 0 1 0-1.004h2.601a.502.502 0 0 1 0 1.004"/>
  <path fill="#fff" d="M114.965 220.543a.501.501 0 0 1-.043-1 39 39 0 0 1 4.062-.156.503.503 0 0 1-.004 1.004h-.007a39 39 0 0 0-3.961.152zm12 .656q-.047-.001-.094-.008a50 50 0 0 0-3.933-.57.501.501 0 1 1 .101-.996c1.309.133 2.66.328 4.016.578a.502.502 0 0 1-.09.996m174.582.149a.5.5 0 0 1-.5-.453 69 69 0 0 0-.52-3.95.502.502 0 1 1 .993-.16c.218 1.363.398 2.711.523 4.012a.497.497 0 0 1-.445.547q-.03.005-.051.004m-194.426.851a.5.5 0 0 1-.476-.336.504.504 0 0 1 .308-.64c1.27-.438 2.594-.801 3.938-1.082a.5.5 0 0 1 .593.39.505.505 0 0 1-.39.594c-1.301.27-2.582.625-3.809 1.047a.5.5 0 0 1-.164.027m27.621.992a.5.5 0 0 1-.152-.023 65 65 0 0 0-3.832-1.117.502.502 0 0 1 .254-.973c1.273.328 2.582.711 3.886 1.137.266.082.41.367.325.629a.5.5 0 0 1-.48.347m-34.781 2.614a.5.5 0 0 1-.285-.914 31 31 0 0 1 3.515-2.082.506.506 0 0 1 .676.226.5.5 0 0 1-.222.672 29.5 29.5 0 0 0-3.399 2.012.5.5 0 0 1-.285.086m42.281.289a.5.5 0 0 1-.207-.043 81 81 0 0 0-3.687-1.543.5.5 0 1 1 .363-.934 79 79 0 0 1 3.734 1.559.503.503 0 0 1-.203.96m159.52 3.277h-.028a.503.503 0 0 1-.472-.531 48 48 0 0 0 .047-3.973.503.503 0 0 1 1.004-.027 47 47 0 0 1-.047 4.055.505.505 0 0 1-.504.476m-152.344.352a.5.5 0 0 1-.246-.063 88 88 0 0 0-3.527-1.887.5.5 0 0 1-.22-.675.5.5 0 0 1 .673-.223 92 92 0 0 1 3.566 1.906c.242.14.328.446.191.688a.5.5 0 0 1-.437.254m6.824 4.25a.5.5 0 0 1-.285-.09 95 95 0 0 0-3.348-2.188.503.503 0 0 1 .531-.852c1.145.716 2.282 1.458 3.387 2.212.227.16.286.472.13.699a.5.5 0 0 1-.415.219m144.297 3.324a.5.5 0 0 1-.129-.02.5.5 0 0 1-.36-.613 37 37 0 0 0 .805-3.879.505.505 0 0 1 .996.152c-.206 1.36-.484 2.7-.828 3.985a.5.5 0 0 1-.484.375m-137.89 1.527a.5.5 0 0 1-.325-.117 70 70 0 0 0-2.594-2.09q-.257-.198-.527-.402a.503.503 0 0 1 .606-.8l.535.405a72 72 0 0 1 2.629 2.118.51.51 0 0 1 .062.71.5.5 0 0 1-.387.176m70.011.383a.4.4 0 0 1-.168-.031c-1.242-.45-2.496-.594-3.715-.43a.505.505 0 0 1-.566-.434.5.5 0 0 1 .43-.562c1.379-.187 2.8-.023 4.191.484a.5.5 0 0 1-.172.973m-10.066 4.203a.503.503 0 0 1-.457-.719c.648-1.363 1.523-2.48 2.597-3.316a.5.5 0 0 1 .703.086.5.5 0 0 1-.085.703c-.95.742-1.727 1.734-2.309 2.957a.5.5 0 0 1-.45.29m16.289.723a.5.5 0 0 1-.403-.2 16.8 16.8 0 0 0-2.687-2.816.503.503 0 0 1 .637-.777 18 18 0 0 1 2.851 2.984.51.51 0 0 1-.094.707.53.53 0 0 1-.304.102m-70.285.101a.5.5 0 0 1-.348-.144c-1.043-1.004-2-1.903-2.922-2.742a.5.5 0 0 1-.031-.707.505.505 0 0 1 .71-.036c.927.848 1.891 1.75 2.942 2.762a.505.505 0 0 1-.351.867m129.02.524a.5.5 0 0 1-.445-.734 34 34 0 0 0 1.651-3.598.505.505 0 0 1 .938.367 36 36 0 0 1-1.703 3.7.5.5 0 0 1-.442.265m-123.31 5.14a.5.5 0 0 1-.355-.148q-1.424-1.44-2.836-2.848a.505.505 0 0 1-.004-.71.505.505 0 0 1 .711 0c.946.937 1.89 1.89 2.844 2.847a.505.505 0 0 1-.36.86m47.31 1.368a.506.506 0 0 1-.497-.422 14.9 14.9 0 0 1-.101-4.14.502.502 0 0 1 1 .112 13.735 13.735 0 0 0 .094 3.863.505.505 0 0 1-.415.583q-.04.005-.082.004m20.753.047a.504.504 0 0 1-.488-.387 17.7 17.7 0 0 0-1.34-3.66.5.5 0 0 1 .23-.672.505.505 0 0 1 .672.226c.64 1.309 1.118 2.614 1.414 3.875a.498.498 0 0 1-.488.618m50.746.085a.5.5 0 0 1-.32-.117.5.5 0 0 1-.063-.707 41 41 0 0 0 2.391-3.164.506.506 0 0 1 .7-.133c.226.157.288.47.132.7a41 41 0 0 1-2.453 3.242.51.51 0 0 1-.387.18m-113.133 4.192a.5.5 0 0 1-.351-.145q-1.435-1.412-2.848-2.843a.501.501 0 1 1 .711-.707q1.412 1.424 2.844 2.835c.195.196.2.516.004.711a.51.51 0 0 1-.36.149m107.477 1.504a.5.5 0 0 1-.379-.176.5.5 0 0 1 .05-.711 51 51 0 0 0 2.915-2.703.51.51 0 0 1 .715-.004.505.505 0 0 1 0 .71c-.926.93-1.926 1.86-2.973 2.759a.5.5 0 0 1-.328.125m-62.332 1.277a.5.5 0 0 1-.379-.168 16.8 16.8 0 0 1-2.328-3.41.504.504 0 0 1 .219-.676.504.504 0 0 1 .675.219 15.8 15.8 0 0 0 2.192 3.203c.183.211.16.527-.047.711a.5.5 0 0 1-.332.121m17.238.914a.508.508 0 0 1-.496-.613 17.7 17.7 0 0 0 .418-3.86c0-.277.227-.507.504-.507s.504.218.504.492c0 1.406-.152 2.777-.445 4.094a.5.5 0 0 1-.485.394m-56.558 1.856a.5.5 0 0 1-.336-.133 165 165 0 0 1-2.953-2.75.505.505 0 0 1-.016-.711.5.5 0 0 1 .71-.016 179 179 0 0 0 2.934 2.735.505.505 0 0 1 .036.71.5.5 0 0 1-.375.165m95.312.882a.502.502 0 0 1-.285-.914 69 69 0 0 0 3.21-2.367.5.5 0 0 1 .704.086.5.5 0 0 1-.086.703 67 67 0 0 1-3.258 2.406.5.5 0 0 1-.285.086m-49.707 1.301a.5.5 0 0 1-.246-.062 28.6 28.6 0 0 1-3.414-2.254.51.51 0 0 1-.09-.707.51.51 0 0 1 .707-.09 28 28 0 0 0 3.29 2.176.5.5 0 0 1-.247.937m42.766 2.723a.5.5 0 0 1-.457-.293.5.5 0 0 1 .246-.668 41 41 0 0 0 3.515-1.836.501.501 0 1 1 .504.867c-1.199.7-2.41 1.336-3.597 1.883a.5.5 0 0 1-.211.047m-82.227.277a.5.5 0 0 1-.308-.101 93 93 0 0 1-3.137-2.547.503.503 0 1 1 .648-.77 86 86 0 0 0 3.106 2.52.507.507 0 0 1 .09.707.51.51 0 0 1-.399.191m46.832.188a.5.5 0 0 1-.156-.024 47 47 0 0 1-3.809-1.43.502.502 0 1 1 .399-.921 44 44 0 0 0 3.469 1.312 18 18 0 0 0 1.906-3.101.503.503 0 0 1 .906.438 19 19 0 0 1-2.184 3.487.49.49 0 0 1-.3.184.5.5 0 0 1-.23.055m7.805 1.937q-.045-.001-.09-.008a62 62 0 0 1-3.969-.84.5.5 0 0 1-.367-.605.503.503 0 0 1 .61-.367 60 60 0 0 0 3.902.824.503.503 0 0 1-.086.996m19.98.133a.5.5 0 0 1-.101-.992 35 35 0 0 0 3.816-1.04.5.5 0 0 1 .637.317.5.5 0 0 1-.317.633c-1.28.43-2.601.79-3.93 1.07a.5.5 0 0 1-.105.012m-11.996.766h-.027a76 76 0 0 1-4.031-.34.504.504 0 0 1 .109-1c1.379.152 2.715.265 3.977.336a.51.51 0 0 1 .476.531.505.505 0 0 1-.504.473m4.02.09a.501.501 0 0 1-.008-1.004 44 44 0 0 0 3.965-.23.503.503 0 0 1 .105 1c-1.297.132-2.664.21-4.054.233zm-60.008 1.417a.5.5 0 0 1-.254-.066 59 59 0 0 1-3.418-2.18.502.502 0 1 1 .57-.828 57 57 0 0 0 3.356 2.14.5.5 0 0 1-.254.934m34.324.883a.49.49 0 0 1-.426-.238.496.496 0 0 1 .16-.687 24.6 24.6 0 0 0 3.172-2.329c.211-.18.532-.16.711.051a.5.5 0 0 1-.05.707 25.6 25.6 0 0 1-3.301 2.422.5.5 0 0 1-.266.074m-27.074 2.563a.5.5 0 0 1-.172-.031 41 41 0 0 1-3.75-1.57.502.502 0 0 1 .434-.907 40 40 0 0 0 3.656 1.531.503.503 0 0 1 .3.645.495.495 0 0 1-.468.332m19.734.664a.505.505 0 0 1-.484-.36.51.51 0 0 1 .344-.625 31 31 0 0 0 3.718-1.343.503.503 0 0 1 .403.922 32 32 0 0 1-3.84 1.386.4.4 0 0 1-.14.02m-11.93 1.129h-.054a33 33 0 0 1-4.016-.672.5.5 0 0 1-.375-.602.5.5 0 0 1 .602-.375c1.293.297 2.601.516 3.894.645a.503.503 0 0 1-.05 1.004m4.012.14a.5.5 0 0 1-.504-.488.51.51 0 0 1 .489-.52c1.3-.038 2.625-.167 3.933-.378a.5.5 0 0 1 .575.418.497.497 0 0 1-.415.574 32 32 0 0 1-4.062.394zM214.871 288.074l-.047 10.465-7.351-.473.757-10.023z"/>
  <path d="m208.016 297.598 6.308.406.043-9.43-5.672-.027Zm7.308 1.476-8.39-.539.828-10.996 7.617.035z"/>
  <path fill="#fff" d="m214.637 295.777-.446.43a2.9 2.9 0 0 1-3.175.566l-2.746-1.195a1.12 1.12 0 0 0-1.055.66c-.61 1.364-1.867 4.559-1.813 7.63a1.57 1.57 0 0 0 1.516 1.542l12.289.39h.023c1.23.04 2.383-.07 3.684-.198l2.238-.317c.493-.07.973-.21 1.41-.453.645-.352.903-1.043.797-1.684-.175-1.023-.894-1.441-3.21-2.386-3.563-1.45-7.36-4.121-8.653-4.766a2.1 2.1 0 0 0-.86-.219"/>
  <path d="M208.168 296.082a.62.62 0 0 0-.496.363c-.547 1.227-1.82 4.41-1.77 7.414a1.07 1.07 0 0 0 1.032 1.051l12.289.387c1.246.039 2.41-.074 3.644-.195l2.215-.313a3.7 3.7 0 0 0 1.238-.394c.5-.278.606-.797.543-1.16-.125-.739-.613-1.075-2.906-2.008-2.488-1.012-5.117-2.63-6.863-3.704-.805-.496-1.438-.886-1.824-1.078a1.5 1.5 0 0 0-.454-.144l-.277.27a3.4 3.4 0 0 1-3.726.663Zm11.566 10.23q-.256 0-.52-.007l-12.312-.39a2.07 2.07 0 0 1-2-2.036c-.058-3.211 1.278-6.555 1.856-7.844.27-.605.86-.98 1.527-.96l.098.003 2.832 1.238a2.405 2.405 0 0 0 2.629-.472l.594-.574.21.007c.375.012.735.102 1.07.27.427.21 1.079.613 1.903 1.121 1.82 1.121 4.305 2.652 6.715 3.629 2.328.945 3.297 1.465 3.52 2.765.152.91-.262 1.778-1.051 2.211a4.6 4.6 0 0 1-1.582.512l-2.239.313c-1.113.109-2.156.214-3.25.214"/>
  <path d="M215.918 301.883a.505.505 0 0 1-.406-.8l2.394-3.267a.5.5 0 0 1 .703-.105.5.5 0 0 1 .11.7l-2.395 3.265a.51.51 0 0 1-.406.207M218.328 303.422a.5.5 0 0 1-.285-.09.5.5 0 0 1-.129-.7l2.43-3.53a.5.5 0 0 1 .695-.133c.23.16.29.472.133.699l-2.43 3.535a.5.5 0 0 1-.414.219"/>
  <path fill="#fff" d="m178.95 288.125-3.188 8-5.742-1.652 3.433-8.657z"/>
  <path d="m170.691 294.145 4.774 1.37 2.836-7.117-4.567-1.921Zm5.368 2.59-6.711-1.93 3.828-9.653 6.422 2.7z"/>
  <path fill="#fff" d="m176.293 294.18-5.727-1.813a1.05 1.05 0 0 0-1.125.324c-.898 1.075-2.843 3.633-3.574 6.41a1.48 1.48 0 0 0 .988 1.782l8.137 2.574c1.79.566 3.633.938 5.5 1.102 0 0 6.016.632 6.082-1.278.102-2.75-3.949-3.297-4.492-3.855a118 118 0 0 0-5.066-4.832 1.86 1.86 0 0 0-.723-.414"/>
  <path d="M170.246 292.816c-.16 0-.312.07-.418.2-.808.964-2.766 3.5-3.476 6.214a.977.977 0 0 0 .656 1.172l8.137 2.575c1.75.554 3.566.918 5.394 1.086 1.656.171 4.57.183 5.375-.512.137-.117.156-.219.16-.29.059-1.671-1.879-2.406-3.16-2.89-.586-.223-.973-.367-1.191-.59a117 117 0 0 0-5.043-4.816 1.45 1.45 0 0 0-.54-.309l-5.726-1.812a.6.6 0 0 0-.168-.028m12.324 12.352c-1.05 0-1.93-.086-2.132-.106a26.5 26.5 0 0 1-5.598-1.128l-8.137-2.575a1.974 1.974 0 0 1-1.32-2.382c.762-2.914 2.824-5.59 3.676-6.61.402-.48 1.054-.672 1.66-.48l5.726 1.812q.511.16.91.52c.836.75 3.004 2.73 5.083 4.86.09.073.5.23.832.355 1.457.55 3.894 1.476 3.808 3.863a1.4 1.4 0 0 1-.504 1.012c-.804.699-2.566.859-4.004.859"/>
  <path d="M176.043 300.055a.5.5 0 0 1-.395-.188.507.507 0 0 1 .079-.707l3.37-2.7a.5.5 0 0 1 .704.08.5.5 0 0 1-.074.702l-3.372 2.703a.5.5 0 0 1-.312.11M177.84 302.063a.5.5 0 0 1-.39-.192.5.5 0 0 1 .073-.703l3.372-2.703a.5.5 0 0 1 .707.078.5.5 0 0 1-.079.707l-3.37 2.7a.5.5 0 0 1-.313.113M192.105 201.344s-4.007 8.015-5.359 16.46c-1.285 8.067-12.797 58.88-14.879 67.923-.137.597.14 1.21.684 1.496 1.367.722 4.035 1.98 6.36 2.183a1.61 1.61 0 0 0 1.534-.777c3.04-5.137 19.953-34.508 24.907-59.98 5.449-28.028 4.355-25.844 4.355-25.844z"/>
  <path d="M197.695 205.012s-2.34 15.234 2.082 26.504c4.254 10.84 8.262 45.699 6.676 57.972a1.415 1.415 0 0 0 1.207 1.586c1.934.274 5.422.64 7.809.196.437-.082.789-.403.898-.836 1.574-6.227 13.344-54.899 4.137-83.747z"/>
  <path fill="#fff" d="M202.246 243.672a.5.5 0 0 1-.5-.453c-.004-.043-.434-4.375-2.992-10.36-2.488-5.812-2.043-13.066-2.024-13.37a.503.503 0 1 1 1.004.066c-.007.07-.445 7.324 1.942 12.91 2.629 6.14 3.054 10.476 3.07 10.66a.503.503 0 0 1-.453.547zM251.93 141.863c-5.344 0-10.473-1.851-14.625-5.324-6.676-5.582-9.618-14.64-7.5-23.082a.503.503 0 0 1 .976.242c-2.027 8.07.785 16.735 7.168 22.07a21.71 21.71 0 0 0 15.953 5.004 21.7 21.7 0 0 0 14.82-7.734 21.6 21.6 0 0 0 4.5-8.934.49.49 0 0 1 .606-.37c.27.062.434.331.371.6a22.6 22.6 0 0 1-4.707 9.349 22.7 22.7 0 0 1-15.5 8.09q-1.037.089-2.062.09M274.316 119.285a.5.5 0 0 1-.5-.496 21.7 21.7 0 0 0-1.953-8.789.505.505 0 0 1 .918-.418c1.317 2.902 2 5.996 2.04 9.195a.51.51 0 0 1-.5.508z"/>
  <path d="M251.484 160.148a1.53 1.53 0 0 0 1.641-1.425l.809-12.121-3.07-.235-.813 12.125a1.564 1.564 0 0 0 1.433 1.656"/>
  <path d="M231.477 131.852c-7.137-11.348-3.801-26.274 7.445-33.336 11.246-7.067 26.148-3.594 33.285 7.75 7.137 11.347 3.805 26.273-7.441 33.336-11.246 7.066-26.153 3.597-33.29-7.75m-3.09 1.941c8.218 13.07 25.386 17.066 38.34 8.93 12.953-8.137 16.793-25.328 8.574-38.399-8.223-13.07-25.387-17.066-38.34-8.926-12.957 8.137-16.793 25.325-8.574 38.395"/>
  <path fill="#fff" d="M173.777 207.875s-4.27 3.254-5.043 5.25c-.773 2 .668 8.938.668 8.938s2.11.539 1.95-1.825.242-3.754.242-3.754 4.406-3.605 4.707-5.011c.297-1.407-2.524-3.598-2.524-3.598"/>
  <path d="M169.824 221.613c.23.008.524-.027.723-.195.238-.2.34-.586.305-1.145-.165-2.421.246-3.867.261-3.93a.5.5 0 0 1 .164-.245c1.774-1.453 4.352-3.88 4.532-4.73.144-.688-1.024-1.993-2.04-2.852-1.328 1.05-4.023 3.386-4.566 4.793-.558 1.437.203 6.187.621 8.304m.067 1.008c-.32 0-.563-.059-.614-.07a.51.51 0 0 1-.367-.387c-.152-.723-1.45-7.14-.644-9.219.816-2.105 5.027-5.332 5.207-5.468a.504.504 0 0 1 .613.003c.512.399 3.05 2.465 2.707 4.098-.305 1.43-3.762 4.371-4.75 5.188-.09.402-.313 1.625-.191 3.437.062.902-.16 1.57-.665 1.992-.414.34-.91.426-1.296.426"/>
  <path fill="#5479f7" d="m251.992 164.293-3.797-1.785c-6.699 13.058-22.863-8.414-29.449-9.528-1.512-.257-6.77-.875-16.184.149a30.8 30.8 0 0 0-11.32 3.55l-.21.114s-27.38 15.219-21.087 51.676a1.495 1.495 0 0 0 1.47 1.238h4.401c.762 0 1.403-.574 1.48-1.332.458-4.52 2.532-19.457 10.392-27.973.332-.363.886-.457 1.296-.187 1.078.726 2.371 3.863.078 16.3-.035.208-1.273 6.497-1.82 9.274-.14.711.336 1.395 1.051 1.508 4.746.766 21.125 3.242 27.45 2.105 3.874-.695 5.964-1.558 7.077-2.23a2.26 2.26 0 0 0 1.09-2.195l-.758-6.598c-.53-4.703-4.398-25.11 1.594-26.274 0 0 25.238 23.434 27.246-7.812"/>
  <path fill="#fff" d="M250.664 154.05c.309-.831.863-1.984 1.649-2.398 2.847-1.5 4.449 3.946 2.632 6.098-1.87 2.215-2.906 4.926-3.343 6.668l-3.434-.988s.562-.922.855-2.04c.48-1.804-.316-3.226-.316-3.226l1.645-1.41s-.13-1.508.312-2.703"/>
  <path d="m248.902 163.121 2.344.676c.41-1.418 1.371-4.067 3.316-6.371 1.036-1.227.758-3.727-.195-4.91-.515-.645-1.129-.786-1.82-.418-.496.261-1.008 1.035-1.41 2.129-.399 1.078-.285 2.472-.285 2.484.015.16-.051.32-.172.426l-1.36 1.164c.23.586.57 1.793.192 3.219a9 9 0 0 1-.61 1.601m2.7 1.797a.6.6 0 0 1-.141-.016l-3.43-.988a.503.503 0 0 1-.293-.742c.004-.012.528-.883.801-1.91.418-1.575-.266-2.84-.273-2.852a.506.506 0 0 1 .113-.625l1.46-1.254c-.019-.508-.01-1.664.352-2.652.352-.95.961-2.184 1.887-2.672 1.129-.594 2.25-.344 3.074.68 1.215 1.515 1.563 4.547.18 6.187-2.133 2.524-3.023 5.586-3.242 6.469a.53.53 0 0 1-.238.312.5.5 0 0 1-.25.063"/>
  <path fill="#fff" d="m198.215 154.668-2.149.625c7.004 5.922 18.653-1.664 18.653-1.664l-1.168-.203c-.895-.156-2.696-.164-3.946-.14a1.78 1.78 0 0 1-1.734-1.286l-1.3-4.5c1.042-.266 2.492-.52 2.902-1.148.718-1.114.004-4.641.004-4.641s-.313-1.836-1.176-4.055c-.465-1.191-.285-1.023-1.86-3.547l-2.558.625a5.64 5.64 0 0 0-4.008 3.696l-.18.535a7 7 0 0 0-.328 2.965l.852 8.28c.176 1.458-.41 4.08-2.004 4.458"/>
  <path d="M197.168 155.496c5.379 3.602 13.176 0 16.105-1.605-.714-.094-1.996-.13-3.664-.106a2.3 2.3 0 0 1-2.222-1.648l-1.301-4.496a.504.504 0 0 1 .36-.63l.488-.116c.75-.18 1.879-.45 2.117-.817.418-.648.21-2.887-.07-4.27-.004-.03-.317-1.831-1.149-3.968l-.18-.477c-.25-.672-.328-.875-1.449-2.68l-2.203.54a5.1 5.1 0 0 0-3.648 3.367l-.18.535c-.3.89-.402 1.816-.305 2.754l.852 8.281c.21 1.746-.512 4.54-2.375 4.992Zm5.559 2.578c-2.442 0-4.895-.633-6.985-2.398a.503.503 0 0 1 .184-.867l2.148-.621c.008-.004.016-.004.024-.008 1.222-.293 1.785-2.547 1.62-3.91l-.85-8.29a7.5 7.5 0 0 1 .35-3.175l.177-.532a6.12 6.12 0 0 1 4.367-4.027l2.558-.625a.5.5 0 0 1 .543.223c1.364 2.176 1.446 2.406 1.73 3.168.048.133.106.281.177.465.87 2.238 1.187 4.074 1.199 4.148.125.61.715 3.773-.074 4.996-.454.703-1.59.98-2.696 1.246l1.156 3.992c.157.551.672.934 1.243.922 1.332-.02 3.117-.011 4.039.149l1.168.203c.203.039.363.195.406.394a.51.51 0 0 1-.223.524c-.343.226-6.273 4.023-12.261 4.023"/>
  <path d="M195.36 141.832c1.19 1.586 3.253 1.723 5.23 1.691 2.379-.035 2.719-1.695 2.922-2.492.136-.547-.395-.629-.633-2.097-.371-2.293 1.562-1.215 1.926-1.329 1.465-.457.93-2.19 2.293-3.128 1.68-1.16.675-5.672-1.371-6.32-1.676-.532-2.57 1.573-5.055 1.847-2.133.234-3.55.348-4.48.871-1.66.93-2.602 2.016-2.938 3.563-.238 1.101-.531 2.289.871 4.472.668 1.043.008 1.29 1.234 2.922M205.352 148.078c-.997 0-2.258-.152-2.918-.844a.5.5 0 0 1 .02-.71c.198-.192.519-.184.71.019.574.605 2.41.598 3.43.45a.5.5 0 1 1 .144.991c-.133.02-.695.094-1.386.094"/>
  <path fill="#caddff" d="M162.668 36.625c-6.137 1.91-33.348 10.785-60.523 34.336-6.582 5.703-33.192 28.766-44.563 59.77-19.348 52.769 3.805 133.054 70.5 165.316 77.688 37.578 175.816-8.676 198.195-70.578 9.926-27.453 10.375-72.985-14.629-103.008-20.125-24.16-54.539-35.637-53.207-58.492.641-11.008 8.957-14.055 6.649-20.985-5.473-16.441-59.074-19.855-102.422-6.359"/>
  <path fill="#99b9ff" d="M151.727 80.531c-8.43 3.914-18.434.242-22.34-8.203-3.91-8.45-.246-18.469 8.183-22.383s18.43-.242 22.34 8.207c3.91 8.446.246 18.465-8.183 22.38m24.968-26.566-2.75-5.942-6.976 1.508a27 27 0 0 0-2.914-3.508l2.718-6.601-5.347-3.77-5.293 4.801a27.5 27.5 0 0 0-4.27-1.566l-.941-7.09-6.508-.59-2.187 6.8a27 27 0 0 0-4.48.79l-4.356-5.668-5.93 2.754 1.504 6.988a27 27 0 0 0-3.5 2.922l-6.59-2.727-3.758 5.356 4.793 5.3a27.4 27.4 0 0 0-1.566 4.282l-7.078.941-.582 6.524 6.785 2.187q.201 2.258.789 4.492l-5.656 4.364 2.75 5.937 6.976-1.504a27 27 0 0 0 2.914 3.508l-2.719 6.602 5.348 3.77 5.293-4.802a27 27 0 0 0 4.27 1.567l.941 7.09 6.508.59 2.187-6.801a27 27 0 0 0 4.48-.79l4.356 5.669 5.93-2.754-1.504-6.989a27.5 27.5 0 0 0 3.5-2.918l6.59 2.723 3.758-5.355-4.793-5.301a27.5 27.5 0 0 0 1.566-4.277l7.078-.946.582-6.523-6.785-2.188a27 27 0 0 0-.789-4.492z"/>
  <path fill="#5479f7" d="M248.39 281.656c-4.468-3.656-9.163-7.066-13.972-10.316-9.754-6.602-20.035-12.5-30.426-18.219-5.465-3.008-11.14-5.726-16.742-8.527a3790 3790 0 0 0-16.941-8.395 5694 5694 0 0 1-15.485-7.656c-11.722-39.668-24.449-84.645-21.922-84.645l192.16-5.43c4.524 0 7.56 3.688 6.766 8.216L308.543 279.62c-.793 4.531-5.121 8.215-9.64 8.215h-42.766c-2.52-2.125-5.196-4.09-7.746-6.18"/>
  <path fill="#fff" d="M127.418 138.934h193.66c4.277 0 7.133 3.468 6.383 7.75l-23.285 132.941c-.75 4.277-4.824 7.75-9.098 7.75h-193.66c-4.277 0-7.133-3.473-6.383-7.75l23.285-132.941c.75-4.282 4.825-7.75 9.098-7.75"/>
  <path fill="#caddff" d="M132.191 144.059H315.22c4.039 0 6.738 3.23 6.031 7.214l-22.008 123.758c-.707 3.985-4.558 7.215-8.597 7.215H107.617c-4.039 0-6.738-3.23-6.031-7.215l22.008-123.758c.707-3.984 4.558-7.214 8.597-7.214"/>
  <path fill="#5479f7" d="M56.559 287.45h239.18c3.187 0 5.78 2.484 5.78 5.675s-2.593 5.676-5.78 5.676H56.558c-3.192 0-5.782-2.48-5.782-5.676 0-3.195 2.59-5.676 5.782-5.676"/>
  <path d="M100.992 246.117q-.04-.001-.086-.008a.513.513 0 0 1-.418-.59l14.578-85.874a.51.51 0 1 1 1.008.172l-14.578 85.874a.51.51 0 0 1-.504.426M295.078 287.883h-3.883a.51.51 0 0 1-.511-.512c0-.281.226-.508.511-.508h3.883c4.031 0 7.887-3.289 8.594-7.328l23.289-132.941c.34-1.942-.098-3.754-1.23-5.102-1.11-1.32-2.758-2.047-4.649-2.047l-54.035.36h-.004a.507.507 0 0 1-.508-.508.51.51 0 0 1 .508-.512l54.035-.36c2.2 0 4.129.852 5.434 2.41 1.332 1.587 1.847 3.692 1.453 5.935L304.68 279.71c-.79 4.509-5.098 8.173-9.602 8.173M154.04 299.313H56.558c-3.528 0-6.29-2.72-6.29-6.188 0-3.469 2.762-6.187 6.29-6.187h223.75a.511.511 0 1 1 0 1.023H56.559c-2.957 0-5.27 2.266-5.27 5.164 0 2.895 2.313 5.164 5.27 5.164h97.48c.281 0 .508.227.508.512a.51.51 0 0 1-.508.512"/>
  <path fill="#99b9ff" d="m296.012 229.941-134.422-.425c-2.547 0-4.332-2.145-3.903-4.676l29.415-172.387c.394-2.316 2.515-4.117 4.84-4.117l134.855-.418c2.547 0 4.648 2.559 4.219 5.094l-29.414 172.386c-.395 2.317-3.266 4.543-5.59 4.543"/>
  <path fill="#fff" d="M292.238 229.516H157.063c-2.543 0-4.333-2.153-3.899-4.696l29.41-173.035c.395-2.324 2.516-4.129 4.84-4.129h135.172c2.547 0 4.336 2.149 3.902 4.692l-29.414 173.035c-.394 2.324-2.512 4.133-4.836 4.133"/>
  <path fill="#5479f7" d="M187.414 48.164c-2.078 0-3.98 1.629-4.336 3.707l-29.414 173.035c-.184 1.09.078 2.121.738 2.906.649.77 1.594 1.192 2.66 1.192h135.176c2.075 0 3.98-1.629 4.332-3.707l29.414-173.035c.188-1.09-.074-2.121-.738-2.907-.648-.765-1.59-1.19-2.66-1.19Zm104.824 181.863H157.063c-1.372 0-2.594-.554-3.438-1.554-.848-1.004-1.2-2.368-.965-3.739L182.074 51.7c.434-2.554 2.778-4.554 5.34-4.554h135.172c1.375 0 2.598.55 3.441 1.55.844 1.004 1.196 2.367.965 3.739l-29.414 173.03c-.433 2.56-2.781 4.563-5.34 4.563"/>
  <path fill="#caddff" d="M287.996 223.918H162.543c-2.336 0-3.977-1.977-3.578-4.309l27.758-163.152c.363-2.133 2.304-3.789 4.437-3.789h125.453c2.336 0 3.977 1.973 3.578 4.305l-27.757 163.152c-.36 2.133-2.301 3.793-4.438 3.793"/>
  <path fill="#99b9ff" d="m195.895 73.063 108.87-.22c2.048-.003 3.485 1.723 3.133 3.77l-23.386 137.52c-.313 1.86-2.004 3.308-3.864 3.32l-108.836.527c-2.05.008-3.496-1.718-3.148-3.765l23.352-137.836c.316-1.863 2.011-3.317 3.879-3.317M318.266 68.293l1.925-11.32c.399-2.332-1.242-4.305-3.578-4.305H191.16c-2.133 0-4.074 1.656-4.437 3.789l-2.09 12.277z"/>
  <path fill="#fff" d="M200.535 61.313c-.222 2.105-2.11 3.816-4.215 3.816s-3.629-1.711-3.41-3.817c.227-2.109 2.113-3.816 4.219-3.816 2.105 0 3.633 1.707 3.406 3.816M211.953 61.465c-.223 2.11-2.113 3.816-4.219 3.816-2.101 0-3.629-1.707-3.402-3.816.223-2.106 2.11-3.817 4.215-3.817s3.629 1.711 3.406 3.817M223.777 61.39c-.226 2.11-2.113 3.817-4.218 3.817s-3.63-1.707-3.407-3.816c.227-2.11 2.114-3.817 4.22-3.817 2.1 0 3.628 1.707 3.405 3.817M246.215 57.645l60-.29c.96-.003 1.644.793 1.5 1.75l-.55 3.668c-.134.895-.938 1.602-1.83 1.61l-60.202.578c-.988.008-1.684-.832-1.492-1.82l.746-3.957c.164-.868.96-1.536 1.828-1.54"/>
  <path fill="#caddff" d="m236.8 127.43-45.269-.313c-1.375-.012-2.332-1.172-2.101-2.543l5.398-32.082c.215-1.262 1.363-2.246 2.629-2.246l45.504-.008c1.383 0 2.355 1.176 2.113 2.559l-5.633 32.398c-.218 1.266-1.379 2.243-2.64 2.235M291.152 127.316l-44.765-.308c-1.719-.012-2.918-1.473-2.617-3.192l5.382-30.789c.274-1.57 1.707-2.785 3.278-2.78l44.73.093c1.719.004 2.93 1.465 2.63 3.183l-5.34 31.004c-.274 1.582-1.72 2.801-3.298 2.79M296.14 85.969l-42.617.078c-.558 0-.941-.555-.835-1.211l.785-4.754c.093-.594.562-1.059 1.07-1.059l42.617-.074c.559 0 .942.555.836 1.207l-.781 4.754c-.098.598-.567 1.059-1.074 1.059M243.324 85.969l-42.617.074c-.559 0-.941-.555-.836-1.211l.781-4.754c.098-.594.567-1.055 1.075-1.055l42.617-.074c.558-.004.941.555.836 1.207l-.782 4.758c-.097.59-.566 1.05-1.074 1.055M190.309 132.656l98.886-.316c2.621-.008 4.618 2.355 4.176 4.941l-12.5 73.25a4.22 4.22 0 0 1-4.176 3.512l-98.27-.313a4.225 4.225 0 0 1-4.155-4.91l11.886-72.62a4.22 4.22 0 0 1 4.153-3.544"/>
  <path fill="#5479f7" d="m264.04 258.55-134.423-.429c-2.547 0-4.332-2.152-3.902-4.695l29.414-173.031c.394-2.325 2.512-4.133 4.84-4.133l134.855-.414c2.543 0 4.649 2.566 4.219 5.109l-29.418 173.031c-.395 2.325-3.262 4.563-5.586 4.563"/>
  <path fill="#99b9ff" d="M260.262 258.121H125.09c-2.547 0-4.332-2.152-3.903-4.695l29.415-173.031c.394-2.325 2.515-4.133 4.84-4.133h135.171c2.547 0 4.332 2.152 3.903 4.695l-29.414 173.031c-.395 2.325-2.516 4.133-4.84 4.133"/>
  <path d="M260.262 258.633H228.23a.513.513 0 0 1-.511-.512c0-.281.23-.512.511-.512h32.032c2.078 0 3.984-1.629 4.336-3.707l29.414-173.03c.183-1.09-.078-2.126-.739-2.907-.648-.77-1.593-1.192-2.66-1.192H155.441c-2.078 0-3.98 1.63-4.336 3.707l-4.457 26.278a.51.51 0 1 1-1.003-.172l4.453-26.277c.437-2.555 2.78-4.559 5.343-4.559h135.172c1.375 0 2.598.555 3.442 1.555.843 1.004 1.195 2.367.96 3.738l-29.41 173.031c-.437 2.555-2.78 4.559-5.343 4.559"/>
  <path fill="#caddff" d="M256.023 252.523H130.57c-2.336 0-3.972-1.976-3.578-4.308L154.75 85.063c.363-2.133 2.305-3.79 4.441-3.79h125.45c2.336 0 3.976 1.973 3.582 4.305L260.465 248.73c-.363 2.133-2.309 3.793-4.442 3.793"/>
  <path fill="#99b9ff" d="m163.922 101.668 108.867-.215c2.047-.004 3.484 1.723 3.137 3.766l-23.387 137.523c-.316 1.86-2.004 3.309-3.863 3.317l-108.84.527c-2.047.012-3.492-1.719-3.145-3.766l23.352-137.832c.316-1.863 2.012-3.316 3.879-3.32"/>
  <path fill="#fff" d="m286.297 96.898 1.926-11.32c.394-2.332-1.246-4.305-3.582-4.305H159.19c-2.136 0-4.078 1.657-4.441 3.793l-2.09 12.27z"/>
  <path fill="#99b9ff" d="M168.563 89.922c-.223 2.105-2.114 3.816-4.22 3.816-2.1 0-3.628-1.71-3.405-3.816.226-2.11 2.113-3.817 4.218-3.817s3.63 1.707 3.406 3.817M179.98 90.07c-.222 2.11-2.113 3.817-4.214 3.817-2.106 0-3.633-1.707-3.41-3.817.226-2.105 2.113-3.812 4.218-3.812s3.63 1.707 3.406 3.812M191.8 89.996c-.222 2.11-2.109 3.817-4.214 3.817s-3.629-1.708-3.406-3.817c.226-2.105 2.113-3.816 4.215-3.816 2.109 0 3.632 1.71 3.406 3.816M214.242 86.25l60.004-.29c.957-.003 1.64.794 1.496 1.755l-.55 3.668c-.133.89-.938 1.597-1.829 1.605l-60.203.578c-.988.008-1.683-.836-1.496-1.82l.75-3.957c.164-.867.957-1.535 1.828-1.539"/>
  <path fill="#caddff" d="m204.824 156.04-45.265-.317c-1.371-.008-2.332-1.172-2.102-2.543l5.398-32.078c.215-1.262 1.364-2.247 2.63-2.247l45.503-.007c1.383 0 2.356 1.172 2.114 2.558l-5.633 32.399c-.219 1.261-1.38 2.242-2.645 2.234M259.18 155.926l-44.766-.309c-1.719-.012-2.918-1.472-2.617-3.191l5.379-30.79c.277-1.57 1.707-2.784 3.281-2.784l44.727.097c1.722.004 2.93 1.461 2.632 3.184l-5.343 31.004c-.27 1.578-1.715 2.8-3.293 2.789M264.172 114.574l-42.621.074c-.559.004-.942-.554-.836-1.207l.785-4.754c.094-.593.563-1.054 1.07-1.058l42.618-.074c.558-.004.945.554.835 1.207l-.78 4.758c-.098.59-.567 1.054-1.071 1.054M211.352 114.574l-42.618.078c-.562 0-.941-.554-.836-1.21l.782-4.754c.093-.594.566-1.055 1.07-1.055l42.621-.078c.555 0 .941.554.832 1.21l-.781 4.755c-.098.593-.567 1.054-1.07 1.054M258.504 172.309l-103.906.113a.41.41 0 0 1-.407-.488l.942-5.496a.52.52 0 0 1 .504-.43l103.91.058c.265 0 .453.227.402.493l-.941 5.32a.525.525 0 0 1-.504.43M256.355 182.61l-102.695.152c-.558 0-.95-.473-.851-1.028l.78-4.593a1.1 1.1 0 0 1 1.06-.903l102.667.188c.555 0 .946.476.848 1.031l-.758 4.258a1.09 1.09 0 0 1-1.05.894M254.574 193.14l-102.75.118c-.523 0-.898-.442-.816-.969l.71-4.566a1.05 1.05 0 0 1 1.012-.875l102.739.168c.527 0 .898.445.812.972l-.695 4.285a1.05 1.05 0 0 1-1.012.868M253.14 203.672l-103.402.117a.562.562 0 0 1-.562-.676l.851-5.136a.72.72 0 0 1 .696-.598l103.406.152c.367 0 .621.309.559.676l-.852 4.871a.73.73 0 0 1-.695.594M250.441 220.121l-103.644.188a.528.528 0 0 1-.531-.63l.87-5.253a.68.68 0 0 1 .657-.563l103.637.114a.53.53 0 0 1 .527.636l-.867 4.953a.67.67 0 0 1-.649.555M248.57 230.46l-103.465.192a.575.575 0 0 1-.574-.691l.895-5.227a.735.735 0 0 1 .71-.605l103.454.152c.375 0 .637.317.57.696l-.883 4.886a.73.73 0 0 1-.707.598M246.695 240.766l-103.132.113a.726.726 0 0 1-.727-.879l.848-4.77a.934.934 0 0 1 .898-.761l103.05.113c.473 0 .805.398.723.871l-.761 4.543a.934.934 0 0 1-.899.77"/>
  <path fill="#5479f7" d="m178.512 277.281-120.035-.383c-2.274 0-3.872-1.921-3.485-4.191l26.266-154.516c.351-2.074 2.246-3.691 4.32-3.691L206 114.129c2.273 0 4.152 2.293 3.77 4.562l-26.266 154.516c-.352 2.074-2.918 4.074-4.992 4.074"/>
  <path fill="#fff" d="M175.137 276.898H54.434c-2.274 0-3.871-1.921-3.485-4.191l26.266-154.516c.355-2.074 2.246-3.691 4.32-3.691h120.707c2.274 0 3.871 1.922 3.485 4.191L179.46 273.207c-.352 2.074-2.246 3.691-4.324 3.691"/>
  <path d="M175.137 277.406H57.594a.51.51 0 1 1 0-1.02h117.543c1.832 0 3.508-1.437 3.82-3.265l17.746-104.394a.51.51 0 0 1 .59-.418.507.507 0 0 1 .414.59l-17.742 104.394c-.395 2.309-2.512 4.113-4.828 4.113M54.082 264.063c-.027 0-.05 0-.078-.004a.514.514 0 0 1-.426-.586l23.133-145.364c.394-2.312 2.512-4.12 4.824-4.12h120.707c1.242 0 2.348.5 3.113 1.41.766.906 1.083 2.14.872 3.378l-1.075 6.817a.506.506 0 0 1-.582.426.513.513 0 0 1-.425-.586l1.078-6.82c.164-.966-.067-1.872-.649-2.56-.566-.671-1.394-1.042-2.332-1.042H81.535c-1.828 0-3.504 1.433-3.816 3.265L54.586 263.633a.51.51 0 0 1-.504.43"/>
  <path fill="#caddff" d="M171.352 271.898H59.328c-2.086 0-3.55-1.765-3.195-3.847l24.785-145.688c.324-1.906 2.059-3.386 3.965-3.386H196.91c2.086 0 3.55 1.761 3.195 3.847L175.32 268.512c-.324 1.902-2.062 3.386-3.968 3.386"/>
  <path fill="#99b9ff" d="m89.11 137.188 97.218-.192c1.824-.004 3.11 1.54 2.8 3.363l-20.882 122.805c-.285 1.66-1.793 2.953-3.453 2.961l-97.191.473c-1.829.007-3.122-1.536-2.809-3.364l20.852-123.082c.285-1.664 1.796-2.96 3.464-2.964M198.387 132.93l1.718-10.106c.356-2.086-1.109-3.847-3.195-3.847H84.883c-1.906 0-3.64 1.48-3.965 3.386l-1.863 10.957z"/>
  <path fill="#5479f7" d="M93.254 126.7c-.2 1.878-1.887 3.405-3.766 3.405s-3.242-1.527-3.043-3.406c.203-1.883 1.887-3.41 3.766-3.41 1.883 0 3.242 1.527 3.043 3.41M103.45 126.832c-.2 1.883-1.888 3.41-3.766 3.41-1.88 0-3.243-1.527-3.04-3.41.2-1.879 1.883-3.406 3.766-3.406 1.88 0 3.238 1.527 3.04 3.406M114.008 126.766c-.2 1.882-1.887 3.406-3.766 3.406s-3.242-1.524-3.043-3.406c.2-1.883 1.887-3.407 3.766-3.407 1.883 0 3.242 1.524 3.043 3.407M134.043 123.422l53.582-.262c.855-.004 1.465.711 1.34 1.567l-.492 3.277c-.121.793-.84 1.426-1.637 1.434l-53.758.515c-.883.008-1.5-.742-1.336-1.625l.672-3.531c.145-.777.856-1.375 1.629-1.375"/>
  <path fill="#fff" d="M170.754 202.262H81.328l10.8-59.04h89.427zM168.816 211.383h-88.89l1.054-5.762h88.891z"/>
  <path fill="#caddff" d="M125.863 239.82H75.414l4.477-24.48h50.453zM160.543 263.324l-89.453-.453 3.742-19.523h88.66zM163.86 239.941h-33.715l4.48-24.48h33.715z"/>
  <path fill="#5479f7" d="M121.934 182.18c-4.543-4.04-4.723-11.059-.403-15.676s11.504-5.082 16.047-1.043c4.543 4.043 4.727 11.059.406 15.676-4.32 4.617-11.507 5.086-16.05 1.043"/>
  <path fill="#fff" d="m126.29 177.363.288-6.949a.51.51 0 0 1 .727-.43l6.992 3.434c.355.176.336.676-.031.855l-7.286 3.516c-.332.164-.707-.07-.69-.426"/>
  <path fill="#99b9ff" d="M93.91 95.125c-5.824 2.703-12.734.164-15.433-5.672-2.704-5.836-.168-12.758 5.656-15.46 5.82-2.708 12.734-.169 15.433 5.667 2.7 5.836.168 12.758-5.656 15.465m17.254-18.355-1.902-4.106-4.82 1.04a19 19 0 0 0-2.012-2.423l1.879-4.562-3.696-2.602-3.656 3.317a18.5 18.5 0 0 0-2.95-1.082l-.652-4.903-4.496-.402-1.511 4.695c-1.035.09-2.07.274-3.098.543l-3.008-3.914-4.097 1.902 1.039 4.832a19 19 0 0 0-2.418 2.016l-4.551-1.883-2.598 3.7 3.309 3.664q-.663 1.431-1.078 2.957l-4.891.652-.402 4.504 4.687 1.512a18.6 18.6 0 0 0 .547 3.105l-3.91 3.016 1.898 4.101 4.825-1.039q.914 1.308 2.011 2.422l-1.879 4.563 3.696 2.601 3.656-3.312c.95.441 1.937.804 2.95 1.082l.651 4.898 4.497.406 1.507-4.699a18.6 18.6 0 0 0 3.102-.543l3.008 3.914 4.094-1.902-1.04-4.832q1.31-.914 2.418-2.016l4.555 1.883 2.598-3.7-3.313-3.663a19 19 0 0 0 1.082-2.957l4.89-.649.403-4.508-4.687-1.511a19 19 0 0 0-.547-3.106z"/>
  <path d="M59.14 148.977a.51.51 0 0 1-.511-.493l-.078-2.168a.505.505 0 0 1 .488-.527c.29-.012.52.207.531.488l.078 2.168a.51.51 0 0 1-.488.532zM59.398 155.82a.505.505 0 0 1-.507-.488l-.082-2.168a.51.51 0 1 1 1.02-.039l.081 2.168a.513.513 0 0 1-.492.527zM54.727 151.484a.506.506 0 0 1-.508-.492.507.507 0 0 1 .488-.527l2.164-.082c.29-.016.52.21.531.492a.513.513 0 0 1-.492.527l-2.164.082zM61.566 151.227a.512.512 0 0 1-.02-1.024l2.165-.082c.289-.012.52.211.527.496a.507.507 0 0 1-.488.528l-2.164.082zM289.875 39.973a1.713 1.713 0 1 0 2.895 1.832c.507-.801.265-1.864-.532-2.368a1.714 1.714 0 0 0-2.363.536m1.441 3.652a2.727 2.727 0 0 1-2.66-2.133 2.738 2.738 0 0 1 4.129-2.918 2.745 2.745 0 0 1 .852 3.778 2.72 2.72 0 0 1-2.32 1.273M106.36 49.203a.51.51 0 0 1-.512-.508v-2.64c0-.285.226-.512.511-.512.282 0 .508.227.508.512v2.64a.507.507 0 0 1-.508.508M106.355 55.36a.507.507 0 0 1-.507-.508v-2.645a.51.51 0 1 1 1.02 0v2.645a.51.51 0 0 1-.513.507M104.602 50.96h-2.637a.51.51 0 1 1 0-1.019h2.637c.285 0 .511.227.511.512a.51.51 0 0 1-.511.508M110.75 50.96h-2.637a.51.51 0 0 1-.511-.507c0-.285.226-.512.511-.512h2.637a.511.511 0 1 1 0 1.02"/>
  <path fill="#fff" d="M113.602 223.938c-.258 0-.48-.2-.508-.465a.515.515 0 0 1 .465-.555 40 40 0 0 1 4.125-.156.51.51 0 0 1-.004 1.02h-.008a39 39 0 0 0-4.024.155zm12.183.667q-.046 0-.094-.007a50 50 0 0 0-3.996-.578.51.51 0 0 1 .106-1.016c1.328.137 2.699.336 4.074.586.277.055.46.32.41.597a.51.51 0 0 1-.5.418m177.25.153a.51.51 0 0 1-.508-.461 68 68 0 0 0-.527-4.02.51.51 0 0 1 1.008-.164c.222 1.387.402 2.762.535 4.082a.51.51 0 0 1-.457.559q-.026.005-.05.004m-197.398.867a.512.512 0 0 1-.168-.996 34 34 0 0 1 3.996-1.098.507.507 0 0 1 .605.395.51.51 0 0 1-.394.601c-1.324.278-2.625.641-3.871 1.07a.5.5 0 0 1-.168.028m28.047 1.008a.5.5 0 0 1-.157-.024 65 65 0 0 0-3.886-1.136.511.511 0 0 1 .254-.989c1.292.332 2.62.72 3.945 1.153a.51.51 0 0 1-.156.996m-35.313 2.656a.51.51 0 0 1-.29-.93 31 31 0 0 1 3.571-2.113.508.508 0 1 1 .457.91 30.5 30.5 0 0 0-3.453 2.047.5.5 0 0 1-.285.086m42.926.297a.6.6 0 0 1-.211-.043 76 76 0 0 0-3.742-1.57.51.51 0 0 1-.293-.66.517.517 0 0 1 .664-.293 83 83 0 0 1 3.789 1.59c.258.117.371.417.258.675a.52.52 0 0 1-.465.3m161.957 3.332h-.027a.51.51 0 0 1-.48-.54 46 46 0 0 0 .046-4.042.51.51 0 0 1 .496-.524.51.51 0 0 1 .524.497 49 49 0 0 1-.047 4.125.513.513 0 0 1-.512.484m-154.672.36a.5.5 0 0 1-.25-.067 90 90 0 0 0-3.578-1.918.51.51 0 1 1 .46-.91c1.212.613 2.43 1.265 3.618 1.937a.512.512 0 0 1-.25.957m6.93 4.32a.5.5 0 0 1-.29-.09 92 92 0 0 0-3.398-2.223.51.51 0 0 1-.164-.703.51.51 0 0 1 .703-.164c1.16.723 2.317 1.48 3.434 2.246a.51.51 0 0 1-.285.934m146.5 3.382a.5.5 0 0 1-.13-.02.51.51 0 0 1-.362-.624 39 39 0 0 0 .816-3.945.51.51 0 1 1 1.008.156 39 39 0 0 1-.84 4.05.51.51 0 0 1-.492.383m-139.996 1.555a.5.5 0 0 1-.328-.12 76 76 0 0 0-2.633-2.126q-.268-.206-.535-.406a.516.516 0 0 1-.102-.719.514.514 0 0 1 .715-.098c.18.137.363.274.539.414a70 70 0 0 1 2.672 2.153.51.51 0 0 1 .062.719.51.51 0 0 1-.39.183m71.082.39a.5.5 0 0 1-.172-.03c-1.262-.461-2.535-.61-3.77-.442a.51.51 0 0 1-.574-.437.51.51 0 0 1 .434-.575c1.402-.187 2.843-.023 4.257.493a.51.51 0 0 1 .305.652.52.52 0 0 1-.48.34m-10.223 4.274a.5.5 0 0 1-.219-.054.505.505 0 0 1-.242-.676c.66-1.39 1.543-2.528 2.633-3.375a.51.51 0 1 1 .629.8c-.965.754-1.75 1.766-2.34 3.012a.51.51 0 0 1-.461.293m16.54.735a.5.5 0 0 1-.407-.204 17.3 17.3 0 0 0-2.73-2.867.51.51 0 0 1-.071-.718c.18-.215.5-.25.719-.07a18.2 18.2 0 0 1 2.894 3.038.514.514 0 0 1-.406.82m-71.356.101a.5.5 0 0 1-.356-.144 163 163 0 0 0-2.965-2.79.51.51 0 0 1-.035-.722.51.51 0 0 1 .723-.031c.941.863 1.918 1.78 2.984 2.808.203.196.211.52.012.723a.5.5 0 0 1-.363.156m130.988.535a.512.512 0 0 1-.453-.75 35 35 0 0 0 1.68-3.656.507.507 0 0 1 .66-.289.507.507 0 0 1 .289.66 37 37 0 0 1-1.727 3.766.51.51 0 0 1-.45.27m-125.192 5.227a.5.5 0 0 1-.363-.152c-.965-.973-1.922-1.942-2.879-2.895a.51.51 0 0 1-.004-.723c.2-.199.524-.199.723 0q1.434 1.435 2.887 2.899a.515.515 0 0 1-.004.722.52.52 0 0 1-.36.149m48.032 1.394a.51.51 0 0 1-.504-.43 15 15 0 0 1-.203-2.48c0-.582.035-1.168.097-1.734a.51.51 0 1 1 1.016.117 14.245 14.245 0 0 0 .094 3.93.51.51 0 0 1-.5.597m21.07.047a.51.51 0 0 1-.496-.394 18 18 0 0 0-1.363-3.723.513.513 0 0 1 .234-.684.51.51 0 0 1 .684.231c.652 1.332 1.136 2.66 1.437 3.941a.512.512 0 0 1-.496.63m51.523.086a.5.5 0 0 1-.328-.12.505.505 0 0 1-.062-.72 42 42 0 0 0 2.426-3.214.514.514 0 0 1 .71-.137c.231.16.294.476.133.71a43 43 0 0 1-2.488 3.298.51.51 0 0 1-.39.183m-114.863 4.266a.51.51 0 0 1-.36-.149 403 403 0 0 1-2.89-2.89.512.512 0 0 1 .723-.723c.957.965 1.918 1.93 2.887 2.887.199.2.199.523.003.723a.5.5 0 0 1-.363.152m109.117 1.527a.5.5 0 0 1-.382-.18.505.505 0 0 1 .05-.718 55 55 0 0 0 2.961-2.754.512.512 0 0 1 .723.723 54 54 0 0 1-3.02 2.804.5.5 0 0 1-.332.125m-63.285 1.301a.51.51 0 0 1-.383-.172 17.2 17.2 0 0 1-2.367-3.469.517.517 0 0 1 .227-.687.507.507 0 0 1 .683.223 16 16 0 0 0 2.227 3.261.509.509 0 0 1-.387.844m17.5.93a.517.517 0 0 1-.5-.625c.281-1.262.426-2.582.426-3.926 0-.281.227-.52.508-.52.285 0 .512.227.512.504 0 1.43-.153 2.828-.45 4.164a.51.51 0 0 1-.496.403m-57.418 1.886a.5.5 0 0 1-.344-.132 158 158 0 0 1-2.996-2.801.51.51 0 0 1-.015-.723.507.507 0 0 1 .719-.015c1.046 1 2.02 1.91 2.98 2.78a.516.516 0 0 1 .035.723.52.52 0 0 1-.379.168m96.77.899a.509.509 0 0 1-.293-.93 69 69 0 0 0 3.258-2.41.51.51 0 1 1 .629.805 71 71 0 0 1-3.305 2.445.5.5 0 0 1-.29.09m-50.469 1.324a.5.5 0 0 1-.25-.066 29 29 0 0 1-3.465-2.293.512.512 0 0 1 .625-.809c1 .777 2.125 1.524 3.34 2.211.246.14.332.453.195.695a.52.52 0 0 1-.445.262m43.418 2.766a.508.508 0 0 1-.215-.973 42 42 0 0 0 3.57-1.871.515.515 0 0 1 .7.183.51.51 0 0 1-.188.7 44 44 0 0 1-3.652 1.914.5.5 0 0 1-.215.047m-83.48.285a.53.53 0 0 1-.317-.106 92 92 0 0 1-3.183-2.59.517.517 0 0 1-.063-.722.517.517 0 0 1 .723-.059c1.07.91 2.129 1.774 3.148 2.563a.508.508 0 0 1-.309.914m47.546.191a.5.5 0 0 1-.16-.027 46 46 0 0 1-3.863-1.453.504.504 0 0 1-.27-.668.51.51 0 0 1 .668-.27c1.114.477 2.297.926 3.524 1.336.762-1 1.414-2.058 1.937-3.156a.512.512 0 0 1 .922.445 19.4 19.4 0 0 1-2.219 3.551.5.5 0 0 1-.308.184.5.5 0 0 1-.23.058m7.922 1.969c-.031 0-.058-.004-.09-.008a64 64 0 0 1-4.03-.851.512.512 0 0 1 .246-.992 59 59 0 0 0 3.96.835.513.513 0 0 1-.086 1.016m20.29.137a.511.511 0 0 1-.105-1.012 36 36 0 0 0 3.874-1.055.505.505 0 0 1 .644.32.51.51 0 0 1-.32.645c-1.3.438-2.64.805-3.992 1.09a.4.4 0 0 1-.102.012m-12.18.777h-.032a79 79 0 0 1-4.093-.348.515.515 0 0 1-.453-.562.52.52 0 0 1 .566-.453c1.402.156 2.758.273 4.039.344a.511.511 0 0 1-.027 1.019m4.078.09a.503.503 0 0 1-.508-.504.504.504 0 0 1 .5-.516 46 46 0 0 0 4.027-.234.512.512 0 0 1 .106 1.016 46 46 0 0 1-4.117.238zm-60.922 1.445a.5.5 0 0 1-.262-.07 61 61 0 0 1-3.469-2.215.513.513 0 0 1-.128-.71.505.505 0 0 1 .707-.134 59 59 0 0 0 3.41 2.18.51.51 0 0 1-.258.95m34.844.899a.512.512 0 0 1-.266-.945 25.4 25.4 0 0 0 3.223-2.364.51.51 0 0 1 .718.047.513.513 0 0 1-.05.723 26 26 0 0 1-3.356 2.464.55.55 0 0 1-.27.075m-27.485 2.605a.6.6 0 0 1-.175-.031 41 41 0 0 1-3.81-1.598.513.513 0 0 1-.237-.683.51.51 0 0 1 .68-.239 42 42 0 0 0 3.714 1.559.512.512 0 0 1-.172.992m20.035.676a.51.51 0 0 1-.14-1 32 32 0 0 0 3.773-1.367.51.51 0 0 1 .672.261.51.51 0 0 1-.266.672 33 33 0 0 1-3.894 1.414.5.5 0 0 1-.145.02m-12.113 1.148c-.015 0-.035 0-.05-.004a32 32 0 0 1-4.083-.68.506.506 0 0 1-.379-.613.504.504 0 0 1 .61-.378c1.312.3 2.64.523 3.953.656a.51.51 0 0 1 .457.558.506.506 0 0 1-.508.461m4.074.14a.51.51 0 0 1-.511-.495.514.514 0 0 1 .496-.527c1.32-.04 2.664-.168 3.996-.383.273-.051.539.144.582.422a.51.51 0 0 1-.422.586 32 32 0 0 1-4.125.398zM215.035 292.629l-.047 10.648-7.46-.48.765-10.2z"/>
  <path d="m208.074 302.32 6.406.41.043-9.59-5.757-.027Zm7.422 1.5-8.516-.547.84-11.187 7.73.035z"/>
  <path fill="#fff" d="m214.797 300.469-.453.433a2.94 2.94 0 0 1-3.223.578l-2.789-1.218c-.46-.012-.879.25-1.07.675-.617 1.387-1.895 4.637-1.84 7.758a1.596 1.596 0 0 0 1.539 1.57l12.476.395.028.004c1.246.04 2.418-.074 3.738-.203l2.27-.32c.5-.075.992-.22 1.433-.461.656-.364.918-1.067.809-1.715-.176-1.04-.91-1.469-3.262-2.426-3.617-1.476-7.469-4.195-8.785-4.851a2.1 2.1 0 0 0-.871-.22"/>
  <path d="M208.23 300.777a.63.63 0 0 0-.503.368c-.555 1.25-1.848 4.484-1.793 7.543.007.582.468 1.05 1.046 1.07l12.473.394c1.266.04 2.45-.078 3.7-.203l2.25-.316a3.8 3.8 0 0 0 1.257-.399c.508-.28.613-.812.55-1.183-.124-.746-.62-1.09-2.948-2.04-2.528-1.027-5.2-2.679-6.969-3.769-.816-.504-1.461-.902-1.852-1.094a1.5 1.5 0 0 0-.46-.148l-.282.27a3.45 3.45 0 0 1-3.785.68Zm11.743 10.407q-.258 0-.528-.012l-12.5-.395a2.1 2.1 0 0 1-2.03-2.07c-.06-3.266 1.296-6.668 1.882-7.98a1.63 1.63 0 0 1 1.55-.973l.098.004 2.88 1.254c.905.398 1.952.21 2.667-.477l.606-.582.214.004a2.6 2.6 0 0 1 1.086.273c.43.215 1.09.625 1.93 1.145 1.848 1.137 4.371 2.695 6.817 3.688 2.363.964 3.347 1.492 3.574 2.816.152.922-.266 1.805-1.067 2.246a4.7 4.7 0 0 1-1.609.52l-2.27.32c-1.128.113-2.187.219-3.3.219"/>
  <path d="M216.098 306.676a.512.512 0 0 1-.41-.812l2.43-3.321a.511.511 0 0 1 .823.602l-2.43 3.324a.53.53 0 0 1-.413.207M218.543 308.242a.51.51 0 0 1-.418-.8l2.465-3.594a.51.51 0 0 1 .71-.133c.231.16.29.476.134.71l-2.47 3.595a.5.5 0 0 1-.421.222"/>
  <path fill="#fff" d="m178.566 292.684-3.234 8.136-5.832-1.68 3.484-8.808z"/>
  <path d="m170.184 298.805 4.843 1.398 2.88-7.242-4.637-1.953Zm5.449 2.636-6.817-1.964 3.887-9.817 6.524 2.746z"/>
  <path fill="#fff" d="m175.867 298.84-5.812-1.844c-.414-.129-.864 0-1.14.332-.915 1.094-2.892 3.692-3.634 6.52a1.51 1.51 0 0 0 1.004 1.812l8.262 2.617c1.816.575 3.687.953 5.586 1.125 0 0 6.105.641 6.176-1.304.101-2.797-4.012-3.352-4.567-3.918-2.113-2.164-4.328-4.184-5.14-4.918a2 2 0 0 0-.735-.422"/>
  <path d="M169.73 297.457c-.164 0-.32.07-.425.2-.82.98-2.809 3.562-3.528 6.32a.99.99 0 0 0 .664 1.195l8.258 2.617c1.781.566 3.621.938 5.477 1.106 1.683.175 4.644.187 5.46-.52.137-.121.157-.223.16-.297.063-1.695-1.905-2.445-3.206-2.937-.598-.227-.988-.375-1.211-.602a119 119 0 0 0-5.117-4.898 1.4 1.4 0 0 0-.547-.313l-5.817-1.844a.5.5 0 0 0-.168-.027m12.512 12.563c-1.066 0-1.957-.09-2.164-.11a27 27 0 0 1-5.683-1.144l-8.262-2.621a2.014 2.014 0 0 1-1.344-2.426c.774-2.961 2.867-5.684 3.734-6.719a1.57 1.57 0 0 1 1.684-.492l5.816 1.844c.344.109.653.289.922.53.848.763 3.051 2.778 5.164 4.942.09.078.508.235.84.363 1.48.56 3.957 1.5 3.867 3.93-.011.395-.191.75-.511 1.028-.817.71-2.606.875-4.063.875"/>
  <path d="M175.613 304.82a.513.513 0 0 1-.32-.91l3.422-2.75a.506.506 0 0 1 .715.082c.18.219.144.54-.078.715l-3.422 2.75a.5.5 0 0 1-.317.113M177.438 306.86a.513.513 0 0 1-.32-.91l3.421-2.75a.51.51 0 0 1 .719.081c.176.219.14.54-.078.715l-3.422 2.75a.52.52 0 0 1-.32.113M191.922 204.41s-4.07 8.153-5.442 16.742c-1.304 8.207-12.992 59.891-15.105 69.09-.14.61.145 1.23.695 1.524 1.387.734 4.098 2.011 6.457 2.218a1.63 1.63 0 0 0 1.555-.789c3.09-5.226 20.262-35.101 25.29-61.011 5.53-28.512 4.421-26.29 4.421-26.29z"/>
  <path d="M197.598 208.14s-2.375 15.497 2.117 26.962c4.316 11.023 8.383 46.484 6.773 58.968a1.44 1.44 0 0 0 1.227 1.614c1.965.277 5.504.652 7.926.199.445-.086.804-.41.914-.852 1.597-6.336 13.55-55.84 4.199-85.183z"/>
  <path fill="#fff" d="M202.219 247.465a.51.51 0 0 1-.508-.461c-.004-.043-.441-4.45-3.04-10.54-2.523-5.91-2.073-13.288-2.054-13.597.02-.285.266-.5.543-.476a.51.51 0 0 1 .477.543c-.008.07-.453 7.449 1.972 13.129 2.668 6.25 3.102 10.66 3.118 10.847a.51.51 0 0 1-.461.555zM252.66 143.906c-5.426 0-10.633-1.886-14.847-5.418-6.778-5.675-9.766-14.89-7.614-23.48a.504.504 0 0 1 .617-.367.51.51 0 0 1 .371.617c-2.054 8.207.801 17.023 7.282 22.449 4.543 3.809 10.289 5.613 16.195 5.09a22.05 22.05 0 0 0 15.047-7.867 22 22 0 0 0 4.566-9.09.51.51 0 1 1 .993.238 22.94 22.94 0 0 1-4.778 9.504c-3.976 4.758-9.566 7.684-15.738 8.23q-1.05.094-2.094.094M275.39 120.938a.51.51 0 0 1-.511-.504 22.1 22.1 0 0 0-1.98-8.942.514.514 0 0 1 .257-.676.51.51 0 0 1 .676.254 23.15 23.15 0 0 1 2.066 9.352.51.51 0 0 1-.503.516z"/>
  <path d="M252.207 162.504a1.55 1.55 0 0 0 1.668-1.45l.82-12.331-3.117-.235-.824 12.332a1.587 1.587 0 0 0 1.453 1.684"/>
  <path d="M231.895 133.723c-7.247-11.543-3.86-26.727 7.558-33.91 11.418-7.188 26.55-3.657 33.793 7.882 7.246 11.543 3.863 26.723-7.555 33.91-11.418 7.188-26.546 3.657-33.796-7.882m-3.137 1.976c8.347 13.293 25.773 17.36 38.926 9.078 13.152-8.273 17.046-25.761 8.703-39.058-8.348-13.293-25.774-17.36-38.926-9.078-13.152 8.277-17.047 25.761-8.703 39.058"/>
  <path fill="#fff" d="M173.316 211.055s-4.336 3.308-5.12 5.34c-.79 2.035.675 9.09.675 9.09s2.14.546 1.98-1.856c-.163-2.402.247-3.82.247-3.82s4.476-3.668 4.777-5.098c.305-1.43-2.559-3.656-2.559-3.656"/>
  <path d="M169.3 225.027c.235.008.532-.027.735-.199.242-.203.344-.598.309-1.164-.168-2.465.25-3.934.265-3.996a.5.5 0 0 1 .164-.254c1.801-1.476 4.418-3.941 4.602-4.809.148-.699-1.035-2.027-2.066-2.898-1.348 1.066-4.086 3.441-4.641 4.871-.566 1.465.207 6.297.633 8.45m.067 1.024c-.324 0-.57-.059-.62-.07a.52.52 0 0 1-.376-.395c-.152-.734-1.469-7.262-.652-9.375.828-2.145 5.105-5.426 5.285-5.563a.516.516 0 0 1 .625 0c.52.407 3.098 2.512 2.746 4.168-.309 1.457-3.82 4.45-4.82 5.282-.094.406-.32 1.652-.196 3.496.063.918-.164 1.597-.675 2.023-.418.348-.926.434-1.317.434"/>
  <path fill="#5479f7" d="m252.727 166.723-3.856-1.817c-6.8 13.281-23.215-8.558-29.898-9.695-1.54-.258-6.875-.887-16.434.152a31.2 31.2 0 0 0-11.492 3.614l-.215.113s-27.797 15.484-21.406 52.566a1.516 1.516 0 0 0 1.488 1.262h4.473c.773 0 1.422-.586 1.5-1.356.465-4.597 2.57-19.792 10.55-28.457.336-.367.899-.464 1.317-.187 1.098.738 2.406 3.926.078 16.582-.035.207-1.293 6.605-1.848 9.43a1.3 1.3 0 0 0 1.067 1.535c4.816.777 21.449 3.297 27.867 2.14 3.937-.707 6.059-1.585 7.191-2.265a2.3 2.3 0 0 0 1.102-2.235l-.766-6.714c-.543-4.782-4.468-25.54 1.618-26.723 0 0 25.62 23.836 27.664-7.945"/>
  <path fill="#fff" d="M251.375 156.305c.313-.852.875-2.02 1.676-2.442 2.89-1.523 4.515 4.016 2.672 6.203-1.903 2.254-2.95 5.012-3.395 6.782l-3.484-1.004s.57-.942.867-2.074c.488-1.836-.324-3.282-.324-3.282l1.672-1.437s-.13-1.531.316-2.746"/>
  <path d="m249.59 165.527 2.379.688c.414-1.442 1.39-4.137 3.363-6.48 1.05-1.247.773-3.79-.195-4.993-.524-.656-1.145-.797-1.848-.426-.504.266-1.023 1.051-1.434 2.164-.402 1.098-.289 2.516-.289 2.528a.52.52 0 0 1-.171.433l-1.383 1.184c.234.598.578 1.824.195 3.273a9.5 9.5 0 0 1-.617 1.63m2.738 1.832a.6.6 0 0 1-.144-.02l-3.48-1.003a.513.513 0 0 1-.298-.758c.004-.008.535-.894.813-1.941.422-1.598-.27-2.89-.278-2.903a.52.52 0 0 1 .114-.636l1.48-1.27c-.015-.52-.008-1.695.363-2.7.352-.968.973-2.222 1.915-2.718 1.144-.605 2.28-.351 3.117.692 1.238 1.543 1.59 4.625.183 6.293-2.164 2.566-3.066 5.683-3.293 6.578a.52.52 0 0 1-.238.32.54.54 0 0 1-.254.066"/>
  <path fill="#fff" d="m198.125 156.93-2.184.636c7.114 6.024 18.938-1.691 18.938-1.691l-1.184-.207c-.91-.16-2.738-.168-4.007-.145a1.8 1.8 0 0 1-1.758-1.304l-1.325-4.578c1.063-.27 2.536-.532 2.95-1.172.73-1.133.004-4.719.004-4.719s-.317-1.867-1.196-4.121c-.468-1.215-.289-1.047-1.886-3.61l-2.598.633a5.74 5.74 0 0 0-4.07 3.762l-.184.543c-.32.969-.437 2-.332 3.016l.867 8.422c.18 1.484-.414 4.148-2.035 4.535"/>
  <path d="M197.063 157.773c5.46 3.665 13.378-.003 16.351-1.632-.723-.098-2.027-.133-3.719-.11a2.336 2.336 0 0 1-2.257-1.676l-1.32-4.574a.5.5 0 0 1 .046-.394.52.52 0 0 1 .316-.242q.24-.062.497-.122c.761-.18 1.906-.457 2.148-.832.426-.66.215-2.933-.07-4.34-.004-.035-.32-1.867-1.164-4.038l-.184-.485c-.254-.683-.332-.89-1.469-2.726l-2.238.546a5.2 5.2 0 0 0-3.707 3.426l-.184.547a6.7 6.7 0 0 0-.308 2.8l.867 8.423c.215 1.777-.52 4.617-2.41 5.082Zm5.644 2.625c-2.48 0-4.973-.644-7.094-2.441a.51.51 0 0 1-.168-.496.52.52 0 0 1 .356-.387l2.183-.633q.012-.004.024-.007c1.242-.297 1.812-2.59 1.644-3.977l-.867-8.434a7.66 7.66 0 0 1 .36-3.226l.18-.543a6.21 6.21 0 0 1 4.433-4.098l2.597-.633a.5.5 0 0 1 .551.223c1.383 2.215 1.469 2.45 1.758 3.227.047.132.106.285.176.468.887 2.278 1.207 4.145 1.219 4.223.125.617.726 3.84-.079 5.082-.457.715-1.613.996-2.734 1.266l1.172 4.062a1.3 1.3 0 0 0 1.262.938c1.355-.02 3.164-.012 4.101.152l1.188.207a.51.51 0 0 1 .41.402.515.515 0 0 1-.223.532c-.351.226-6.37 4.093-12.449 4.093"/>
  <path d="M195.227 143.875c1.21 1.613 3.304 1.75 5.308 1.719 2.418-.035 2.762-1.723 2.965-2.535.14-.559-.398-.641-.64-2.133-.376-2.332 1.585-1.235 1.956-1.352 1.489-.465.942-2.23 2.325-3.183 1.71-1.176.691-5.77-1.387-6.43-1.703-.54-2.613 1.601-5.133 1.879-2.168.238-3.605.355-4.55.887-1.688.949-2.641 2.05-2.981 3.625-.242 1.12-.54 2.328.883 4.55.68 1.059.007 1.309 1.254 2.973M205.371 150.227c-1.012 0-2.293-.157-2.96-.856a.512.512 0 0 1 .737-.707c.586.617 2.45.61 3.485.457a.51.51 0 0 1 .578.434.51.51 0 0 1-.434.578c-.132.02-.703.094-1.406.094"/>
</svg>
