<svg xmlns="http://www.w3.org/2000/svg" width="500" height="500" viewBox="0 0 375 375">
  <path fill="#caddff" d="M161.219 20.91c-6.524 2.035-35.453 11.492-64.34 36.574-7 6.075-35.29 30.637-47.371 63.657-20.574 56.207 4.043 141.714 74.945 176.078 82.586 40.023 186.902-9.242 210.695-75.172 10.555-29.242 11.032-77.734-15.554-109.711-21.395-25.734-57.98-37.961-56.563-62.3.684-11.727 9.524-14.966 7.07-22.352-5.816-17.512-62.804-21.145-108.882-6.774"/>
  <path fill="#5479f7" d="m74.027 49.023 253.868-9.793c6.039 0 10.949 4.907 10.949 10.938v177.031c0 6.028-4.91 10.934-10.95 10.934l-91.73-6.203 11.777 42.933 12.461.098c3.887 0 7.047 3.16 7.047 7.039 0 3.883-3.16 7.04-7.047 7.04l-104.355-4.97c-3.887 0 3.383-45.937 3.383-45.937S67.988 49.023 74.027 49.023"/>
  <path fill="#99b9ff" d="M161.07 215.504h64.739l18.367 66.957H142.707z"/>
  <path d="M143.418 281.918h100.047l-18.07-65.875h-63.91Zm100.758 1.086H142.707a.542.542 0 0 1-.523-.684l18.363-66.96a.54.54 0 0 1 .523-.4h64.739a.54.54 0 0 1 .523.4l18.363 66.96a.53.53 0 0 1-.09.47.54.54 0 0 1-.43.214"/>
  <path fill="#fff" d="M64.195 39.848h258.493c5.703 0 10.328 4.62 10.328 10.32v177.031c0 5.696-4.625 10.317-10.329 10.317H64.195c-5.707 0-10.332-4.621-10.332-10.317V50.168c0-5.7 4.625-10.32 10.332-10.32"/>
  <path fill="#99b9ff" d="M131.688 275.582h123.507a6.425 6.425 0 0 1 6.426 6.422 6.424 6.424 0 0 1-6.426 6.418H131.688c-3.551 0-6.43-2.875-6.43-6.418a6.426 6.426 0 0 1 6.43-6.422"/>
  <path d="M131.688 276.121c-3.247 0-5.887 2.64-5.887 5.879a5.89 5.89 0 0 0 5.886 5.883h123.508a5.887 5.887 0 0 0 5.883-5.883 5.89 5.89 0 0 0-5.883-5.879Zm123.507 12.844H131.688c-3.844 0-6.97-3.125-6.97-6.965 0-3.836 3.126-6.96 6.97-6.96h123.507c3.844 0 6.97 3.124 6.97 6.96 0 3.84-3.126 6.965-6.97 6.965M62.738 237.957c-.027 0-.05-.004-.078-.008-5.324-.75-9.34-5.375-9.34-10.75V50.168c0-5.988 4.88-10.86 10.875-10.86h170.461a.541.541 0 1 1 0 1.083H64.196c-5.4 0-9.79 4.386-9.79 9.777v177.031c0 4.84 3.614 9 8.407 9.68a.542.542 0 0 1-.074 1.078M247.79 238.059H101.43a.544.544 0 0 1 0-1.086h146.36a.544.544 0 0 1 0 1.086M322.688 238.059h-13.106a.542.542 0 1 1 0-1.086h13.106c5.394 0 9.785-4.383 9.785-9.774V50.168c0-5.39-4.391-9.777-9.786-9.777H263.81a.542.542 0 1 1 0-1.082h58.878c5.993 0 10.872 4.87 10.872 10.859v177.031c0 5.985-4.88 10.86-10.872 10.86"/>
  <path fill="#caddff" d="M70.254 228.54h247.105c3.692 0 6.688-2.99 6.688-6.677V55.176c0-3.688-2.996-6.68-6.688-6.68H70.254a6.683 6.683 0 0 0-6.684 6.68v166.687a6.68 6.68 0 0 0 6.684 6.676"/>
  <path d="M249.953 228.883H99.984a.54.54 0 0 1 0-1.082h149.97a.542.542 0 1 1 0 1.082M319.063 228.883h-13.817a.541.541 0 1 1 0-1.082h13.817a4.6 4.6 0 0 0 4.593-4.59v-42.535a.54.54 0 0 1 1.082 0v42.535a5.68 5.68 0 0 1-5.675 5.672M324.398 150.402a.54.54 0 0 1-.543-.539l-.203-87.07c0-.3.243-.543.543-.543s.543.238.543.54l.203 87.073c0 .297-.242.54-.543.54M324.195 54.691a.54.54 0 0 1-.539-.539 4.6 4.6 0 0 0-4.594-4.59l-58.269-.23a.544.544 0 0 1-.54-.543c0-.3.243-.539.544-.539l58.265.23a5.68 5.68 0 0 1 5.676 5.672c0 .297-.242.54-.543.54M63.406 63.332a.54.54 0 0 1-.539-.543v-8.637a5.68 5.68 0 0 1 5.676-5.672l145.637-.59c.297 0 .539.239.543.54a.544.544 0 0 1-.543.543l-145.633.59a4.6 4.6 0 0 0-4.598 4.59v8.636c0 .3-.242.543-.543.543M170.898 26.797a.54.54 0 0 1-.5-.332.54.54 0 0 1 .29-.707c.316-.133 31.738-13.016 62.55-6.977a.542.542 0 0 1-.21 1.063c-30.489-5.977-61.61 6.781-61.923 6.914a.5.5 0 0 1-.207.039"/>
  <path d="M190.918 26.219a.542.542 0 0 1-.129-1.066c10.473-2.536 20.54-3.532 29.926-2.954.3.016.527.274.508.574a.53.53 0 0 1-.57.504c-9.278-.566-19.243.418-29.606 2.926a.5.5 0 0 1-.129.016M237.969 20.504c-.14.39-.11.8.082 1.152.207.383.574.66 1.039.778.969.238 2.008-.29 2.316-1.176.137-.39.11-.801-.082-1.153-.21-.382-.578-.66-1.043-.777-.965-.238-2.004.285-2.312 1.176m1.586 3.066q-.364.001-.727-.086c-.766-.191-1.379-.656-1.73-1.312a2.48 2.48 0 0 1-.153-2.027c.489-1.399 2.102-2.239 3.598-1.868.766.192 1.379.657 1.734 1.313.336.62.391 1.344.153 2.027-.41 1.176-1.614 1.953-2.875 1.953M186.32 308.262c-10.507 0-22.718-1.39-34.48-5.961a.547.547 0 0 1-.309-.703.547.547 0 0 1 .703-.309c29.586 11.496 62.086 2.645 62.41 2.555a.542.542 0 0 1 .293 1.043c-.199.054-12.378 3.375-28.617 3.375"/>
  <path d="M184.484 302.79c-6.925 0-13.543-.728-19.77-2.18a.54.54 0 0 1-.405-.65.544.544 0 0 1 .652-.401c9.156 2.132 19.18 2.683 29.789 1.632.3-.027.563.188.59.485a.54.54 0 0 1-.485.594c-3.523.347-6.984.52-10.37.52M118.992 98.152a.546.546 0 0 1-.543-.523l-.066-1.793a.542.542 0 0 1 1.082-.043l.07 1.797c.008.3-.222.55-.523.562zM119.207 103.832a.546.546 0 0 1-.543-.523l-.066-1.797a.544.544 0 0 1 .52-.563.547.547 0 0 1 .562.524l.07 1.797a.545.545 0 0 1-.523.562zM115.324 100.234a.545.545 0 0 1-.543-.52.546.546 0 0 1 .524-.566l1.797-.066a.55.55 0 0 1 .562.52c.012.3-.223.55-.52.562l-1.8.07zM121.008 100.02a.545.545 0 0 1-.543-.52.545.545 0 0 1 .523-.562l1.797-.067a.542.542 0 0 1 .043 1.082l-1.8.067zM107.207 275.496h.004Zm2-.562a1.82 1.82 0 0 0-1.777 2.218c.11.477.394.88.804 1.137a1.825 1.825 0 0 0 2.512-.566 1.819 1.819 0 0 0-1.539-2.79m-.008 4.722a2.87 2.87 0 0 1-1.543-.449 2.89 2.89 0 0 1-.906-4 2.903 2.903 0 0 1 4.004-.906 2.894 2.894 0 0 1 .906 4 2.89 2.89 0 0 1-1.812 1.281q-.325.075-.649.074"/>
  <path fill="#5479f7" d="m146.563 18.813-1.395-3.907-21.969 7.832 1.399 3.91z"/>
  <path fill="#5479f7" d="M120.277 28.02a1.808 1.808 0 1 1-1.219-3.406 1.81 1.81 0 0 1 2.317 1.093 1.81 1.81 0 0 1-1.098 2.313m5.325 3.976a7.447 7.447 0 0 0 4.515-9.52c-1.387-3.874-5.652-5.89-9.531-4.507a7.445 7.445 0 0 0-4.512 9.52c1.383 3.87 5.649 5.89 9.528 4.507M146.438 18.46l-1.868-5.218-4.605 1.64 1.867 5.223zM240.48 49.566l3.09 2.059 11.555-17.312-3.086-2.06z"/>
  <path fill="#5479f7" d="M254.402 28.973a1.617 1.617 0 0 1 2.691 1.793 1.616 1.616 0 0 1-2.69-1.793m-5.933-.012a6.644 6.644 0 0 0 1.844 9.223 6.664 6.664 0 0 0 9.234-1.844 6.643 6.643 0 0 0-1.848-9.223 6.656 6.656 0 0 0-9.23 1.844M240.762 49.75l4.12 2.746 2.427-3.629-4.125-2.746zM172.188 126.617l2.933-2.219-12.48-16.46-2.934 2.222z"/>
  <path fill="#5479f7" d="M157.398 106.879a1.605 1.605 0 0 1 2.559-1.938 1.605 1.605 0 0 1-2.559 1.938m-1.949 5.55c2.207 2.907 6.352 3.481 9.258 1.278a6.59 6.59 0 0 0 1.277-9.246 6.61 6.61 0 0 0-9.254-1.277c-2.91 2.203-3.484 6.343-1.28 9.246M172.453 126.418l3.922-2.965-2.617-3.453-3.922 2.969z"/>
  <path fill="#99b9ff" d="M296.402 89.703H84.523c-6.824 0-12.41-5.578-12.41-12.394V76.5c0-6.82 5.586-12.398 12.41-12.398h211.88c6.824 0 12.41 5.578 12.41 12.398v.809c0 6.816-5.586 12.394-12.41 12.394"/>
  <path d="M85.375 71.137c-2.758 0-5.008 2.242-5.008 5a5.015 5.015 0 0 0 5.008 5.004 5.01 5.01 0 0 0 5.008-5.004c0-2.758-2.246-5-5.008-5m0 11.086c-3.36 0-6.09-2.73-6.09-6.086a6.094 6.094 0 0 1 6.09-6.086c3.36 0 6.094 2.73 6.094 6.086 0 3.355-2.735 6.086-6.094 6.086"/>
  <path d="M93.84 85.684a.53.53 0 0 1-.383-.157l-4.414-4.41a.542.542 0 0 1 .766-.765l4.414 4.41c.21.21.21.55 0 .765a.54.54 0 0 1-.383.157M180.512 80.086h-29.27a2.56 2.56 0 0 1-2.55-2.55v-.169a2.56 2.56 0 0 1 2.55-2.55h29.27a2.557 2.557 0 0 1 2.554 2.55v.168a2.557 2.557 0 0 1-2.554 2.55M136.527 80.086h-29.273a2.56 2.56 0 0 1-2.55-2.55v-.169a2.56 2.56 0 0 1 2.55-2.55h29.273a2.56 2.56 0 0 1 2.555 2.55v.168a2.56 2.56 0 0 1-2.555 2.55"/>
  <path fill="#5479f7" d="M236.543 80.086h-30.39a2.56 2.56 0 0 1-2.555-2.55v-.169a2.56 2.56 0 0 1 2.554-2.55h30.391a2.56 2.56 0 0 1 2.555 2.55v.168a2.56 2.56 0 0 1-2.555 2.55"/>
  <path d="M292.45 80.082h-27.782a2.56 2.56 0 0 1-2.555-2.55v-.165a2.557 2.557 0 0 1 2.555-2.55h27.781a2.557 2.557 0 0 1 2.551 2.55v.164a2.56 2.56 0 0 1-2.55 2.551"/>
  <path fill="#5479f7" d="M265.656 289.637s.617 7.347-1.918 10.297l-.789 1.265 12.008-.738-.594-1.309c-1.05-2.328-1.504-4.82-1.324-7.277z"/>
  <path fill="#fff" d="m263.742 295.887-1.27 1.324a22.4 22.4 0 0 1-9.066 5.758l-2.644.886a.8.8 0 0 0-.516.543l-.039.133c-.402 1.446 1.16 4.828 6.445 6.149 3.27.816 10.957 1.53 20.38-1.696.593-.207.988-.77.964-1.398-.07-2.293-.453-7.758-2.426-10.531a.635.635 0 0 0-.937-.118l-2.738 2.403a2.956 2.956 0 0 1-4.172-.281l-2.739-3.145a.844.844 0 0 0-1.242-.027"/>
  <path d="m264.137 296.262-1.27 1.324a23.1 23.1 0 0 1-9.285 5.894l-2.644.887a.27.27 0 0 0-.172.176l-.036.133c-.101.36-.035 1.043.45 1.875.558.96 2.03 2.71 5.605 3.601 1.465.368 9.313 2.004 20.067-1.683a.88.88 0 0 0 .605-.867c-.07-2.192-.437-7.575-2.328-10.23a.13.13 0 0 0-.074-.048c-.04-.004-.059.016-.067.02l-2.734 2.402a3.48 3.48 0 0 1-2.54.86 3.46 3.46 0 0 1-2.398-1.192l-2.742-3.144a.3.3 0 0 0-.219-.102.28.28 0 0 0-.218.094m-.864 15.648c-3.593 0-5.996-.515-6.753-.707-3.957-.988-5.633-3-6.278-4.11-.566-.968-.765-1.956-.554-2.71l.035-.13c.12-.429.445-.769.867-.91l2.644-.89a22 22 0 0 0 8.848-5.613l1.27-1.328c.265-.278.644-.43 1.03-.426.388.008.755.18 1.009.473l2.742 3.144a2.39 2.39 0 0 0 1.656.82 2.4 2.4 0 0 0 1.75-.59l2.734-2.402c.25-.219.579-.32.907-.281.332.04.632.219.832.492 2.062 2.895 2.457 8.535 2.527 10.824a1.97 1.97 0 0 1-1.332 1.93c-5.531 1.895-10.328 2.414-13.934 2.414"/>
  <path d="M265.484 307.262c-.457 0-.918-.012-1.375-.035a1.339 1.339 0 0 1-1.187-1.824l.398-1.02c.032-.074-.004-.125-.035-.156a.13.13 0 0 0-.152-.036l-1.04.414a12.74 12.74 0 0 1-9.98-.27l-.57-.26a.54.54 0 0 1-.266-.72.543.543 0 0 1 .72-.265l.565.262a11.67 11.67 0 0 0 9.13.25l1.038-.414a1.21 1.21 0 0 1 1.32.269c.352.352.462.856.278 1.316l-.394 1.024a.26.26 0 0 0 .02.234c.03.04.093.11.206.117a27.4 27.4 0 0 0 11.176-1.8l2.078-.797a.54.54 0 0 1 .695.312.535.535 0 0 1-.308.7l-2.074.796a28.5 28.5 0 0 1-10.243 1.903"/>
  <path fill="#5479f7" d="M319.035 278.355s4.711 5.848 4.512 9.801l.137 1.52 9.168-8.871-1.332-.493c-2.137-1.363-4.368-2.14-5.653-4.32z"/>
  <path fill="#fff" d="m321.863 286.242.207 1.852a22.8 22.8 0 0 1-1.445 10.816l-1.035 2.64a.82.82 0 0 0 .086.759l.078.113c.863 1.262 4.52 2.258 9.008-.992 2.773-2.012 8.363-7.524 12-16.965a1.46 1.46 0 0 0-.453-1.668c-1.836-1.438-6.352-4.719-9.801-4.992a.644.644 0 0 0-.707.652l.086 3.695a3.004 3.004 0 0 1-2.946 3.067l-4.246.074a.857.857 0 0 0-.832.95"/>
  <path d="M330.453 278.344c-.043 0-.066.02-.082.031-.027.027-.027.059-.027.07l.082 3.7a3.5 3.5 0 0 1-.985 2.527 3.54 3.54 0 0 1-2.492 1.09l-4.246.074a.3.3 0 0 0-.226.105.32.32 0 0 0-.079.239v.004l.207 1.851a23.35 23.35 0 0 1-1.476 11.074l-1.035 2.641a.27.27 0 0 0 .027.254l.078.113c.215.317.79.715 1.762.88 1.117.194 3.445.19 6.48-2.005 1.243-.902 7.657-5.937 11.813-16.722a.905.905 0 0 0-.285-1.047c-1.754-1.38-6.192-4.614-9.504-4.88zm-7.55 25.812c-.446 0-.825-.039-1.13-.094-1.12-.19-2.02-.68-2.468-1.335l-.078-.114a1.36 1.36 0 0 1-.145-1.261l1.04-2.641a22.3 22.3 0 0 0 1.405-10.559l-.207-1.851a1.4 1.4 0 0 1 1.368-1.547l4.242-.078a2.46 2.46 0 0 0 1.73-.754 2.44 2.44 0 0 0 .68-1.754l-.078-3.7a1.17 1.17 0 0 1 .367-.882 1.2 1.2 0 0 1 .922-.32c3.605.289 8.258 3.668 10.09 5.105.691.547.945 1.465.625 2.29-4.266 11.07-10.899 16.276-12.188 17.206-2.566 1.86-4.726 2.29-6.176 2.29"/>
  <path d="M320.031 301.133a.543.543 0 0 1-.23-1.031l.578-.274a11.85 11.85 0 0 0 6.164-6.945l.36-1.078c.156-.477.562-.801 1.066-.844.496-.043.957.2 1.199.64l.539.977a.27.27 0 0 0 .2.14.28.28 0 0 0 .234-.085 27.8 27.8 0 0 0 5.91-9.88l.734-2.132a.54.54 0 1 1 1.023.352l-.734 2.136a28.9 28.9 0 0 1-6.137 10.258 1.37 1.37 0 0 1-1.16.426 1.36 1.36 0 0 1-1.023-.695l-.535-.977a.15.15 0 0 0-.153-.082.15.15 0 0 0-.136.106l-.356 1.078a12.93 12.93 0 0 1-6.734 7.582l-.574.273a.5.5 0 0 1-.235.055M290.84 185.902s5.773 9.965 4.933 26.453c-.953 18.649 23.215 37.547 31.211 62.762a10.86 10.86 0 0 1-6.52 7.574l-.093.036s-24.68-11.563-33.672-27.864c-5.18-9.394-11.613-28.539-11.613-28.539l5.476-35.172.836-.183c2.176-.469 4.23-1.239 6.239-2.164a7.27 7.27 0 0 0 3.203-2.903"/>
  <path d="M288.059 188.824s2.093 14.957-5.743 26.977-7.402 24.554-6.148 30.847c1.254 6.29 4.324 25.141-.918 45.22 0 0-4.871 1.987-10.52-.216 0 0-13.984-33.687-14.257-54.226-.274-20.535 8.918-48.188 8.918-48.188s17.168 5.512 28.668-.414"/>
  <path fill="#fff" d="M221.023 108.027c-5.609 0-11-1.906-15.414-5.488a24.7 24.7 0 0 1-4.543-4.836.543.543 0 0 1 .887-.629 23.3 23.3 0 0 0 4.34 4.625 23.3 23.3 0 0 0 17.184 5.117 23.27 23.27 0 0 0 15.773-8.52 23.36 23.36 0 0 0 4.855-19.019.542.542 0 1 1 1.066-.195 24.42 24.42 0 0 1-5.081 19.898c-4.13 5.075-9.988 8.239-16.5 8.915-.86.085-1.715.132-2.567.132M197.488 88.383a.54.54 0 0 1-.531-.445 24.35 24.35 0 0 1 .266-10.094.54.54 0 0 1 .652-.399c.293.067.473.36.402.649a23.3 23.3 0 0 0-.254 9.648.55.55 0 0 1-.535.64"/>
  <path d="M231.3 136.125a1.835 1.835 0 0 1-2.257-1.305l-4.316-18.941 3.57-.977 4.316 18.942a1.87 1.87 0 0 1-1.312 2.281"/>
  <path d="M210.344 110.102c-14.89-5.762-22.239-22.606-16.414-37.618 5.824-15.011 22.613-22.511 37.504-16.75 14.886 5.762 22.234 22.602 16.41 37.618-5.824 15.011-22.614 22.511-37.5 16.75m22.687-58.497c-17.148-6.636-36.488 2.004-43.195 19.293-6.707 17.293 1.758 36.692 18.906 43.329 17.149 6.636 36.488-2 43.196-19.293 6.707-17.29-1.758-36.688-18.907-43.329"/>
  <path fill="#fff" d="M230.715 141.832c-.43.125-1.676-1.707-1.973-2.031-1.172-1.285-3.965-2.88-4.406-5.45-.566-3.34 1.066-6.792 1.898-6.636.836.156 1.551 6.469 4.832 6.879 0 0 .743-.047.836-3.137.012-.434.496-.707.868-.488.511.304 1.152.93 1.632 2.219.618 1.64.38 3.48.203 4.582-.113.73.032 2.94-.542 3.105z"/>
  <path d="M226.098 128.34c-.582.562-1.688 3.219-1.227 5.918.29 1.699 1.805 2.992 3.024 4.031.468.402.914.781 1.246 1.145.086.093.203.246.363.457.254.332.894 1.164 1.2 1.382l3.112-.89c.137-.297.172-1.258.192-1.735.015-.39.027-.722.062-.964.13-.809.43-2.704-.172-4.309-.441-1.176-1.011-1.703-1.406-1.941-.039.015-.047.027-.05.039-.087 2.964-.778 3.625-1.344 3.66l-.051.004-.05-.008c-2.517-.313-3.638-3.422-4.38-5.477-.168-.468-.37-1.03-.52-1.312m4.562 14.042c-.52 0-1.058-.585-2.015-1.831-.137-.176-.243-.317-.305-.387-.29-.316-.707-.676-1.149-1.05-1.351-1.153-3.03-2.587-3.386-4.673-.504-2.953.597-5.941 1.55-6.875.399-.394.754-.425.98-.382.583.105.84.816 1.302 2.101.629 1.738 1.562 4.328 3.285 4.735.121-.208.387-.84.437-2.579.012-.402.23-.757.586-.953a1.1 1.1 0 0 1 1.098.016c.797.473 1.426 1.309 1.867 2.492.625 1.66.45 3.465.23 4.856-.027.175-.038.496-.05.835-.047 1.278-.09 2.481-.88 2.711l-3.347.954a.7.7 0 0 1-.203.03"/>
  <path fill="#5479f7" d="m228.617 141.047 6.754-2.063c2.34 4.786 4.91 8.93 7.879 11.602a27 27 0 0 0 5.688 3.918c.91.469 2.03.098 2.457-.832 1.18-2.567 3.125-6.602 6.437-11.305 2.488-3.535 6.45-6.328 9.684-7.71 5.027-2.15 10.777-3 16.136-1.618 10.336 2.664 17.149 9.152 17.149 9.152 5.433 4.852 15.058 21.258 10.883 28.664-5.118 9.086-17.196 2.93-17.196 2.93s-.496 4.3 1.754 10.406c2.735 7.418-.453 9.121-.453 9.121-13.5 12.735-41.035-1.539-38.324-7.167 2.902-6.032 3.383-13.852 3.383-13.852-3.73 3.293-8.52 2.477-8.52 2.477s-2.777-.368-4.66-1.266c-16.418-6.477-19.05-32.457-19.05-32.457"/>
  <path d="M294.598 169.5a.5.5 0 0 1-.203-.043.535.535 0 0 1-.297-.703c3.972-9.7 2.843-17.762 2.832-17.844a.543.543 0 0 1 1.074-.156c.05.34 1.191 8.418-2.902 18.41a.54.54 0 0 1-.504.336M261.055 172.902a.543.543 0 0 1-.36-.953c5.614-4.89 10.192-17.277 10.239-17.402a.54.54 0 0 1 .691-.32c.285.101.426.41.324.691-.191.523-4.719 12.773-10.539 17.848a.53.53 0 0 1-.355.136"/>
  <path fill="#fff" d="M278.988 109.375a5.98 5.98 0 0 0-5.289 2.691c-.539.817-1.031 1.582-1.133 1.797-.234.496-.78 2.176-2.535 3.723a.46.46 0 0 0-.078.598l.988 1.418c.07.101.094.222.067.335-.168.72-.95 3.317-.785 3.801.34 1.028 2.73 1.434 3.441 1.535.133.016.25.102.309.22.207.433.75 1.66 1.082 4.667.511 4.586-3.864 5.05-3.004 5.547 5.984 3.45 17.367 3.375 16.781 2.047-.48-1.09-6.55-4.191-6.71-11.695-.102-4.68 6.452-4.696 2.241-13.832-.98-2.122-3.32-2.747-5.375-2.852"/>
  <path d="M288.336 137.973h.004Zm-15.484-2.446c5.25 2.707 13.683 2.793 15.312 2.235-.191-.196-.5-.465-.781-.715-1.844-1.613-5.676-4.973-5.805-10.977-.039-1.902.906-3.11 1.82-4.277 1.477-1.89 3.004-3.84.473-9.336-.719-1.555-2.371-2.41-4.91-2.543a5.46 5.46 0 0 0-4.809 2.45c-.882 1.34-1.058 1.656-1.093 1.73q-.043.091-.102.23c-.305.719-.934 2.203-2.512 3.621l.942 1.348a.96.96 0 0 1 .148.77c-.039.167-.11.433-.195.75-.195.726-.649 2.425-.598 2.785.145.422 1.406.914 2.996 1.14a.95.95 0 0 1 .723.52c.516 1.066.898 2.695 1.137 4.844.375 3.382-1.743 4.8-2.746 5.425m12.14 3.633c-3.906 0-9.601-.902-13.215-2.984-.324-.188-.379-.453-.379-.594-.007-.426.344-.644.79-.922.988-.61 2.64-1.633 2.328-4.437-.149-1.368-.446-3.23-1-4.426-1.286-.184-3.407-.672-3.813-1.89-.148-.45.063-1.407.59-3.372.074-.273.133-.508.172-.668l-.957-1.375a.994.994 0 0 1 .168-1.312c1.43-1.266 2.008-2.625 2.285-3.278q.065-.163.113-.27c.043-.085.153-.316 1.172-1.862a6.52 6.52 0 0 1 5.77-2.934c2.933.148 4.953 1.242 5.84 3.168 2.808 6.094.996 8.41-.602 10.457-.875 1.11-1.625 2.07-1.59 3.586.117 5.527 3.574 8.558 5.434 10.187.668.586 1.07.938 1.23 1.301.14.32.055.672-.219.918-.511.457-2.066.707-4.117.707"/>
  <path d="m274.992 116.36-2.289-3.22a3.307 3.307 0 0 1 1.2-4.874c.5-.258 1.09-.52 1.742-.758 6.48-2.371 13.476 2.531 13.101 9.41-.156 2.816-2.223 5.977-6.394 8.656 0 0-2.692-2.375-2.524-4.773 0 0 2.18-2.309-.629-3.692a2.06 2.06 0 0 0-1.722-.046 2.06 2.06 0 0 1-2.485-.704"/>
  <path d="M278.574 122.39a3.13 3.13 0 0 1-1.562-.417.546.546 0 0 1-.188-.746.55.55 0 0 1 .742-.188c.176.106 1.739.934 2.926-1.031a.54.54 0 0 1 .746-.184.54.54 0 0 1 .184.742c-.844 1.399-1.922 1.825-2.848 1.825M285.813 110.2s2.55-7.263 10.269-5.438c4.816 1.136 8.887 4.644 10.922 10.105 3.941 10.574-.7 20.16 6.164 29.531 1.55 2.114.023 5.114-2.602 5.059-4.957-.105-11.566-1.676-15.847-8.297-3.504-5.426.222-29.265-8.156-29.37z"/>
  <path fill="#fff" d="M223.875 222.352H81.633c-1.63 0-2.945-1.387-2.938-3.094l.344-81.375c.008-1.707 1.336-3.094 2.965-3.094h142.242c1.629 0 2.945 1.387 2.938 3.094l-.34 81.375c-.012 1.707-1.34 3.094-2.969 3.094"/>
  <path fill="#caddff" d="M115.21 217.941H101.88l.121-11.035h13.332zM98.422 217.941H85.09l.09-20.164h13.332zM132.055 217.941h-13.328l.183-22.574h13.328zM149.645 217.941h-13.333l.149-33.593h13.332zM167.234 217.941h-13.332l.207-19.082h13.332zM184.824 217.39h-13.332l.153-25.218h13.332zM202.781 217.39h-13.328l.207-41.445h13.332zM220 217.39h-13.332l.262-52.538h13.328z"/>
  <path fill="#99b9ff" d="m212.473 137.86-29.739 7.988c-1.539.41-2.101 2.3-1.039 3.488l3.114 3.473c.789.879.714 2.226-.164 3.015l-16.961 15.219a2.14 2.14 0 0 1-3.024-.16l-18.129-20.164a2.143 2.143 0 0 0-3.023-.16l-45.41 40.613c-.88.789-.95 2.14-.16 3.02l6.624 7.37c.793.875 2.145.95 3.024.16l34.852-31.132a2.14 2.14 0 0 1 3.023.16l18.125 20.156c.789.88 2.14.953 3.023.164l27.5-24.675a2.143 2.143 0 0 1 3.024.164l3.355 3.746c1.075 1.195 3.032.828 3.598-.672l10.941-28.953c.618-1.63-.87-3.27-2.554-2.82"/>
  <path fill="#fff" d="m55.914 287.586.887 8.46 5.73.673v-10.031z"/>
  <path d="m57.297 295.563 4.691.546v-8.804l-5.48.746Zm5.234 1.699q-.033-.002-.066-.004l-5.727-.672a.55.55 0 0 1-.476-.48l-.887-8.465a.545.545 0 0 1 .465-.594l6.617-.899a.539.539 0 0 1 .613.54v10.03a.56.56 0 0 1-.18.407.56.56 0 0 1-.359.137"/>
  <path fill="#5479f7" d="M63.434 311.45a40.2 40.2 0 0 1-10.899-.005 2.557 2.557 0 0 1-2.14-3.14c1.011-4.11 2.753-11.903 5.746-15.516l.746 1.961 1.023-1.844a.92.92 0 0 1 .684-.46l2.246-.286a.91.91 0 0 1 1.004.715l.36 1.7.784-2.231 2.614 16.242a2.55 2.55 0 0 1-2.168 2.863"/>
  <path d="M55.984 293.906c-2.379 3.496-3.906 9.774-4.847 13.637l-.215.89a1.97 1.97 0 0 0 .289 1.606c.32.477.832.793 1.398.871a39.4 39.4 0 0 0 10.746.004 2.017 2.017 0 0 0 1.711-2.258l-2.277-14.12-.074.218a.544.544 0 0 1-1.043-.067l-.36-1.699a.36.36 0 0 0-.402-.289l-2.25.285a.35.35 0 0 0-.273.184l-1.028 1.844a.55.55 0 0 1-.511.277.55.55 0 0 1-.47-.348Zm2.032 18.457a40.5 40.5 0 0 1-5.555-.383 3.102 3.102 0 0 1-2.594-3.809l.219-.882c1.035-4.258 2.77-11.383 5.637-14.844a.546.546 0 0 1 .925.153l.329.87.46-.827a1.48 1.48 0 0 1 1.086-.735l2.25-.281a1.46 1.46 0 0 1 1.551.96l.153-.42a.54.54 0 0 1 .558-.36.54.54 0 0 1 .488.453l2.614 16.242c.222 1.695-.957 3.25-2.63 3.488-1.413.196-3.288.375-5.491.375"/>
  <path d="M56.797 309.64c-1.543 0-3.211-.136-4.875-.515a.54.54 0 1 1 .242-1.055c5.555 1.262 11.383-.363 11.441-.379a.54.54 0 1 1 .297 1.04c-.18.05-3.242.91-7.105.91M55.43 303.348a.543.543 0 0 1-.02-1.086l5.371-.176a.546.546 0 0 1 .559.523c.012.301-.223.551-.524.559l-5.37.18z"/>
  <path fill="#fff" d="m82.742 283.078.86 12.352h6.89l.32-12.352z"/>
  <path d="M84.105 294.887h5.86l.293-11.266h-6.934Zm6.387 1.082h-6.89a.54.54 0 0 1-.543-.504l-.856-12.348a.53.53 0 0 1 .145-.406.54.54 0 0 1 .394-.172h8.07a.54.54 0 0 1 .543.555l-.32 12.347a.54.54 0 0 1-.543.528"/>
  <path fill="#5479f7" d="M81.8 302.398a2.49 2.49 0 0 0 1.919 2.461c3.965.922 12.89 2.973 15.437 3.352 3.305.488 7.367-.52 9.114-2.453 1.742-1.93-3.91-6.54-6.598-8.219-3.984-2.492-7.817-7.414-9.422-7.637-1.61-.222-4.605 4.434-4.605 4.434l-4.903-2.055s-.855 4.196-.941 10.117"/>
  <path d="M81.8 302.398h.005Zm1.356-9.359c-.234 1.395-.746 4.902-.812 9.371a1.954 1.954 0 0 0 1.5 1.922c3.781.879 12.851 2.965 15.39 3.344 3.196.472 7.067-.551 8.633-2.278.098-.113.227-.304.176-.683-.258-1.828-4.031-5.074-6.656-6.715-2.035-1.273-3.973-3.105-5.68-4.727-1.426-1.347-2.898-2.746-3.531-2.836-.754-.093-2.719 2.086-4.074 4.192a.545.545 0 0 1-.668.207Zm17.719 15.836q-.915 0-1.8-.129c-2.579-.387-11.684-2.476-15.477-3.36a3.05 3.05 0 0 1-2.34-2.995c.09-5.907.945-10.176.953-10.22a.53.53 0 0 1 .277-.37.55.55 0 0 1 .465-.02l4.484 1.88c.965-1.434 3.247-4.52 4.887-4.294.93.13 2.117 1.215 4.13 3.121 1.671 1.586 3.566 3.38 5.507 4.594 1.738 1.086 6.777 4.79 7.156 7.484.082.602-.07 1.141-.445 1.555-1.516 1.672-4.707 2.754-7.797 2.754"/>
  <path d="M100.816 306.602c-7.23 0-16.875-3.891-17.421-4.114a.542.542 0 1 1 .41-1.004c.175.07 17.504 7.067 22.539 2.524a.543.543 0 0 1 .726.805c-1.445 1.304-3.699 1.789-6.254 1.789M93.176 299.129a.53.53 0 0 1-.403-.18.54.54 0 0 1 .04-.762l3.507-3.16a.54.54 0 0 1 .766.04c.2.222.18.562-.04.765l-3.507 3.156a.54.54 0 0 1-.363.14M53.957 202.578s-2.133 38.602-3.254 51.93c-1.117 13.324 2.617 34.746 2.617 34.746l10.637-.559s.73-26.043 1.52-33.277c0 0 4.496-9.805 5.828-18.55 1.328-8.747 5.867-22.56 5.867-22.56s3.683 68.946 4.039 74.36c0 0 8.344.371 11.336-1.508 0 0 5.297-25.137 4.539-38.816-.762-13.676.074-47.656.074-47.656z"/>
  <path fill="#fff" d="M63.52 255.957h-3.254a.544.544 0 0 1-.543-.539c0-.3.246-.543.543-.543h3.254a.541.541 0 0 1 0 1.082M86.684 276.008h-.012a.546.546 0 0 1-.531-.551c.117-6.43 7.152-17.906 7.449-18.39a.542.542 0 1 1 .926.566c-.075.117-7.176 11.707-7.29 17.844a.544.544 0 0 1-.542.53M100.527 140.836c.774-.059 4.575 7.719 16.473 7.39 11.898-.324 21.441-13.62 21.441-13.62s4.11-6.922 7.227-9.426c3.117-2.5 3.61-2.832 3.61-2.832s.976 1.3 0 2.832c-.981 1.53-3.68 4.398-3.68 4.398s2.976 1.629 1.632 5.027c-1.542 3.907-5.886 3.59-5.886 3.59s-8.82 39.012-45.278 20.473z"/>
  <path d="M96.7 158.379c10.562 5.285 19.765 6.16 27.359 2.601 12.789-5.992 16.718-22.734 16.754-22.902a.546.546 0 0 1 .57-.422c.16.012 3.972.227 5.344-3.25 1.152-2.922-1.286-4.297-1.387-4.355a.54.54 0 0 1-.278-.39.56.56 0 0 1 .141-.458c.027-.027 2.676-2.844 3.617-4.312.434-.684.383-1.309.258-1.715-.48.367-1.39 1.078-3.07 2.426-3.008 2.414-7.059 9.207-7.102 9.277l-.023.039c-.399.55-9.84 13.52-21.867 13.852-9.68.261-14.098-4.649-15.98-6.747a10 10 0 0 0-.196-.214Zm17.445 5.828c-5.57 0-11.696-1.687-18.325-5.055a.546.546 0 0 1-.277-.617L100 140.707a.545.545 0 0 1 .484-.41c.43-.031.72.293 1.36 1.008 1.781 1.984 5.957 6.632 15.14 6.382 11.301-.312 20.602-12.835 21.004-13.382.301-.508 4.239-7.059 7.34-9.547 3.102-2.485 3.625-2.844 3.645-2.856a.537.537 0 0 1 .734.121 3.06 3.06 0 0 1 .027 3.45c-.765 1.195-2.5 3.129-3.308 4.011 1.11.891 2.328 2.739 1.308 5.317-1.355 3.441-4.734 3.89-5.968 3.933-.715 2.7-5.137 17.547-17.243 23.223-3.199 1.5-6.664 2.25-10.378 2.25"/>
  <path fill="#5479f7" d="M41.563 158.668s3.57-23.016 16.183-28.68 29.676-4.879 34.383-2.05c4.703 2.832 16.969 15.617 16.969 15.617l-10.836 15.113s2.476 40.684.515 51.426c0 0-12.054 1.402-17.168-.61s-21.925-4.828-29.964-1.14l1.46-51.508z"/>
  <path d="M62.566 206.008c7.66 0 15.926 1.668 19.243 2.972 4.41 1.739 14.379.836 16.507.618 1.797-11.13-.57-50.496-.597-50.899a.54.54 0 0 1 .101-.347l10.575-14.747c-1.938-2.003-12.372-12.69-16.547-15.203-4.395-2.64-21.32-3.558-33.88 2.078-10.945 4.915-14.995 23.579-15.741 27.532L53.02 156.3a.55.55 0 0 1 .44.129.53.53 0 0 1 .188.422l-1.437 50.668c2.836-1.094 6.52-1.512 10.355-1.512m27.715 5.11c-3.226 0-6.652-.255-8.87-1.13-5.27-2.074-21.9-4.656-29.54-1.152a.53.53 0 0 1-.523-.043.54.54 0 0 1-.246-.465l1.445-50.855-10.899 1.73a.53.53 0 0 1-.468-.152.54.54 0 0 1-.153-.465c.145-.953 3.762-23.375 16.496-29.094 12.489-5.61 29.774-5.09 34.883-2.015 4.715 2.832 16.582 15.18 17.086 15.703.18.187.2.476.047.691l-10.727 14.957c.204 3.399 2.399 40.945.5 51.363a.54.54 0 0 1-.468.438c-.285.035-4.25.488-8.563.488"/>
  <path d="M62.723 198.27a.542.542 0 0 1-.094-1.074c19.074-3.368 24.601-16.512 24.656-16.641a.547.547 0 0 1 .707-.301c.278.113.41.426.297.703-.055.14-5.812 13.836-25.469 17.305q-.051.007-.097.008M97.348 174.758H72.805l7.687-27.387h24.543z"/>
  <path fill="#fff" d="m43.727 158.758 12.421-5.547s-1.75 21.023 23.383 11.316c0 0-.926-2.703-.797-5.859.133-3.156 2.024-.102 2.286 2.46.265 2.567 6.168 1.528 9.71.517 3.547-1.012 8.204-.348 0 4.167-8.199 4.52-9.996 2.504-9.996 2.504s-10.472 14.637-23.5 11.528c-16.027-3.824-13.507-21.086-13.507-21.086"/>
  <path d="M44.23 159.125c-.109 1.035-.363 4.691.77 8.625 1.77 6.14 5.93 10.031 12.36 11.566a15 15 0 0 0 3.519.414c10.883.004 19.32-11.597 19.414-11.73a.541.541 0 0 1 .848-.043s1.836 1.512 9.328-2.617c4.34-2.39 4.289-3.29 4.285-3.3-.133-.259-1.738-.481-3.875.124-1.684.48-7.352 1.934-9.512.473a1.95 1.95 0 0 1-.887-1.45c-.14-1.37-.742-2.703-1.128-3.171a3.7 3.7 0 0 0-.075.675c-.125 3.02.758 5.633.766 5.66a.543.543 0 0 1-.316.68c-8.665 3.348-15.172 3.461-19.344.344-4.387-3.277-4.813-9.09-4.805-11.316Zm16.637 21.691c-1.226 0-2.48-.14-3.762-.445-16.316-3.894-13.94-21.516-13.917-21.691a.55.55 0 0 1 .316-.418l12.422-5.547a.54.54 0 0 1 .535.055c.156.109.242.292.227.484-.004.074-.56 7.594 4.351 11.258 3.777 2.82 9.773 2.715 17.824-.313-.265-.945-.77-3.105-.668-5.554.016-.454.075-1.833 1.028-1.864h.023c1.23 0 2.16 2.785 2.313 4.293.03.285.164.496.414.668 1.41.953 5.52.262 8.609-.617 1.785-.512 4.64-.797 5.176.504.472 1.144-.996 2.582-4.766 4.656-6.336 3.492-9.078 3.195-10.12 2.746-1.645 2.11-9.75 11.785-20.005 11.785M76.883 119.496c-1.074.98-3.172 2.18-4.813 1.356-1.222-.618-1.906-2.211-1.863-4.032-.566.043-1.309.004-1.836-.46-.816-.723-.664-2.047-.633-2.919.149-4.015-2.187-4.632-1.617-7.355.45-2.145 2.133-3.422 2.45-3.66 1.59-1.203 2.667-.817 5.34-1.516 4.5-1.176 4.644-3.113 7.609-3.12.171 0 4.203.042 5.574 2.827 1.113 2.262-.188 5.016-1.531 6.461-1.743 1.871-2.993.95-4.743 2.516-3.066 2.758-.75 6.988-3.937 9.902"/>
  <path fill="#fff" d="m85.863 112.328-.18-.152c-.886-.766-1.816-1.656-2.05-2.805-1.004-4.89-5.488-6.664-5.695-2.176-.055 1.133-4.196 1.075-3.704 2.262 1.282 3.102 1.309 2.27-.5 3.41a1.5 1.5 0 0 0-.597.145c-.93.43-1.258 1.687-.735 2.808.317.676.875 1.145 1.473 1.317v4.898a4.52 4.52 0 0 1-2.812 4.184l-1.657.676s7.719 5.035 15.555-.493l-1.043-.468a5.27 5.27 0 0 1-3.117-4.645l-.008-.957c.527.047 1.039.012 1.508-.125 2.191-.637 2.922-3.16 2.547-6.297l.894-.476a.678.678 0 0 0 .121-1.106"/>
  <path d="M70.656 126.969c2.137 1.05 7.528 3 13.184-.477l-.145-.066a5.84 5.84 0 0 1-3.433-5.117l-.012-.973c0-.152.063-.297.176-.402a.55.55 0 0 1 .414-.141c.48.043.922.008 1.312-.106 2.477-.722 2.332-4.234 2.157-5.71a.545.545 0 0 1 .285-.543l.89-.477a.13.13 0 0 0 .07-.105.13.13 0 0 0-.046-.114l-.176-.152c-.937-.805-1.957-1.777-2.23-3.106-.598-2.91-2.418-4.398-3.461-4.32-.97.074-1.137 1.465-1.164 2.059-.043.933-1.2 1.261-2.325 1.574-.453.125-1.187.332-1.394.508.176.426.324.773.449 1.062.61 1.395.813 1.867-.422 2.528-.203.105-.453.242-.758.433a.56.56 0 0 1-.27.082q-.211.013-.394.094c-.652.305-.867 1.242-.468 2.09.234.508.66.89 1.128 1.027a.54.54 0 0 1 .395.52v4.898a5.04 5.04 0 0 1-3.152 4.684Zm6.387 2.547c-4.531 0-7.883-2.133-7.934-2.168a.54.54 0 0 1 .09-.953l1.656-.676a3.97 3.97 0 0 0 2.477-3.684v-4.523a3 3 0 0 1-1.422-1.465c-.648-1.387-.2-2.973.996-3.527.203-.094.426-.157.656-.184.286-.176.52-.297.711-.402a5 5 0 0 0 .325-.18c-.043-.176-.211-.559-.383-.961a64 64 0 0 1-.48-1.129.96.96 0 0 1 .011-.805c.293-.601 1.137-.836 2.113-1.109.5-.14 1.422-.398 1.543-.61.118-2.69 1.68-3.023 2.157-3.062 1.668-.133 3.91 1.813 4.605 5.184.203.996 1.074 1.816 1.875 2.504l.176.152c.305.262.46.656.418 1.055a1.22 1.22 0 0 1-.637.937l-.57.305c.328 3.5-.746 5.863-2.973 6.512a4.3 4.3 0 0 1-1.113.164l.004.394a4.75 4.75 0 0 0 2.793 4.153l1.047.472c.18.078.3.246.316.442a.54.54 0 0 1-.227.492c-2.863 2.02-5.726 2.672-8.23 2.672"/>
  <path d="M80.793 120.875a1 1 0 0 1-.082-.008c-3.262-.5-4.734-2.996-4.793-3.101a.535.535 0 0 1 .2-.739.535.535 0 0 1 .737.2c.016.027 1.293 2.152 4.02 2.57.297.047.5.32.453.617-.039.27-.27.461-.535.461"/>
  <path fill="#caddff" d="M161.219 20.91c-6.524 2.035-35.453 11.492-64.34 36.574-7 6.075-35.29 30.637-47.371 63.657-20.574 56.207 4.043 141.714 74.945 176.078 82.586 40.023 186.902-9.242 210.695-75.172 10.555-29.242 11.032-77.734-15.554-109.711-21.395-25.734-57.98-37.961-56.563-62.3.684-11.727 9.524-14.966 7.07-22.352-5.816-17.512-62.804-21.145-108.882-6.774"/>
  <path fill="#5479f7" d="m74.027 49.023 253.868-9.793c6.039 0 10.949 4.907 10.949 10.938v177.031c0 6.028-4.91 10.934-10.95 10.934l-91.73-6.203 11.777 42.933 12.461.098c3.887 0 7.047 3.16 7.047 7.039 0 3.883-3.16 7.04-7.047 7.04l-104.355-4.97c-3.887 0 3.383-45.937 3.383-45.937S67.988 49.023 74.027 49.023"/>
  <path fill="#99b9ff" d="M161.07 215.504h64.739l18.367 66.957H142.707z"/>
  <path d="M143.418 281.918h100.047l-18.07-65.875h-63.91Zm100.758 1.086H142.707a.542.542 0 0 1-.523-.684l18.363-66.96a.54.54 0 0 1 .523-.4h64.739a.54.54 0 0 1 .523.4l18.363 66.96a.53.53 0 0 1-.09.47.54.54 0 0 1-.43.214"/>
  <path fill="#fff" d="M64.195 39.848h258.493c5.703 0 10.328 4.62 10.328 10.32v177.031c0 5.696-4.625 10.317-10.329 10.317H64.195c-5.707 0-10.332-4.621-10.332-10.317V50.168c0-5.7 4.625-10.32 10.332-10.32"/>
  <path fill="#99b9ff" d="M131.688 275.582h123.507a6.425 6.425 0 0 1 6.426 6.422 6.424 6.424 0 0 1-6.426 6.418H131.688c-3.551 0-6.43-2.875-6.43-6.418a6.426 6.426 0 0 1 6.43-6.422"/>
  <path d="M131.688 276.121c-3.247 0-5.887 2.64-5.887 5.879a5.89 5.89 0 0 0 5.886 5.883h123.508a5.887 5.887 0 0 0 5.883-5.883 5.89 5.89 0 0 0-5.883-5.879Zm123.507 12.844H131.688c-3.844 0-6.97-3.125-6.97-6.965 0-3.836 3.126-6.96 6.97-6.96h123.507c3.844 0 6.97 3.124 6.97 6.96 0 3.84-3.126 6.965-6.97 6.965M62.738 237.957c-.027 0-.05-.004-.078-.008-5.324-.75-9.34-5.375-9.34-10.75V50.168c0-5.988 4.88-10.86 10.875-10.86h170.461a.541.541 0 1 1 0 1.083H64.196c-5.4 0-9.79 4.386-9.79 9.777v177.031c0 4.84 3.614 9 8.407 9.68a.542.542 0 0 1-.074 1.078M247.79 238.059H101.43a.544.544 0 0 1 0-1.086h146.36a.544.544 0 0 1 0 1.086M322.688 238.059h-13.106a.542.542 0 1 1 0-1.086h13.106c5.394 0 9.785-4.383 9.785-9.774V50.168c0-5.39-4.391-9.777-9.786-9.777H263.81a.542.542 0 1 1 0-1.082h58.878c5.993 0 10.872 4.87 10.872 10.859v177.031c0 5.985-4.88 10.86-10.872 10.86"/>
  <path fill="#caddff" d="M70.254 228.54h247.105c3.692 0 6.688-2.99 6.688-6.677V55.176c0-3.688-2.996-6.68-6.688-6.68H70.254a6.683 6.683 0 0 0-6.684 6.68v166.687a6.68 6.68 0 0 0 6.684 6.676"/>
  <path d="M249.953 228.883H99.984a.54.54 0 0 1 0-1.082h149.97a.542.542 0 1 1 0 1.082M319.063 228.883h-13.817a.541.541 0 1 1 0-1.082h13.817a4.6 4.6 0 0 0 4.593-4.59v-42.535a.54.54 0 0 1 1.082 0v42.535a5.68 5.68 0 0 1-5.675 5.672M324.398 150.402a.54.54 0 0 1-.543-.539l-.203-87.07c0-.3.243-.543.543-.543s.543.238.543.54l.203 87.073c0 .297-.242.54-.543.54M324.195 54.691a.54.54 0 0 1-.539-.539 4.6 4.6 0 0 0-4.594-4.59l-58.269-.23a.544.544 0 0 1-.54-.543c0-.3.243-.539.544-.539l58.265.23a5.68 5.68 0 0 1 5.676 5.672c0 .297-.242.54-.543.54M63.406 63.332a.54.54 0 0 1-.539-.543v-8.637a5.68 5.68 0 0 1 5.676-5.672l145.637-.59c.297 0 .539.239.543.54a.544.544 0 0 1-.543.543l-145.633.59a4.6 4.6 0 0 0-4.598 4.59v8.636c0 .3-.242.543-.543.543M170.898 26.797a.54.54 0 0 1-.5-.332.54.54 0 0 1 .29-.707c.316-.133 31.738-13.016 62.55-6.977a.542.542 0 0 1-.21 1.063c-30.489-5.977-61.61 6.781-61.923 6.914a.5.5 0 0 1-.207.039"/>
  <path d="M190.918 26.219a.542.542 0 0 1-.129-1.066c10.473-2.536 20.54-3.532 29.926-2.954.3.016.527.274.508.574a.53.53 0 0 1-.57.504c-9.278-.566-19.243.418-29.606 2.926a.5.5 0 0 1-.129.016M237.969 20.504c-.14.39-.11.8.082 1.152.207.383.574.66 1.039.778.969.238 2.008-.29 2.316-1.176.137-.39.11-.801-.082-1.153-.21-.382-.578-.66-1.043-.777-.965-.238-2.004.285-2.312 1.176m1.586 3.066q-.364.001-.727-.086c-.766-.191-1.379-.656-1.73-1.312a2.48 2.48 0 0 1-.153-2.027c.489-1.399 2.102-2.239 3.598-1.868.766.192 1.379.657 1.734 1.313.336.62.391 1.344.153 2.027-.41 1.176-1.614 1.953-2.875 1.953M186.32 308.262c-10.507 0-22.718-1.39-34.48-5.961a.547.547 0 0 1-.309-.703.547.547 0 0 1 .703-.309c29.586 11.496 62.086 2.645 62.41 2.555a.542.542 0 0 1 .293 1.043c-.199.054-12.378 3.375-28.617 3.375"/>
  <path d="M184.484 302.79c-6.925 0-13.543-.728-19.77-2.18a.54.54 0 0 1-.405-.65.544.544 0 0 1 .652-.401c9.156 2.132 19.18 2.683 29.789 1.632.3-.027.563.188.59.485a.54.54 0 0 1-.485.594c-3.523.347-6.984.52-10.37.52M118.992 98.152a.546.546 0 0 1-.543-.523l-.066-1.793a.542.542 0 0 1 1.082-.043l.07 1.797c.008.3-.222.55-.523.562zM119.207 103.832a.546.546 0 0 1-.543-.523l-.066-1.797a.544.544 0 0 1 .52-.563.547.547 0 0 1 .562.524l.07 1.797a.545.545 0 0 1-.523.562zM115.324 100.234a.545.545 0 0 1-.543-.52.546.546 0 0 1 .524-.566l1.797-.066a.55.55 0 0 1 .562.52c.012.3-.223.55-.52.562l-1.8.07zM121.008 100.02a.545.545 0 0 1-.543-.52.545.545 0 0 1 .523-.562l1.797-.067a.542.542 0 0 1 .043 1.082l-1.8.067zM107.207 275.496h.004Zm2-.562a1.82 1.82 0 0 0-1.777 2.218c.11.477.394.88.804 1.137a1.825 1.825 0 0 0 2.512-.566 1.819 1.819 0 0 0-1.539-2.79m-.008 4.722a2.87 2.87 0 0 1-1.543-.449 2.89 2.89 0 0 1-.906-4 2.903 2.903 0 0 1 4.004-.906 2.894 2.894 0 0 1 .906 4 2.89 2.89 0 0 1-1.812 1.281q-.325.075-.649.074"/>
  <path fill="#5479f7" d="m146.563 18.813-1.395-3.907-21.969 7.832 1.399 3.91z"/>
  <path fill="#5479f7" d="M120.277 28.02a1.808 1.808 0 1 1-1.219-3.406 1.81 1.81 0 0 1 2.317 1.093 1.81 1.81 0 0 1-1.098 2.313m5.325 3.976a7.447 7.447 0 0 0 4.515-9.52c-1.387-3.874-5.652-5.89-9.531-4.507a7.445 7.445 0 0 0-4.512 9.52c1.383 3.87 5.649 5.89 9.528 4.507M146.438 18.46l-1.868-5.218-4.605 1.64 1.867 5.223zM240.48 49.566l3.09 2.059 11.555-17.312-3.086-2.06z"/>
  <path fill="#5479f7" d="M254.402 28.973a1.617 1.617 0 0 1 2.691 1.793 1.616 1.616 0 0 1-2.69-1.793m-5.933-.012a6.644 6.644 0 0 0 1.844 9.223 6.664 6.664 0 0 0 9.234-1.844 6.643 6.643 0 0 0-1.848-9.223 6.656 6.656 0 0 0-9.23 1.844M240.762 49.75l4.12 2.746 2.427-3.629-4.125-2.746zM172.188 126.617l2.933-2.219-12.48-16.46-2.934 2.222z"/>
  <path fill="#5479f7" d="M157.398 106.879a1.605 1.605 0 0 1 2.559-1.938 1.605 1.605 0 0 1-2.559 1.938m-1.949 5.55c2.207 2.907 6.352 3.481 9.258 1.278a6.59 6.59 0 0 0 1.277-9.246 6.61 6.61 0 0 0-9.254-1.277c-2.91 2.203-3.484 6.343-1.28 9.246M172.453 126.418l3.922-2.965-2.617-3.453-3.922 2.969z"/>
  <path fill="#99b9ff" d="M296.402 89.703H84.523c-6.824 0-12.41-5.578-12.41-12.394V76.5c0-6.82 5.586-12.398 12.41-12.398h211.88c6.824 0 12.41 5.578 12.41 12.398v.809c0 6.816-5.586 12.394-12.41 12.394"/>
  <path d="M85.375 71.137c-2.758 0-5.008 2.242-5.008 5a5.015 5.015 0 0 0 5.008 5.004 5.01 5.01 0 0 0 5.008-5.004c0-2.758-2.246-5-5.008-5m0 11.086c-3.36 0-6.09-2.73-6.09-6.086a6.094 6.094 0 0 1 6.09-6.086c3.36 0 6.094 2.73 6.094 6.086 0 3.355-2.735 6.086-6.094 6.086"/>
  <path d="M93.84 85.684a.53.53 0 0 1-.383-.157l-4.414-4.41a.542.542 0 0 1 .766-.765l4.414 4.41c.21.21.21.55 0 .765a.54.54 0 0 1-.383.157M180.512 80.086h-29.27a2.56 2.56 0 0 1-2.55-2.55v-.169a2.56 2.56 0 0 1 2.55-2.55h29.27a2.557 2.557 0 0 1 2.554 2.55v.168a2.557 2.557 0 0 1-2.554 2.55M136.527 80.086h-29.273a2.56 2.56 0 0 1-2.55-2.55v-.169a2.56 2.56 0 0 1 2.55-2.55h29.273a2.56 2.56 0 0 1 2.555 2.55v.168a2.56 2.56 0 0 1-2.555 2.55"/>
  <path fill="#5479f7" d="M236.543 80.086h-30.39a2.56 2.56 0 0 1-2.555-2.55v-.169a2.56 2.56 0 0 1 2.554-2.55h30.391a2.56 2.56 0 0 1 2.555 2.55v.168a2.56 2.56 0 0 1-2.555 2.55"/>
  <path d="M292.45 80.082h-27.782a2.56 2.56 0 0 1-2.555-2.55v-.165a2.557 2.557 0 0 1 2.555-2.55h27.781a2.557 2.557 0 0 1 2.551 2.55v.164a2.56 2.56 0 0 1-2.55 2.551"/>
  <path fill="#5479f7" d="M265.656 289.637s.617 7.347-1.918 10.297l-.789 1.265 12.008-.738-.594-1.309c-1.05-2.328-1.504-4.82-1.324-7.277z"/>
  <path fill="#fff" d="m263.742 295.887-1.27 1.324a22.4 22.4 0 0 1-9.066 5.758l-2.644.886a.8.8 0 0 0-.516.543l-.039.133c-.402 1.446 1.16 4.828 6.445 6.149 3.27.816 10.957 1.53 20.38-1.696.593-.207.988-.77.964-1.398-.07-2.293-.453-7.758-2.426-10.531a.635.635 0 0 0-.937-.118l-2.738 2.403a2.956 2.956 0 0 1-4.172-.281l-2.739-3.145a.844.844 0 0 0-1.242-.027"/>
  <path d="m264.137 296.262-1.27 1.324a23.1 23.1 0 0 1-9.285 5.894l-2.644.887a.27.27 0 0 0-.172.176l-.036.133c-.101.36-.035 1.043.45 1.875.558.96 2.03 2.71 5.605 3.601 1.465.368 9.313 2.004 20.067-1.683a.88.88 0 0 0 .605-.867c-.07-2.192-.437-7.575-2.328-10.23a.13.13 0 0 0-.074-.048c-.04-.004-.059.016-.067.02l-2.734 2.402a3.48 3.48 0 0 1-2.54.86 3.46 3.46 0 0 1-2.398-1.192l-2.742-3.144a.3.3 0 0 0-.219-.102.28.28 0 0 0-.218.094m-.864 15.648c-3.593 0-5.996-.515-6.753-.707-3.957-.988-5.633-3-6.278-4.11-.566-.968-.765-1.956-.554-2.71l.035-.13c.12-.429.445-.769.867-.91l2.644-.89a22 22 0 0 0 8.848-5.613l1.27-1.328c.265-.278.644-.43 1.03-.426.388.008.755.18 1.009.473l2.742 3.144a2.39 2.39 0 0 0 1.656.82 2.4 2.4 0 0 0 1.75-.59l2.734-2.402c.25-.219.579-.32.907-.281.332.04.632.219.832.492 2.062 2.895 2.457 8.535 2.527 10.824a1.97 1.97 0 0 1-1.332 1.93c-5.531 1.895-10.328 2.414-13.934 2.414"/>
  <path d="M265.484 307.262c-.457 0-.918-.012-1.375-.035a1.339 1.339 0 0 1-1.187-1.824l.398-1.02c.032-.074-.004-.125-.035-.156a.13.13 0 0 0-.152-.036l-1.04.414a12.74 12.74 0 0 1-9.98-.27l-.57-.26a.54.54 0 0 1-.266-.72.543.543 0 0 1 .72-.265l.565.262a11.67 11.67 0 0 0 9.13.25l1.038-.414a1.21 1.21 0 0 1 1.32.269c.352.352.462.856.278 1.316l-.394 1.024a.26.26 0 0 0 .02.234c.03.04.093.11.206.117a27.4 27.4 0 0 0 11.176-1.8l2.078-.797a.54.54 0 0 1 .695.312.535.535 0 0 1-.308.7l-2.074.796a28.5 28.5 0 0 1-10.243 1.903"/>
  <path fill="#5479f7" d="M319.035 278.355s4.711 5.848 4.512 9.801l.137 1.52 9.168-8.871-1.332-.493c-2.137-1.363-4.368-2.14-5.653-4.32z"/>
  <path fill="#fff" d="m321.863 286.242.207 1.852a22.8 22.8 0 0 1-1.445 10.816l-1.035 2.64a.82.82 0 0 0 .086.759l.078.113c.863 1.262 4.52 2.258 9.008-.992 2.773-2.012 8.363-7.524 12-16.965a1.46 1.46 0 0 0-.453-1.668c-1.836-1.438-6.352-4.719-9.801-4.992a.644.644 0 0 0-.707.652l.086 3.695a3.004 3.004 0 0 1-2.946 3.067l-4.246.074a.857.857 0 0 0-.832.95"/>
  <path d="M330.453 278.344c-.043 0-.066.02-.082.031-.027.027-.027.059-.027.07l.082 3.7a3.5 3.5 0 0 1-.985 2.527 3.54 3.54 0 0 1-2.492 1.09l-4.246.074a.3.3 0 0 0-.226.105.32.32 0 0 0-.079.239v.004l.207 1.851a23.35 23.35 0 0 1-1.476 11.074l-1.035 2.641a.27.27 0 0 0 .027.254l.078.113c.215.317.79.715 1.762.88 1.117.194 3.445.19 6.48-2.005 1.243-.902 7.657-5.937 11.813-16.722a.905.905 0 0 0-.285-1.047c-1.754-1.38-6.192-4.614-9.504-4.88zm-7.55 25.812c-.446 0-.825-.039-1.13-.094-1.12-.19-2.02-.68-2.468-1.335l-.078-.114a1.36 1.36 0 0 1-.145-1.261l1.04-2.641a22.3 22.3 0 0 0 1.405-10.559l-.207-1.851a1.4 1.4 0 0 1 1.368-1.547l4.242-.078a2.46 2.46 0 0 0 1.73-.754 2.44 2.44 0 0 0 .68-1.754l-.078-3.7a1.17 1.17 0 0 1 .367-.882 1.2 1.2 0 0 1 .922-.32c3.605.289 8.258 3.668 10.09 5.105.691.547.945 1.465.625 2.29-4.266 11.07-10.899 16.276-12.188 17.206-2.566 1.86-4.726 2.29-6.176 2.29"/>
  <path d="M320.031 301.133a.543.543 0 0 1-.23-1.031l.578-.274a11.85 11.85 0 0 0 6.164-6.945l.36-1.078c.156-.477.562-.801 1.066-.844.496-.043.957.2 1.199.64l.539.977a.27.27 0 0 0 .2.14.28.28 0 0 0 .234-.085 27.8 27.8 0 0 0 5.91-9.88l.734-2.132a.54.54 0 1 1 1.023.352l-.734 2.136a28.9 28.9 0 0 1-6.137 10.258 1.37 1.37 0 0 1-1.16.426 1.36 1.36 0 0 1-1.023-.695l-.535-.977a.15.15 0 0 0-.153-.082.15.15 0 0 0-.136.106l-.356 1.078a12.93 12.93 0 0 1-6.734 7.582l-.574.273a.5.5 0 0 1-.235.055M290.84 185.902s5.773 9.965 4.933 26.453c-.953 18.649 23.215 37.547 31.211 62.762a10.86 10.86 0 0 1-6.52 7.574l-.093.036s-24.68-11.563-33.672-27.864c-5.18-9.394-11.613-28.539-11.613-28.539l5.476-35.172.836-.183c2.176-.469 4.23-1.239 6.239-2.164a7.27 7.27 0 0 0 3.203-2.903"/>
  <path d="M288.059 188.824s2.093 14.957-5.743 26.977-7.402 24.554-6.148 30.847c1.254 6.29 4.324 25.141-.918 45.22 0 0-4.871 1.987-10.52-.216 0 0-13.984-33.687-14.257-54.226-.274-20.535 8.918-48.188 8.918-48.188s17.168 5.512 28.668-.414"/>
  <path fill="#fff" d="M221.023 108.027c-5.609 0-11-1.906-15.414-5.488a24.7 24.7 0 0 1-4.543-4.836.543.543 0 0 1 .887-.629 23.3 23.3 0 0 0 4.34 4.625 23.3 23.3 0 0 0 17.184 5.117 23.27 23.27 0 0 0 15.773-8.52 23.36 23.36 0 0 0 4.855-19.019.542.542 0 1 1 1.066-.195 24.42 24.42 0 0 1-5.081 19.898c-4.13 5.075-9.988 8.239-16.5 8.915-.86.085-1.715.132-2.567.132M197.488 88.383a.54.54 0 0 1-.531-.445 24.35 24.35 0 0 1 .266-10.094.54.54 0 0 1 .652-.399c.293.067.473.36.402.649a23.3 23.3 0 0 0-.254 9.648.55.55 0 0 1-.535.64"/>
  <path d="M231.3 136.125a1.835 1.835 0 0 1-2.257-1.305l-4.316-18.941 3.57-.977 4.316 18.942a1.87 1.87 0 0 1-1.312 2.281"/>
  <path d="M210.344 110.102c-14.89-5.762-22.239-22.606-16.414-37.618 5.824-15.011 22.613-22.511 37.504-16.75 14.886 5.762 22.234 22.602 16.41 37.618-5.824 15.011-22.614 22.511-37.5 16.75m22.687-58.497c-17.148-6.636-36.488 2.004-43.195 19.293-6.707 17.293 1.758 36.692 18.906 43.329 17.149 6.636 36.488-2 43.196-19.293 6.707-17.29-1.758-36.688-18.907-43.329"/>
  <path fill="#fff" d="M230.715 141.832c-.43.125-1.676-1.707-1.973-2.031-1.172-1.285-3.965-2.88-4.406-5.45-.566-3.34 1.066-6.792 1.898-6.636.836.156 1.551 6.469 4.832 6.879 0 0 .743-.047.836-3.137.012-.434.496-.707.868-.488.511.304 1.152.93 1.632 2.219.618 1.64.38 3.48.203 4.582-.113.73.032 2.94-.542 3.105z"/>
  <path d="M226.098 128.34c-.582.562-1.688 3.219-1.227 5.918.29 1.699 1.805 2.992 3.024 4.031.468.402.914.781 1.246 1.145.086.093.203.246.363.457.254.332.894 1.164 1.2 1.382l3.112-.89c.137-.297.172-1.258.192-1.735.015-.39.027-.722.062-.964.13-.809.43-2.704-.172-4.309-.441-1.176-1.011-1.703-1.406-1.941-.039.015-.047.027-.05.039-.087 2.964-.778 3.625-1.344 3.66l-.051.004-.05-.008c-2.517-.313-3.638-3.422-4.38-5.477-.168-.468-.37-1.03-.52-1.312m4.562 14.042c-.52 0-1.058-.585-2.015-1.831-.137-.176-.243-.317-.305-.387-.29-.316-.707-.676-1.149-1.05-1.351-1.153-3.03-2.587-3.386-4.673-.504-2.953.597-5.941 1.55-6.875.399-.394.754-.425.98-.382.583.105.84.816 1.302 2.101.629 1.738 1.562 4.328 3.285 4.735.121-.208.387-.84.437-2.579.012-.402.23-.757.586-.953a1.1 1.1 0 0 1 1.098.016c.797.473 1.426 1.309 1.867 2.492.625 1.66.45 3.465.23 4.856-.027.175-.038.496-.05.835-.047 1.278-.09 2.481-.88 2.711l-3.347.954a.7.7 0 0 1-.203.03"/>
  <path fill="#5479f7" d="m228.617 141.047 6.754-2.063c2.34 4.786 4.91 8.93 7.879 11.602a27 27 0 0 0 5.688 3.918c.91.469 2.03.098 2.457-.832 1.18-2.567 3.125-6.602 6.437-11.305 2.488-3.535 6.45-6.328 9.684-7.71 5.027-2.15 10.777-3 16.136-1.618 10.336 2.664 17.149 9.152 17.149 9.152 5.433 4.852 15.058 21.258 10.883 28.664-5.118 9.086-17.196 2.93-17.196 2.93s-.496 4.3 1.754 10.406c2.735 7.418-.453 9.121-.453 9.121-13.5 12.735-41.035-1.539-38.324-7.167 2.902-6.032 3.383-13.852 3.383-13.852-3.73 3.293-8.52 2.477-8.52 2.477s-2.777-.368-4.66-1.266c-16.418-6.477-19.05-32.457-19.05-32.457"/>
  <path d="M294.598 169.5a.5.5 0 0 1-.203-.043.535.535 0 0 1-.297-.703c3.972-9.7 2.843-17.762 2.832-17.844a.543.543 0 0 1 1.074-.156c.05.34 1.191 8.418-2.902 18.41a.54.54 0 0 1-.504.336M261.055 172.902a.543.543 0 0 1-.36-.953c5.614-4.89 10.192-17.277 10.239-17.402a.54.54 0 0 1 .691-.32c.285.101.426.41.324.691-.191.523-4.719 12.773-10.539 17.848a.53.53 0 0 1-.355.136"/>
  <path fill="#fff" d="M278.988 109.375a5.98 5.98 0 0 0-5.289 2.691c-.539.817-1.031 1.582-1.133 1.797-.234.496-.78 2.176-2.535 3.723a.46.46 0 0 0-.078.598l.988 1.418c.07.101.094.222.067.335-.168.72-.95 3.317-.785 3.801.34 1.028 2.73 1.434 3.441 1.535.133.016.25.102.309.22.207.433.75 1.66 1.082 4.667.511 4.586-3.864 5.05-3.004 5.547 5.984 3.45 17.367 3.375 16.781 2.047-.48-1.09-6.55-4.191-6.71-11.695-.102-4.68 6.452-4.696 2.241-13.832-.98-2.122-3.32-2.747-5.375-2.852"/>
  <path d="M288.336 137.973h.004Zm-15.484-2.446c5.25 2.707 13.683 2.793 15.312 2.235-.191-.196-.5-.465-.781-.715-1.844-1.613-5.676-4.973-5.805-10.977-.039-1.902.906-3.11 1.82-4.277 1.477-1.89 3.004-3.84.473-9.336-.719-1.555-2.371-2.41-4.91-2.543a5.46 5.46 0 0 0-4.809 2.45c-.882 1.34-1.058 1.656-1.093 1.73q-.043.091-.102.23c-.305.719-.934 2.203-2.512 3.621l.942 1.348a.96.96 0 0 1 .148.77c-.039.167-.11.433-.195.75-.195.726-.649 2.425-.598 2.785.145.422 1.406.914 2.996 1.14a.95.95 0 0 1 .723.52c.516 1.066.898 2.695 1.137 4.844.375 3.382-1.743 4.8-2.746 5.425m12.14 3.633c-3.906 0-9.601-.902-13.215-2.984-.324-.188-.379-.453-.379-.594-.007-.426.344-.644.79-.922.988-.61 2.64-1.633 2.328-4.437-.149-1.368-.446-3.23-1-4.426-1.286-.184-3.407-.672-3.813-1.89-.148-.45.063-1.407.59-3.372.074-.273.133-.508.172-.668l-.957-1.375a.994.994 0 0 1 .168-1.312c1.43-1.266 2.008-2.625 2.285-3.278q.065-.163.113-.27c.043-.085.153-.316 1.172-1.862a6.52 6.52 0 0 1 5.77-2.934c2.933.148 4.953 1.242 5.84 3.168 2.808 6.094.996 8.41-.602 10.457-.875 1.11-1.625 2.07-1.59 3.586.117 5.527 3.574 8.558 5.434 10.187.668.586 1.07.938 1.23 1.301.14.32.055.672-.219.918-.511.457-2.066.707-4.117.707"/>
  <path d="m274.992 116.36-2.289-3.22a3.307 3.307 0 0 1 1.2-4.874c.5-.258 1.09-.52 1.742-.758 6.48-2.371 13.476 2.531 13.101 9.41-.156 2.816-2.223 5.977-6.394 8.656 0 0-2.692-2.375-2.524-4.773 0 0 2.18-2.309-.629-3.692a2.06 2.06 0 0 0-1.722-.046 2.06 2.06 0 0 1-2.485-.704"/>
  <path d="M278.574 122.39a3.13 3.13 0 0 1-1.562-.417.546.546 0 0 1-.188-.746.55.55 0 0 1 .742-.188c.176.106 1.739.934 2.926-1.031a.54.54 0 0 1 .746-.184.54.54 0 0 1 .184.742c-.844 1.399-1.922 1.825-2.848 1.825M285.813 110.2s2.55-7.263 10.269-5.438c4.816 1.136 8.887 4.644 10.922 10.105 3.941 10.574-.7 20.16 6.164 29.531 1.55 2.114.023 5.114-2.602 5.059-4.957-.105-11.566-1.676-15.847-8.297-3.504-5.426.222-29.265-8.156-29.37z"/>
  <path fill="#fff" d="M223.875 222.352H81.633c-1.63 0-2.945-1.387-2.938-3.094l.344-81.375c.008-1.707 1.336-3.094 2.965-3.094h142.242c1.629 0 2.945 1.387 2.938 3.094l-.34 81.375c-.012 1.707-1.34 3.094-2.969 3.094"/>
  <path fill="#caddff" d="M115.21 217.941H101.88l.121-11.035h13.332zM98.422 217.941H85.09l.09-20.164h13.332zM132.055 217.941h-13.328l.183-22.574h13.328zM149.645 217.941h-13.333l.149-33.593h13.332zM167.234 217.941h-13.332l.207-19.082h13.332zM184.824 217.39h-13.332l.153-25.218h13.332zM202.781 217.39h-13.328l.207-41.445h13.332zM220 217.39h-13.332l.262-52.538h13.328z"/>
  <path fill="#99b9ff" d="m212.473 137.86-29.739 7.988c-1.539.41-2.101 2.3-1.039 3.488l3.114 3.473c.789.879.714 2.226-.164 3.015l-16.961 15.219a2.14 2.14 0 0 1-3.024-.16l-18.129-20.164a2.143 2.143 0 0 0-3.023-.16l-45.41 40.613c-.88.789-.95 2.14-.16 3.02l6.624 7.37c.793.875 2.145.95 3.024.16l34.852-31.132a2.14 2.14 0 0 1 3.023.16l18.125 20.156c.789.88 2.14.953 3.023.164l27.5-24.675a2.143 2.143 0 0 1 3.024.164l3.355 3.746c1.075 1.195 3.032.828 3.598-.672l10.941-28.953c.618-1.63-.87-3.27-2.554-2.82"/>
  <path fill="#fff" d="m55.914 287.586.887 8.46 5.73.673v-10.031z"/>
  <path d="m57.297 295.563 4.691.546v-8.804l-5.48.746Zm5.234 1.699q-.033-.002-.066-.004l-5.727-.672a.55.55 0 0 1-.476-.48l-.887-8.465a.545.545 0 0 1 .465-.594l6.617-.899a.539.539 0 0 1 .613.54v10.03a.56.56 0 0 1-.18.407.56.56 0 0 1-.359.137"/>
  <path fill="#5479f7" d="M63.434 311.45a40.2 40.2 0 0 1-10.899-.005 2.557 2.557 0 0 1-2.14-3.14c1.011-4.11 2.753-11.903 5.746-15.516l.746 1.961 1.023-1.844a.92.92 0 0 1 .684-.46l2.246-.286a.91.91 0 0 1 1.004.715l.36 1.7.784-2.231 2.614 16.242a2.55 2.55 0 0 1-2.168 2.863"/>
  <path d="M55.984 293.906c-2.379 3.496-3.906 9.774-4.847 13.637l-.215.89a1.97 1.97 0 0 0 .289 1.606c.32.477.832.793 1.398.871a39.4 39.4 0 0 0 10.746.004 2.017 2.017 0 0 0 1.711-2.258l-2.277-14.12-.074.218a.544.544 0 0 1-1.043-.067l-.36-1.699a.36.36 0 0 0-.402-.289l-2.25.285a.35.35 0 0 0-.273.184l-1.028 1.844a.55.55 0 0 1-.511.277.55.55 0 0 1-.47-.348Zm2.032 18.457a40.5 40.5 0 0 1-5.555-.383 3.102 3.102 0 0 1-2.594-3.809l.219-.882c1.035-4.258 2.77-11.383 5.637-14.844a.546.546 0 0 1 .925.153l.329.87.46-.827a1.48 1.48 0 0 1 1.086-.735l2.25-.281a1.46 1.46 0 0 1 1.551.96l.153-.42a.54.54 0 0 1 .558-.36.54.54 0 0 1 .488.453l2.614 16.242c.222 1.695-.957 3.25-2.63 3.488-1.413.196-3.288.375-5.491.375"/>
  <path d="M56.797 309.64c-1.543 0-3.211-.136-4.875-.515a.54.54 0 1 1 .242-1.055c5.555 1.262 11.383-.363 11.441-.379a.54.54 0 1 1 .297 1.04c-.18.05-3.242.91-7.105.91M55.43 303.348a.543.543 0 0 1-.02-1.086l5.371-.176a.546.546 0 0 1 .559.523c.012.301-.223.551-.524.559l-5.37.18z"/>
  <path fill="#fff" d="m82.742 283.078.86 12.352h6.89l.32-12.352z"/>
  <path d="M84.105 294.887h5.86l.293-11.266h-6.934Zm6.387 1.082h-6.89a.54.54 0 0 1-.543-.504l-.856-12.348a.53.53 0 0 1 .145-.406.54.54 0 0 1 .394-.172h8.07a.54.54 0 0 1 .543.555l-.32 12.347a.54.54 0 0 1-.543.528"/>
  <path fill="#5479f7" d="M81.8 302.398a2.49 2.49 0 0 0 1.919 2.461c3.965.922 12.89 2.973 15.437 3.352 3.305.488 7.367-.52 9.114-2.453 1.742-1.93-3.91-6.54-6.598-8.219-3.984-2.492-7.817-7.414-9.422-7.637-1.61-.222-4.605 4.434-4.605 4.434l-4.903-2.055s-.855 4.196-.941 10.117"/>
  <path d="M81.8 302.398h.005Zm1.356-9.359c-.234 1.395-.746 4.902-.812 9.371a1.954 1.954 0 0 0 1.5 1.922c3.781.879 12.851 2.965 15.39 3.344 3.196.472 7.067-.551 8.633-2.278.098-.113.227-.304.176-.683-.258-1.828-4.031-5.074-6.656-6.715-2.035-1.273-3.973-3.105-5.68-4.727-1.426-1.347-2.898-2.746-3.531-2.836-.754-.093-2.719 2.086-4.074 4.192a.545.545 0 0 1-.668.207Zm17.719 15.836q-.915 0-1.8-.129c-2.579-.387-11.684-2.476-15.477-3.36a3.05 3.05 0 0 1-2.34-2.995c.09-5.907.945-10.176.953-10.22a.53.53 0 0 1 .277-.37.55.55 0 0 1 .465-.02l4.484 1.88c.965-1.434 3.247-4.52 4.887-4.294.93.13 2.117 1.215 4.13 3.121 1.671 1.586 3.566 3.38 5.507 4.594 1.738 1.086 6.777 4.79 7.156 7.484.082.602-.07 1.141-.445 1.555-1.516 1.672-4.707 2.754-7.797 2.754"/>
  <path d="M100.816 306.602c-7.23 0-16.875-3.891-17.421-4.114a.542.542 0 1 1 .41-1.004c.175.07 17.504 7.067 22.539 2.524a.543.543 0 0 1 .726.805c-1.445 1.304-3.699 1.789-6.254 1.789M93.176 299.129a.53.53 0 0 1-.403-.18.54.54 0 0 1 .04-.762l3.507-3.16a.54.54 0 0 1 .766.04c.2.222.18.562-.04.765l-3.507 3.156a.54.54 0 0 1-.363.14M53.957 202.578s-2.133 38.602-3.254 51.93c-1.117 13.324 2.617 34.746 2.617 34.746l10.637-.559s.73-26.043 1.52-33.277c0 0 4.496-9.805 5.828-18.55 1.328-8.747 5.867-22.56 5.867-22.56s3.683 68.946 4.039 74.36c0 0 8.344.371 11.336-1.508 0 0 5.297-25.137 4.539-38.816-.762-13.676.074-47.656.074-47.656z"/>
  <path fill="#fff" d="M63.52 255.957h-3.254a.544.544 0 0 1-.543-.539c0-.3.246-.543.543-.543h3.254a.541.541 0 0 1 0 1.082M86.684 276.008h-.012a.546.546 0 0 1-.531-.551c.117-6.43 7.152-17.906 7.449-18.39a.542.542 0 1 1 .926.566c-.075.117-7.176 11.707-7.29 17.844a.544.544 0 0 1-.542.53M100.527 140.836c.774-.059 4.575 7.719 16.473 7.39 11.898-.324 21.441-13.62 21.441-13.62s4.11-6.922 7.227-9.426c3.117-2.5 3.61-2.832 3.61-2.832s.976 1.3 0 2.832c-.981 1.53-3.68 4.398-3.68 4.398s2.976 1.629 1.632 5.027c-1.542 3.907-5.886 3.59-5.886 3.59s-8.82 39.012-45.278 20.473z"/>
  <path d="M96.7 158.379c10.562 5.285 19.765 6.16 27.359 2.601 12.789-5.992 16.718-22.734 16.754-22.902a.546.546 0 0 1 .57-.422c.16.012 3.972.227 5.344-3.25 1.152-2.922-1.286-4.297-1.387-4.355a.54.54 0 0 1-.278-.39.56.56 0 0 1 .141-.458c.027-.027 2.676-2.844 3.617-4.312.434-.684.383-1.309.258-1.715-.48.367-1.39 1.078-3.07 2.426-3.008 2.414-7.059 9.207-7.102 9.277l-.023.039c-.399.55-9.84 13.52-21.867 13.852-9.68.261-14.098-4.649-15.98-6.747a10 10 0 0 0-.196-.214Zm17.445 5.828c-5.57 0-11.696-1.687-18.325-5.055a.546.546 0 0 1-.277-.617L100 140.707a.545.545 0 0 1 .484-.41c.43-.031.72.293 1.36 1.008 1.781 1.984 5.957 6.632 15.14 6.382 11.301-.312 20.602-12.835 21.004-13.382.301-.508 4.239-7.059 7.34-9.547 3.102-2.485 3.625-2.844 3.645-2.856a.537.537 0 0 1 .734.121 3.06 3.06 0 0 1 .027 3.45c-.765 1.195-2.5 3.129-3.308 4.011 1.11.891 2.328 2.739 1.308 5.317-1.355 3.441-4.734 3.89-5.968 3.933-.715 2.7-5.137 17.547-17.243 23.223-3.199 1.5-6.664 2.25-10.378 2.25"/>
  <path fill="#5479f7" d="M41.563 158.668s3.57-23.016 16.183-28.68 29.676-4.879 34.383-2.05c4.703 2.832 16.969 15.617 16.969 15.617l-10.836 15.113s2.476 40.684.515 51.426c0 0-12.054 1.402-17.168-.61s-21.925-4.828-29.964-1.14l1.46-51.508z"/>
  <path d="M62.566 206.008c7.66 0 15.926 1.668 19.243 2.972 4.41 1.739 14.379.836 16.507.618 1.797-11.13-.57-50.496-.597-50.899a.54.54 0 0 1 .101-.347l10.575-14.747c-1.938-2.003-12.372-12.69-16.547-15.203-4.395-2.64-21.32-3.558-33.88 2.078-10.945 4.915-14.995 23.579-15.741 27.532L53.02 156.3a.55.55 0 0 1 .44.129.53.53 0 0 1 .188.422l-1.437 50.668c2.836-1.094 6.52-1.512 10.355-1.512m27.715 5.11c-3.226 0-6.652-.255-8.87-1.13-5.27-2.074-21.9-4.656-29.54-1.152a.53.53 0 0 1-.523-.043.54.54 0 0 1-.246-.465l1.445-50.855-10.899 1.73a.53.53 0 0 1-.468-.152.54.54 0 0 1-.153-.465c.145-.953 3.762-23.375 16.496-29.094 12.489-5.61 29.774-5.09 34.883-2.015 4.715 2.832 16.582 15.18 17.086 15.703.18.187.2.476.047.691l-10.727 14.957c.204 3.399 2.399 40.945.5 51.363a.54.54 0 0 1-.468.438c-.285.035-4.25.488-8.563.488"/>
  <path d="M62.723 198.27a.542.542 0 0 1-.094-1.074c19.074-3.368 24.601-16.512 24.656-16.641a.547.547 0 0 1 .707-.301c.278.113.41.426.297.703-.055.14-5.812 13.836-25.469 17.305q-.051.007-.097.008M97.348 174.758H72.805l7.687-27.387h24.543z"/>
  <path fill="#fff" d="m43.727 158.758 12.421-5.547s-1.75 21.023 23.383 11.316c0 0-.926-2.703-.797-5.859.133-3.156 2.024-.102 2.286 2.46.265 2.567 6.168 1.528 9.71.517 3.547-1.012 8.204-.348 0 4.167-8.199 4.52-9.996 2.504-9.996 2.504s-10.472 14.637-23.5 11.528c-16.027-3.824-13.507-21.086-13.507-21.086"/>
  <path d="M44.23 159.125c-.109 1.035-.363 4.691.77 8.625 1.77 6.14 5.93 10.031 12.36 11.566a15 15 0 0 0 3.519.414c10.883.004 19.32-11.597 19.414-11.73a.541.541 0 0 1 .848-.043s1.836 1.512 9.328-2.617c4.34-2.39 4.289-3.29 4.285-3.3-.133-.259-1.738-.481-3.875.124-1.684.48-7.352 1.934-9.512.473a1.95 1.95 0 0 1-.887-1.45c-.14-1.37-.742-2.703-1.128-3.171a3.7 3.7 0 0 0-.075.675c-.125 3.02.758 5.633.766 5.66a.543.543 0 0 1-.316.68c-8.665 3.348-15.172 3.461-19.344.344-4.387-3.277-4.813-9.09-4.805-11.316Zm16.637 21.691c-1.226 0-2.48-.14-3.762-.445-16.316-3.894-13.94-21.516-13.917-21.691a.55.55 0 0 1 .316-.418l12.422-5.547a.54.54 0 0 1 .535.055c.156.109.242.292.227.484-.004.074-.56 7.594 4.351 11.258 3.777 2.82 9.773 2.715 17.824-.313-.265-.945-.77-3.105-.668-5.554.016-.454.075-1.833 1.028-1.864h.023c1.23 0 2.16 2.785 2.313 4.293.03.285.164.496.414.668 1.41.953 5.52.262 8.609-.617 1.785-.512 4.64-.797 5.176.504.472 1.144-.996 2.582-4.766 4.656-6.336 3.492-9.078 3.195-10.12 2.746-1.645 2.11-9.75 11.785-20.005 11.785M76.883 119.496c-1.074.98-3.172 2.18-4.813 1.356-1.222-.618-1.906-2.211-1.863-4.032-.566.043-1.309.004-1.836-.46-.816-.723-.664-2.047-.633-2.919.149-4.015-2.187-4.632-1.617-7.355.45-2.145 2.133-3.422 2.45-3.66 1.59-1.203 2.667-.817 5.34-1.516 4.5-1.176 4.644-3.113 7.609-3.12.171 0 4.203.042 5.574 2.827 1.113 2.262-.188 5.016-1.531 6.461-1.743 1.871-2.993.95-4.743 2.516-3.066 2.758-.75 6.988-3.937 9.902"/>
  <path fill="#fff" d="m85.863 112.328-.18-.152c-.886-.766-1.816-1.656-2.05-2.805-1.004-4.89-5.488-6.664-5.695-2.176-.055 1.133-4.196 1.075-3.704 2.262 1.282 3.102 1.309 2.27-.5 3.41a1.5 1.5 0 0 0-.597.145c-.93.43-1.258 1.687-.735 2.808.317.676.875 1.145 1.473 1.317v4.898a4.52 4.52 0 0 1-2.812 4.184l-1.657.676s7.719 5.035 15.555-.493l-1.043-.468a5.27 5.27 0 0 1-3.117-4.645l-.008-.957c.527.047 1.039.012 1.508-.125 2.191-.637 2.922-3.16 2.547-6.297l.894-.476a.678.678 0 0 0 .121-1.106"/>
  <path d="M70.656 126.969c2.137 1.05 7.528 3 13.184-.477l-.145-.066a5.84 5.84 0 0 1-3.433-5.117l-.012-.973c0-.152.063-.297.176-.402a.55.55 0 0 1 .414-.141c.48.043.922.008 1.312-.106 2.477-.722 2.332-4.234 2.157-5.71a.545.545 0 0 1 .285-.543l.89-.477a.13.13 0 0 0 .07-.105.13.13 0 0 0-.046-.114l-.176-.152c-.937-.805-1.957-1.777-2.23-3.106-.598-2.91-2.418-4.398-3.461-4.32-.97.074-1.137 1.465-1.164 2.059-.043.933-1.2 1.261-2.325 1.574-.453.125-1.187.332-1.394.508.176.426.324.773.449 1.062.61 1.395.813 1.867-.422 2.528-.203.105-.453.242-.758.433a.56.56 0 0 1-.27.082q-.211.013-.394.094c-.652.305-.867 1.242-.468 2.09.234.508.66.89 1.128 1.027a.54.54 0 0 1 .395.52v4.898a5.04 5.04 0 0 1-3.152 4.684Zm6.387 2.547c-4.531 0-7.883-2.133-7.934-2.168a.54.54 0 0 1 .09-.953l1.656-.676a3.97 3.97 0 0 0 2.477-3.684v-4.523a3 3 0 0 1-1.422-1.465c-.648-1.387-.2-2.973.996-3.527.203-.094.426-.157.656-.184.286-.176.52-.297.711-.402a5 5 0 0 0 .325-.18c-.043-.176-.211-.559-.383-.961a64 64 0 0 1-.48-1.129.96.96 0 0 1 .011-.805c.293-.601 1.137-.836 2.113-1.109.5-.14 1.422-.398 1.543-.61.118-2.69 1.68-3.023 2.157-3.062 1.668-.133 3.91 1.813 4.605 5.184.203.996 1.074 1.816 1.875 2.504l.176.152c.305.262.46.656.418 1.055a1.22 1.22 0 0 1-.637.937l-.57.305c.328 3.5-.746 5.863-2.973 6.512a4.3 4.3 0 0 1-1.113.164l.004.394a4.75 4.75 0 0 0 2.793 4.153l1.047.472c.18.078.3.246.316.442a.54.54 0 0 1-.227.492c-2.863 2.02-5.726 2.672-8.23 2.672"/>
  <path d="M80.793 120.875a1 1 0 0 1-.082-.008c-3.262-.5-4.734-2.996-4.793-3.101a.535.535 0 0 1 .2-.739.535.535 0 0 1 .737.2c.016.027 1.293 2.152 4.02 2.57.297.047.5.32.453.617-.039.27-.27.461-.535.461"/>
</svg>
