<svg xmlns="http://www.w3.org/2000/svg" xmlns:xlink="http://www.w3.org/1999/xlink" width="500" zoomAndPan="magnify" viewBox="0 0 375 374.999991" height="500" preserveAspectRatio="xMidYMid meet" version="1.0"><defs><clipPath id="f9f7e2ba0c"><path d="M 42 37.5 L 337.5 37.5 L 337.5 337.5 L 42 337.5 Z M 42 37.5 " clip-rule="nonzero"/></clipPath><clipPath id="3e95642ef8"><path d="M 42 37.5 L 337.5 37.5 L 337.5 337.5 L 42 337.5 Z M 42 37.5 " clip-rule="nonzero"/></clipPath></defs><path fill="#003b6e" d="M 127.988281 192.082031 L 127.988281 186.285156 C 127.988281 183.726562 129.019531 181.390625 130.714844 179.714844 C 132.390625 178.042969 134.707031 176.988281 137.285156 176.988281 L 138.117188 176.988281 C 138.777344 176.988281 139.367188 176.789062 139.828125 176.457031 C 140.289062 176.105469 140.640625 175.59375 140.824219 174.964844 C 141.355469 173.160156 141.964844 171.394531 142.679688 169.679688 L 142.679688 169.660156 C 143.398438 167.933594 144.203125 166.238281 145.105469 164.617188 C 145.417969 164.046875 145.527344 163.421875 145.4375 162.851562 C 145.367188 162.28125 145.085938 161.726562 144.625 161.265625 C 144.574219 161.207031 144.515625 161.15625 144.457031 161.097656 L 144.035156 160.675781 C 142.230469 158.871094 141.328125 156.484375 141.328125 154.105469 L 141.308594 154.105469 C 141.308594 151.710938 142.210938 149.34375 144.035156 147.539062 L 148.136719 143.433594 C 149.941406 141.609375 152.3125 140.707031 154.707031 140.707031 C 157.085938 140.707031 159.453125 141.609375 161.277344 143.433594 L 161.867188 144.027344 C 162.328125 144.484375 162.882812 144.757812 163.453125 144.835938 C 164.023438 144.929688 164.648438 144.816406 165.21875 144.503906 C 166.835938 143.601562 168.527344 142.792969 170.261719 142.078125 C 171.957031 141.375 173.722656 140.753906 175.558594 140.222656 C 176.183594 140.039062 176.703125 139.6875 177.050781 139.226562 C 177.382812 138.765625 177.585938 138.175781 177.585938 137.515625 L 177.585938 136.683594 C 177.585938 134.105469 178.636719 131.789062 180.3125 130.113281 C 181.984375 128.417969 184.324219 127.386719 186.878906 127.386719 L 192.675781 127.386719 C 195.234375 127.386719 197.574219 128.417969 199.246094 130.113281 C 200.941406 131.789062 201.972656 134.105469 201.972656 136.683594 L 201.972656 137.515625 C 201.972656 138.175781 202.175781 138.765625 202.527344 139.226562 C 202.875 139.6875 203.371094 140.039062 204 140.222656 C 205.835938 140.753906 207.609375 141.382812 209.296875 142.078125 C 211.023438 142.796875 212.71875 143.601562 214.339844 144.503906 C 214.910156 144.816406 215.535156 144.929688 216.105469 144.835938 C 216.675781 144.765625 217.230469 144.484375 217.691406 144.027344 L 218.28125 143.433594 C 220.105469 141.609375 222.472656 140.707031 224.851562 140.707031 C 227.246094 140.707031 229.613281 141.609375 231.4375 143.433594 L 235.542969 147.539062 C 237.347656 149.34375 238.25 151.710938 238.25 154.105469 C 238.25 156.484375 237.347656 158.851562 235.542969 160.675781 C 235.488281 160.726562 235.414062 160.785156 235.359375 160.84375 L 234.9375 161.265625 C 234.476562 161.726562 234.203125 162.28125 234.125 162.851562 C 234.035156 163.421875 234.144531 164.046875 234.457031 164.617188 C 235.359375 166.234375 236.171875 167.925781 236.886719 169.660156 L 236.957031 169.84375 C 237.640625 171.5 238.230469 173.210938 238.742188 174.957031 C 238.925781 175.582031 239.273438 176.101562 239.734375 176.453125 C 240.195312 176.78125 240.789062 176.984375 241.449219 176.984375 L 242.292969 176.984375 C 244.851562 176.984375 247.167969 178.035156 248.863281 179.710938 C 250.539062 181.386719 251.589844 183.722656 251.589844 186.28125 L 251.589844 192.078125 C 251.589844 194.652344 250.539062 196.972656 248.863281 198.644531 C 247.167969 200.339844 244.851562 201.371094 242.292969 201.371094 L 241.449219 201.371094 C 240.789062 201.371094 240.195312 201.574219 239.734375 201.925781 C 239.273438 202.273438 238.925781 202.769531 238.742188 203.398438 C 238.210938 205.234375 237.582031 207.007812 236.886719 208.695312 L 236.816406 208.859375 C 236.113281 210.550781 235.320312 212.1875 234.457031 213.734375 C 234.144531 214.304688 234.035156 214.925781 234.125 215.5 C 234.199219 216.070312 234.476562 216.621094 234.9375 217.082031 C 234.992188 217.140625 235.046875 217.191406 235.105469 217.265625 L 235.527344 217.6875 L 235.546875 217.667969 C 237.351562 219.492188 238.253906 221.859375 238.253906 224.253906 C 238.253906 226.632812 237.351562 229 235.546875 230.824219 L 231.445312 234.929688 C 229.621094 236.734375 227.253906 237.636719 224.875 237.636719 C 222.480469 237.636719 220.113281 236.734375 218.289062 234.929688 C 218.234375 234.875 218.175781 234.796875 218.117188 234.746094 L 217.695312 234.324219 C 217.234375 233.863281 216.683594 233.589844 216.113281 233.511719 C 215.542969 233.421875 214.917969 233.53125 214.347656 233.84375 C 212.730469 234.746094 211.035156 235.558594 209.304688 236.273438 L 209.132812 236.34375 C 207.480469 237.023438 205.765625 237.617188 204 238.128906 C 203.375 238.308594 202.875 238.660156 202.527344 239.121094 C 202.175781 239.582031 201.972656 240.171875 201.972656 240.835938 L 201.972656 241.679688 C 201.972656 244.238281 200.941406 246.554688 199.246094 248.25 C 197.574219 249.921875 195.253906 250.976562 192.675781 250.976562 L 186.878906 250.976562 C 184.324219 250.976562 181.984375 249.921875 180.3125 248.25 C 178.636719 246.554688 177.585938 244.238281 177.585938 241.679688 L 177.585938 240.835938 C 177.585938 240.171875 177.382812 239.582031 177.050781 239.121094 C 176.703125 238.660156 176.1875 238.308594 175.558594 238.128906 C 173.753906 237.597656 171.988281 236.984375 170.273438 236.273438 L 170.253906 236.273438 C 168.527344 235.550781 166.835938 234.746094 165.210938 233.84375 C 164.640625 233.53125 164.015625 233.421875 163.445312 233.511719 C 162.875 233.585938 162.324219 233.863281 161.863281 234.324219 C 161.804688 234.375 161.75 234.433594 161.691406 234.492188 L 161.269531 234.914062 L 161.269531 234.933594 C 159.445312 236.738281 157.078125 237.640625 154.703125 237.640625 C 152.304688 237.640625 149.9375 236.738281 148.132812 234.933594 L 144.03125 230.832031 C 142.207031 229.007812 141.304688 226.636719 141.304688 224.261719 C 141.304688 221.867188 142.207031 219.496094 144.03125 217.671875 L 144.621094 217.082031 C 145.082031 216.621094 145.355469 216.070312 145.429688 215.5 C 145.523438 214.925781 145.410156 214.304688 145.101562 213.734375 C 144.21875 212.128906 143.40625 210.453125 142.671875 208.6875 C 141.972656 206.996094 141.347656 205.230469 140.816406 203.390625 C 140.632812 202.769531 140.285156 202.269531 139.824219 201.917969 C 139.363281 201.566406 138.769531 201.367188 138.109375 201.367188 L 137.277344 201.367188 C 134.699219 201.367188 132.382812 200.335938 130.707031 198.640625 C 129.015625 196.976562 127.988281 194.660156 127.988281 192.082031 Z M 205.734375 173.226562 C 201.648438 169.140625 195.996094 166.617188 189.777344 166.617188 C 183.539062 166.617188 177.890625 169.136719 173.804688 173.226562 C 169.722656 177.308594 167.199219 182.960938 167.199219 189.195312 C 167.199219 195.425781 169.714844 201.0625 173.804688 205.152344 C 177.894531 209.242188 183.542969 211.773438 189.777344 211.773438 C 195.996094 211.773438 201.644531 209.234375 205.730469 205.152344 C 209.820312 201.066406 212.355469 195.414062 212.355469 189.195312 C 212.355469 182.957031 209.816406 177.308594 205.734375 173.226562 Z M 189.90625 115.976562 C 189.847656 115.976562 189.816406 115.976562 189.777344 115.976562 C 189.722656 115.976562 189.683594 115.976562 189.644531 115.976562 C 169.476562 116.015625 151.203125 124.179688 137.992188 137.410156 C 124.742188 150.660156 116.554688 168.964844 116.554688 189.195312 C 116.554688 209.394531 124.742188 227.710938 137.992188 240.957031 C 151.242188 254.207031 169.546875 262.414062 189.777344 262.414062 C 209.976562 262.414062 228.289062 254.207031 241.539062 240.957031 C 254.789062 227.710938 262.996094 209.402344 262.996094 189.195312 C 262.996094 168.972656 254.789062 150.660156 241.539062 137.410156 C 228.328125 124.179688 210.074219 116.015625 189.90625 115.976562 Z M 91.460938 214.679688 C 89.382812 212.601562 86.492188 211.3125 83.304688 211.3125 C 80.136719 211.3125 77.25 212.597656 75.171875 214.679688 C 73.09375 216.777344 71.785156 219.648438 71.785156 222.835938 C 71.785156 226.019531 73.089844 228.890625 75.171875 230.988281 C 77.25 233.066406 80.136719 234.355469 83.304688 234.355469 C 86.488281 234.355469 89.375 233.070312 91.460938 230.988281 C 93.539062 228.890625 94.828125 226.019531 94.828125 222.835938 C 94.828125 219.648438 93.539062 216.777344 91.460938 214.679688 Z M 304.367188 214.679688 C 302.289062 212.601562 299.414062 211.3125 296.234375 211.3125 C 293.050781 211.3125 290.164062 212.597656 288.078125 214.679688 C 286 216.777344 284.710938 219.648438 284.710938 222.835938 C 284.710938 226.019531 285.996094 228.890625 288.078125 230.988281 C 290.15625 233.066406 293.046875 234.355469 296.234375 234.355469 C 299.414062 234.355469 302.289062 233.070312 304.367188 230.988281 C 306.464844 228.890625 307.753906 226.019531 307.753906 222.835938 C 307.753906 219.648438 306.464844 216.777344 304.367188 214.679688 Z M 210.335938 67.066406 L 169.210938 67.066406 L 169.210938 85.503906 L 210.335938 85.503906 Z M 210.335938 292.886719 L 169.210938 292.886719 L 169.210938 311.320312 L 210.335938 311.320312 Z M 113.296875 185.941406 C 115.101562 185.941406 116.554688 187.394531 116.554688 189.199219 C 116.554688 190.984375 115.101562 192.441406 113.296875 192.441406 L 86.566406 192.441406 L 86.566406 205.851562 C 86.566406 207.65625 85.109375 209.109375 83.304688 209.109375 C 81.519531 209.109375 80.066406 207.65625 80.066406 205.851562 L 80.066406 189.199219 C 80.066406 187.394531 81.519531 185.941406 83.304688 185.941406 Z M 186.523438 88.742188 C 186.523438 86.957031 187.976562 85.503906 189.78125 85.503906 C 191.566406 85.503906 193.023438 86.957031 193.023438 88.742188 L 193.023438 112.722656 C 193.023438 114.527344 191.566406 115.980469 189.78125 115.980469 C 187.976562 115.980469 186.523438 114.527344 186.523438 112.722656 Z M 186.523438 265.652344 C 186.523438 263.867188 187.976562 262.414062 189.78125 262.414062 C 191.566406 262.414062 193.023438 263.867188 193.023438 265.652344 L 193.023438 289.632812 C 193.023438 291.4375 191.566406 292.890625 189.78125 292.890625 C 187.976562 292.890625 186.523438 291.4375 186.523438 289.632812 Z M 266.234375 192.433594 C 264.449219 192.433594 262.996094 190.980469 262.996094 189.195312 C 262.996094 187.390625 264.449219 185.933594 266.234375 185.933594 L 296.226562 185.933594 C 298.011719 185.933594 299.464844 187.390625 299.464844 189.195312 L 299.464844 205.84375 C 299.464844 207.648438 298.011719 209.105469 296.226562 209.105469 C 294.421875 209.105469 292.96875 207.648438 292.96875 205.84375 L 292.96875 192.433594 Z M 266.234375 192.433594 " fill-opacity="1" fill-rule="nonzero"/><g clip-path="url(#f9f7e2ba0c)"><path fill="#08a6d0" d="M 259.152344 310.777344 C 302.820312 285.804688 329.742188 239.582031 329.742188 189.195312 C 329.742188 148.402344 312.1875 110.066406 281.4375 83.40625 L 281.199219 90.695312 C 281.125 92.832031 279.339844 94.527344 277.207031 94.449219 C 275.050781 94.390625 273.363281 92.59375 273.433594 90.457031 L 273.933594 75.371094 C 273.953125 73.785156 274.886719 72.421875 276.308594 71.820312 L 276.308594 71.765625 L 291.855469 68.144531 C 293.933594 67.664062 296.03125 68.976562 296.53125 71.054688 C 297.011719 73.128906 295.699219 75.226562 293.621094 75.726562 L 286.371094 77.421875 C 318.886719 105.535156 337.527344 146.136719 337.527344 189.207031 C 337.527344 242.554688 308.859375 291.574219 262.5 317.832031 C 264.558594 327.902344 256.875 337.449219 246.511719 337.449219 C 237.496094 337.449219 230.191406 330.148438 230.191406 321.128906 C 230.191406 312.113281 237.496094 304.8125 246.511719 304.8125 C 251.441406 304.796875 256.042969 306.984375 259.152344 310.777344 Z M 127.136719 63.96875 C 79.753906 87.730469 49.796875 136.105469 49.796875 189.195312 C 49.796875 237.828125 74.859375 282.65625 116.097656 308.230469 L 116.097656 299.839844 C 116.097656 297.683594 117.84375 295.957031 119.996094 295.957031 C 122.152344 295.957031 123.878906 297.683594 123.878906 299.839844 L 123.878906 315.023438 C 123.878906 316.859375 122.605469 318.441406 120.808594 318.832031 L 106.195312 322.753906 C 104.136719 323.304688 101.984375 322.050781 101.429688 319.996094 C 100.878906 317.9375 102.113281 315.78125 104.191406 315.230469 L 110.117188 313.644531 C 67.699219 286.445312 42.011719 239.707031 42.011719 189.195312 C 42.011719 133.035156 73.738281 81.953125 123.898438 56.925781 C 121.984375 46.917969 129.65625 37.53125 139.925781 37.53125 C 148.945312 37.53125 156.246094 44.832031 156.246094 53.851562 C 156.246094 62.867188 148.945312 70.167969 139.925781 70.167969 C 134.921875 70.175781 130.226562 67.890625 127.136719 63.96875 Z M 230.515625 157.457031 C 228.019531 160.183594 227.539062 164.15625 229.34375 167.429688 C 230.925781 170.335938 232.210938 173.40625 233.132812 176.59375 C 234.21875 180.3125 237.546875 182.832031 241.429688 182.832031 L 242.273438 182.832031 C 244.167969 182.832031 245.714844 184.398438 245.714844 186.292969 L 245.714844 192.089844 C 245.714844 193.011719 245.34375 193.894531 244.703125 194.535156 C 243.6875 195.550781 242.753906 195.550781 241.421875 195.550781 C 237.542969 195.550781 234.210938 198.070312 233.128906 201.789062 C 232.207031 204.96875 230.921875 208.046875 229.335938 210.953125 C 227.460938 214.34375 228.050781 218.496094 230.789062 221.222656 L 231.855469 222.277344 L 231.804688 222.335938 C 232.707031 223.679688 232.574219 225.535156 231.382812 226.714844 L 227.277344 230.820312 C 226.636719 231.460938 225.753906 231.832031 224.851562 231.832031 C 223.414062 231.832031 222.734375 231.167969 221.792969 230.226562 L 221.515625 229.949219 C 218.773438 227.441406 214.792969 226.96875 211.523438 228.773438 C 208.613281 230.359375 205.542969 231.644531 202.355469 232.566406 C 198.636719 233.648438 196.117188 236.980469 196.117188 240.863281 L 196.117188 241.707031 C 196.117188 243.601562 194.554688 245.144531 192.660156 245.144531 L 186.859375 245.144531 C 185.9375 245.144531 185.074219 244.777344 184.414062 244.132812 C 183.402344 243.121094 183.402344 242.1875 183.402344 240.855469 C 183.402344 236.972656 180.882812 233.644531 177.164062 232.558594 C 175.578125 232.097656 174.015625 231.546875 172.488281 230.921875 L 171.878906 230.664062 C 170.554688 230.089844 169.261719 229.449219 167.996094 228.765625 C 164.609375 226.890625 160.472656 227.480469 157.726562 230.222656 L 156.695312 231.273438 L 156.636719 231.214844 C 155.292969 232.136719 153.4375 232.007812 152.242188 230.8125 L 148.136719 226.710938 C 147.496094 226.066406 147.125 225.183594 147.125 224.28125 C 147.125 222.828125 147.789062 222.183594 148.742188 221.222656 C 151.46875 218.496094 152.054688 214.34375 150.195312 210.953125 L 150.175781 210.933594 L 147.75 205.871094 L 147.789062 205.851562 C 147.253906 204.527344 146.792969 203.164062 146.390625 201.789062 C 145.308594 198.070312 141.976562 195.550781 138.097656 195.550781 L 137.265625 195.550781 C 135.351562 195.550781 133.804688 193.984375 133.804688 192.089844 L 133.804688 186.292969 C 133.804688 185.371094 134.175781 184.507812 134.816406 183.863281 C 135.851562 182.832031 136.765625 182.832031 138.097656 182.832031 C 141.976562 182.832031 145.308594 180.3125 146.390625 176.59375 C 146.851562 175.011719 147.40625 173.445312 148.027344 171.921875 L 148.289062 171.308594 C 148.859375 169.984375 149.5 168.695312 150.203125 167.429688 C 152.058594 164.039062 151.476562 159.902344 148.75 157.15625 L 147.695312 156.144531 L 147.734375 156.09375 C 147.347656 155.523438 147.125 154.820312 147.125 154.125 L 147.125 153.464844 L 147.195312 153.464844 C 147.328125 152.800781 147.640625 152.179688 148.136719 151.679688 L 152.242188 147.578125 C 152.882812 146.933594 153.765625 146.5625 154.6875 146.5625 C 156.125 146.5625 156.785156 147.226562 157.726562 148.179688 C 160.464844 150.90625 164.609375 151.492188 167.996094 149.632812 C 170.886719 148.03125 173.996094 146.746094 177.164062 145.824219 C 180.882812 144.738281 183.402344 141.410156 183.402344 137.527344 L 183.402344 136.695312 C 183.402344 134.78125 184.964844 133.234375 186.859375 133.234375 L 192.660156 133.234375 C 193.582031 133.234375 194.464844 133.605469 195.105469 134.25 C 196.117188 135.28125 196.117188 136.195312 196.117188 137.527344 C 196.117188 141.410156 198.636719 144.738281 202.355469 145.824219 C 205.523438 146.746094 208.632812 148.03125 211.523438 149.632812 C 214.910156 151.492188 219.066406 150.90625 221.792969 148.179688 L 222.402344 147.570312 C 223.746094 146.226562 225.933594 146.226562 227.277344 147.570312 L 231.382812 151.671875 C 232.023438 152.316406 232.394531 153.199219 232.394531 154.121094 C 232.394531 155.535156 231.730469 156.214844 230.789062 157.15625 Z M 189.777344 160.765625 C 174.078125 160.765625 161.34375 173.503906 161.34375 189.199219 C 161.34375 204.898438 174.078125 217.613281 189.777344 217.613281 C 205.472656 217.613281 218.191406 204.898438 218.191406 189.199219 C 218.191406 173.496094 205.472656 160.765625 189.777344 160.765625 Z M 189.777344 160.765625 " fill-opacity="1" fill-rule="evenodd"/></g><path fill="#003b6e" d="M 127.988281 192.082031 L 127.988281 186.285156 C 127.988281 183.726562 129.019531 181.390625 130.714844 179.714844 C 132.390625 178.042969 134.707031 176.988281 137.285156 176.988281 L 138.117188 176.988281 C 138.777344 176.988281 139.367188 176.789062 139.828125 176.457031 C 140.289062 176.105469 140.640625 175.59375 140.824219 174.964844 C 141.355469 173.160156 141.964844 171.394531 142.679688 169.679688 L 142.679688 169.660156 C 143.398438 167.933594 144.203125 166.238281 145.105469 164.617188 C 145.417969 164.046875 145.527344 163.421875 145.4375 162.851562 C 145.367188 162.28125 145.085938 161.726562 144.625 161.265625 C 144.574219 161.207031 144.515625 161.15625 144.457031 161.097656 L 144.035156 160.675781 C 142.230469 158.871094 141.328125 156.484375 141.328125 154.105469 L 141.308594 154.105469 C 141.308594 151.710938 142.210938 149.34375 144.035156 147.539062 L 148.136719 143.433594 C 149.941406 141.609375 152.3125 140.707031 154.707031 140.707031 C 157.085938 140.707031 159.453125 141.609375 161.277344 143.433594 L 161.867188 144.027344 C 162.328125 144.484375 162.882812 144.757812 163.453125 144.835938 C 164.023438 144.929688 164.648438 144.816406 165.21875 144.503906 C 166.835938 143.601562 168.527344 142.792969 170.261719 142.078125 C 171.957031 141.375 173.722656 140.753906 175.558594 140.222656 C 176.183594 140.039062 176.703125 139.6875 177.050781 139.226562 C 177.382812 138.765625 177.585938 138.175781 177.585938 137.515625 L 177.585938 136.683594 C 177.585938 134.105469 178.636719 131.789062 180.3125 130.113281 C 181.984375 128.417969 184.324219 127.386719 186.878906 127.386719 L 192.675781 127.386719 C 195.234375 127.386719 197.574219 128.417969 199.246094 130.113281 C 200.941406 131.789062 201.972656 134.105469 201.972656 136.683594 L 201.972656 137.515625 C 201.972656 138.175781 202.175781 138.765625 202.527344 139.226562 C 202.875 139.6875 203.371094 140.039062 204 140.222656 C 205.835938 140.753906 207.609375 141.382812 209.296875 142.078125 C 211.023438 142.796875 212.71875 143.601562 214.339844 144.503906 C 214.910156 144.816406 215.535156 144.929688 216.105469 144.835938 C 216.675781 144.765625 217.230469 144.484375 217.691406 144.027344 L 218.28125 143.433594 C 220.105469 141.609375 222.472656 140.707031 224.851562 140.707031 C 227.246094 140.707031 229.613281 141.609375 231.4375 143.433594 L 235.542969 147.539062 C 237.347656 149.34375 238.25 151.710938 238.25 154.105469 C 238.25 156.484375 237.347656 158.851562 235.542969 160.675781 C 235.488281 160.726562 235.414062 160.785156 235.359375 160.84375 L 234.9375 161.265625 C 234.476562 161.726562 234.203125 162.28125 234.125 162.851562 C 234.035156 163.421875 234.144531 164.046875 234.457031 164.617188 C 235.359375 166.234375 236.171875 167.925781 236.886719 169.660156 L 236.957031 169.84375 C 237.640625 171.5 238.230469 173.210938 238.742188 174.957031 C 238.925781 175.582031 239.273438 176.101562 239.734375 176.453125 C 240.195312 176.78125 240.789062 176.984375 241.449219 176.984375 L 242.292969 176.984375 C 244.851562 176.984375 247.167969 178.035156 248.863281 179.710938 C 250.539062 181.386719 251.589844 183.722656 251.589844 186.28125 L 251.589844 192.078125 C 251.589844 194.652344 250.539062 196.972656 248.863281 198.644531 C 247.167969 200.339844 244.851562 201.371094 242.292969 201.371094 L 241.449219 201.371094 C 240.789062 201.371094 240.195312 201.574219 239.734375 201.925781 C 239.273438 202.273438 238.925781 202.769531 238.742188 203.398438 C 238.210938 205.234375 237.582031 207.007812 236.886719 208.695312 L 236.816406 208.859375 C 236.113281 210.550781 235.320312 212.1875 234.457031 213.734375 C 234.144531 214.304688 234.035156 214.925781 234.125 215.5 C 234.199219 216.070312 234.476562 216.621094 234.9375 217.082031 C 234.992188 217.140625 235.046875 217.191406 235.105469 217.265625 L 235.527344 217.6875 L 235.546875 217.667969 C 237.351562 219.492188 238.253906 221.859375 238.253906 224.253906 C 238.253906 226.632812 237.351562 229 235.546875 230.824219 L 231.445312 234.929688 C 229.621094 236.734375 227.253906 237.636719 224.875 237.636719 C 222.480469 237.636719 220.113281 236.734375 218.289062 234.929688 C 218.234375 234.875 218.175781 234.796875 218.117188 234.746094 L 217.695312 234.324219 C 217.234375 233.863281 216.683594 233.589844 216.113281 233.511719 C 215.542969 233.421875 214.917969 233.53125 214.347656 233.84375 C 212.730469 234.746094 211.035156 235.558594 209.304688 236.273438 L 209.132812 236.34375 C 207.480469 237.023438 205.765625 237.617188 204 238.128906 C 203.375 238.308594 202.875 238.660156 202.527344 239.121094 C 202.175781 239.582031 201.972656 240.171875 201.972656 240.835938 L 201.972656 241.679688 C 201.972656 244.238281 200.941406 246.554688 199.246094 248.25 C 197.574219 249.921875 195.253906 250.976562 192.675781 250.976562 L 186.878906 250.976562 C 184.324219 250.976562 181.984375 249.921875 180.3125 248.25 C 178.636719 246.554688 177.585938 244.238281 177.585938 241.679688 L 177.585938 240.835938 C 177.585938 240.171875 177.382812 239.582031 177.050781 239.121094 C 176.703125 238.660156 176.1875 238.308594 175.558594 238.128906 C 173.753906 237.597656 171.988281 236.984375 170.273438 236.273438 L 170.253906 236.273438 C 168.527344 235.550781 166.835938 234.746094 165.210938 233.84375 C 164.640625 233.53125 164.015625 233.421875 163.445312 233.511719 C 162.875 233.585938 162.324219 233.863281 161.863281 234.324219 C 161.804688 234.375 161.75 234.433594 161.691406 234.492188 L 161.269531 234.914062 L 161.269531 234.933594 C 159.445312 236.738281 157.078125 237.640625 154.703125 237.640625 C 152.304688 237.640625 149.9375 236.738281 148.132812 234.933594 L 144.03125 230.832031 C 142.207031 229.007812 141.304688 226.636719 141.304688 224.261719 C 141.304688 221.867188 142.207031 219.496094 144.03125 217.671875 L 144.621094 217.082031 C 145.082031 216.621094 145.355469 216.070312 145.429688 215.5 C 145.523438 214.925781 145.410156 214.304688 145.101562 213.734375 C 144.21875 212.128906 143.40625 210.453125 142.671875 208.6875 C 141.972656 206.996094 141.347656 205.230469 140.816406 203.390625 C 140.632812 202.769531 140.285156 202.269531 139.824219 201.917969 C 139.363281 201.566406 138.769531 201.367188 138.109375 201.367188 L 137.277344 201.367188 C 134.699219 201.367188 132.382812 200.335938 130.707031 198.640625 C 129.015625 196.976562 127.988281 194.660156 127.988281 192.082031 Z M 205.734375 173.226562 C 201.648438 169.140625 195.996094 166.617188 189.777344 166.617188 C 183.539062 166.617188 177.890625 169.136719 173.804688 173.226562 C 169.722656 177.308594 167.199219 182.960938 167.199219 189.195312 C 167.199219 195.425781 169.714844 201.0625 173.804688 205.152344 C 177.894531 209.242188 183.542969 211.773438 189.777344 211.773438 C 195.996094 211.773438 201.644531 209.234375 205.730469 205.152344 C 209.820312 201.066406 212.355469 195.414062 212.355469 189.195312 C 212.355469 182.957031 209.816406 177.308594 205.734375 173.226562 Z M 189.90625 115.976562 C 189.847656 115.976562 189.816406 115.976562 189.777344 115.976562 C 189.722656 115.976562 189.683594 115.976562 189.644531 115.976562 C 169.476562 116.015625 151.203125 124.179688 137.992188 137.410156 C 124.742188 150.660156 116.554688 168.964844 116.554688 189.195312 C 116.554688 209.394531 124.742188 227.710938 137.992188 240.957031 C 151.242188 254.207031 169.546875 262.414062 189.777344 262.414062 C 209.976562 262.414062 228.289062 254.207031 241.539062 240.957031 C 254.789062 227.710938 262.996094 209.402344 262.996094 189.195312 C 262.996094 168.972656 254.789062 150.660156 241.539062 137.410156 C 228.328125 124.179688 210.074219 116.015625 189.90625 115.976562 Z M 91.460938 214.679688 C 89.382812 212.601562 86.492188 211.3125 83.304688 211.3125 C 80.136719 211.3125 77.25 212.597656 75.171875 214.679688 C 73.09375 216.777344 71.785156 219.648438 71.785156 222.835938 C 71.785156 226.019531 73.089844 228.890625 75.171875 230.988281 C 77.25 233.066406 80.136719 234.355469 83.304688 234.355469 C 86.488281 234.355469 89.375 233.070312 91.460938 230.988281 C 93.539062 228.890625 94.828125 226.019531 94.828125 222.835938 C 94.828125 219.648438 93.539062 216.777344 91.460938 214.679688 Z M 304.367188 214.679688 C 302.289062 212.601562 299.414062 211.3125 296.234375 211.3125 C 293.050781 211.3125 290.164062 212.597656 288.078125 214.679688 C 286 216.777344 284.710938 219.648438 284.710938 222.835938 C 284.710938 226.019531 285.996094 228.890625 288.078125 230.988281 C 290.15625 233.066406 293.046875 234.355469 296.234375 234.355469 C 299.414062 234.355469 302.289062 233.070312 304.367188 230.988281 C 306.464844 228.890625 307.753906 226.019531 307.753906 222.835938 C 307.753906 219.648438 306.464844 216.777344 304.367188 214.679688 Z M 210.335938 67.066406 L 169.210938 67.066406 L 169.210938 85.503906 L 210.335938 85.503906 Z M 210.335938 292.886719 L 169.210938 292.886719 L 169.210938 311.320312 L 210.335938 311.320312 Z M 113.296875 185.941406 C 115.101562 185.941406 116.554688 187.394531 116.554688 189.199219 C 116.554688 190.984375 115.101562 192.441406 113.296875 192.441406 L 86.566406 192.441406 L 86.566406 205.851562 C 86.566406 207.65625 85.109375 209.109375 83.304688 209.109375 C 81.519531 209.109375 80.066406 207.65625 80.066406 205.851562 L 80.066406 189.199219 C 80.066406 187.394531 81.519531 185.941406 83.304688 185.941406 Z M 186.523438 88.742188 C 186.523438 86.957031 187.976562 85.503906 189.78125 85.503906 C 191.566406 85.503906 193.023438 86.957031 193.023438 88.742188 L 193.023438 112.722656 C 193.023438 114.527344 191.566406 115.980469 189.78125 115.980469 C 187.976562 115.980469 186.523438 114.527344 186.523438 112.722656 Z M 186.523438 265.652344 C 186.523438 263.867188 187.976562 262.414062 189.78125 262.414062 C 191.566406 262.414062 193.023438 263.867188 193.023438 265.652344 L 193.023438 289.632812 C 193.023438 291.4375 191.566406 292.890625 189.78125 292.890625 C 187.976562 292.890625 186.523438 291.4375 186.523438 289.632812 Z M 266.234375 192.433594 C 264.449219 192.433594 262.996094 190.980469 262.996094 189.195312 C 262.996094 187.390625 264.449219 185.933594 266.234375 185.933594 L 296.226562 185.933594 C 298.011719 185.933594 299.464844 187.390625 299.464844 189.195312 L 299.464844 205.84375 C 299.464844 207.648438 298.011719 209.105469 296.226562 209.105469 C 294.421875 209.105469 292.96875 207.648438 292.96875 205.84375 L 292.96875 192.433594 Z M 266.234375 192.433594 " fill-opacity="1" fill-rule="nonzero"/><g clip-path="url(#3e95642ef8)"><path fill="#08a6d0" d="M 259.152344 310.777344 C 302.820312 285.804688 329.742188 239.582031 329.742188 189.195312 C 329.742188 148.402344 312.1875 110.066406 281.4375 83.40625 L 281.199219 90.695312 C 281.125 92.832031 279.339844 94.527344 277.207031 94.449219 C 275.050781 94.390625 273.363281 92.59375 273.433594 90.457031 L 273.933594 75.371094 C 273.953125 73.785156 274.886719 72.421875 276.308594 71.820312 L 276.308594 71.765625 L 291.855469 68.144531 C 293.933594 67.664062 296.03125 68.976562 296.53125 71.054688 C 297.011719 73.128906 295.699219 75.226562 293.621094 75.726562 L 286.371094 77.421875 C 318.886719 105.535156 337.527344 146.136719 337.527344 189.207031 C 337.527344 242.554688 308.859375 291.574219 262.5 317.832031 C 264.558594 327.902344 256.875 337.449219 246.511719 337.449219 C 237.496094 337.449219 230.191406 330.148438 230.191406 321.128906 C 230.191406 312.113281 237.496094 304.8125 246.511719 304.8125 C 251.441406 304.796875 256.042969 306.984375 259.152344 310.777344 Z M 127.136719 63.96875 C 79.753906 87.730469 49.796875 136.105469 49.796875 189.195312 C 49.796875 237.828125 74.859375 282.65625 116.097656 308.230469 L 116.097656 299.839844 C 116.097656 297.683594 117.84375 295.957031 119.996094 295.957031 C 122.152344 295.957031 123.878906 297.683594 123.878906 299.839844 L 123.878906 315.023438 C 123.878906 316.859375 122.605469 318.441406 120.808594 318.832031 L 106.195312 322.753906 C 104.136719 323.304688 101.984375 322.050781 101.429688 319.996094 C 100.878906 317.9375 102.113281 315.78125 104.191406 315.230469 L 110.117188 313.644531 C 67.699219 286.445312 42.011719 239.707031 42.011719 189.195312 C 42.011719 133.035156 73.738281 81.953125 123.898438 56.925781 C 121.984375 46.917969 129.65625 37.53125 139.925781 37.53125 C 148.945312 37.53125 156.246094 44.832031 156.246094 53.851562 C 156.246094 62.867188 148.945312 70.167969 139.925781 70.167969 C 134.921875 70.175781 130.226562 67.890625 127.136719 63.96875 Z M 230.515625 157.457031 C 228.019531 160.183594 227.539062 164.15625 229.34375 167.429688 C 230.925781 170.335938 232.210938 173.40625 233.132812 176.59375 C 234.21875 180.3125 237.546875 182.832031 241.429688 182.832031 L 242.273438 182.832031 C 244.167969 182.832031 245.714844 184.398438 245.714844 186.292969 L 245.714844 192.089844 C 245.714844 193.011719 245.34375 193.894531 244.703125 194.535156 C 243.6875 195.550781 242.753906 195.550781 241.421875 195.550781 C 237.542969 195.550781 234.210938 198.070312 233.128906 201.789062 C 232.207031 204.96875 230.921875 208.046875 229.335938 210.953125 C 227.460938 214.34375 228.050781 218.496094 230.789062 221.222656 L 231.855469 222.277344 L 231.804688 222.335938 C 232.707031 223.679688 232.574219 225.535156 231.382812 226.714844 L 227.277344 230.820312 C 226.636719 231.460938 225.753906 231.832031 224.851562 231.832031 C 223.414062 231.832031 222.734375 231.167969 221.792969 230.226562 L 221.515625 229.949219 C 218.773438 227.441406 214.792969 226.96875 211.523438 228.773438 C 208.613281 230.359375 205.542969 231.644531 202.355469 232.566406 C 198.636719 233.648438 196.117188 236.980469 196.117188 240.863281 L 196.117188 241.707031 C 196.117188 243.601562 194.554688 245.144531 192.660156 245.144531 L 186.859375 245.144531 C 185.9375 245.144531 185.074219 244.777344 184.414062 244.132812 C 183.402344 243.121094 183.402344 242.1875 183.402344 240.855469 C 183.402344 236.972656 180.882812 233.644531 177.164062 232.558594 C 175.578125 232.097656 174.015625 231.546875 172.488281 230.921875 L 171.878906 230.664062 C 170.554688 230.089844 169.261719 229.449219 167.996094 228.765625 C 164.609375 226.890625 160.472656 227.480469 157.726562 230.222656 L 156.695312 231.273438 L 156.636719 231.214844 C 155.292969 232.136719 153.4375 232.007812 152.242188 230.8125 L 148.136719 226.710938 C 147.496094 226.066406 147.125 225.183594 147.125 224.28125 C 147.125 222.828125 147.789062 222.183594 148.742188 221.222656 C 151.46875 218.496094 152.054688 214.34375 150.195312 210.953125 L 150.175781 210.933594 L 147.75 205.871094 L 147.789062 205.851562 C 147.253906 204.527344 146.792969 203.164062 146.390625 201.789062 C 145.308594 198.070312 141.976562 195.550781 138.097656 195.550781 L 137.265625 195.550781 C 135.351562 195.550781 133.804688 193.984375 133.804688 192.089844 L 133.804688 186.292969 C 133.804688 185.371094 134.175781 184.507812 134.816406 183.863281 C 135.851562 182.832031 136.765625 182.832031 138.097656 182.832031 C 141.976562 182.832031 145.308594 180.3125 146.390625 176.59375 C 146.851562 175.011719 147.40625 173.445312 148.027344 171.921875 L 148.289062 171.308594 C 148.859375 169.984375 149.5 168.695312 150.203125 167.429688 C 152.058594 164.039062 151.476562 159.902344 148.75 157.15625 L 147.695312 156.144531 L 147.734375 156.09375 C 147.347656 155.523438 147.125 154.820312 147.125 154.125 L 147.125 153.464844 L 147.195312 153.464844 C 147.328125 152.800781 147.640625 152.179688 148.136719 151.679688 L 152.242188 147.578125 C 152.882812 146.933594 153.765625 146.5625 154.6875 146.5625 C 156.125 146.5625 156.785156 147.226562 157.726562 148.179688 C 160.464844 150.90625 164.609375 151.492188 167.996094 149.632812 C 170.886719 148.03125 173.996094 146.746094 177.164062 145.824219 C 180.882812 144.738281 183.402344 141.410156 183.402344 137.527344 L 183.402344 136.695312 C 183.402344 134.78125 184.964844 133.234375 186.859375 133.234375 L 192.660156 133.234375 C 193.582031 133.234375 194.464844 133.605469 195.105469 134.25 C 196.117188 135.28125 196.117188 136.195312 196.117188 137.527344 C 196.117188 141.410156 198.636719 144.738281 202.355469 145.824219 C 205.523438 146.746094 208.632812 148.03125 211.523438 149.632812 C 214.910156 151.492188 219.066406 150.90625 221.792969 148.179688 L 222.402344 147.570312 C 223.746094 146.226562 225.933594 146.226562 227.277344 147.570312 L 231.382812 151.671875 C 232.023438 152.316406 232.394531 153.199219 232.394531 154.121094 C 232.394531 155.535156 231.730469 156.214844 230.789062 157.15625 Z M 189.777344 160.765625 C 174.078125 160.765625 161.34375 173.503906 161.34375 189.199219 C 161.34375 204.898438 174.078125 217.613281 189.777344 217.613281 C 205.472656 217.613281 218.191406 204.898438 218.191406 189.199219 C 218.191406 173.496094 205.472656 160.765625 189.777344 160.765625 Z M 189.777344 160.765625 " fill-opacity="1" fill-rule="evenodd"/></g></svg>