<svg xmlns="http://www.w3.org/2000/svg" width="500" height="500" viewBox="0 0 375 375">
  <path fill="#caddff" d="M178.742 106.613c21.953-7.5 21.535-16.273 39.774-20.582 25.132-5.937 58.855 2.95 68.57 23.621 6.937 14.758-4.477 22.528-6.629 56.59-2.418 38.281 10.902 45.723 4.8 65.48-9.812 31.766-55.839 49.344-92.112 48.41-11.688-.3-53.551-3.339-79.543-38.116-32.579-43.594-22.075-112.774 5.714-128.621 15.754-8.989 28.243 3.867 59.426-6.782"/>
  <path fill="#fff" d="M220.832 120.027c5.863-10.113 18.828-13.57 28.957-7.715 10.133 5.856 13.59 18.801 7.727 28.918-5.864 10.114-18.829 13.567-28.957 7.711-10.13-5.851-13.59-18.796-7.727-28.914m-13.977-1.047a34 34 0 0 0-1.5 5.528l-8.761 1.965-.012 8.218 8.773 1.989a34 34 0 0 0 1.477 5.523l-6.617 6.086 4.11 7.125 8.577-2.656a34 34 0 0 0 4.059 4.047l-2.68 8.57 7.121 4.117 6.11-6.59c1.82.657 3.668 1.16 5.535 1.496l1.965 8.75 8.234.008 1.988-8.758a34.3 34.3 0 0 0 5.536-1.472l6.093 6.605 7.133-4.101-2.66-8.567a34 34 0 0 0 4.05-4.05l8.583 2.675 4.125-7.113-6.602-6.098a34 34 0 0 0 1.5-5.527l8.766-1.965.008-8.222-8.77-1.985a34.4 34.4 0 0 0-1.48-5.527l6.617-6.086-4.11-7.121-8.578 2.656a33.7 33.7 0 0 0-4.058-4.047l2.683-8.57-7.125-4.121-6.105 6.593a34 34 0 0 0-5.54-1.496l-1.964-8.754-8.234-.007-1.985 8.761a34.3 34.3 0 0 0-5.535 1.473l-6.094-6.605-7.133 4.101 2.657 8.567a34 34 0 0 0-4.051 4.05l-8.582-2.675-4.125 7.113z"/>
  <path d="m257.988 134.715-139.172-5.367c-3.308 0-6 2.691-6 5.996v97.011a6.003 6.003 0 0 0 6 5.997l50.29-3.403-6.458 23.531-6.832.055a3.865 3.865 0 0 0-3.863 3.856 3.866 3.866 0 0 0 3.863 3.859l57.211-2.727c2.13 0-1.859-25.171-1.859-25.171s50.129-103.637 46.82-103.637"/>
  <path fill="#fff" d="M210.27 225.95H174.78l-10.066 36.695h55.62z"/>
  <path d="M165.18 262.29h54.691L210 226.3h-34.95Zm55.156.706h-55.621a.353.353 0 0 1-.344-.445l10.066-36.696a.36.36 0 0 1 .344-.261h35.489c.16 0 .3.11.343.261l10.067 36.696a.34.34 0 0 1-.063.304.34.34 0 0 1-.281.141"/>
  <path fill="#fff" d="M263.379 129.688H121.672a5.66 5.66 0 0 0-5.66 5.656v97.011a5.66 5.66 0 0 0 5.66 5.657h141.707a5.656 5.656 0 0 0 5.66-5.657v-97.011a5.656 5.656 0 0 0-5.66-5.656"/>
  <path d="M121.672 130.043c-2.926 0-5.309 2.379-5.309 5.3v97.016c0 2.922 2.383 5.301 5.309 5.301h141.703c2.93 0 5.313-2.379 5.313-5.3v-97.016c0-2.922-2.383-5.301-5.313-5.301Zm141.703 108.324H121.672c-3.317 0-6.016-2.695-6.016-6.008v-97.015c0-3.313 2.7-6.008 6.016-6.008h141.703c3.32 0 6.02 2.695 6.02 6.008v97.015c0 3.313-2.7 6.008-6.02 6.008"/>
  <path fill="#fff" d="M226.379 258.875h-67.707a3.52 3.52 0 0 0-3.524 3.516 3.52 3.52 0 0 0 3.524 3.52h67.707a3.52 3.52 0 0 0 3.523-3.52 3.52 3.52 0 0 0-3.523-3.516"/>
  <path d="M158.672 259.227a3.17 3.17 0 0 0-3.168 3.164 3.17 3.17 0 0 0 3.168 3.168h67.707a3.17 3.17 0 0 0 3.168-3.168 3.17 3.17 0 0 0-3.168-3.164Zm67.707 7.039h-67.707a3.883 3.883 0 0 1-3.879-3.875 3.88 3.88 0 0 1 3.879-3.871h67.707a3.88 3.88 0 0 1 3.879 3.87 3.883 3.883 0 0 1-3.88 3.876"/>
  <path fill="#99b9ff" d="M257.762 137.918H128.3a2.43 2.43 0 0 0-2.434 2.43v1.785a2.43 2.43 0 0 0 2.434 2.43h129.46a2.43 2.43 0 0 0 2.434-2.43v-1.785a2.43 2.43 0 0 0-2.433-2.43"/>
  <path fill="#fff" d="M257.133 141.242a1.6 1.6 0 0 1-1.602 1.598 1.599 1.599 0 1 1 0-3.2c.883 0 1.602.715 1.602 1.602M190.93 228.352h-65.008v-80.668h65.008z"/>
  <path fill="#99b9ff" d="M130.465 148.035h-2.84a.353.353 0 0 1 0-.707h2.84a.353.353 0 0 1 0 .707m5.672 0H133.3a.354.354 0 1 1 0-.707h2.836a.353.353 0 1 1 0 .707m5.672 0h-2.836a.353.353 0 1 1 0-.707h2.836a.353.353 0 1 1 0 .707m5.671 0h-2.835a.353.353 0 1 1 0-.707h2.835a.354.354 0 1 1 0 .707m5.676 0h-2.836a.354.354 0 1 1 0-.707h2.836a.353.353 0 0 1 0 .707m5.672 0h-2.836a.353.353 0 1 1 0-.707h2.836a.353.353 0 1 1 0 .707m5.672 0h-2.836a.353.353 0 1 1 0-.707h2.836a.353.353 0 1 1 0 .707m5.676 0h-2.84a.353.353 0 0 1 0-.707h2.84a.353.353 0 0 1 0 .707m5.672 0h-2.836a.354.354 0 1 1 0-.707h2.836a.353.353 0 1 1 0 .707m5.672 0h-2.836a.353.353 0 1 1 0-.707h2.836a.353.353 0 1 1 0 .707m5.671 0h-2.836a.353.353 0 1 1 0-.707h2.836a.353.353 0 1 1 0 .707m3.739 1.938c-.2 0-.356-.16-.356-.356v-1.582h-.543a.354.354 0 1 1 0-.707h.899c.195 0 .351.16.351.356v1.933a.353.353 0 0 1-.351.356m-65.008 2.023a.353.353 0 0 1-.356-.351v-2.833c0-.195.16-.355.356-.355s.355.16.355.356v2.832c0 .195-.16.351-.355.351m65.008 3.64c-.2 0-.356-.16-.356-.355v-2.832a.354.354 0 1 1 .707 0v2.832a.353.353 0 0 1-.351.356m-65.008 2.028a.357.357 0 0 1-.356-.355v-2.832c0-.196.16-.356.356-.356s.355.16.355.356v2.832c0 .195-.16.355-.355.355m65.008 3.637c-.2 0-.356-.16-.356-.356v-2.832a.354.354 0 1 1 .707 0v2.832a.353.353 0 0 1-.351.356m-65.008 2.027a.357.357 0 0 1-.356-.355v-2.832c0-.196.16-.356.356-.356s.355.16.355.356v2.832c0 .195-.16.355-.355.355m65.008 3.637c-.2 0-.356-.16-.356-.356v-2.832c0-.195.156-.351.356-.351a.35.35 0 0 1 .351.351v2.832a.353.353 0 0 1-.351.356m-65.008 2.027a.357.357 0 0 1-.356-.355v-2.832c0-.196.16-.352.356-.352s.355.156.355.352v2.832c0 .195-.16.355-.355.355m65.008 3.637a.35.35 0 0 1-.356-.356v-2.828a.354.354 0 1 1 .707 0v2.828c0 .2-.156.356-.351.356m-65.008 2.027a.357.357 0 0 1-.356-.355v-2.832a.356.356 0 0 1 .711 0v2.832c0 .195-.16.355-.355.355m65.008 3.637a.35.35 0 0 1-.356-.352v-2.832a.354.354 0 1 1 .707 0v2.832a.35.35 0 0 1-.351.352m-65.008 2.027a.353.353 0 0 1-.356-.351v-2.832c0-.196.16-.356.356-.356s.355.16.355.356v2.832c0 .195-.16.351-.355.351m65.008 3.64c-.2 0-.356-.16-.356-.355v-2.832a.354.354 0 1 1 .707 0v2.832a.353.353 0 0 1-.351.356m-65.008 2.028a.357.357 0 0 1-.356-.355V182.8c0-.196.16-.356.356-.356s.355.16.355.356v2.832c0 .195-.16.355-.355.355m65.008 3.637c-.2 0-.356-.16-.356-.355v-2.833a.354.354 0 1 1 .707 0v2.833a.353.353 0 0 1-.351.355m-65.008 2.027a.357.357 0 0 1-.356-.355v-2.832c0-.195.16-.356.356-.356s.355.16.355.356v2.832c0 .195-.16.355-.355.355m65.008 3.637c-.2 0-.356-.16-.356-.355v-2.832a.354.354 0 1 1 .707 0v2.832a.353.353 0 0 1-.351.355m-65.008 2.027a.357.357 0 0 1-.356-.355v-2.832c0-.195.16-.356.356-.356s.355.16.355.356v2.832c0 .195-.16.355-.355.355m65.008 3.637a.35.35 0 0 1-.356-.355v-2.828c0-.2.156-.356.356-.356.195 0 .351.156.351.356v2.828c0 .199-.156.355-.351.355m-65.008 2.027a.354.354 0 0 1-.356-.355v-2.832c0-.195.16-.352.356-.352s.355.157.355.352v2.832c0 .2-.16.355-.355.355m65.008 3.637a.35.35 0 0 1-.356-.351v-2.832a.354.354 0 1 1 .707 0v2.832a.35.35 0 0 1-.351.351m-65.008 2.028a.353.353 0 0 1-.356-.352v-2.832c0-.195.16-.356.356-.356s.355.16.355.356v2.832c0 .195-.16.352-.355.352m65.008 3.64c-.2 0-.356-.16-.356-.355v-2.832a.354.354 0 1 1 .707 0v2.832a.353.353 0 0 1-.351.355m-65.008 2.028a.357.357 0 0 1-.356-.356v-2.832c0-.195.16-.355.356-.355s.355.16.355.355v2.832c0 .195-.16.356-.355.356m65.008 3.636c-.2 0-.356-.16-.356-.355v-2.832a.354.354 0 1 1 .707 0v2.832a.353.353 0 0 1-.351.355m-65.008 2.028a.357.357 0 0 1-.356-.356v-2.832c0-.195.16-.355.356-.355s.355.16.355.355v2.832c0 .195-.16.356-.355.356m65.008 3.636c-.2 0-.356-.16-.356-.355v-2.832c0-.196.156-.352.356-.352a.35.35 0 0 1 .351.352v2.832a.353.353 0 0 1-.351.355m-65.008 2.028a.357.357 0 0 1-.356-.356v-2.832c0-.195.16-.355.356-.355s.355.16.355.355v2.832c0 .195-.16.356-.355.356m2.601 3.062h-2.601a.353.353 0 0 1-.356-.351v-.235c0-.195.16-.351.356-.351.152 0 .281.093.332.23h2.27a.354.354 0 1 1 0 .707m5.676 0h-2.836a.353.353 0 1 1 0-.707h2.836a.353.353 0 1 1 0 .707m5.672 0h-2.836a.353.353 0 1 1 0-.707h2.836a.353.353 0 1 1 0 .707m5.672 0h-2.836a.353.353 0 1 1 0-.707h2.836a.354.354 0 1 1 0 .707m5.676 0h-2.84a.353.353 0 0 1 0-.707h2.84a.353.353 0 0 1 0 .707m5.672 0h-2.836a.353.353 0 1 1 0-.707h2.836a.353.353 0 1 1 0 .707m5.672 0h-2.836a.353.353 0 1 1 0-.707h2.835a.353.353 0 1 1 0 .707m5.671 0h-2.836a.353.353 0 0 1 0-.707h2.836a.354.354 0 1 1 0 .707m5.676 0h-2.836a.353.353 0 1 1 0-.707h2.836a.353.353 0 1 1 0 .707m5.672 0h-2.836a.353.353 0 1 1 0-.707h2.836a.353.353 0 1 1 0 .707m5.672 0h-2.836a.353.353 0 0 1 0-.707h2.836a.354.354 0 1 1 0 .707m5.676 0h-2.836a.354.354 0 1 1 0-.707h2.48v-1.906c0-.195.156-.352.356-.352a.35.35 0 0 1 .351.352v2.262a.35.35 0 0 1-.351.351"/>
  <path fill="#fff" d="M260.137 174.742h-65.004V147.68h65.004z"/>
  <path fill="#99b9ff" d="M202.3 148.035h-2.835a.353.353 0 0 1 0-.707h2.836a.353.353 0 1 1 0 .707m5.677 0h-2.836a.354.354 0 1 1 0-.707h2.836a.353.353 0 0 1 0 .707m5.671 0h-2.835a.353.353 0 1 1 0-.707h2.835a.353.353 0 1 1 0 .707m5.672 0h-2.836a.353.353 0 1 1 0-.707h2.836a.353.353 0 1 1 0 .707m5.672 0h-2.836a.353.353 0 0 1 0-.707h2.836a.353.353 0 1 1 0 .707m5.676 0h-2.84a.353.353 0 0 1-.351-.351c0-.196.16-.356.351-.356h2.84a.353.353 0 0 1 0 .707m5.672 0h-2.836a.353.353 0 1 1 0-.707h2.836a.353.353 0 1 1 0 .707m5.672 0h-2.836a.353.353 0 1 1 0-.707h2.836a.353.353 0 1 1 0 .707m5.676 0h-2.836a.354.354 0 1 1 0-.707h2.835a.353.353 0 0 1 0 .707m5.671 0h-2.84a.353.353 0 0 1-.351-.351c0-.196.16-.356.352-.356h2.84a.353.353 0 0 1 0 .707m5.672 0h-2.836a.353.353 0 1 1 0-.707h2.836a.353.353 0 1 1 0 .707m-63.902 1.336a.353.353 0 0 1-.352-.351v-1.336c0-.196.16-.356.352-.356h1.5a.353.353 0 1 1 0 .707h-1.145v.985a.35.35 0 0 1-.355.351m65.008 3.227a.353.353 0 0 1-.352-.356v-2.832a.353.353 0 1 1 .707 0v2.832c0 .196-.16.356-.355.356m-65.008 2.437a.353.353 0 0 1-.352-.351v-2.832a.354.354 0 1 1 .707 0v2.832a.35.35 0 0 1-.355.351m65.008 3.227a.353.353 0 0 1-.352-.356v-2.832a.353.353 0 0 1 .707 0v2.832c0 .196-.16.356-.355.356m-65.008 2.441a.356.356 0 0 1-.352-.355v-2.832a.354.354 0 1 1 .707 0v2.832a.354.354 0 0 1-.355.355m65.008 3.223a.353.353 0 0 1-.352-.352v-2.836a.353.353 0 0 1 .707 0v2.836c0 .192-.16.352-.355.352m-65.008 2.441a.356.356 0 0 1-.352-.355v-2.832a.354.354 0 1 1 .707 0v2.832a.354.354 0 0 1-.355.355m65.008 3.223a.35.35 0 0 1-.352-.356v-2.828a.354.354 0 1 1 .707 0v2.828c0 .2-.16.356-.355.356m-65.008 2.441a.356.356 0 0 1-.352-.355v-2.832c0-.196.16-.352.352-.352.2 0 .355.156.355.352v2.832a.354.354 0 0 1-.355.355m2.605 3.067h-2.605a.356.356 0 0 1-.352-.356v-.23c0-.196.16-.356.352-.356.152 0 .285.098.336.23h2.27c.195 0 .355.16.355.356s-.16.356-.356.356m5.672 0h-2.836a.357.357 0 0 1-.355-.356c0-.195.16-.355.355-.355h2.836c.2 0 .356.16.356.355a.354.354 0 0 1-.356.356m5.676 0h-2.84a.353.353 0 0 1-.351-.356c0-.195.156-.355.351-.355h2.84c.195 0 .352.16.352.355a.353.353 0 0 1-.352.356m5.672 0h-2.836a.357.357 0 0 1-.356-.356c0-.195.16-.355.356-.355h2.836c.195 0 .355.16.355.355 0 .196-.16.356-.355.356m5.672 0h-2.836a.357.357 0 0 1-.356-.356c0-.195.16-.355.356-.355h2.836c.195 0 .355.16.355.355 0 .196-.16.356-.355.356m5.672 0h-2.836a.353.353 0 0 1-.352-.356c0-.195.156-.355.352-.355h2.836c.199 0 .355.16.355.355a.354.354 0 0 1-.355.356m5.675 0h-2.835a.357.357 0 0 1-.356-.356c0-.195.16-.355.356-.355h2.835c.196 0 .352.16.352.355a.353.353 0 0 1-.352.356m5.672 0h-2.836a.357.357 0 0 1-.355-.356c0-.195.16-.355.355-.355h2.836c.196 0 .356.16.356.355 0 .196-.16.356-.356.356m5.672 0h-2.836a.357.357 0 0 1-.355-.356c0-.195.16-.355.355-.355h2.836c.2 0 .356.16.356.355a.354.354 0 0 1-.356.356m5.676 0h-2.836c-.2 0-.355-.16-.355-.356s.156-.355.355-.355h2.836c.195 0 .352.16.352.355a.353.353 0 0 1-.352.356m5.672 0h-2.836a.357.357 0 0 1-.356-.356c0-.195.16-.355.356-.355h2.836c.195 0 .355.16.355.355 0 .196-.16.356-.355.356m5.672 0H257.3a.357.357 0 0 1-.356-.356c0-.195.16-.355.356-.355h2.484v-2.317a.353.353 0 1 1 .707 0v2.672c0 .196-.16.356-.355.356"/>
  <path fill="#fff" d="M260.137 228.352h-65.004v-48.504h65.004z"/>
  <path fill="#99b9ff" d="M203.52 180.203h-2.836a.357.357 0 0 1-.356-.355c0-.196.16-.356.356-.356h2.836c.195 0 .355.16.355.356s-.16.355-.355.355m5.671 0h-2.836a.357.357 0 0 1-.355-.355c0-.196.16-.356.355-.356h2.836c.196 0 .356.16.356.356s-.16.355-.356.355m5.672 0h-2.836a.353.353 0 0 1-.351-.355c0-.196.156-.356.351-.356h2.836c.2 0 .356.16.356.356a.354.354 0 0 1-.356.355m5.676 0h-2.836a.357.357 0 0 1-.355-.355c0-.196.16-.356.355-.356h2.836c.195 0 .352.16.352.356a.353.353 0 0 1-.352.355m5.672 0h-2.836a.357.357 0 0 1-.355-.355c0-.196.16-.356.355-.356h2.836c.195 0 .355.16.355.356s-.16.355-.355.355m5.672 0h-2.836a.357.357 0 0 1-.356-.355c0-.196.16-.356.356-.356h2.836c.199 0 .355.16.355.356a.354.354 0 0 1-.355.355m5.676 0h-2.836a.357.357 0 0 1-.356-.355c0-.196.16-.356.356-.356h2.836c.195 0 .351.16.351.356a.353.353 0 0 1-.351.355m5.671 0h-2.835a.357.357 0 0 1-.356-.355c0-.196.16-.356.356-.356h2.835c.196 0 .356.16.356.356s-.16.355-.356.355m5.672 0h-2.836a.357.357 0 0 1-.355-.355c0-.196.16-.356.355-.356h2.836c.196 0 .356.16.356.356s-.16.355-.356.355m5.672 0h-2.836a.353.353 0 0 1-.351-.355c0-.196.156-.356.351-.356h2.836c.2 0 .356.16.356.356a.354.354 0 0 1-.356.355m5.563.11a.36.36 0 0 1-.258-.11h-2.465c-.2 0-.355-.16-.355-.355 0-.196.156-.356.355-.356h2.723c.195 0 .355.16.355.356v.113c0 .195-.16.351-.355.351m-65.008.007a.353.353 0 0 1-.352-.351v-.121c0-.196.16-.356.352-.356h2.715c.199 0 .355.16.355.356a.354.354 0 0 1-.355.355h-2.446a.35.35 0 0 1-.27.117m65.008 5.66a.353.353 0 0 1-.352-.355v-2.832a.354.354 0 1 1 .707 0v2.832c0 .195-.16.355-.355.355m-65.008.008a.356.356 0 0 1-.352-.355V182.8a.354.354 0 1 1 .707 0v2.832a.354.354 0 0 1-.355.355m65.008 5.653a.35.35 0 0 1-.352-.352v-2.832a.353.353 0 1 1 .707 0v2.832c0 .195-.16.352-.355.352m-65.008.011a.356.356 0 0 1-.352-.355v-2.832a.354.354 0 1 1 .707 0v2.832a.354.354 0 0 1-.355.355m65.008 5.657a.353.353 0 0 1-.352-.356v-2.832a.353.353 0 1 1 .707 0v2.832c0 .195-.16.356-.355.356m-65.008.007a.353.353 0 0 1-.352-.355v-2.832c0-.195.16-.352.352-.352.2 0 .355.157.355.352v2.832c0 .2-.156.355-.355.355m65.008 5.657a.353.353 0 0 1-.352-.356v-2.832a.353.353 0 0 1 .707 0v2.832c0 .196-.16.356-.355.356m-65.008.007a.353.353 0 0 1-.352-.351v-2.836c0-.195.16-.352.352-.352.2 0 .355.157.355.352v2.836a.35.35 0 0 1-.355.351m65.008 5.657a.353.353 0 0 1-.352-.356v-2.832a.353.353 0 0 1 .707 0v2.832c0 .196-.16.356-.355.356m-65.008.008a.353.353 0 0 1-.352-.352v-2.832a.354.354 0 1 1 .707 0v2.832a.35.35 0 0 1-.355.352m65.008 5.656a.35.35 0 0 1-.352-.352v-2.836a.353.353 0 0 1 .707 0v2.836c0 .196-.16.352-.355.352m-65.008.012a.356.356 0 0 1-.352-.356v-2.832a.354.354 0 1 1 .707 0v2.832a.354.354 0 0 1-.355.356m65.008 5.652a.35.35 0 0 1-.352-.352v-2.832a.353.353 0 1 1 .707 0v2.832c0 .196-.16.352-.355.352m-65.008.012a.356.356 0 0 1-.352-.356v-2.832a.354.354 0 1 1 .707 0v2.832a.354.354 0 0 1-.355.356m65.008 5.656a.353.353 0 0 1-.352-.356v-2.832a.353.353 0 1 1 .707 0v2.832c0 .196-.16.356-.355.356m-65.008.008a.353.353 0 0 1-.352-.356v-2.832c0-.195.16-.351.352-.351.2 0 .355.156.355.351v2.832c0 .2-.156.356-.355.356m2.605 3.062h-2.605a.353.353 0 0 1-.352-.351v-.235c0-.195.16-.351.352-.351.152 0 .285.093.336.23h2.27a.353.353 0 1 1 0 .707m5.672 0h-2.836a.353.353 0 1 1 0-.707h2.836a.354.354 0 1 1 0 .707m5.676 0h-2.84a.353.353 0 0 1 0-.707h2.84a.353.353 0 0 1 0 .707m5.672 0h-2.836a.353.353 0 1 1 0-.707h2.836a.353.353 0 1 1 0 .707m5.672 0h-2.836a.353.353 0 1 1 0-.707h2.836a.353.353 0 1 1 0 .707m5.672 0h-2.836a.353.353 0 0 1 0-.707h2.836a.354.354 0 1 1 0 .707m5.675 0h-2.835a.353.353 0 1 1 0-.707h2.835a.353.353 0 0 1 0 .707m5.672 0h-2.836a.353.353 0 1 1 0-.707h2.836a.353.353 0 1 1 0 .707m5.672 0h-2.836a.353.353 0 1 1 0-.707h2.836a.354.354 0 1 1 0 .707m5.676 0h-2.836a.354.354 0 1 1 0-.707h2.836a.353.353 0 0 1 0 .707m5.672 0h-2.836a.353.353 0 1 1 0-.707h2.836a.353.353 0 1 1 0 .707m5.672 0H257.3a.353.353 0 1 1 0-.707h2.5a.354.354 0 0 1 .691.113v.243c0 .195-.16.351-.355.351"/>
  <path d="M163.617 98.664c.93-.2 1.66.363 2.363-.18.836-.644.856-2.242.41-3.34-.792-1.96-3.347-2.988-5.398-2.73-2.031.258-2.187 1.606-3.691 1.723-2.688.207-3.512-3.992-7.567-6.727-3.058-2.062-7.343-2.875-10.87-1.95-4.641 1.22-4.594 4.556-9.106 5.474-4.051.824-5.098-1.266-9.102-.77-3.648.457-7.554 3.934-7.976 7.91-.399 3.727 2.277 7.88 5.851 9.38 7.883 3.312 18.875-6.837 22.625-3.141.875.863 1.508 2.636 3.184 2.859 1.14.152 2-.512 2.672-.899 4.394-2.507 9.05 2.274 12.238.137 2.777-1.863 1.785-7.203 4.367-7.746M162.234 156.137c.082 1.058.332 2.492.711 3.136l4.47-6.12-2.34-.524c-.387.629-1.532 2.418-2.84 3.508m.735 4.058q-.107.001-.203-.066c-.996-.707-1.22-3.566-1.254-4.133a.38.38 0 0 1 .136-.3c1.528-1.196 2.93-3.622 2.942-3.645a.36.36 0 0 1 .387-.172l3.12.703a.35.35 0 0 1 .208.55l-5.047 6.919a.36.36 0 0 1-.29.144"/>
  <path fill="#fff" d="M162.352 154.805s-3.204.68-3.684 1.48c-.406.676 1.656 8.91 2.39 11.57a.624.624 0 0 0 1.06.262c.82-.894 2.089-3.262 3.136-9.55a.9.9 0 0 0-.348-.86l-1.492-1.094-.738 1.04z"/>
  <path d="M158.98 156.453c-.21.797 1.442 7.754 2.422 11.309a.27.27 0 0 0 .2.195c.046.008.164.023.253-.078.68-.742 1.977-2.945 3.047-9.371a.53.53 0 0 0-.207-.516l-1.199-.883-.531.75a.37.37 0 0 1-.38.137.355.355 0 0 1-.265-.305l-.277-2.453c-1.223.29-2.785.801-3.063 1.215m2.692 12.219a.994.994 0 0 1-.957-.723c-.027-.11-2.95-10.851-2.352-11.844.535-.89 3.356-1.527 3.914-1.648.098-.02.2.004.282.063a.35.35 0 0 1 .144.246l.219 1.925.203-.285a.36.36 0 0 1 .234-.144.34.34 0 0 1 .266.066l1.488 1.094c.38.277.567.738.489 1.2-1.043 6.276-2.329 8.757-3.223 9.733a.94.94 0 0 1-.707.317"/>
  <path d="M164.355 163.258q-.03-.001-.066-.008l-1.742-.324a.357.357 0 0 1-.281-.414.35.35 0 0 1 .414-.282l1.742.325a.355.355 0 0 1-.066.703M161.797 167.121a.35.35 0 0 1-.344-.281l-2.172-10.27a.353.353 0 0 1 .274-.418.36.36 0 0 1 .422.274l2.168 10.27a.35.35 0 0 1-.274.417c-.023.008-.047.008-.074.008M153.54 172.7l1.636 2.34 1.469-7-2.43-.485Zm1.815 3.57a.35.35 0 0 1-.292-.153l-2.184-3.125a.35.35 0 0 1-.063-.246l.746-5.656a.35.35 0 0 1 .145-.242.34.34 0 0 1 .273-.059l3.153.629c.094.02.176.07.226.152.055.078.07.176.051.266l-1.71 8.152a.35.35 0 0 1-.345.282"/>
  <path fill="#fff" d="M149.867 172.063c.684-.383 1.77-.985 3.164-1.75l.88 2.21 2.51.82s1.017 5.868.134 9.493c-.164.676-1.028.875-1.457.328-1.301-1.644-3.93-5.66-5.692-9.754a1.063 1.063 0 0 1 .461-1.347"/>
  <path d="M150.04 172.371a.71.71 0 0 0-.31.902c1.743 4.043 4.387 8.079 5.645 9.672a.46.46 0 0 0 .469.168.48.48 0 0 0 .367-.36c.762-3.132.062-8.07-.106-9.14l-2.304-.75a.37.37 0 0 1-.219-.207l-.73-1.84a870 870 0 0 0-2.813 1.555m5.698 11.461c-.355 0-.691-.16-.922-.45-1.332-1.687-3.957-5.695-5.738-9.831a1.415 1.415 0 0 1 .617-1.797c.684-.383 1.77-.984 3.164-1.75a.35.35 0 0 1 .293-.024.33.33 0 0 1 .207.204l.82 2.054 2.352.77c.125.039.219.144.239.273.042.246 1.02 5.985.128 9.637a1.18 1.18 0 0 1-1.16.914"/>
  <path d="M155.785 182.574a.36.36 0 0 1-.277-.137c-1.746-2.183-5.406-9.187-5.563-9.484a.35.35 0 0 1 .153-.476.35.35 0 0 1 .476.152c.04.07 3.785 7.238 5.488 9.371a.35.35 0 0 1-.054.496.37.37 0 0 1-.223.078M154.816 178.516a.35.35 0 0 1-.336-.25.35.35 0 0 1 .227-.442l2.055-.656a.354.354 0 1 1 .215.676l-2.051.652a.4.4 0 0 1-.11.02M155.813 121.777c.378-.043 14.234 5.645 17.265 8.79s3.348 13.769-5.148 23.378l-4.211-.968s-1.121-2.829.3-5.66c1.422-2.829 3.09-7.102 1.731-8.462-1.36-1.355-16.43-8.804-16.43-8.804l-2.972-11.406z"/>
  <path d="m153.516 168.445 3.66.625s5.023-11.379 4.422-21.293c-.598-9.914-8.082-20.91-8.082-20.91l-.348-7.066h-12.387s-3.23 4.23-1.879 8.05c1.352 3.825 10.246 12.2 11.973 16.587 1.73 4.382 2.281 5.171 1.277 8.859-1.004 3.683-1.543 10.25 1.364 15.148"/>
  <path fill="#fff" d="M157.262 133.82a.36.36 0 0 1-.309-.18l-3.746-6.597a.357.357 0 0 1 .133-.484.357.357 0 0 1 .484.132l3.746 6.598a.353.353 0 0 1-.308.531M186.238 127.027l-2.656-3.254-3.328-.488c-.785-.648-1.703-1.543-2.59-2.027-.27.242-.016.48-.289.71q-.675.564-1.355 1.114c2.101 1.145 3.804 1.316 3.804 1.316.82 2.25 2.606 1.782 3.031 1.532s1.008-.196 2.016.648c1.102.93 1.367.45 1.367.45"/>
  <path d="M183.328 125.445c.652 0 1.297.465 1.77.864q.151.124.27.207l-1.973-2.414-3.192-.465a.4.4 0 0 1-.176-.078c-.195-.164-.402-.34-.613-.524-.512-.445-1.035-.902-1.55-1.242a.73.73 0 0 1-.259.445c-.316.266-.64.532-.94.778 1.792.879 3.183 1.027 3.194 1.03.137.013.25.102.301.231.27.754.68 1.23 1.215 1.422.547.2 1.113.035 1.3-.074.216-.125.434-.18.653-.18m2.629 2.059c-.36 0-.789-.215-1.312-.652-1.094-.922-1.47-.7-1.61-.618-.297.176-1.078.43-1.902.133-.688-.246-1.211-.8-1.563-1.648-.539-.086-1.996-.387-3.722-1.324a.37.37 0 0 1-.184-.282.36.36 0 0 1 .133-.304c.41-.332.887-.723 1.348-1.11.02-.023.023-.066.023-.094.004-.136.012-.39.258-.609a.35.35 0 0 1 .406-.047c.703.38 1.418 1 2.047 1.551.18.156.36.309.527.45l3.227.472c.09.012.168.058.226.125l2.657 3.254c.09.113.105.27.035.398a.64.64 0 0 1-.442.293 1 1 0 0 1-.152.012"/>
  <path fill="#5479f7" d="M158.91 113.063s6.375 10.3 18.047 11.148l2.258-2.469s-10.762-8.875-13.07-11.941c-2.31-3.063-4.247-5.664-5.793-5.824-1.551-.16-1.442 9.085-1.442 9.085"/>
  <path fill="#5479f7" d="M144.16 109.273s-4.46 6.036-5.586 10.563c-1.125 4.531 5.946-.59 17.242 1.945l4.79-11.027.757-6.379s-5.879-3.105-11.011-2.777c-2.008.129-6.192 7.675-6.192 7.675"/>
  <path fill="#fff" d="M130.434 125.398s-.41 4.407.664 5.223c1.07.816 3.539 1.43 3.953 3.43.41 2.004.687-2.09-.008-3.055-.691-.965-2.82-1.789-2.82-1.789l.355-4.371z"/>
  <path d="M130.766 125.676c-.137 1.746-.059 4.203.547 4.664.269.207.664.41 1.078.629.976.508 2.148 1.12 2.722 2.215-.011-.758-.113-1.645-.355-1.98-.52-.72-2.098-1.45-2.664-1.669a.36.36 0 0 1-.223-.36l.313-3.87Zm4.5 9.273q-.036.001-.07-.004c-.313-.058-.407-.406-.493-.824-.266-1.285-1.527-1.945-2.64-2.527-.446-.23-.864-.45-1.18-.692-1.172-.89-.875-4.77-.805-5.539a.35.35 0 0 1 .266-.308l2.144-.563c.11-.027.23 0 .317.074.09.07.136.184.125.297l-.332 4.114c.601.257 2.129.972 2.734 1.812.61.848.59 3.477.285 3.957a.4.4 0 0 1-.351.203"/>
  <path fill="#5479f7" d="M129.934 126.512c.011.172 2.972.183 2.972.183s1.13-12.707 13.43-16.152l5.082-8.977s-23.11-1.214-21.484 24.946"/>
  <path fill="#fff" d="M160.508 112.035a.35.35 0 0 1-.352-.351v-4.88a.353.353 0 1 1 .707 0v4.88a.35.35 0 0 1-.355.351M141.918 119.828q-.105-.002-.129-.004a.354.354 0 0 1-.348-.363.357.357 0 0 1 .356-.344h.07c.63 0 5.942-.11 10.95-3.71a.356.356 0 0 1 .413.577c-5.12 3.676-10.394 3.844-11.312 3.844M164.52 99.05c.308-1.331 1.023-2.554 1.023-2.554-.828.926-2.309.031-3.16-.117-.856-.149-1.899 1.031-1.899 1.031s-.843-.777-1.632.23c-.79 1.005.066 1.837.066 1.837l-3.629 2.085-2.789.235c2.102 2.945 7.242 2.43 7.242 2.43l-1.347-.942 2.609-1.82c1.523 1.027 1.773.89 1.773.89.344-.19.848-1.015 1.309-1.718l.137.05a.252.252 0 0 0 .336-.242z"/>
  <path d="M164.203 100.453h.004Zm-10.992 1.64c1.5 1.516 4.035 1.786 5.453 1.81l-.473-.329a.36.36 0 0 1-.152-.293.36.36 0 0 1 .152-.289l2.61-1.82a.35.35 0 0 1 .402-.004c.926.629 1.332.785 1.473.824.246-.21.66-.851.972-1.332l.141-.219a.35.35 0 0 1 .41-.14l-.035-1.242q0-.043.012-.09a9.4 9.4 0 0 1 .59-1.715c-.594.058-1.235-.152-1.754-.324a6 6 0 0 0-.692-.203c-.539-.094-1.332.652-1.57.918a.34.34 0 0 1-.246.12.4.4 0 0 1-.262-.093s-.246-.215-.539-.192c-.195.016-.39.145-.57.38-.59.745.008 1.34.031 1.363a.35.35 0 0 1 .106.3.34.34 0 0 1-.176.262l-3.625 2.082a.35.35 0 0 1-.149.047Zm5.601 2.524c-1.648 0-4.957-.308-6.601-2.617a.35.35 0 0 1-.031-.352.35.35 0 0 1 .289-.207l2.715-.226 3.21-1.844c-.265-.469-.41-1.2.18-1.95.309-.398.672-.616 1.078-.648.32-.027.594.075.786.18.386-.379 1.214-1.058 2.003-.922.243.043.508.13.793.227.926.305 1.614.484 2.043.004a.355.355 0 0 1 .473-.051.35.35 0 0 1 .098.465c-.004.011-.672 1.164-.973 2.41l.04 1.348c.003.199-.09.39-.25.504a.6.6 0 0 1-.427.113c-.547.844-.93 1.414-1.289 1.613-.129.07-.418.23-1.941-.773l-1.996 1.39.933.653c.121.086.18.238.14.379a.36.36 0 0 1-.308.265c-.054.004-.418.04-.964.04"/>
  <path d="M161.004 101.816a.37.37 0 0 1-.223-.078l-.992-.804a.36.36 0 0 1-.05-.5.354.354 0 0 1 .5-.051l.988.805a.354.354 0 0 1-.223.628"/>
  <path fill="#5479f7" d="M275.21 231.004s-1.667 5.387-10.179 4.652c-8.504-.734-11.86-4.406-16.113-4.828-4.262-.418-5.477-5.078-4.461-9.375 1.875-7.941 9.332-30.039 9.531-30.394.2-.364 21.223 39.945 21.223 39.945"/>
  <path d="M247.344 272.898h2.414l-.828-5.207h-3.125Zm3.246.711h-3.778l-1.957-6.625h4.68z"/>
  <path fill="#5479f7" d="M250.621 272.113a.58.58 0 0 0-.742-.285l-1.816.75-1.118-.726a.85.85 0 0 0-.746-.09c-1.668.582-8.113 2.855-9.504 3.703-.738.453-1.172.996-1.422 1.45-.234.42.082.94.567.94h15.02a.947.947 0 0 0 .949-.918c.035-1.992-.77-3.945-1.188-4.824"/>
  <path d="M246.48 272.07a.5.5 0 0 0-.164.028c-3.859 1.343-8.37 3.015-9.437 3.672a3.6 3.6 0 0 0-1.297 1.316.27.27 0 0 0 .008.27.28.28 0 0 0 .25.144h15.02c.324 0 .59-.254.593-.566.035-1.957-.793-3.918-1.152-4.668a.225.225 0 0 0-.285-.11l-1.817.75a.36.36 0 0 1-.328-.031l-1.117-.727a.5.5 0 0 0-.274-.078m4.38 6.137h-15.02a.99.99 0 0 1-.879-1.465c.355-.637.875-1.164 1.547-1.578 1.406-.86 7.683-3.078 9.578-3.734a1.2 1.2 0 0 1 1.055.125l.96.625 1.645-.68a.93.93 0 0 1 1.195.46c.473.99 1.258 2.954 1.223 4.985-.012.696-.598 1.262-1.305 1.262"/>
  <path d="M250.54 276.926h-13.645a.357.357 0 0 1-.356-.356c0-.195.16-.355.356-.355h13.644c.195 0 .352.16.352.355a.353.353 0 0 1-.352.356M243.512 274.922a.36.36 0 0 1-.332-.227l-.578-1.507a.35.35 0 0 1 .203-.458c.183-.07.386.02.457.204l.578 1.507a.353.353 0 0 1-.328.48"/>
  <path fill="#fff" d="m269.008 268.129 1.918 4.05 2.457-1.304-1.086-4.465z"/>
  <path d="m269.473 268.285 1.613 3.406 1.887-.996-.914-3.761Zm1.449 4.25a.363.363 0 0 1-.32-.203l-1.918-4.055a.354.354 0 0 1 .156-.464l3.293-1.715a.34.34 0 0 1 .308-.008.34.34 0 0 1 .2.238l1.09 4.465a.364.364 0 0 1-.184.398l-2.457 1.301a.36.36 0 0 1-.168.043"/>
  <path fill="#5479f7" d="m272.027 270.684 1.207-1.114a.694.694 0 0 1 1.02.078l1.676 2.086c.27.336.25.825-.047 1.141-1.453 1.54-5.528 5.793-6.328 5.996-.653.16-2.977.106-4.442.05a.913.913 0 0 1-.77-1.355c.325-.582.876-1.293 1.802-1.992 1.632-1.234 2.992-3.43 3.546-4.402a.96.96 0 0 1 .84-.488z"/>
  <path d="M270.531 271.035a.62.62 0 0 0-.531.309c-.531.93-1.945 3.23-3.645 4.511-.746.567-1.32 1.2-1.699 1.883a.54.54 0 0 0 0 .543.56.56 0 0 0 .469.29c2.309.085 3.89.07 4.344-.044.394-.109 2.449-1.972 6.156-5.894a.52.52 0 0 0 .027-.68l-1.675-2.086a.34.34 0 0 0-.243-.129.35.35 0 0 0-.261.09l-1.207 1.113a.34.34 0 0 1-.239.094Zm-2.89 8.297c-.688 0-1.54-.02-2.543-.055a1.26 1.26 0 0 1-1.059-.648 1.26 1.26 0 0 1-.008-1.234c.43-.77 1.07-1.477 1.899-2.102 1.593-1.207 2.945-3.406 3.453-4.297a1.33 1.33 0 0 1 1.148-.668h1.356l1.105-1.02a1.06 1.06 0 0 1 1.54.118l1.671 2.086a1.224 1.224 0 0 1-.062 1.605c-3.668 3.883-5.856 5.934-6.5 6.094q-.482.122-2 .121"/>
  <path d="M267.031 278.063h-1.726a.353.353 0 0 1 0-.707h1.726a4.7 4.7 0 0 0 3.184-1.243l4.265-3.949a.356.356 0 0 1 .5.02.35.35 0 0 1-.015.5l-4.27 3.945c-1 .926-2.3 1.433-3.664 1.433"/>
  <path d="M269.75 275.031a.36.36 0 0 1-.234-.09l-1.496-1.312a.357.357 0 0 1-.032-.5.353.353 0 0 1 .5-.031l1.496 1.312a.357.357 0 0 1-.234.621M244.113 268.645c.176.812 7.075-.485 7.075-.485s-.508-28.316 11.578-41.242l-10.891-4.648s-14.379 16.101-7.762 46.375"/>
  <path d="M259.152 222.379s-4.539 29.965 9.852 46.758l4.894-1.856s-1.289-11.18-3.62-17.277c-1.087-2.836-3.075-7.074-1.454-11.5s2.5-13.145 2.5-13.145z"/>
  <path fill="#fff" d="M273.2 189.418a1.956 1.956 0 0 0-1.548-1.785c-2.984-.637-10.015-1.711-15.687.68a2.2 2.2 0 0 0-1.297 1.578l-6.27 29.347a3.79 3.79 0 0 0 2.329 4.328c3.652 1.43 10.113 3.43 16.226 2.688 8.113-.98 6.695-29.984 6.246-36.836"/>
  <path fill="#5479f7" d="M234.813 169.563s5.722 18.984 23.613 17.519c.297-.023 3.304-.219 3.054-.059-4.257 2.711-14.105 35.008-14.109 34.43 0-.625 3.652-21.629 3.652-21.629s-18.687-2.633-19.168-29.14zM267.758 229.387l2.113-41.86-2.445-.543c.004-.242 1.812.008 2.05.043 3.497.532 6.462 1.348 7.86 3.012 0 0-1.195 34.75-2.121 40.965-.195 1.3-3.215 1.137-5.367.848a2.41 2.41 0 0 1-2.09-2.465"/>
  <path fill="#5479f7" d="m264.492 216.836.668 3.406s9.512 3.25 16.328-6.402c6.82-9.653-4.152-23.8-4.152-23.8l-3.2 13.491s1.926 12.66-9.644 13.305"/>
  <path d="M263.625 217.602c-.512 0-.707.109-.777.195-.211.242-.004.922.195 1.582.039.133.082.273.121.414.379 1.312-.812 3.125-1.547 4.082 3.188-.617 3.078-3.918 3.055-4.277l-.469-1.961a6 6 0 0 0-.578-.035m-2.582 7.058a.33.33 0 0 1-.176-.047.34.34 0 0 1-.262-.086.35.35 0 0 1-.03-.5c.644-.726 2.245-2.867 1.905-4.039q-.059-.208-.117-.406c-.265-.879-.515-1.71-.054-2.246.367-.426 1.054-.54 2.234-.367l.238.035.594 2.516c.004.046.316 4.78-4.305 5.14z"/>
  <path fill="#fff" d="m262.73 187.07-.28-3.984c-.192-.012-2.602-.23-2.7-1.145-.059-.57.375-.96.652-2.023a.5.5 0 0 0-.023-.34l-.188-.445a.39.39 0 0 1 .125-.399l.102-.082c.363-.297.977-1.28 1.219-1.687.226-.371.601-1.074.863-1.195.73-.348 3.695-1.899 5.355.808 1.29 2.113-.82 5.016-1.59 5.969-.183.23 1.255 4.742 1.255 4.742l1.859.45s-1.438 2.542-5.793 1.491c-3.106-.75-2.613-1.902-2.613-1.902z"/>
  <path d="M261.324 187.633c.012.031.024.066.047.105.145.258.64.746 2.297 1.149 2.984.718 4.496-.325 5.09-.934l-1.32-.32a.37.37 0 0 1-.258-.238c-1.496-4.692-1.325-4.903-1.188-5.07.848-1.052 2.7-3.7 1.559-5.563-1.434-2.344-3.98-1.117-4.82-.711l-.079.039c-.14.082-.468.644-.605.883l-.102.175c-.254.418-.882 1.434-1.3 1.778l-.102.082c-.004.004-.012.015-.012.023l.176.406a.9.9 0 0 1 .04.57c-.134.5-.298.86-.427 1.15-.156.343-.238.534-.215.75.043.405 1.43.761 2.372.827a.35.35 0 0 1 .324.328l.281 3.981a.35.35 0 0 1-.3.375Zm4.27 2.21a9 9 0 0 1-2.094-.269c-1.512-.367-2.45-.887-2.781-1.55-.223-.45-.09-.797-.07-.837a.36.36 0 0 1 .273-.21l1.43-.211-.235-3.356c-.773-.086-2.61-.406-2.719-1.433-.043-.415.106-.739.278-1.114.125-.277.27-.593.387-1.035a.2.2 0 0 0-.008-.113l-.192-.445c-.008-.012-.011-.032-.015-.047a.74.74 0 0 1 .246-.762l.101-.086c.254-.207.754-.95 1.14-1.59l.099-.168c.343-.594.613-1.023.914-1.168l.074-.035c2.633-1.27 4.558-.937 5.734.98 1.344 2.196-.582 5.075-1.55 6.293.039.47.609 2.47 1.19 4.305l1.665.403c.11.023.2.101.242.203a.34.34 0 0 1-.015.312c-.051.094-1.13 1.93-4.094 1.934"/>
  <path d="M266.941 173.137c-.804-.176-1.726-.051-2.12-.196-.626-.23-.645-.98-1.516-1.191-1.055-.258-1.493.191-1.907.816a1.8 1.8 0 0 0-.175.356c-.664 1.773.172 2.637.543 2.922 0 0 2.37 1.222 2.777 1.57.383.328.82 1.102.543 2.215-.035.14.027.289.148.363a.315.315 0 0 0 .426-.097c.309-.446.98-1.31 1.461-1.102.602.254.414 2.059-.914 2.266-.406.062-.738.48-.7.906.028.277.29.617.68.703.239.055.473-.04.684-.172.867-.555 3.313-2.898 3.613-4.996.368-2.531-2.476-4.133-3.543-4.363M262.148 183.375a.328.328 0 0 1-.012-.656c.009 0 .821-.04 1.372-.508a.333.333 0 0 1 .465.039.33.33 0 0 1-.04.465c-.726.617-1.73.66-1.773.66z"/>
  <path fill="#fff" d="M266.188 216.55a.357.357 0 0 1-.356-.355c0-.195.16-.355.356-.355.218 0 5.414-.133 7.574-8.582a.357.357 0 0 1 .433-.258c.188.05.301.242.254.43-2.308 9.015-8.02 9.12-8.262 9.12M264.492 252.738q-.033-.001-.066-.008l-2.344-.453a.355.355 0 0 1-.281-.414.36.36 0 0 1 .418-.281l2.34.453a.354.354 0 0 1-.067.703M248.316 266.602h-.015a.354.354 0 0 1-.34-.368c.242-6.136-4.086-12.332-4.129-12.394a.353.353 0 0 1 .086-.496.356.356 0 0 1 .492.086c.184.261 4.512 6.457 4.258 12.832a.353.353 0 0 1-.352.34M110 270.457l.586 5.621 2.988-.035-.043-5.996z"/>
  <path d="m110.39 270.766.516 4.953 2.309-.028-.035-5.25Zm.196 5.664a.355.355 0 0 1-.352-.317l-.586-5.62a.353.353 0 0 1 .313-.388l3.527-.414a.34.34 0 0 1 .278.09c.074.067.117.16.12.262l.04 5.996a.35.35 0 0 1-.348.356l-2.988.035z"/>
  <path fill="#fff" d="m136.781 269.465 2.824 6.101h2.872l-1.864-6.55z"/>
  <path d="M139.832 275.21h2.176l-1.653-5.808-3.046.356Zm2.645.708h-2.872a.35.35 0 0 1-.32-.203l-2.828-6.106a.36.36 0 0 1 .281-.5l3.832-.445c.176-.02.336.09.383.254l1.863 6.55a.34.34 0 0 1-.058.31.34.34 0 0 1-.281.14"/>
  <path fill="#fff" d="M123.02 278.336c-1.047-1.242-3.536-3.203-9.383-4.887a.79.79 0 0 0-.797.235l-1.086 1.242-1.582-.824a.708.708 0 0 0-1.02.476 19.4 19.4 0 0 0-.425 3.602 1.297 1.297 0 0 0 1.246 1.324c2.504.101 8.328.297 12.453.144.668-.027 1.023-.804.594-1.312"/>
  <path d="M109.844 274.375a.35.35 0 0 0-.153.035.34.34 0 0 0-.191.242 18.6 18.6 0 0 0-.418 3.536.947.947 0 0 0 .902.964c2.356.094 8.278.297 12.43.141a.45.45 0 0 0 .398-.27.43.43 0 0 0-.062-.46c-1.078-1.278-3.55-3.145-9.21-4.774a.43.43 0 0 0-.43.129l-1.09 1.242a.36.36 0 0 1-.43.082l-1.582-.828a.4.4 0 0 0-.164-.039m9.05 5.684c-3.496 0-7.19-.13-8.937-.2a1.66 1.66 0 0 1-1.586-1.687 20 20 0 0 1 .434-3.668c.07-.328.285-.594.586-.734.3-.145.648-.137.945.02l1.336.694.902-1.03c.29-.329.746-.466 1.16-.345 5.832 1.68 8.418 3.645 9.559 4.996a1.158 1.158 0 0 1-.855 1.895c-1.09.043-2.305.059-3.543.059"/>
  <path d="M121.867 279.031h-.012l-12.09-.398a.35.35 0 0 1-.34-.363.356.356 0 0 1 .364-.344l12.09.398a.354.354 0 0 1-.012.707M115.824 276.98a.355.355 0 0 1-.309-.531l1.192-2.043a.35.35 0 0 1 .484-.129.355.355 0 0 1 .13.485l-1.192 2.043a.35.35 0 0 1-.305.175"/>
  <path fill="#fff" d="M151.766 277.813c-1.047-1.243-3.536-3.204-9.383-4.887a.77.77 0 0 0-.793.238l-1.09 1.242-1.582-.824a.708.708 0 0 0-1.02.477 19.3 19.3 0 0 0-.425 3.601 1.297 1.297 0 0 0 1.246 1.324c2.504.102 8.328.297 12.453.141.668-.023 1.023-.8.594-1.312"/>
  <path d="M138.59 273.855a.4.4 0 0 0-.153.032.35.35 0 0 0-.19.242c-.177.812-.392 2.082-.419 3.535a.947.947 0 0 0 .902.965c2.36.098 8.286.297 12.43.144a.45.45 0 0 0 .399-.273.42.42 0 0 0-.063-.457c-1.078-1.281-3.55-3.145-9.21-4.773a.41.41 0 0 0-.43.128l-1.09 1.243a.35.35 0 0 1-.43.078l-1.582-.824a.35.35 0 0 0-.164-.04m9.058 5.68c-3.496 0-7.199-.129-8.945-.195a1.663 1.663 0 0 1-1.586-1.688c.031-1.511.254-2.828.434-3.672.07-.324.285-.59.586-.73.3-.145.648-.137.945.016l1.336.699.902-1.035c.29-.328.746-.461 1.164-.34 5.828 1.676 8.414 3.64 9.555 4.996.281.336.348.797.168 1.203-.184.41-.574.676-1.02.691-1.09.04-2.304.055-3.539.055"/>
  <path d="M150.613 278.512h-.011l-12.09-.399a.354.354 0 0 1-.34-.367.35.35 0 0 1 .363-.34l12.09.399a.35.35 0 0 1 .344.363.357.357 0 0 1-.356.344M144.57 276.46a.4.4 0 0 1-.18-.046.356.356 0 0 1-.128-.484l1.191-2.047a.355.355 0 0 1 .484-.13.357.357 0 0 1 .13.485l-1.192 2.047a.35.35 0 0 1-.305.176M114.586 214.328s-3.172 4.246-4.219 11.766-.726 15.898-1.52 19.617c-.788 3.715-2.374 16.684.805 25.289h4.688s6.648-34.531 8.992-40.094c0 0 1.79 4.946 2.676 9.664.883 4.723.73 10.75 2.805 15.934 2.07 5.183 8.066 14.71 8.066 14.71l5.144-.218s-8.367-36.02-9.406-53.5c0 0-11.902-6.52-18.031-3.168"/>
  <path fill="#fff" d="M122.848 233.75c-.028 0-.059 0-.086-.008a.36.36 0 0 1-.258-.433l1.476-5.84a.36.36 0 0 1 .165-.219l1.597-.945a.355.355 0 0 1 .485.125.35.35 0 0 1-.125.484l-1.47.871-1.44 5.7a.35.35 0 0 1-.344.265M114.61 252.629a.35.35 0 0 1-.121-.684c2.023-.734 2.605-2.308 2.628-2.375a.355.355 0 0 1 .453-.215.35.35 0 0 1 .215.45c-.027.078-.703 1.953-3.058 2.804a.3.3 0 0 1-.118.02"/>
  <path fill="#5479f7" d="M167.82 184.04s-11.906 5.745-19.246 5.433c-7.34-.317-7.55-1.578-14.547-1.118-7 .465-10.035-.582-17.41 11.282-7.375 11.863-8.734 15.258-2.226 19.222 6.515 3.97 17.761.477 19.636 2.078 2.543 2.18 4.72-5.296 6.036-11.48.792-3.73 3.683-6.684 7.417-7.477 4.829-1.023 12.235-4.507 21.16-15z"/>
  <path d="M135.07 184.512s-2.882-2.66-3.941-3.282c-1.059-.62-2.379-3.164 1.18-4.718 1.152-.504 1.379-1.903 3.601-2.14 2.219-.243 4.063.886 4.3 2.284.243 1.395-1.085 2.61-2.077 2.77s-3.063 5.086-3.063 5.086"/>
  <path fill="#fff" d="m140.086 181.227.309-.446-1.223-1.562-.84-2.055c-2.367-.16-3.316.488-3.348 2.305-.02 1.16-.632 1.187-.632 1.187s-.903-.969-1.368.18c-.464 1.148 1.473 1.945 1.473 1.945l.406.864-4.008 5.44s6.458 1.708 6.528.692a1.15 1.15 0 0 0-.23-.742c-.747-1.012.597-3.75.597-3.75l2.156-.867a.83.83 0 0 0 .489-1l-.426-1.465a.85.85 0 0 1 .117-.726"/>
  <path d="M140.086 181.227h.004Zm-8.637 7.648c2.43.61 5.074 1.055 5.578.813a.77.77 0 0 0-.16-.442c-.847-1.152.418-3.816.567-4.117a.4.4 0 0 1 .187-.172l2.152-.867a.476.476 0 0 0 .282-.574l-.426-1.465a1.21 1.21 0 0 1 .164-1.028l.164-.23-1.062-1.356a.3.3 0 0 1-.051-.085l-.754-1.848c-1.121-.05-1.84.101-2.25.476-.328.305-.488.778-.5 1.493-.028 1.48-.934 1.535-.973 1.539a.37.37 0 0 1-.277-.114c-.113-.125-.36-.293-.504-.265-.129.023-.227.222-.274.336-.32.797 1.262 1.48 1.278 1.488a.36.36 0 0 1 .187.176l.407.86a.35.35 0 0 1-.036.362Zm4.988 1.566c-1.675.004-4.625-.734-5.675-1.011a.353.353 0 0 1-.191-.555l3.882-5.27-.262-.55c-.836-.38-1.984-1.246-1.535-2.352.227-.555.559-.723.801-.77.395-.07.754.145.965.313.09-.098.2-.328.207-.785.016-.91.254-1.566.73-2 .59-.543 1.543-.746 3-.649a.36.36 0 0 1 .305.22l.816 2.007 1.196 1.524a.36.36 0 0 1 .012.417l-.31.45a.49.49 0 0 0-.07.422l.426 1.468a1.18 1.18 0 0 1-.695 1.426l-2.027.816c-.469 1.004-1.004 2.68-.575 3.266q.33.45.297.973a.59.59 0 0 1-.254.441c-.199.145-.57.2-1.042.2"/>
  <path fill="#99b9ff" d="M246.547 163.418 149.5 186.863a2.126 2.126 0 0 0-1.57 2.57l13.406 55.34a2.13 2.13 0 0 0 2.574 1.57l97.047-23.44a2.13 2.13 0 0 0 1.57-2.571l-13.406-55.344a2.14 2.14 0 0 0-2.574-1.57"/>
  <path d="m246.629 163.766-97.043 23.441c-.461.11-.852.395-1.102.8-.246.407-.32.884-.21 1.345l13.406 55.34a1.783 1.783 0 0 0 2.148 1.308l97.047-23.441a1.777 1.777 0 0 0 1.309-2.145l-13.407-55.344a1.78 1.78 0 0 0-2.148-1.304m-83.219 82.992a2.49 2.49 0 0 1-2.418-1.899l-13.406-55.34a2.49 2.49 0 0 1 .293-1.882 2.5 2.5 0 0 1 1.539-1.117l97.047-23.442a2.49 2.49 0 0 1 3.004 1.828l13.402 55.34a2.46 2.46 0 0 1-.293 1.879c-.348.566-.89.965-1.535 1.121l-97.047 23.441q-.292.07-.586.07"/>
  <path fill="#5479f7" d="m252.43 210.316-60.043 14.504-9.782-40.375 60.04-14.504z"/>
  <path fill="#caddff" d="m254.504 218.883-86.691 20.941-1.075-4.437 86.692-20.942z"/>
  <path fill="#fff" d="m183.457 208.035-22.055 5.328 4.336 17.895 22.055-5.324zM178.012 185.555l-22.055 5.328 4.332 17.894 22.059-5.328z"/>
  <path fill="#caddff" d="M224.934 194.598c.96 3.96-1.477 7.945-5.442 8.906-3.965.957-7.957-1.477-8.918-5.438a7.376 7.376 0 0 1 5.442-8.902c3.968-.957 7.96 1.477 8.918 5.434"/>
  <path fill="#fff" d="m219.797 194.71-2.602-.972a1.327 1.327 0 0 0-1.754 1.555l.735 3.023c.25 1.032 1.554 1.364 2.27.579l1.867-2.051a1.327 1.327 0 0 0-.516-2.133M157.04 184.945s2.401-2.828 5.507-1.566c3.101 1.262 1.742 2.355.527 2.27-1.219-.083-3.969-1.387-6.035-.704"/>
  <path d="M158.387 184.395c1.148 0 2.336.324 3.281.582.586.16 1.09.296 1.43.32.492.031.945-.172.988-.367.039-.172-.258-.649-1.676-1.223-1.797-.73-3.336.02-4.242.691.074 0 .144-.003.219-.003m4.816 1.613q-.075-.002-.152-.004c-.414-.027-.95-.176-1.57-.344-1.336-.363-3-.82-4.329-.379a.352.352 0 0 1-.382-.562c.027-.031 2.605-3.012 5.91-1.668 1.558.633 2.265 1.32 2.097 2.039-.14.613-.89.918-1.574.918"/>
  <path fill="#fff" d="m153.367 214.828 2.223-2.68a.6.6 0 0 1 .281-.191l3.754-1.254c.066-.02.137.02.145.09.03.21.046.621-.282.797-.343.187.754-.149 1.29-.317.16-.05.316.082.288.25-.023.18-.117.407-.37.606 0 0 .312 2.055-2.051 2.7-2.364.644-4.137 2.136-4.688 2.413-.55.278-1.703-1.07-.59-2.414"/>
  <path d="m159.41 211.148-3.43 1.141a.4.4 0 0 0-.117.082l-2.222 2.684c-.618.742-.332 1.367-.23 1.539.151.258.343.34.39.332.11-.055.32-.196.562-.36.875-.59 2.34-1.574 4.188-2.078 2.035-.554 1.804-2.234 1.793-2.304a.35.35 0 0 1 .133-.332.8.8 0 0 0 .156-.165c-1.223.387-1.399.418-1.535.09-.032-.07-.106-.32.222-.496a.22.22 0 0 0 .09-.133m-5.61 6.485c-.296 0-.616-.172-.866-.485-.477-.597-.61-1.617.16-2.546l2.222-2.68a.95.95 0 0 1 .442-.3l3.754-1.255a.46.46 0 0 1 .39.047c.118.07.2.191.22.324q.028.195.015.36.215-.065.531-.164a.59.59 0 0 1 .55.109c.157.133.231.332.2.531a1.23 1.23 0 0 1-.36.703c.016.59-.14 2.301-2.32 2.895-1.738.473-3.14 1.418-3.98 1.98-.285.192-.488.328-.64.407a.7.7 0 0 1-.317.074"/>
  <path fill="#5479f7" d="M121.152 199.305s5.266 26.691 32.293 19.011l-1.172-4.046s-17.046 1.27-21.62-16.622c0 0-3.583-6.289-9.5 1.657"/>
  <path fill="#fff" d="M134.762 218.05a.4.4 0 0 1-.094-.01c-6.863-1.888-11.586-12.177-11.785-12.614-.082-.18 0-.39.176-.469a.36.36 0 0 1 .472.176c.047.105 4.781 10.426 11.324 12.222a.354.354 0 0 1-.094.695M132.848 195.758q-.005.005-.004.015-.001-.01.004-.015m10.328 16.75q-.037-.001-.078-.008c-2.907-.652-5.391-2.648-7.38-5.937-2.827-4.68-3.702-10.446-3.562-10.977.051-.188.246-.3.438-.25.18.05.293.234.254.414-.082.934 2.078 14.191 10.406 16.059a.354.354 0 0 1-.078.7"/>
  <path fill="#99b9ff" d="m248.332 103.32 17.707 5.14 12.566-13.956z"/>
  <path fill="#5479f7" d="m257.152 111.617-2.468-6.453 19.566-8.238-16.457 9.14 3.703 1.079z"/>
  <path fill="#99b9ff" d="M257.645 110.21q-.017 0-.04-.003a.327.327 0 0 1-.289-.363l.418-3.602a.325.325 0 0 1 .364-.285c.18.02.312.184.289.363l-.414 3.602a.33.33 0 0 1-.328.289"/>
  <path d="M266.781 87.156a.35.35 0 0 1-.25-.101l-1.035-1.035a.35.35 0 0 1 0-.5.35.35 0 0 1 .5 0l1.035 1.035c.14.136.14.363 0 .5a.34.34 0 0 1-.25.101M270.41 90.781a.37.37 0 0 1-.25-.101l-1.035-1.04a.35.35 0 0 1 0-.5.356.356 0 0 1 .5 0l1.035 1.036a.354.354 0 0 1-.25.605M265.746 90.781a.354.354 0 0 1-.25-.605l1.035-1.035a.356.356 0 0 1 .5 0c.14.14.14.363 0 .5l-1.035 1.039a.37.37 0 0 1-.25.101M269.375 87.156a.34.34 0 0 1-.25-.101.35.35 0 0 1 0-.5l1.035-1.035a.354.354 0 0 1 .504 0 .356.356 0 0 1 0 .5l-1.039 1.035a.35.35 0 0 1-.25.101M257.074 117.512q-.011.001-.023-.004a.236.236 0 0 1-.211-.258c.066-.652.125-1.309.183-1.957a.236.236 0 0 1 .469.04 115 115 0 0 1-.183 1.964.234.234 0 0 1-.235.215m-.926 5.582q-.034-.001-.062-.008a.24.24 0 0 1-.168-.29c.223-.839.41-1.737.57-2.75a.235.235 0 0 1 .27-.194c.129.02.219.14.195.27a27 27 0 0 1-.578 2.796.23.23 0 0 1-.227.176m-2.3 5.144a.22.22 0 0 1-.133-.043.233.233 0 0 1-.059-.328 14.016 14.016 0 0 0 1.355-2.43.235.235 0 1 1 .43.192c-.257.59-.55 1.16-.867 1.687a13 13 0 0 1-.531.82.23.23 0 0 1-.195.102m-4.059 3.907a.25.25 0 0 1-.2-.106.24.24 0 0 1 .071-.328 15.5 15.5 0 0 0 2.184-1.734.235.235 0 0 1 .332.007.24.24 0 0 1-.004.332c-.68.649-1.434 1.25-2.25 1.79a.24.24 0 0 1-.133.039m-36.016.757h-.011a45 45 0 0 0-2.82-.05c-.133.011-.239-.102-.243-.23 0-.13.106-.24.235-.243.949-.012 1.91.004 2.851.05.13.008.23.118.223.247a.233.233 0 0 1-.235.226m-8.484.403a.23.23 0 0 1-.234-.2.24.24 0 0 1 .199-.27c.93-.136 1.883-.241 2.832-.32a.234.234 0 0 1 .254.22.236.236 0 0 1-.215.253c-.941.075-1.883.18-2.805.313q-.018.005-.03.004m14.125.187q-.017.001-.035-.004a81 81 0 0 0-2.805-.363.23.23 0 0 1-.207-.258.234.234 0 0 1 .258-.21c.883.097 1.805.214 2.824.366.13.02.215.137.2.266a.24.24 0 0 1-.235.203m5.594.93h-.04l-.784-.137q-1.004-.177-2.008-.347a.24.24 0 0 1-.196-.274.24.24 0 0 1 .274-.191q1.007.17 2.008.347l.789.137a.23.23 0 0 1 .191.27.235.235 0 0 1-.234.195m-25.262.082a.24.24 0 0 1-.226-.172.24.24 0 0 1 .16-.293 40 40 0 0 1 2.765-.695.234.234 0 0 1 .282.18.234.234 0 0 1-.18.28c-.922.2-1.84.43-2.734.692-.024.004-.043.008-.067.008m44.914.023a.24.24 0 0 1-.222-.168.235.235 0 0 1 .156-.293c.91-.285 1.793-.62 2.617-1a.24.24 0 0 1 .316.114.24.24 0 0 1-.117.312c-.844.39-1.742.735-2.68 1.024a.2.2 0 0 1-.07.011m-14.047.774c-.008 0-.02-.004-.027-.004a91 91 0 0 1-2.816-.406.238.238 0 0 1 .074-.469 91 91 0 0 0 2.8.406.237.237 0 0 1-.03.473m8.489.3a.244.244 0 0 1-.239-.214.245.245 0 0 1 .219-.258c.941-.082 1.879-.211 2.785-.387a.237.237 0 0 1 .274.188.234.234 0 0 1-.184.277c-.922.176-1.875.309-2.836.395zm-2.836.114q-.167.001-.332-.004a41 41 0 0 1-2.516-.121.236.236 0 0 1-.219-.254.234.234 0 0 1 .254-.215c.856.063 1.695.106 2.488.117.11.004.22.004.329.008.128 0 .234.106.234.238 0 .13-.106.23-.238.23m-41.832.758a.23.23 0 0 1-.211-.137.23.23 0 0 1 .113-.313 34 34 0 0 1 2.637-1.09.23.23 0 0 1 .3.137.237.237 0 0 1-.136.305c-.887.328-1.762.691-2.602 1.074a.24.24 0 0 1-.101.024m-4.938 2.77a.235.235 0 0 1-.133-.43 34 34 0 0 1 2.43-1.5.237.237 0 0 1 .23.414c-.824.46-1.628.957-2.398 1.472a.2.2 0 0 1-.129.043m-4.394 3.57a.24.24 0 0 1-.172-.07.24.24 0 0 1 .004-.337 33 33 0 0 1 2.132-1.898.245.245 0 0 1 .336.035.24.24 0 0 1-.035.332 31 31 0 0 0-2.101 1.871.24.24 0 0 1-.164.066m-3.633 4.34a.23.23 0 0 1-.133-.04.237.237 0 0 1-.063-.328 28 28 0 0 1 1.72-2.281.235.235 0 1 1 .362.3 28 28 0 0 0-1.69 2.247.23.23 0 0 1-.196.101m-2.696 4.976a.2.2 0 0 1-.09-.02.236.236 0 0 1-.128-.308c.37-.875.785-1.742 1.238-2.574a.237.237 0 0 1 .32-.094.235.235 0 0 1 .094.32 30 30 0 0 0-1.215 2.531.24.24 0 0 1-.219.145m-1.683 5.398q-.023.001-.047-.004a.236.236 0 0 1-.184-.277 30 30 0 0 1 .715-2.766.235.235 0 0 1 .297-.152.233.233 0 0 1 .156.293 28 28 0 0 0-.703 2.719.235.235 0 0 1-.234.187m-.567 5.63a.237.237 0 0 1-.238-.239v-.129c0-.898.047-1.812.14-2.723a.24.24 0 0 1 .259-.21.236.236 0 0 1 .21.257c-.09.895-.136 1.793-.136 2.676v.129a.24.24 0 0 1-.235.238m.668 5.609a.24.24 0 0 1-.23-.18 25 25 0 0 1-.504-2.816.233.233 0 0 1 .207-.258.237.237 0 0 1 .266.207c.11.93.273 1.86.492 2.758a.243.243 0 0 1-.176.285c-.02.004-.035.004-.055.004m2.008 5.28a.24.24 0 0 1-.21-.12 22 22 0 0 1-1.184-2.606.235.235 0 0 1 .136-.304.237.237 0 0 1 .305.136c.332.875.723 1.735 1.16 2.551a.24.24 0 0 1-.097.32.3.3 0 0 1-.11.024"/>
  <path fill="#fff" d="M107.035 211.04a.36.36 0 0 1-.336-.24c-6.91-19.933-6.097-35.308-4.199-44.698 2.063-10.2 5.828-15.758 5.867-15.817.11-.16.328-.2.492-.09.16.11.204.332.09.493-.035.054-3.734 5.527-5.761 15.597-1.876 9.293-2.668 24.524 4.183 44.281a.355.355 0 0 1-.219.45.3.3 0 0 1-.117.023"/>
  <path fill="#fff" d="M100.125 203.484a.36.36 0 0 1-.348-.27c-4.992-20.444-2.851-35.503-.172-44.534 2.907-9.813 7.067-14.856 7.11-14.907a.357.357 0 0 1 .5-.043.357.357 0 0 1 .043.5c-.04.047-4.125 5.008-6.988 14.692-2.641 8.941-4.754 23.855.199 44.125a.357.357 0 0 1-.262.43 1 1 0 0 1-.082.007M99.613 149.39a.36.36 0 0 1-.328-.218c-.367-.887-.39-1.613-.066-2.156.242-.399.578-.54.851-.653.203-.086.383-.16.532-.34.265-.324.207-.703.09-1.289-.11-.547-.235-1.168.105-1.765.418-.727 1.187-.828 1.867-.914.586-.075 1.137-.145 1.453-.578.363-.493.2-1.16.024-1.868-.2-.8-.422-1.707.152-2.464.48-.633 1.195-.75 1.824-.848.516-.086.965-.156 1.168-.492.211-.348.25-1.09-.758-2.664a.354.354 0 0 1 .598-.38c.98 1.528 1.23 2.645.766 3.41-.375.614-1.055.724-1.66.821-.547.09-1.063.172-1.372.582-.37.488-.21 1.125-.03 1.867.198.793.421 1.696-.141 2.457-.497.672-1.258.774-1.93.86-.684.086-1.113.16-1.344.562-.21.368-.125.785-.027 1.274.12.597.258 1.277-.239 1.879-.261.316-.562.441-.804.543-.262.109-.399.172-.516.363q-.304.516.113 1.523a.354.354 0 0 1-.328.489"/>
  <path d="M246.676 160.988a.33.33 0 0 1-.328-.328v-9.254a.33.33 0 0 1 .66 0v9.254a.33.33 0 0 1-.332.328M249.242 161.957a.33.33 0 0 1-.32-.41l3.441-13.387a.323.323 0 0 1 .399-.234c.18.043.285.222.238.398l-3.437 13.387a.34.34 0 0 1-.32.246M251.832 164.41a.32.32 0 0 1-.277-.156.33.33 0 0 1 .101-.453l6.817-4.238a.333.333 0 0 1 .453.105.33.33 0 0 1-.11.453l-6.808 4.238a.35.35 0 0 1-.176.051"/>
  <path fill="#caddff" d="M166.969 66.121c30.3-10.351 29.726-22.465 54.898-28.414 34.692-8.195 81.238 4.074 94.649 32.61 9.574 20.374-6.184 31.101-9.153 78.132-3.336 52.848 15.051 63.121 6.63 90.399-13.548 43.851-77.075 68.12-127.145 66.832-16.133-.414-73.914-4.61-109.793-52.625C32.09 192.87 46.59 97.367 84.94 75.48c21.746-12.402 38.985 5.344 82.028-9.359"/>
  <path fill="#fff" d="M225.066 84.64c8.094-13.964 25.989-18.734 39.97-10.648 13.984 8.082 18.757 25.953 10.663 39.918-8.09 13.965-25.988 18.735-39.969 10.653-13.984-8.083-18.753-25.958-10.664-39.922m-19.293-1.445a47 47 0 0 0-2.07 7.633L191.61 93.54l-.011 11.348 12.105 2.742a47.7 47.7 0 0 0 2.035 7.629l-9.129 8.402 5.672 9.836 11.84-3.668a47 47 0 0 0 5.602 5.586l-3.703 11.832 9.835 5.688 8.43-9.102a47.3 47.3 0 0 0 7.64 2.07l2.712 12.078 11.367.012 2.742-12.09a48 48 0 0 0 7.64-2.039l8.41 9.121 9.849-5.664-3.672-11.824a47 47 0 0 0 5.593-5.594l11.844 3.696 5.692-9.82-9.11-8.419a46.5 46.5 0 0 0 2.07-7.632l12.094-2.715.016-11.348-12.106-2.742a48 48 0 0 0-2.039-7.629l9.13-8.398-5.673-9.836-11.84 3.668a47 47 0 0 0-5.597-5.59l3.7-11.832-9.837-5.684-8.426 9.098a47 47 0 0 0-7.644-2.067l-2.711-12.082-11.367-.008-2.742 12.09a48 48 0 0 0-7.641 2.035l-8.406-9.117-9.848 5.66 3.668 11.829a47 47 0 0 0-5.594 5.593l-11.844-3.695-5.69 9.824z"/>
  <path d="M276.352 104.918 84.258 97.512c-4.567 0-8.285 3.71-8.285 8.273v133.938c0 4.562 3.718 8.277 8.285 8.277l69.41-4.7-8.91 32.49-9.43.073a5.335 5.335 0 0 0-5.332 5.325 5.33 5.33 0 0 0 5.332 5.324l78.965-3.762c2.937 0-2.563-34.75-2.563-34.75s69.188-143.082 64.622-143.082"/>
  <path fill="#fff" d="M210.488 230.875h-48.984l-13.899 50.66h76.778z"/>
  <path d="M148.246 281.047h75.496l-13.629-49.684h-48.238Zm76.137.976h-76.778a.492.492 0 0 1-.473-.617l13.9-50.66a.49.49 0 0 1 .472-.36h48.984c.219 0 .414.15.469.36l13.898 50.66a.49.49 0 0 1-.082.426.5.5 0 0 1-.39.191"/>
  <path fill="#fff" d="M283.793 97.977H88.199c-4.316 0-7.816 3.5-7.816 7.808v133.938c0 4.312 3.5 7.808 7.816 7.808h195.594c4.316 0 7.816-3.496 7.816-7.808V105.785c0-4.308-3.5-7.808-7.816-7.808"/>
  <path d="M88.2 98.469c-4.04 0-7.329 3.281-7.329 7.32v133.934c0 4.035 3.29 7.32 7.328 7.32h195.59c4.04 0 7.328-3.285 7.328-7.32V105.789c0-4.039-3.289-7.32-7.328-7.32Zm195.59 149.55H88.2c-4.583 0-8.305-3.722-8.305-8.296V105.789c0-4.574 3.722-8.297 8.304-8.297h195.59c4.578 0 8.309 3.723 8.309 8.297v133.934c0 4.574-3.73 8.297-8.309 8.297"/>
  <path fill="#fff" d="M232.723 276.332H139.27a4.86 4.86 0 0 0-4.864 4.856 4.86 4.86 0 0 0 4.864 4.859h93.453a4.86 4.86 0 0 0 4.863-4.86 4.86 4.86 0 0 0-4.863-4.855"/>
  <path d="M139.27 276.82a4.374 4.374 0 0 0-4.375 4.368c0 2.41 1.96 4.37 4.375 4.37h93.453a4.38 4.38 0 0 0 4.375-4.37 4.376 4.376 0 0 0-4.375-4.368Zm93.453 9.715H139.27a5.357 5.357 0 0 1-5.356-5.348c0-2.945 2.402-5.347 5.356-5.347h93.453a5.36 5.36 0 0 1 5.351 5.348 5.356 5.356 0 0 1-5.351 5.347"/>
  <path fill="#99b9ff" d="M276.04 109.34H97.343a3.353 3.353 0 0 0-3.356 3.355v2.465c0 1.852 1.5 3.356 3.356 3.356h178.695a3.36 3.36 0 0 0 3.36-3.356v-2.465a3.356 3.356 0 0 0-3.36-3.355"/>
  <path fill="#fff" d="M275.172 113.93a2.21 2.21 0 0 1-4.422 0 2.211 2.211 0 0 1 4.422 0M183.79 234.191H94.062v-111.37h89.726z"/>
  <path fill="#99b9ff" d="M100.332 123.309h-3.914a.49.49 0 1 1 0-.977h3.914a.488.488 0 0 1 0 .977m7.828 0h-3.914a.488.488 0 0 1 0-.977h3.914a.49.49 0 1 1 0 .977m7.832 0h-3.914a.49.49 0 1 1 0-.977h3.914a.488.488 0 0 1 0 .977m7.828 0h-3.914a.488.488 0 0 1 0-.977h3.914a.49.49 0 1 1 0 .977m7.832 0h-3.914a.49.49 0 0 1-.492-.489c0-.27.223-.488.492-.488h3.914a.488.488 0 0 1 0 .977m7.832 0h-3.918a.488.488 0 0 1 0-.977h3.918a.488.488 0 0 1 0 .977m7.828 0h-3.914a.488.488 0 0 1 0-.977h3.915a.488.488 0 0 1 0 .977m7.833 0h-3.915a.49.49 0 1 1 0-.977h3.915a.488.488 0 0 1 0 .977m7.828 0h-3.914a.488.488 0 0 1 0-.977h3.914c.27 0 .492.219.492.488 0 .27-.223.489-.492.489m7.832 0h-3.914a.49.49 0 1 1 0-.977h3.914a.488.488 0 0 1 0 .977m7.828 0h-3.914a.488.488 0 0 1 0-.977h3.914c.27 0 .492.219.492.488 0 .27-.223.489-.492.489m5.156 2.671a.49.49 0 0 1-.488-.488v-2.183h-.75a.49.49 0 1 1 0-.977h1.238c.27 0 .492.219.492.488v2.672c0 .27-.222.488-.492.488m-89.726 2.801a.49.49 0 0 1-.489-.492v-3.91a.488.488 0 0 1 .977 0v3.91c0 .27-.219.492-.489.492m89.726 5.02a.49.49 0 0 1-.488-.488v-3.91c0-.27.219-.489.488-.489.27 0 .492.219.492.488v3.91c0 .27-.222.489-.492.489m-89.726 2.8a.49.49 0 0 1-.489-.492v-3.91a.488.488 0 0 1 .977 0v3.91a.49.49 0 0 1-.489.493m89.726 5.02a.49.49 0 0 1-.488-.488v-3.91c0-.27.219-.489.488-.489.27 0 .492.22.492.489v3.91c0 .27-.222.488-.492.488m-89.726 2.8a.49.49 0 0 1-.489-.491v-3.91c0-.266.219-.489.489-.489.269 0 .488.223.488.489v3.91a.49.49 0 0 1-.489.492m89.726 5.02a.49.49 0 0 1-.488-.488v-3.91c0-.27.219-.488.488-.488.27 0 .492.218.492.488v3.91c0 .27-.222.488-.492.488m-89.726 2.801a.49.49 0 0 1-.489-.488v-3.91a.488.488 0 0 1 .977 0v3.91c0 .27-.219.488-.489.488m89.726 5.02a.49.49 0 0 1-.488-.489v-3.91c0-.27.219-.488.488-.488.27 0 .492.219.492.488v3.91c0 .27-.222.489-.492.489m-89.726 2.8a.49.49 0 0 1-.489-.488v-3.91a.488.488 0 0 1 .977 0v3.91c0 .27-.219.488-.489.488m89.726 5.02a.486.486 0 0 1-.488-.488v-3.91c0-.27.219-.489.488-.489.27 0 .492.22.492.489v3.91a.49.49 0 0 1-.492.488m-89.726 2.8a.49.49 0 0 1-.489-.487v-3.91a.488.488 0 0 1 .977 0v3.91c0 .27-.219.488-.489.488m89.726 5.024a.49.49 0 0 1-.488-.488v-3.914c0-.27.219-.488.488-.488.27 0 .492.218.492.488v3.914c0 .27-.222.488-.492.488m-89.726 2.797a.49.49 0 0 1-.489-.488v-3.91a.488.488 0 0 1 .977 0v3.91c0 .27-.219.488-.489.488m89.726 5.024a.49.49 0 0 1-.488-.489v-3.914c0-.27.219-.484.488-.484.27 0 .492.215.492.484v3.914c0 .27-.222.489-.492.489m-89.726 2.796a.49.49 0 0 1-.489-.488v-3.91a.488.488 0 0 1 .977 0v3.91c0 .27-.219.488-.489.488m89.726 5.024a.49.49 0 0 1-.488-.488v-3.91c0-.27.219-.493.488-.493.27 0 .492.223.492.492v3.91c0 .27-.222.489-.492.489m-89.726 2.797a.49.49 0 0 1-.489-.489v-3.91a.488.488 0 0 1 .977 0v3.91c0 .27-.219.489-.489.489m89.726 5.023a.49.49 0 0 1-.488-.488v-3.91c0-.27.219-.489.488-.489.27 0 .492.22.492.489v3.91c0 .27-.222.488-.492.488m-89.726 2.801a.49.49 0 0 1-.489-.492v-3.91a.488.488 0 0 1 .977 0v3.91c0 .27-.219.492-.489.492m89.726 5.02a.49.49 0 0 1-.488-.489v-3.91c0-.27.219-.488.488-.488.27 0 .492.219.492.488v3.91c0 .27-.222.488-.492.488m-89.726 2.8a.49.49 0 0 1-.489-.488v-3.914c0-.27.219-.484.489-.484.269 0 .488.214.488.484v3.914c0 .27-.219.488-.489.488m89.726 5.02a.49.49 0 0 1-.488-.488v-3.91c0-.27.219-.489.488-.489.27 0 .492.219.492.488v3.91c0 .27-.222.489-.492.489m-89.726 2.8a.49.49 0 0 1-.489-.492v-3.906c0-.27.219-.492.489-.492.269 0 .488.223.488.492v3.906a.49.49 0 0 1-.489.493m89.726 5.02a.49.49 0 0 1-.488-.488v-3.91c0-.27.219-.489.488-.489.27 0 .492.22.492.489v3.91c0 .27-.222.488-.492.488m-89.726 2.8a.49.49 0 0 1-.489-.487v-3.91a.488.488 0 0 1 .977 0v3.91c0 .27-.219.488-.489.488m89.726 5.024a.49.49 0 0 1-.488-.488v-3.914c0-.27.219-.488.488-.488.27 0 .492.218.492.488v3.914c0 .27-.222.488-.492.488m-89.726 2.797a.49.49 0 0 1-.489-.488v-3.91a.488.488 0 0 1 .977 0v3.91c0 .27-.219.488-.489.488m3.593 4.23h-3.594a.49.49 0 0 1-.488-.488v-.32a.488.488 0 0 1 .95-.168h3.132a.488.488 0 0 1 0 .977m7.832 0h-3.918a.488.488 0 0 1 0-.976h3.918a.488.488 0 0 1 0 .977m7.828 0h-3.914a.488.488 0 0 1 0-.976h3.914c.27 0 .493.219.493.488 0 .27-.223.489-.493.489m7.832 0h-3.914a.49.49 0 1 1 0-.976h3.914a.488.488 0 0 1 0 .977m7.829 0h-3.915a.488.488 0 0 1 0-.976h3.915a.49.49 0 1 1 0 .977m7.832 0h-3.914a.49.49 0 1 1 0-.976h3.914a.488.488 0 0 1 0 .977m7.828 0h-3.914a.488.488 0 0 1 0-.976h3.914a.49.49 0 1 1 0 .977m7.832 0h-3.914a.488.488 0 0 1 0-.976h3.914c.27 0 .492.219.492.488 0 .27-.223.489-.492.489m7.832 0h-3.918a.488.488 0 0 1 0-.976h3.918a.488.488 0 0 1 0 .977m7.828 0h-3.914a.488.488 0 0 1 0-.976h3.914c.27 0 .492.219.492.488 0 .27-.223.489-.492.489m7.832 0h-3.918a.488.488 0 0 1 0-.976h3.918a.488.488 0 0 1 0 .977m7.828 0h-3.914a.488.488 0 0 1 0-.976h3.426v-2.633c0-.27.219-.488.488-.488.27 0 .492.219.492.488v3.121c0 .27-.222.489-.492.489"/>
  <path fill="#fff" d="M279.32 160.176h-89.726V122.82h89.726z"/>
  <path fill="#99b9ff" d="M199.488 123.309h-3.914a.488.488 0 0 1 0-.977h3.914a.488.488 0 0 1 0 .977m7.832 0h-3.914a.49.49 0 1 1 0-.977h3.914a.488.488 0 0 1 0 .977m7.828 0h-3.914a.488.488 0 0 1 0-.977h3.914a.49.49 0 1 1 0 .977m7.832 0h-3.914a.49.49 0 1 1 0-.977h3.914a.488.488 0 0 1 0 .977m7.829 0h-3.914a.488.488 0 0 1 0-.977h3.914c.27 0 .492.219.492.488 0 .27-.223.489-.492.489m7.832 0h-3.914a.49.49 0 0 1-.493-.489c0-.27.223-.488.493-.488h3.914a.488.488 0 0 1 0 .977m7.832 0h-3.918a.488.488 0 0 1 0-.977h3.918a.488.488 0 0 1 0 .977m7.828 0h-3.914a.486.486 0 0 1-.489-.489c0-.27.215-.488.489-.488h3.914a.488.488 0 0 1 0 .977m7.832 0h-3.914a.49.49 0 1 1 0-.977h3.914a.488.488 0 0 1 0 .977m7.828 0h-3.914a.488.488 0 0 1 0-.977h3.914a.488.488 0 0 1 0 .977m7.832 0h-3.914a.49.49 0 1 1 0-.977h3.914a.488.488 0 0 1 0 .977m-88.203 1.843a.486.486 0 0 1-.488-.488v-1.844c0-.27.218-.488.488-.488h2.07a.488.488 0 0 1 0 .977h-1.578v1.355a.487.487 0 0 1-.492.488m89.726 4.453a.49.49 0 0 1-.488-.488v-3.91a.49.49 0 0 1 .98 0v3.91a.49.49 0 0 1-.492.488m-89.726 3.372a.49.49 0 0 1-.488-.493v-3.91a.49.49 0 0 1 .98 0v3.91a.49.49 0 0 1-.492.493m89.726 4.449a.49.49 0 0 1-.488-.488v-3.91a.49.49 0 0 1 .98 0v3.91a.49.49 0 0 1-.492.488m-89.726 3.37a.49.49 0 0 1-.488-.487v-3.914a.491.491 0 0 1 .98 0v3.914a.49.49 0 0 1-.492.488m89.726 4.45a.49.49 0 0 1-.488-.488v-3.91a.49.49 0 0 1 .98 0v3.91a.49.49 0 0 1-.492.488m-89.726 3.371a.49.49 0 0 1-.488-.488v-3.91a.49.49 0 0 1 .98 0v3.91a.49.49 0 0 1-.492.488m89.726 4.453a.49.49 0 0 1-.488-.492v-3.91a.49.49 0 0 1 .98 0v3.91c0 .27-.218.492-.492.492m-89.726 3.368a.49.49 0 0 1-.488-.489v-3.91a.49.49 0 0 1 .98 0v3.91a.49.49 0 0 1-.492.488m3.594 4.23h-3.594a.49.49 0 0 1-.488-.488v-.32c0-.27.218-.493.488-.493.21 0 .39.137.46.324h3.134c.27 0 .492.22.492.489 0 .27-.223.488-.492.488m7.832 0h-3.914a.49.49 0 0 1-.493-.488c0-.27.223-.489.493-.489h3.914a.488.488 0 0 1 0 .977m7.832 0h-3.918a.488.488 0 0 1 0-.977h3.918a.488.488 0 0 1 0 .977m7.828 0h-3.914a.488.488 0 0 1 0-.977h3.914c.27 0 .492.22.492.489 0 .27-.223.488-.492.488m7.828 0h-3.91a.49.49 0 0 1-.492-.488c0-.27.222-.489.492-.489h3.91a.49.49 0 1 1 0 .977m7.832 0h-3.914a.488.488 0 0 1 0-.977h3.914a.488.488 0 0 1 0 .977m7.832 0h-3.914a.49.49 0 1 1 0-.977h3.914a.488.488 0 0 1 0 .977m7.828 0h-3.914a.488.488 0 0 1 0-.977h3.914a.49.49 0 1 1 0 .977m7.832 0h-3.914a.49.49 0 0 1-.492-.488c0-.27.223-.489.492-.489h3.914a.488.488 0 0 1 0 .977m7.828 0h-3.914a.488.488 0 0 1 0-.977h3.914c.27 0 .492.22.492.489 0 .27-.222.488-.492.488m7.832 0h-3.914a.488.488 0 0 1 0-.977h3.914a.488.488 0 0 1 0 .977m7.828 0h-3.914a.488.488 0 0 1 0-.977h3.426v-3.199c0-.273.219-.488.488-.488.274 0 .493.215.493.488v3.688a.49.49 0 0 1-.493.488"/>
  <path fill="#fff" d="M279.32 234.191h-89.726v-66.964h89.726z"/>
  <path fill="#99b9ff" d="M201.172 167.719h-3.918a.49.49 0 0 1 0-.98h3.918a.49.49 0 0 1 0 .98m7.828 0h-3.914a.49.49 0 1 1 0-.98H209a.49.49 0 0 1 0 .98m7.828 0h-3.914a.49.49 0 0 1 0-.98h3.914a.49.49 0 1 1 0 .98m7.832 0h-3.914a.49.49 0 0 1 0-.98h3.914a.49.49 0 0 1 0 .98m7.832 0h-3.914a.49.49 0 1 1 0-.98h3.914a.49.49 0 0 1 0 .98m7.828 0h-3.914a.49.49 0 0 1 0-.98h3.914c.274 0 .489.218.489.488a.487.487 0 0 1-.489.492m7.832 0h-3.914a.49.49 0 1 1 0-.98h3.914a.49.49 0 0 1 0 .98m7.828 0h-3.914a.49.49 0 0 1 0-.98h3.914c.27 0 .493.218.493.488a.493.493 0 0 1-.493.492m7.833 0h-3.915a.493.493 0 0 1-.492-.492c0-.27.223-.489.492-.489h3.914c.27 0 .489.219.489.489a.49.49 0 0 1-.488.492m7.828 0h-3.914a.49.49 0 0 1 0-.98h3.914a.49.49 0 1 1 0 .98m7.675.152a.5.5 0 0 1-.355-.152h-3.402a.487.487 0 0 1-.489-.492c0-.27.215-.489.489-.489h3.757a.49.49 0 0 1 .493.489v.156a.49.49 0 0 1-.493.488m-89.726.012a.49.49 0 0 1-.488-.488v-.168c0-.27.218-.489.488-.489h3.75c.27 0 .488.219.488.489a.49.49 0 0 1-.488.492h-3.383a.48.48 0 0 1-.367.164m89.726 7.812a.49.49 0 0 1-.488-.492v-3.91c0-.273.219-.488.488-.488.274 0 .493.215.493.488v3.91c0 .27-.22.492-.493.492m-89.726.008a.49.49 0 0 1-.488-.488v-3.91a.49.49 0 0 1 .98 0v3.91a.49.49 0 0 1-.492.488m89.726 7.809a.49.49 0 0 1-.488-.489v-3.91a.49.49 0 0 1 .98 0v3.91a.49.49 0 0 1-.492.489m-89.726.015a.49.49 0 0 1-.488-.492v-3.91a.49.49 0 0 1 .98 0v3.91c0 .27-.219.492-.492.492m89.726 7.805a.49.49 0 0 1-.488-.488v-3.91a.49.49 0 0 1 .98 0v3.91a.49.49 0 0 1-.492.488m-89.726.012a.486.486 0 0 1-.488-.489v-3.91a.49.49 0 0 1 .98 0v3.91a.487.487 0 0 1-.492.489m89.726 7.808a.49.49 0 0 1-.488-.488v-3.91a.49.49 0 0 1 .98 0v3.91a.49.49 0 0 1-.492.488m-89.726.016a.49.49 0 0 1-.488-.492v-3.91a.49.49 0 0 1 .98 0v3.91c0 .27-.219.492-.492.492m89.726 7.809a.49.49 0 0 1-.488-.493v-3.91a.49.49 0 0 1 .98 0v3.91c0 .27-.218.493-.492.493m-89.726.011a.49.49 0 0 1-.488-.488v-3.91c0-.274.218-.488.488-.488.273 0 .492.214.492.488v3.91a.49.49 0 0 1-.492.488m89.726 7.809a.49.49 0 0 1-.488-.488v-3.914c0-.27.219-.485.488-.485.274 0 .493.215.493.485v3.914a.49.49 0 0 1-.493.488m-89.726.012a.49.49 0 0 1-.488-.489v-3.91c0-.27.218-.492.488-.492.273 0 .492.223.492.492v3.91a.49.49 0 0 1-.492.489m89.726 7.808a.49.49 0 0 1-.488-.488v-3.91c0-.27.219-.492.488-.492.274 0 .493.222.493.492v3.91a.49.49 0 0 1-.493.488m-89.726.012a.49.49 0 0 1-.488-.488v-3.91a.49.49 0 0 1 .98 0v3.91a.49.49 0 0 1-.492.488m89.726 7.809a.49.49 0 0 1-.488-.489v-3.91c0-.273.219-.488.488-.488.274 0 .493.215.493.488v3.91a.49.49 0 0 1-.493.488m-89.726.011a.49.49 0 0 1-.488-.488v-3.91a.49.49 0 0 1 .98 0v3.91a.49.49 0 0 1-.492.488m3.594 4.23h-3.594a.49.49 0 0 1-.488-.488v-.32a.488.488 0 0 1 .949-.168h3.133c.27 0 .492.219.492.488 0 .27-.223.489-.492.489m7.832 0h-3.914a.49.49 0 0 1-.493-.488c0-.27.223-.488.493-.488h3.914a.488.488 0 0 1 0 .977m7.832 0h-3.918a.488.488 0 0 1 0-.976h3.918a.488.488 0 0 1 0 .977m7.828 0h-3.914a.488.488 0 0 1 0-.976h3.914c.27 0 .492.219.492.488 0 .27-.223.489-.492.489m7.828 0h-3.91a.49.49 0 0 1-.492-.488c0-.27.222-.488.492-.488h3.91a.49.49 0 1 1 0 .977m7.832 0h-3.914a.488.488 0 0 1 0-.976h3.914a.488.488 0 0 1 0 .977m7.832 0h-3.914a.49.49 0 1 1 0-.976h3.914a.488.488 0 0 1 0 .977m7.828 0h-3.914a.488.488 0 0 1 0-.976h3.914a.49.49 0 1 1 0 .977m7.832 0h-3.914a.49.49 0 0 1-.492-.488c0-.27.223-.488.492-.488h3.914a.488.488 0 0 1 0 .977m7.828 0h-3.914a.488.488 0 0 1 0-.976h3.914c.27 0 .492.219.492.488 0 .27-.222.489-.492.489m7.832 0h-3.914a.488.488 0 0 1 0-.976h3.914a.488.488 0 0 1 0 .977m7.828 0h-3.914a.488.488 0 0 1 0-.976h3.453a.49.49 0 0 1 .953.156v.332a.49.49 0 0 1-.492.489"/>
  <path d="M146.094 55.145c1.281-.27 2.293.503 3.265-.247 1.149-.886 1.18-3.097.563-4.613-1.098-2.703-4.621-4.125-7.453-3.765-2.801.355-3.02 2.218-5.098 2.378-3.707.286-4.844-5.515-10.437-9.285-4.227-2.851-10.141-3.972-15.008-2.695-6.403 1.68-6.34 6.289-12.57 7.555-5.586 1.136-7.036-1.746-12.56-1.059-5.038.629-10.425 5.426-11.01 10.918-.548 5.148 3.144 10.879 8.073 12.953 10.883 4.57 26.059-9.441 31.23-4.336 1.208 1.192 2.087 3.637 4.4 3.946 1.57.21 2.753-.707 3.687-1.239 6.062-3.465 12.488 3.137 16.89.188 3.832-2.574 2.465-9.946 6.028-10.7M144.184 134.492c.113 1.465.46 3.442.984 4.332l6.168-8.449-3.234-.727c-.532.872-2.114 3.34-3.918 4.844m1.015 5.606a.48.48 0 0 1-.281-.094c-1.371-.977-1.68-4.922-1.727-5.703a.48.48 0 0 1 .184-.414c2.11-1.653 4.043-5.004 4.063-5.035a.485.485 0 0 1 .53-.235l4.31.969a.49.49 0 0 1 .35.3.5.5 0 0 1-.062.462l-6.968 9.55a.5.5 0 0 1-.399.2"/>
  <path fill="#fff" d="M144.344 132.656s-4.418.934-5.082 2.043c-.559.934 2.289 12.297 3.3 15.973.18.652 1.008.86 1.465.363 1.125-1.234 2.88-4.508 4.325-13.191.074-.453-.11-.91-.48-1.184l-2.06-1.512-1.019 1.438z"/>
  <path d="M139.695 134.93c-.293 1.097 1.989 10.707 3.34 15.613a.37.37 0 0 0 .278.266c.062.015.222.039.351-.106.938-1.023 2.727-4.062 4.203-12.937a.73.73 0 0 0-.289-.711l-1.652-1.22-.735 1.036a.491.491 0 0 1-.886-.23l-.383-3.387c-1.688.398-3.844 1.101-4.227 1.676m3.711 16.87q-.159-.002-.324-.038a1.37 1.37 0 0 1-.992-.961c-.043-.149-4.07-14.977-3.246-16.352.738-1.23 4.629-2.11 5.398-2.273a.5.5 0 0 1 .59.426l.3 2.66.282-.395a.48.48 0 0 1 .32-.199.47.47 0 0 1 .368.09l2.058 1.512c.52.382.778 1.015.672 1.656-1.441 8.664-3.21 12.09-4.445 13.437a1.3 1.3 0 0 1-.98.438"/>
  <path d="M147.113 144.324c-.031 0-.058-.004-.09-.008l-2.406-.453a.486.486 0 0 1-.39-.57.49.49 0 0 1 .57-.39l2.406.452a.486.486 0 0 1 .39.57.49.49 0 0 1-.48.4M143.582 149.66a.49.49 0 0 1-.477-.39l-2.996-14.176a.49.49 0 0 1 .957-.203l2.996 14.18a.49.49 0 0 1-.48.59M132.18 157.36l2.261 3.234 2.028-9.664-3.356-.672Zm2.507 4.93a.49.49 0 0 1-.402-.212l-3.015-4.312a.5.5 0 0 1-.086-.344l1.027-7.809a.5.5 0 0 1 .203-.332.48.48 0 0 1 .379-.082l4.352.867a.49.49 0 0 1 .382.582l-2.363 11.25a.485.485 0 0 1-.476.391"/>
  <path fill="#fff" d="M127.113 156.48c.946-.527 2.442-1.359 4.367-2.417l1.22 3.054 3.46 1.133s1.403 8.102.188 13.105c-.227.93-1.422 1.204-2.016.45-1.793-2.266-5.426-7.813-7.855-13.461a1.47 1.47 0 0 1 .636-1.864"/>
  <path d="M127.352 156.906a.977.977 0 0 0-.426 1.242c2.402 5.586 6.05 11.157 7.789 13.356.16.2.402.289.648.234a.67.67 0 0 0 .508-.5c1.05-4.32.086-11.136-.144-12.617l-3.18-1.039a.48.48 0 0 1-.305-.285l-1.012-2.54c-1.69.934-3.015 1.669-3.878 2.15m7.867 15.824c-.489 0-.957-.222-1.274-.62-1.836-2.329-5.46-7.864-7.918-13.575a1.95 1.95 0 0 1 .848-2.48c.945-.528 2.445-1.36 4.371-2.418a.48.48 0 0 1 .402-.035c.13.05.235.152.29.28l1.128 2.845 3.246 1.058a.49.49 0 0 1 .333.38c.058.335 1.406 8.26.175 13.304a1.63 1.63 0 0 1-1.25 1.222 1.5 1.5 0 0 1-.351.04"/>
  <path d="M135.285 170.992a.5.5 0 0 1-.383-.187c-2.41-3.016-7.464-12.684-7.68-13.094a.488.488 0 1 1 .867-.45c.056.098 5.227 9.993 7.579 12.938a.49.49 0 0 1-.383.793M133.945 165.387a.489.489 0 0 1-.148-.953l2.832-.907a.494.494 0 0 1 .617.317.496.496 0 0 1-.316.617l-2.836.902a.5.5 0 0 1-.149.024M135.32 87.059c.524-.059 19.645 7.789 23.832 12.132 4.184 4.344 4.621 19.012-7.109 32.278l-5.809-1.34s-1.547-3.902.414-7.813c1.965-3.906 4.266-9.804 2.391-11.68-1.875-1.874-22.684-12.16-22.684-12.16l-4.101-15.746z"/>
  <path d="m132.148 151.484 5.055.864s6.93-15.711 6.106-29.395c-.829-13.687-11.16-28.871-11.16-28.871l-.477-9.75h-17.098s-4.46 5.836-2.594 11.113c1.864 5.282 14.145 16.84 16.528 22.895 2.383 6.05 3.144 7.14 1.762 12.23-1.387 5.09-2.133 14.153 1.878 20.914"/>
  <path fill="#fff" d="M137.324 103.68a.48.48 0 0 1-.426-.246l-5.175-9.11a.49.49 0 0 1 .183-.668.49.49 0 0 1 .668.188l5.176 9.11a.485.485 0 0 1-.426.726M177.316 94.305l-3.664-4.493-4.597-.671c-1.082-.899-2.352-2.133-3.575-2.797-.37.332-.015.656-.398.98a145 145 0 0 1-1.871 1.535c2.902 1.579 5.25 1.817 5.25 1.817 1.133 3.11 3.598 2.457 4.187 2.113.586-.344 1.391-.27 2.782.898 1.523 1.282 1.886.618 1.886.618"/>
  <path d="M173.3 92.121c.9 0 1.79.64 2.446 1.192q.202.17.367.289l-2.718-3.336-4.41-.641a.5.5 0 0 1-.239-.11c-.273-.226-.555-.472-.848-.722-.707-.613-1.43-1.246-2.14-1.715a1 1 0 0 1-.36.617c-.433.368-.878.735-1.296 1.075 2.472 1.207 4.39 1.414 4.41 1.418a.5.5 0 0 1 .414.32c.375 1.039.941 1.703 1.676 1.965.757.273 1.539.047 1.796-.106.297-.172.598-.246.903-.246m3.63 2.844c-.496 0-1.094-.297-1.813-.903-1.512-1.269-2.027-.968-2.222-.851-.41.242-1.489.59-2.625.184-.946-.34-1.672-1.106-2.157-2.278-.746-.117-2.754-.535-5.136-1.828a.49.49 0 0 1-.075-.809c.567-.46 1.227-.996 1.864-1.53.027-.036.027-.09.03-.134.005-.187.017-.535.36-.84a.48.48 0 0 1 .559-.062c.969.523 1.957 1.383 2.828 2.14.246.216.488.426.723.622l4.457.652c.12.016.23.078.308.172l3.668 4.496a.5.5 0 0 1 .051.547.9.9 0 0 1-.61.402q-.105.019-.21.02"/>
  <path fill="#5479f7" d="M139.598 75.027s8.8 14.22 24.91 15.391l3.113-3.41s-14.855-12.254-18.043-16.485c-3.183-4.23-5.855-7.824-7.992-8.043-2.14-.218-1.988 12.547-1.988 12.547"/>
  <path fill="#5479f7" d="M119.238 69.797s-6.16 8.328-7.71 14.582c-1.551 6.254 8.206-.817 23.8 2.683l6.61-15.222 1.042-8.809s-8.113-4.289-15.195-3.832c-2.773.176-8.547 10.598-8.547 10.598"/>
  <path fill="#fff" d="M100.29 92.055s-.567 6.086.913 7.215c1.484 1.125 4.89 1.972 5.461 4.734.566 2.766.945-2.887-.008-4.219-.957-1.332-3.894-2.472-3.894-2.472l.488-6.032z"/>
  <path d="M100.746 92.438c-.183 2.41-.074 5.808.758 6.44.371.286.914.567 1.488.868 1.348.703 2.965 1.547 3.758 3.055-.016-1.043-.156-2.266-.492-2.73-.715-.993-2.895-2-3.672-2.305a.49.49 0 0 1-.313-.493l.434-5.347Zm6.54 11.984h.003Zm-.329.82q-.046-.001-.094-.008c-.43-.078-.562-.558-.68-1.132-.363-1.778-2.109-2.688-3.644-3.489-.613-.32-1.191-.62-1.629-.957-1.617-1.23-1.207-6.586-1.11-7.648a.49.49 0 0 1 .364-.426l2.961-.773a.5.5 0 0 1 .441.097.5.5 0 0 1 .172.414l-.46 5.676c.831.356 2.94 1.34 3.777 2.504.84 1.168.812 4.797.394 5.46a.57.57 0 0 1-.492.282"/>
  <path fill="#5479f7" d="M99.602 93.598c.015.234 4.101.25 4.101.25s1.555-17.547 18.535-22.301l7.016-12.39s-31.895-1.68-29.652 34.44"/>
  <path fill="#fff" d="M141.805 73.61a.49.49 0 0 1-.493-.489v-6.734c0-.27.223-.489.493-.489s.488.22.488.489v6.734c0 .27-.219.488-.488.488M116.145 84.363h-.184a.486.486 0 0 1-.473-.504.486.486 0 0 1 .489-.476c.007 0-.004.004.097.004.867 0 8.196-.157 15.114-5.125a.49.49 0 0 1 .68.113c.16.219.109.523-.11.684-7.067 5.074-14.348 5.304-15.613 5.304M147.34 55.684c.426-1.844 1.41-3.528 1.41-3.528-1.14 1.278-3.184.043-4.363-.16-1.18-.207-2.617 1.422-2.617 1.422s-1.165-1.074-2.254.316c-1.09 1.387.09 2.536.09 2.536l-5.008 2.878-3.848.325c2.898 4.07 9.996 3.351 9.996 3.351l-1.863-1.3 3.601-2.512c2.102 1.422 2.45 1.23 2.45 1.23.472-.265 1.171-1.398 1.804-2.37l.192.066a.344.344 0 0 0 .46-.333z"/>
  <path d="M146.902 57.617h.004ZM131.73 59.88c2.07 2.098 5.567 2.469 7.528 2.5l-.653-.457a.48.48 0 0 1-.21-.399c0-.16.078-.308.21-.398l3.602-2.516a.49.49 0 0 1 .555-.004c1.277.864 1.836 1.083 2.031 1.137.34-.293.914-1.176 1.34-1.84l.195-.3a.49.49 0 0 1 .57-.196l-.05-1.71q0-.067.015-.126a13 13 0 0 1 .817-2.367c-.825.082-1.703-.215-2.426-.453-.356-.117-.691-.23-.95-.277-.742-.13-1.843.898-2.167 1.27a.489.489 0 0 1-.7.035s-.34-.298-.746-.266c-.273.023-.539.203-.789.523a1.364 1.364 0 0 0 .047 1.883c.11.11.164.262.145.414a.5.5 0 0 1-.242.363l-5.008 2.875a.5.5 0 0 1-.203.063Zm7.73 3.488c-2.273 0-6.839-.426-9.112-3.613a.488.488 0 0 1 .36-.77l3.741-.316 4.438-2.547c-.371-.644-.57-1.652.242-2.691.434-.547.934-.848 1.492-.89.441-.04.816.1 1.082.241.54-.523 1.68-1.46 2.77-1.27.332.06.699.18 1.093.313 1.274.422 2.227.672 2.82.008a.488.488 0 0 1 .786.57c-.008.016-.93 1.606-1.34 3.328l.05 1.86a.83.83 0 0 1-.347.7.83.83 0 0 1-.582.151c-.754 1.168-1.289 1.954-1.781 2.227-.176.098-.574.316-2.68-1.066l-2.754 1.921 1.29.903a.488.488 0 0 1-.23.887c-.08.003-.58.054-1.337.054"/>
  <path d="M142.488 59.5a.5.5 0 0 1-.312-.11l-1.363-1.113a.486.486 0 0 1-.07-.687.493.493 0 0 1 .687-.07l1.367 1.109c.21.172.238.48.07.691a.5.5 0 0 1-.379.18"/>
  <path fill="#5479f7" d="M300.125 237.855s-2.305 7.434-14.05 6.422c-11.743-1.015-16.368-6.086-22.243-6.664-5.883-.582-7.559-7.011-6.156-12.945 2.586-10.961 12.879-41.469 13.156-41.965.27-.496 29.293 55.152 29.293 55.152"/>
  <path d="M261.66 295.695h3.332l-1.144-7.187h-4.313Zm4.48.977h-5.214l-2.7-9.145h6.458z"/>
  <path fill="#5479f7" d="M266.184 294.61a.8.8 0 0 0-1.024-.395l-2.508 1.035-1.539-1a1.18 1.18 0 0 0-1.031-.125c-2.3.805-11.203 3.938-13.121 5.113-1.02.625-1.617 1.371-1.961 2-.324.582.113 1.297.777 1.297h20.735c.707 0 1.297-.558 1.308-1.262.047-2.753-1.058-5.449-1.636-6.664"/>
  <path d="M260.469 294.547a.8.8 0 0 0-.227.039c-5.328 1.86-11.555 4.168-13.027 5.07-.785.477-1.387 1.09-1.79 1.817a.39.39 0 0 0 .009.375c.035.062.14.199.343.199h20.735a.813.813 0 0 0 .82-.781c.047-2.707-1.098-5.41-1.59-6.45a.31.31 0 0 0-.394-.148l-2.508 1.035a.5.5 0 0 1-.453-.043l-1.543-1a.7.7 0 0 0-.375-.113m6.043 8.476h-20.735c-.492 0-.933-.253-1.187-.675a1.35 1.35 0 0 1-.02-1.348c.485-.875 1.203-1.61 2.133-2.18 1.938-1.183 10.606-4.246 13.219-5.156a1.66 1.66 0 0 1 1.457.176l1.324.86 2.274-.934a1.28 1.28 0 0 1 1.648.632c.652 1.368 1.734 4.079 1.688 6.883-.02.961-.825 1.742-1.801 1.742"/>
  <path d="M266.07 301.25h-18.832a.49.49 0 1 1 0-.977h18.832a.488.488 0 0 1 0 .977M256.367 298.484a.49.49 0 0 1-.457-.312l-.797-2.078a.49.49 0 0 1 .282-.633.48.48 0 0 1 .628.281l.801 2.078a.488.488 0 0 1-.457.664"/>
  <path fill="#fff" d="m291.563 289.105 2.644 5.594 3.395-1.797-1.5-6.164z"/>
  <path d="m292.203 289.32 2.227 4.711 2.605-1.383-1.262-5.187Zm2.004 5.871a.5.5 0 0 1-.445-.281l-2.645-5.594a.49.49 0 0 1 .215-.644l4.543-2.367a.49.49 0 0 1 .703.316l1.5 6.168a.49.49 0 0 1-.25.547l-3.394 1.797a.47.47 0 0 1-.227.058"/>
  <path fill="#5479f7" d="m295.73 292.633 1.665-1.535a.97.97 0 0 1 1.41.105l2.308 2.883a1.196 1.196 0 0 1-.062 1.574c-2.008 2.125-7.633 8-8.735 8.277-.902.227-4.109.149-6.128.075a1.264 1.264 0 0 1-1.063-1.875c.45-.801 1.207-1.782 2.484-2.75 2.254-1.703 4.133-4.735 4.895-6.078.238-.418.68-.676 1.164-.676z"/>
  <path d="M293.664 293.121a.84.84 0 0 0-.734.43c-.73 1.281-2.68 4.453-5.028 6.226-1.03.782-1.824 1.657-2.347 2.602a.74.74 0 0 0 0 .746.77.77 0 0 0 .648.398c3.184.118 5.367.094 5.996-.062.543-.149 3.383-2.719 8.496-8.137a.71.71 0 0 0 .035-.933l-2.308-2.883a.48.48 0 0 0-.695-.051l-1.664 1.535a.5.5 0 0 1-.333.13Zm-3.988 11.457q-1.428 0-3.508-.078a1.74 1.74 0 0 1-1.465-.895 1.72 1.72 0 0 1-.008-1.703c.594-1.062 1.477-2.039 2.618-2.906 2.203-1.66 4.066-4.7 4.765-5.93a1.84 1.84 0 0 1 1.586-.921h1.871l1.527-1.407a1.43 1.43 0 0 1 1.094-.379c.403.028.778.227 1.031.54l2.31 2.882a1.7 1.7 0 0 1-.09 2.215c-5.063 5.36-8.083 8.192-8.97 8.414q-.669.166-2.761.168"/>
  <path d="M288.836 302.824h-2.383a.488.488 0 0 1 0-.976h2.383c1.633 0 3.191-.61 4.39-1.72l5.891-5.448a.488.488 0 1 1 .664.719l-5.89 5.449a7.43 7.43 0 0 1-5.055 1.976"/>
  <path d="M292.586 298.637a.5.5 0 0 1-.324-.121l-2.063-1.813a.489.489 0 0 1 .645-.734l2.066 1.812a.491.491 0 0 1-.324.855M257.2 289.82c.245 1.121 9.76-.668 9.76-.668s-.694-39.093 15.99-56.937l-15.036-6.418s-19.848 22.226-10.715 64.023"/>
  <path d="M277.957 225.95s-6.262 41.363 13.602 64.554l6.757-2.567s-1.78-15.437-5.003-23.851c-1.5-3.918-4.239-9.77-2-15.879 2.234-6.11 3.445-18.144 3.445-18.144z"/>
  <path fill="#fff" d="M297.348 180.445a2.7 2.7 0 0 0-2.133-2.468c-4.121-.88-13.828-2.364-21.652.937a3.06 3.06 0 0 0-1.797 2.18l-8.649 40.52a5.24 5.24 0 0 0 3.211 5.976c5.04 1.969 13.961 4.73 22.399 3.71 11.199-1.359 9.242-41.398 8.62-50.855"/>
  <path fill="#5479f7" d="M244.36 153.031s7.902 26.207 32.597 24.184c.406-.031 4.563-.3 4.215-.082-5.875 3.746-19.469 48.332-19.473 47.535-.004-.863 5.04-29.86 5.04-29.86s-25.794-3.636-26.458-40.234zM289.836 235.625l2.918-57.793-3.375-.75c.008-.332 2.5.008 2.832.059 4.824.734 8.914 1.863 10.848 4.156 0 0-1.653 47.976-2.93 56.558-.27 1.793-4.438 1.57-7.41 1.172a3.33 3.33 0 0 1-2.883-3.402"/>
  <path fill="#5479f7" d="m285.328 218.293.922 4.703s13.129 4.484 22.54-8.84-5.731-32.86-5.731-32.86l-4.418 18.626s2.656 17.48-13.313 18.371"/>
  <path d="M284.133 219.352c-.711 0-.977.152-1.074.27-.29.335-.008 1.273.27 2.183q.083.276.167.57c.52 1.816-1.121 4.316-2.137 5.637 4.399-.856 4.246-5.41 4.22-5.907l-.645-2.703a7 7 0 0 0-.801-.05m-3.567 9.746a.5.5 0 0 1-.242-.063.488.488 0 0 1-.402-.812c.89-1.004 3.098-3.957 2.633-5.578-.055-.192-.11-.375-.164-.56-.368-1.214-.715-2.362-.075-3.105.504-.582 1.454-.738 3.082-.503l.329.046.824 3.473c.004.066.437 6.602-5.946 7.102z"/>
  <path fill="#fff" d="m282.898 177.2-.39-5.5c-.262-.016-3.59-.321-3.723-1.583-.082-.785.516-1.328.899-2.789a.7.7 0 0 0-.032-.473l-.261-.613a.54.54 0 0 1 .175-.554l.141-.114c.5-.406 1.348-1.765 1.684-2.324.308-.516.828-1.48 1.187-1.652 1.008-.48 5.102-2.621 7.39 1.117 1.782 2.914-1.132 6.926-2.19 8.238-.255.32 1.73 6.547 1.73 6.547l2.566.621s-1.98 3.516-7.996 2.063c-4.285-1.036-3.605-2.63-3.605-2.63z"/>
  <path d="M280.953 177.977a.7.7 0 0 0 .067.144c.203.356.882 1.031 3.171 1.586 4.122.992 6.204-.45 7.024-1.289l-1.82-.441a.48.48 0 0 1-.352-.329c-2.066-6.476-1.832-6.77-1.645-7 1.172-1.453 3.727-5.109 2.153-7.675-1.98-3.243-5.496-1.547-6.653-.989l-.109.055c-.191.117-.644.89-.836 1.223l-.14.238c-.348.578-1.215 1.98-1.793 2.453l-.141.117c-.008.004-.016.02-.016.028l.242.562c.106.246.125.528.055.79-.183.69-.41 1.187-.59 1.585-.218.477-.332.742-.297 1.031.059.567 1.977 1.059 3.27 1.145a.49.49 0 0 1 .453.453l.387 5.5c.02.254-.16.48-.414.516Zm5.895 3.05c-.844 0-1.805-.109-2.887-.37-2.086-.505-3.379-1.227-3.84-2.141-.308-.618-.121-1.102-.098-1.153a.48.48 0 0 1 .38-.293l1.976-.289-.328-4.633c-1.067-.12-3.602-.562-3.75-1.98-.063-.57.14-1.016.379-1.535.175-.387.37-.82.535-1.43a.26.26 0 0 0-.012-.156l-.262-.613a.2.2 0 0 1-.023-.067 1.03 1.03 0 0 1 .34-1.054l.14-.118c.352-.285 1.043-1.308 1.57-2.199l.137-.226c.48-.82.848-1.415 1.262-1.614l.106-.05c3.629-1.75 6.293-1.293 7.914 1.355 1.855 3.027-.805 7.008-2.137 8.691.05.645.84 3.407 1.645 5.938l2.296.555c.149.035.274.14.332.28.063.141.055.302-.02.434-.073.133-1.562 2.668-5.655 2.668"/>
  <path d="M288.707 157.96c-1.11-.237-2.383-.065-2.922-.265-.867-.316-.89-1.355-2.094-1.648-1.457-.356-2.062.266-2.628 1.129-.094.148-.18.308-.25.488-.91 2.453.242 3.645.753 4.035 0 0 3.274 1.688 3.836 2.168.524.453 1.13 1.52.746 3.059a.47.47 0 0 0 .207.504c.196.117.45.062.586-.133.426-.617 1.356-1.809 2.016-1.527.828.355.57 2.843-1.262 3.128-.562.09-1.02.665-.965 1.254.04.383.399.848.938.973.332.074.656-.059.945-.242 1.196-.766 4.57-3.996 4.989-6.899.503-3.492-3.418-5.703-4.895-6.023M282.094 172.098a.452.452 0 0 1-.016-.907c.008 0 1.133-.054 1.89-.699a.457.457 0 0 1 .59.696c-1.003.851-2.386.91-2.449.91z"/>
  <path fill="#fff" d="M287.668 217.898a.49.49 0 0 1-.492-.488c0-.27.222-.488.492-.488.305 0 7.473-.188 10.457-11.852a.494.494 0 0 1 .598-.355c.257.07.418.336.351.594-3.187 12.445-11.07 12.59-11.406 12.59M285.328 267.86c-.027 0-.058 0-.09-.008l-3.234-.625a.49.49 0 0 1 .183-.961l3.235.625a.49.49 0 0 1 .387.574.486.486 0 0 1-.48.394M263 287.004h-.02a.49.49 0 0 1-.468-.512c.336-8.472-5.64-17.027-5.7-17.113a.485.485 0 0 1 .118-.68.484.484 0 0 1 .68.117c.253.36 6.23 8.914 5.878 17.715a.49.49 0 0 1-.488.473M72.09 292.32l.805 7.762 4.12-.05-.054-8.278z"/>
  <path d="m72.625 292.75.71 6.836 3.188-.035-.05-7.25Zm.27 7.82a.487.487 0 0 1-.485-.437l-.808-7.762a.49.49 0 0 1 .43-.535l4.87-.566a.487.487 0 0 1 .547.48l.059 8.277c0 .27-.215.493-.485.493l-4.12.05z"/>
  <path fill="#fff" d="m109.05 290.95 3.903 8.425h3.961l-2.574-9.043z"/>
  <path d="M113.266 298.887h3l-2.282-8.02-4.207.488Zm3.648.976h-3.96a.49.49 0 0 1-.446-.285l-3.903-8.422a.489.489 0 0 1 .387-.691l5.293-.617a.49.49 0 0 1 .528.351l2.57 9.043a.487.487 0 0 1-.469.621"/>
  <path fill="#fff" d="M90.059 303.2c-1.446-1.716-4.883-4.423-12.95-6.747a1.08 1.08 0 0 0-1.101.328l-1.5 1.715-2.188-1.14a.972.972 0 0 0-1.402.656 26.7 26.7 0 0 0-.59 4.972 1.794 1.794 0 0 0 1.719 1.832c3.457.137 11.496.407 17.191.196.918-.035 1.41-1.11.82-1.813"/>
  <path d="M71.871 297.73a.5.5 0 0 0-.21.051.47.47 0 0 0-.266.332 26.2 26.2 0 0 0-.579 4.883c-.015.707.547 1.3 1.25 1.332 3.25.129 11.426.41 17.153.195a.62.62 0 0 0 .55-.375.59.59 0 0 0-.085-.636c-1.489-1.762-4.899-4.34-12.711-6.586a.57.57 0 0 0-.594.176l-1.504 1.714a.495.495 0 0 1-.594.114l-2.183-1.14a.5.5 0 0 0-.227-.06m12.492 7.848c-4.824 0-9.93-.18-12.336-.273a2.293 2.293 0 0 1-2.187-2.328c.043-2.086.347-3.91.597-5.067.098-.45.391-.82.81-1.015.417-.196.89-.188 1.3.027l1.844.96 1.25-1.425a1.56 1.56 0 0 1 1.601-.473c8.051 2.317 11.617 5.032 13.192 6.899.39.469.48 1.101.23 1.66-.25.566-.789.934-1.406.957-1.508.055-3.184.078-4.895.078"/>
  <path d="M88.469 304.16h-.016l-16.687-.547a.49.49 0 0 1 .03-.98l16.688.55a.488.488 0 0 1-.016.977M80.125 301.332a.49.49 0 0 1-.426-.734l1.64-2.825a.496.496 0 0 1 .673-.18.49.49 0 0 1 .175.673l-1.64 2.824a.49.49 0 0 1-.422.242"/>
  <path fill="#fff" d="M129.734 302.48c-1.445-1.714-4.879-4.425-12.949-6.746a1.08 1.08 0 0 0-1.097.325l-1.504 1.714-2.184-1.136a.977.977 0 0 0-1.406.656 26.4 26.4 0 0 0-.586 4.973 1.79 1.79 0 0 0 1.719 1.832c3.457.136 11.496.406 17.187.195.922-.035 1.414-1.11.82-1.813"/>
  <path d="M111.547 297.016a.473.473 0 0 0-.473.379 26.3 26.3 0 0 0-.578 4.878 1.307 1.307 0 0 0 1.25 1.332c3.25.133 11.434.41 17.152.2a.63.63 0 0 0 .551-.375.59.59 0 0 0-.09-.637c-1.484-1.766-4.898-4.34-12.707-6.59a.58.58 0 0 0-.597.18l-1.5 1.715a.494.494 0 0 1-.598.109l-2.184-1.137a.46.46 0 0 0-.226-.054m12.504 7.843c-4.824 0-9.934-.18-12.344-.273a2.297 2.297 0 0 1-2.191-2.328c.043-2.086.351-3.906.597-5.067.098-.449.395-.82.809-1.015a1.46 1.46 0 0 1 1.305.027l1.843.961 1.246-1.426a1.57 1.57 0 0 1 1.606-.472c8.047 2.316 11.613 5.027 13.187 6.898.391.465.485 1.102.235 1.66a1.6 1.6 0 0 1-1.41.957 137 137 0 0 1-4.883.078"/>
  <path d="M128.145 303.445h-.016l-16.688-.554a.489.489 0 0 1 .032-.977l16.687.55a.49.49 0 0 1-.015.981M119.8 300.613a.49.49 0 0 1-.421-.734l1.64-2.824a.49.49 0 0 1 .668-.18.49.49 0 0 1 .18.668l-1.64 2.824a.5.5 0 0 1-.426.246M78.414 214.828s-4.375 5.863-5.82 16.246-1.004 21.953-2.094 27.082c-1.094 5.13-3.281 23.04 1.11 34.918h6.464s9.18-47.672 12.414-55.355c0 0 2.473 6.828 3.696 13.344 1.218 6.515 1.007 14.843 3.87 22 2.86 7.156 11.133 20.304 11.133 20.304l7.098-.3s-11.547-49.727-12.98-73.864c0 0-16.426-8.996-24.89-4.375"/>
  <path fill="#fff" d="M89.82 241.648a.487.487 0 0 1-.473-.61l2.04-8.065a.5.5 0 0 1 .222-.301l2.204-1.3a.489.489 0 1 1 .5.839l-2.028 1.2-1.992 7.866a.49.49 0 0 1-.473.371M78.445 267.71a.5.5 0 0 1-.46-.32.496.496 0 0 1 .296-.628c2.793-1.012 3.598-3.184 3.63-3.274a.496.496 0 0 1 .624-.3c.254.09.387.367.3.62-.038.11-.972 2.7-4.222 3.876a.5.5 0 0 1-.168.027"/>
  <path fill="#5479f7" d="M151.895 173.012s-16.438 7.937-26.567 7.504c-10.133-.438-10.422-2.18-20.078-1.54-9.66.641-13.852-.804-24.031 15.575-10.176 16.375-12.059 21.062-3.07 26.539 8.988 5.476 24.511.652 27.101 2.867 3.512 3.008 6.516-7.309 8.332-15.852 1.094-5.148 5.082-9.226 10.238-10.32 6.664-1.41 16.887-6.222 29.203-20.707z"/>
  <path d="M106.691 173.668s-3.98-3.676-5.441-4.531c-1.46-.856-3.281-4.367 1.629-6.516 1.59-.695 1.906-2.625 4.969-2.957 3.066-.328 5.609 1.227 5.941 3.156.328 1.93-1.504 3.602-2.875 3.825-1.367.222-4.223 7.023-4.223 7.023"/>
  <path fill="#fff" d="m113.613 169.133.426-.617-1.687-2.157-1.157-2.832c-3.27-.222-4.578.668-4.625 3.176-.023 1.606-.87 1.64-.87 1.64s-1.243-1.335-1.888.25c-.644 1.587 2.032 2.688 2.032 2.688l.562 1.188-5.535 7.515s8.914 2.356 9.008.953c.027-.398-.11-.738-.317-1.023-1.027-1.398.829-5.176.829-5.176l2.976-1.199c.547-.223.836-.82.672-1.383l-.59-2.023c-.097-.34-.039-.707.164-1"/>
  <path d="M113.613 169.133h.004Zm-11.918 10.558c3.348.84 7 1.454 7.7 1.125a1.05 1.05 0 0 0-.227-.613c-1.168-1.59.582-5.266.785-5.68a.48.48 0 0 1 .258-.238l2.973-1.203a.65.65 0 0 0 .386-.789l-.59-2.023c-.14-.485-.058-1 .23-1.415l.224-.32-1.465-1.875a.5.5 0 0 1-.07-.117l-1.04-2.547c-1.55-.07-2.539.137-3.105.656-.457.418-.676 1.07-.692 2.059-.035 2.043-1.289 2.121-1.343 2.125a.5.5 0 0 1-.38-.156c-.16-.172-.495-.407-.698-.368-.176.032-.309.305-.375.465-.446 1.102 1.742 2.043 1.765 2.055a.48.48 0 0 1 .254.242l.563 1.188a.49.49 0 0 1-.047.5Zm6.883 2.164c-2.312.004-6.383-1.015-7.832-1.398a.5.5 0 0 1-.336-.312.48.48 0 0 1 .067-.45l5.363-7.28-.36-.759c-1.156-.523-2.742-1.719-2.12-3.246.308-.765.769-1 1.105-1.058.543-.102 1.039.195 1.332.425.125-.136.273-.453.285-1.082.023-1.257.352-2.16 1.008-2.765.812-.743 2.129-1.028 4.14-.89a.49.49 0 0 1 .418.3l1.133 2.77 1.645 2.105c.133.168.14.402.015.582l-.425.613a.7.7 0 0 0-.094.586l.586 2.024a1.62 1.62 0 0 1-.957 1.968l-2.801 1.133c-.648 1.383-1.387 3.695-.793 4.504a2 2 0 0 1 .41 1.344.81.81 0 0 1-.347.61c-.278.198-.79.276-1.442.276"/>
  <path fill="#99b9ff" d="m260.559 144.547-133.95 32.367a2.94 2.94 0 0 0-2.168 3.55l18.504 76.403a2.95 2.95 0 0 0 3.555 2.168l133.95-32.367a2.943 2.943 0 0 0 2.171-3.55l-18.508-76.403a2.95 2.95 0 0 0-3.554-2.168"/>
  <path d="m260.676 145.023-133.95 32.368a2.44 2.44 0 0 0-1.808 2.957l18.504 76.402a2.46 2.46 0 0 0 2.965 1.809l133.949-32.368a2.456 2.456 0 0 0 1.809-2.957l-18.508-76.406a2.45 2.45 0 0 0-2.961-1.805M145.809 259.605a3.44 3.44 0 0 1-3.34-2.625l-18.504-76.402a3.41 3.41 0 0 1 .406-2.594 3.41 3.41 0 0 1 2.125-1.547l133.95-32.363c1.84-.445 3.699.688 4.144 2.528l18.504 76.402c.215.89.074 1.812-.406 2.594a3.42 3.42 0 0 1-2.122 1.547l-133.953 32.363q-.406.098-.804.097"/>
  <path fill="#5479f7" d="m268.676 209.297-82.871 20.02-13.504-55.743 82.875-20.023z"/>
  <path fill="#caddff" d="m271.543 221.117-119.66 28.914-1.48-6.125 119.656-28.91z"/>
  <path fill="#fff" d="m173.477 206.145-30.442 7.355 5.985 24.707 30.44-7.355zM165.96 175.105l-30.44 7.356 5.98 24.707 30.445-7.356z"/>
  <path fill="#caddff" d="M230.727 187.594c1.324 5.465-2.04 10.969-7.512 12.293-5.473 1.324-10.985-2.035-12.305-7.504-1.324-5.465 2.04-10.969 7.512-12.293 5.473-1.32 10.984 2.039 12.305 7.504"/>
  <path fill="#fff" d="m223.637 187.75-3.59-1.344c-1.375-.511-2.766.719-2.422 2.145l1.012 4.172c.347 1.425 2.144 1.886 3.133.8l2.578-2.832c.87-.953.5-2.488-.711-2.941M137.016 174.266s3.316-3.903 7.597-2.16c4.285 1.738 2.41 3.246.73 3.132-1.679-.113-5.476-1.918-8.327-.972"/>
  <path d="M138.871 173.508c1.59 0 3.227.445 4.531.8.809.22 1.504.41 1.973.442.684.047 1.305-.234 1.363-.504.059-.238-.355-.894-2.308-1.687-2.48-1.012-4.61.027-5.856.953.098-.004.2-.004.297-.004m6.652 2.226q-.11-.001-.214-.007c-.567-.04-1.305-.243-2.164-.473-1.844-.504-4.145-1.129-5.973-.524a.49.49 0 0 1-.563-.187.49.49 0 0 1 .032-.59c.039-.043 3.597-4.156 8.156-2.3 2.152.874 3.129 1.82 2.898 2.816-.199.844-1.226 1.265-2.172 1.265"/>
  <path fill="#fff" d="m131.945 215.523 3.07-3.703a.86.86 0 0 1 .387-.265l5.18-1.727a.15.15 0 0 1 .2.125c.046.29.062.856-.387 1.098-.477.258 1.042-.207 1.777-.438a.31.31 0 0 1 .402.344c-.035.254-.164.563-.515.84 0 0 .433 2.836-2.829 3.726s-5.71 2.95-6.472 3.332c-.758.383-2.352-1.48-.813-3.332"/>
  <path d="m140.289 210.441-4.734 1.579a.37.37 0 0 0-.164.113l-3.07 3.703c-.852 1.027-.458 1.883-.313 2.125.21.351.472.465.539.457.148-.078.437-.27.77-.496 1.21-.813 3.23-2.176 5.785-2.871 2.808-.766 2.488-3.082 2.472-3.18a.49.49 0 0 1 .184-.46q.134-.106.215-.224c-1.688.532-1.926.575-2.118.125-.042-.097-.148-.445.305-.687a.3.3 0 0 0 .13-.184m-7.746 8.954c-.41 0-.852-.239-1.195-.672-.657-.825-.844-2.23.218-3.512l3.07-3.703a1.34 1.34 0 0 1 .61-.414l5.184-1.73a.66.66 0 0 1 .539.062c.16.101.27.265.297.453q.04.26.023.496.303-.092.734-.23a.81.81 0 0 1 .762.152c.211.183.313.457.274.734-.04.266-.16.633-.496.973.019.812-.196 3.172-3.204 3.992-2.398.652-4.336 1.957-5.496 2.734-.39.266-.672.458-.883.563a1 1 0 0 1-.437.102"/>
  <path fill="#5479f7" d="M87.48 194.09s7.27 36.851 44.575 26.246l-1.621-5.586s-23.528 1.754-29.844-22.941c0 0-4.942-8.688-13.11 2.28"/>
  <path fill="#fff" d="M106.266 219.969a.5.5 0 0 1-.13-.016c-9.476-2.605-15.995-16.808-16.269-17.414a.49.49 0 0 1 .246-.644.49.49 0 0 1 .649.242c.066.144 6.601 14.39 15.633 16.875a.49.49 0 0 1 .343.601.49.49 0 0 1-.472.356M103.621 189.195q-.005.008-.004.016-.001-.008.004-.016m14.258 23.125a.5.5 0 0 1-.106-.011c-4.015-.903-7.445-3.66-10.187-8.2-3.902-6.46-5.113-14.418-4.914-15.152a.485.485 0 0 1 .598-.344c.253.067.406.32.351.57-.11 1.29 2.867 19.594 14.363 22.172a.487.487 0 0 1-.105.965"/>
  <path fill="#99b9ff" d="m263.023 61.574 24.442 7.098 17.348-19.27z"/>
  <path fill="#5479f7" d="m275.2 73.031-3.41-8.91 27.01-11.375-22.714 12.621 5.11 1.485z"/>
  <path fill="#99b9ff" d="M275.879 71.09q-.026.001-.05-.004a.456.456 0 0 1-.403-.504l.574-4.969a.455.455 0 0 1 .902.102l-.574 4.972a.455.455 0 0 1-.45.403"/>
  <path d="M288.492 39.262a.5.5 0 0 1-.347-.14l-1.43-1.43a.488.488 0 1 1 .691-.692l1.43 1.43a.488.488 0 0 1-.344.832M293.5 44.266a.48.48 0 0 1-.348-.145l-1.43-1.43a.488.488 0 1 1 .692-.691l1.43 1.43c.191.191.191.5 0 .691a.47.47 0 0 1-.344.145M287.059 44.266a.47.47 0 0 1-.344-.145.49.49 0 0 1 0-.691l1.43-1.43a.488.488 0 1 1 .691.691l-1.43 1.43a.48.48 0 0 1-.347.145M292.07 39.262a.487.487 0 0 1-.347-.832l1.43-1.43a.493.493 0 0 1 .695 0c.187.191.187.5 0 .691l-1.434 1.43a.5.5 0 0 1-.344.14M275.09 81.168q-.013.001-.031-.004a.325.325 0 0 1-.293-.355q.138-1.355.254-2.704a.32.32 0 0 1 .351-.296c.18.015.313.175.297.351q-.116 1.355-.25 2.715a.33.33 0 0 1-.328.293m-1.277 7.707a.328.328 0 0 1-.316-.41c.308-1.16.562-2.403.784-3.797a.326.326 0 0 1 .645.102 39 39 0 0 1-.801 3.863.325.325 0 0 1-.312.242m-3.176 7.102a.32.32 0 0 1-.184-.055.327.327 0 0 1-.082-.453c.246-.356.488-.723.711-1.098.422-.707.813-1.469 1.16-2.258a.32.32 0 0 1 .426-.168c.168.07.242.262.172.426-.36.817-.762 1.602-1.2 2.336q-.346.582-.734 1.133a.32.32 0 0 1-.27.137m-5.602 5.39a.33.33 0 0 1-.273-.144.323.323 0 0 1 .093-.45 22 22 0 0 0 3.012-2.394.33.33 0 0 1 .465.008.327.327 0 0 1-.012.46 22 22 0 0 1-3.105 2.47.33.33 0 0 1-.18.05m-49.71 1.047h-.016a65 65 0 0 0-3.895-.066c-.184.011-.328-.141-.332-.32 0-.18.145-.329.324-.333 1.309-.02 2.633.004 3.934.07.18.008.32.16.308.34a.323.323 0 0 1-.324.31m-11.716.559c-.16 0-.3-.118-.324-.278a.33.33 0 0 1 .278-.37 61 61 0 0 1 3.91-.442.33.33 0 0 1 .351.3.32.32 0 0 1-.297.348 63 63 0 0 0-3.87.438q-.024.005-.048.004m19.5.257q-.022 0-.047-.003a96 96 0 0 0-3.87-.5.325.325 0 0 1-.29-.36.32.32 0 0 1 .36-.289c1.215.133 2.488.297 3.894.504.176.027.301.191.278.371a.334.334 0 0 1-.325.277m7.723 1.286q-.03.001-.059-.004l-1.082-.188q-1.386-.246-2.773-.48a.326.326 0 0 1-.266-.375c.032-.18.2-.293.375-.266q1.39.236 2.774.477l1.086.191c.18.031.297.2.265.375a.32.32 0 0 1-.32.27m-34.871.109c-.14 0-.27-.09-.309-.234a.32.32 0 0 1 .22-.403 55 55 0 0 1 3.82-.965.32.32 0 0 1 .382.25.326.326 0 0 1-.25.391c-1.27.273-2.539.59-3.773.95a.3.3 0 0 1-.09.011m61.996.035a.325.325 0 0 1-.309-.23.32.32 0 0 1 .211-.407c1.262-.394 2.48-.859 3.618-1.382a.33.33 0 0 1 .433.16.326.326 0 0 1-.16.43 30 30 0 0 1-3.695 1.414.3.3 0 0 1-.098.015m-19.39 1.067q-.02-.002-.04-.004c-1.187-.153-2.46-.332-3.882-.563a.326.326 0 1 1 .101-.644c1.418.226 2.68.41 3.863.558a.33.33 0 0 1 .282.367.325.325 0 0 1-.325.286m11.714.418a.327.327 0 0 1-.027-.653 37 37 0 0 0 3.844-.535.328.328 0 0 1 .125.645c-1.27.242-2.586.421-3.91.539-.012.004-.02.004-.032.004m-3.91.156h-.004c-.152 0-.304-.004-.457-.004a58 58 0 0 1-3.472-.172.32.32 0 0 1-.301-.348.324.324 0 0 1 .347-.3c1.184.09 2.34.148 3.438.168q.223.003.453.007c.18 0 .324.145.32.328 0 .176-.144.32-.324.32m-57.742 1.043a.33.33 0 0 1-.293-.188.324.324 0 0 1 .156-.433 53 53 0 0 1 3.64-1.504.325.325 0 0 1 .227.61c-1.222.452-2.43.952-3.593 1.487a.3.3 0 0 1-.137.028m-6.816 3.824a.32.32 0 0 1-.27-.145.32.32 0 0 1 .086-.449 47 47 0 0 1 3.355-2.066.32.32 0 0 1 .442.125.325.325 0 0 1-.125.441 49 49 0 0 0-3.309 2.04.3.3 0 0 1-.18.054m-6.067 4.93a.32.32 0 0 1-.234-.098.33.33 0 0 1 .004-.46 45 45 0 0 1 2.945-2.622.33.33 0 0 1 .46.047c.114.14.09.347-.046.46a42 42 0 0 0-2.902 2.583.33.33 0 0 1-.227.09m-5.012 5.992a.3.3 0 0 1-.183-.055.326.326 0 0 1-.086-.453 39 39 0 0 1 2.37-3.152.323.323 0 0 1 .458-.04c.14.114.156.32.043.458a38 38 0 0 0-2.332 3.101.33.33 0 0 1-.27.14m-3.718 6.87a.326.326 0 0 1-.3-.453 41 41 0 0 1 1.702-3.554.33.33 0 0 1 .445-.129.325.325 0 0 1 .13.442 40 40 0 0 0-1.68 3.496.32.32 0 0 1-.297.199m-2.325 7.454c-.02 0-.043 0-.066-.008a.325.325 0 0 1-.254-.383c.266-1.277.598-2.562.988-3.816a.32.32 0 0 1 .407-.21c.172.05.27.233.214.405a40 40 0 0 0-.968 3.754.326.326 0 0 1-.32.258m-.785 7.77a.33.33 0 0 1-.328-.325v-.183c0-1.238.067-2.5.195-3.758a.324.324 0 0 1 .356-.29c.18.02.309.177.293.356a37 37 0 0 0-.192 3.692v.18a.324.324 0 0 1-.324.328m.922 7.746a.325.325 0 0 1-.316-.25 33 33 0 0 1-.696-3.887.33.33 0 0 1 .29-.36c.175-.019.34.106.359.286.156 1.289.383 2.57.683 3.808a.33.33 0 0 1-.242.395c-.027.008-.05.008-.078.008m2.77 7.293a.33.33 0 0 1-.286-.172 30 30 0 0 1-1.636-3.594.326.326 0 1 1 .61-.234 29 29 0 0 0 1.6 3.52.326.326 0 0 1-.288.48"/>
  <path fill="#fff" d="M67.996 210.29a.5.5 0 0 1-.465-.33c-9.539-27.519-8.418-48.75-5.797-61.71 2.848-14.078 8.043-21.758 8.098-21.832a.49.49 0 0 1 .68-.129.49.49 0 0 1 .125.68c-.051.078-5.153 7.629-7.953 21.531-2.586 12.836-3.684 33.863 5.773 61.14a.488.488 0 0 1-.46.65"/>
  <path fill="#fff" d="M58.453 199.86a.49.49 0 0 1-.473-.372c-6.894-28.226-3.937-49.015-.242-61.488 4.012-13.543 9.758-20.504 9.813-20.574a.494.494 0 0 1 .691-.063.494.494 0 0 1 .063.692c-.059.066-5.696 6.914-9.649 20.285-3.644 12.344-6.558 32.933.274 60.918a.488.488 0 0 1-.477.601M57.75 125.184a.5.5 0 0 1-.453-.305c-.508-1.223-.54-2.227-.09-2.977.332-.554.797-.746 1.172-.902.285-.121.527-.223.734-.469.367-.449.29-.969.125-1.781-.152-.754-.324-1.613.149-2.434.574-1.004 1.636-1.144 2.574-1.265.805-.102 1.566-.2 2.004-.793.504-.684.277-1.606.035-2.582-.273-1.106-.582-2.356.21-3.403.661-.875 1.65-1.035 2.517-1.171.714-.118 1.332-.215 1.609-.68.293-.48.348-1.508-1.043-3.676a.49.49 0 0 1 .824-.527c1.356 2.113 1.7 3.652 1.059 4.71-.516.848-1.457 1-2.293 1.137-.754.121-1.465.235-1.895.797-.508.676-.293 1.559-.039 2.578.274 1.098.578 2.344-.195 3.395-.688.93-1.738 1.066-2.668 1.187-.941.122-1.531.223-1.852.778-.289.504-.172 1.086-.035 1.758.164.824.352 1.761-.332 2.593-.36.434-.777.61-1.113.75-.356.149-.547.239-.707.5-.281.473-.227 1.18.156 2.102a.493.493 0 0 1-.453.68"/>
  <path d="M260.738 141.191a.453.453 0 0 1-.453-.453v-12.773c0-.25.203-.453.453-.453s.457.203.457.453v12.773c0 .25-.207.453-.457.453M264.281 142.527a.451.451 0 0 1-.441-.566l4.746-18.48a.45.45 0 0 1 .555-.325c.242.063.39.309.324.551l-4.746 18.48a.454.454 0 0 1-.438.34M267.855 145.914a.45.45 0 0 1-.386-.21.46.46 0 0 1 .144-.63l9.407-5.851a.455.455 0 1 1 .476.773l-9.398 5.852a.5.5 0 0 1-.243.066"/>
</svg>
