<svg xmlns="http://www.w3.org/2000/svg" width="500" height="500" viewBox="0 0 375 375">
  <defs>
    <clipPath id="a">
      <path d="M147.016 139h99.75v73.563h-99.75Zm0 0"/>
    </clipPath>
    <clipPath id="b">
      <path d="M165 118.063h64V159h-64Zm0 0"/>
    </clipPath>
    <clipPath id="c">
      <path d="M147.016 139h99.75v73.563h-99.75Zm0 0"/>
    </clipPath>
    <clipPath id="d">
      <path d="M165 118.063h64V159h-64Zm0 0"/>
    </clipPath>
  </defs>
  <g clip-path="url(#a)">
    <path d="m245.898 153.559-.003-.004a12.8 12.8 0 0 0-3.641-5.414l-3.086-2.723a15 15 0 0 0-.535-.441l-6.297-4.973v9.797l1.668 1.316.004.008q.66.521 1.238 1.117l-1.168.934-36.808 29.48-37.329-29.484-1.25-.984q.552-.572 1.172-1.07l1.746-1.395v-9.848l-6.578 5.262-3.383 3.004a12.9 12.9 0 0 0-3.609 5.41l-.008.012h.004a12.8 12.8 0 0 0-.707 4.187v43.832c0 6.063 4.938 10.98 11.024 10.98h77.246c6.086 0 11.023-4.917 11.023-10.98v-43.797a13 13 0 0 0-.723-4.226m-90.863 46.675v-39.078c0-.656.055-1.3.153-1.937l22.882 18.074Zm6.238 4.649 22.88-22.79 10.734 8.485a3.87 3.87 0 0 0 2.398.828 3.84 3.84 0 0 0 2.414-.847l10.363-8.297 22.715 22.62Zm77.637-4.75-22.805-22.711 22.653-18.145c.097.637.152 1.282.152 1.938Zm0 0"/>
  </g>
  <g clip-path="url(#b)">
    <path d="M165.57 131.64v20.942l6.79 5.363v-33.12h49.23v33.292l6.789-5.437V121.44a3.386 3.386 0 0 0-3.395-3.379h-56.02a3.386 3.386 0 0 0-3.394 3.38Zm0 0"/>
  </g>
  <path d="M199.832 153.84h-.117q-1.405 3.804-5.082 3.805-2.76 0-4.45-1.993-1.691-1.992-1.69-5.52c0-3.038.78-5.515 2.339-7.421q2.343-2.854 5.64-2.856 2.982-.002 3.743 2.329h.082l.2-1.973h4.5q-.9 8.49-.9 11.098-.001 2.789 1.52 2.789 1.6 0 2.64-2.11 1.039-2.115 1.04-5.52.001-4.658-2.98-7.64-2.977-2.978-8.32-2.98c-3.813 0-6.985 1.328-9.509 3.976q-3.792 3.974-3.793 9.692 0 5.537 3.352 8.726 3.35 3.188 9.25 3.188c3 0 5.75-.57 8.242-1.715v3.805c-2.281.968-5.215 1.457-8.8 1.457q-7.385-.002-12.012-4.215-4.634-4.214-4.633-11.328c0-4.832 1.648-8.899 4.941-12.192q4.94-4.94 12.723-4.941 7.2-.001 11.652 3.836 4.449 3.832 4.45 10.11 0 5.16-2.72 8.276-2.723 3.118-6.742 3.118-1.98 0-3.222-1.055-1.243-1.053-1.344-2.746m-2.66-10.52q-1.8 0-2.93 2.043-1.13 2.041-1.129 4.73c0 1.274.254 2.27.77 2.977q.769 1.067 1.988 1.067 1.882-.001 2.961-2.012c.723-1.34 1.082-3.137 1.082-5.379q0-1.592-.75-2.512-.75-.914-1.992-.914m0 0"/>
  <g clip-path="url(#c)">
    <path d="m245.898 153.559-.003-.004a12.8 12.8 0 0 0-3.641-5.414l-3.086-2.723a15 15 0 0 0-.535-.441l-6.297-4.973v9.797l1.668 1.316.004.008q.66.521 1.238 1.117l-1.168.934-36.808 29.48-37.329-29.484-1.25-.984q.552-.572 1.172-1.07l1.746-1.395v-9.848l-6.578 5.262-3.383 3.004a12.9 12.9 0 0 0-3.609 5.41l-.008.012h.004a12.8 12.8 0 0 0-.707 4.187v43.832c0 6.063 4.938 10.98 11.024 10.98h77.246c6.086 0 11.023-4.917 11.023-10.98v-43.797a13 13 0 0 0-.723-4.226m-90.863 46.675v-39.078c0-.656.055-1.3.153-1.937l22.882 18.074Zm6.238 4.649 22.88-22.79 10.734 8.485a3.87 3.87 0 0 0 2.398.828 3.84 3.84 0 0 0 2.414-.847l10.363-8.297 22.715 22.62Zm77.637-4.75-22.805-22.711 22.653-18.145c.097.637.152 1.282.152 1.938Zm0 0"/>
  </g>
  <g clip-path="url(#d)">
    <path d="M165.57 131.64v20.942l6.79 5.363v-33.12h49.23v33.292l6.789-5.437V121.44a3.386 3.386 0 0 0-3.395-3.379h-56.02a3.386 3.386 0 0 0-3.394 3.38Zm0 0"/>
  </g>
  <path d="M199.832 153.84h-.117q-1.405 3.804-5.082 3.805-2.76 0-4.45-1.993-1.691-1.992-1.69-5.52c0-3.038.78-5.515 2.339-7.421q2.343-2.854 5.64-2.856 2.982-.002 3.743 2.329h.082l.2-1.973h4.5q-.9 8.49-.9 11.098-.001 2.789 1.52 2.789 1.6 0 2.64-2.11 1.039-2.115 1.04-5.52.001-4.658-2.98-7.64-2.977-2.978-8.32-2.98c-3.813 0-6.985 1.328-9.509 3.976q-3.792 3.974-3.793 9.692 0 5.537 3.352 8.726 3.35 3.188 9.25 3.188c3 0 5.75-.57 8.242-1.715v3.805c-2.281.968-5.215 1.457-8.8 1.457q-7.385-.002-12.012-4.215-4.634-4.214-4.633-11.328c0-4.832 1.648-8.899 4.941-12.192q4.94-4.94 12.723-4.941 7.2-.001 11.652 3.836 4.449 3.832 4.45 10.11 0 5.16-2.72 8.276-2.723 3.118-6.742 3.118-1.98 0-3.222-1.055-1.243-1.053-1.344-2.746m-2.66-10.52q-1.8 0-2.93 2.043-1.13 2.041-1.129 4.73c0 1.274.254 2.27.77 2.977q.769 1.067 1.988 1.067 1.882-.001 2.961-2.012c.723-1.34 1.082-3.137 1.082-5.379q0-1.592-.75-2.512-.75-.914-1.992-.914m0 0"/>
</svg>
