<svg xmlns="http://www.w3.org/2000/svg" width="500" height="500" viewBox="0 0 375 375">
  <defs>
    <clipPath id="a">
      <path d="M112.5 112.5h150v150h-150Zm0 0"/>
    </clipPath>
    <clipPath id="b">
      <path d="M112.5 112.5h150v150h-150Zm0 0"/>
    </clipPath>
  </defs>
  <g clip-path="url(#a)">
    <path d="M139.125 112.5h96.66a26.63 26.63 0 0 1 18.895 7.82c4.832 4.832 7.82 11.512 7.82 18.805v96.66a26.63 26.63 0 0 1-7.82 18.895 26.63 26.63 0 0 1-18.895 7.82h-96.66c-7.293 0-13.973-2.988-18.805-7.82a26.63 26.63 0 0 1-7.82-18.895v-96.66c0-7.293 2.988-13.973 7.82-18.805s11.512-7.82 18.805-7.82m96.66 7.82h-96.66c-5.184 0-9.84 2.11-13.27 5.535-3.425 3.43-5.535 8.086-5.535 13.27v96.66c0 5.188 2.11 9.93 5.535 13.36 3.43 3.335 8.086 5.535 13.27 5.535h96.66c5.188 0 9.93-2.2 13.36-5.535 3.335-3.43 5.535-8.172 5.535-13.36v-96.66c0-5.184-2.2-9.84-5.535-13.27a18.88 18.88 0 0 0-13.36-5.535m0 0"/>
  </g>
  <path d="M139.918 164.52h14.496c1.672 0 3.164.617 4.219 1.671 1.144 1.055 1.933 2.547 1.933 4.305v67.223c0 1.672-.789 3.254-1.933 4.308-1.055 1.051-2.547 1.668-4.219 1.668h-14.496c-1.672 0-3.164-.617-4.219-1.668-1.23-1.054-1.933-2.636-1.933-4.308v-67.223c0-1.758.703-3.25 1.933-4.305 1.055-1.054 2.547-1.671 4.219-1.671m12.828 7.824h-11.16v63.531h11.16ZM176.559 164.344h14.5c1.668 0 3.164.703 4.218 1.672 1.23 1.14 1.934 2.636 1.934 4.304v.528a32.7 32.7 0 0 1 10.457-4.57c5.094-1.231 10.457-1.317 15.375-.176 5.012 1.23 9.668 3.867 12.918 7.996 3.254 3.957 5.187 9.316 5.187 15.996v47.449c0 1.672-.703 3.164-1.847 4.309-1.055.964-2.547 1.668-4.219 1.668h-14.586c-1.582 0-3.074-.704-4.219-1.668-1.14-1.145-1.843-2.637-1.843-4.309v-37.52c0-3.515-2.02-5.714-4.57-6.68-1.141-.44-2.462-.616-3.692-.616-1.317 0-2.637.265-3.863.703-2.903 1.054-5.098 3.254-5.098 6.593v37.696c0 1.672-.703 3.254-1.934 4.308-1.054 1.051-2.55 1.668-4.218 1.668h-14.5c-1.668 0-3.164-.617-4.215-1.668-1.145-1.054-1.934-2.636-1.934-4.308V170.32c0-1.668.79-3.164 1.934-4.304 1.05-.97 2.547-1.672 4.215-1.672m12.832 7.824h-11.16v63.707h11.16v-35.852c0-7.12 4.48-11.863 10.28-13.972 2.02-.703 4.216-1.055 6.415-1.145 2.195 0 4.394.352 6.5 1.145 5.45 2.02 9.668 6.59 9.668 13.972V235.7h11.07v-45.605c0-4.746-1.316-8.438-3.426-11.074-2.195-2.723-5.273-4.48-8.699-5.36-3.691-.879-7.734-.793-11.597.176-5.274 1.316-10.02 4.129-13.094 8.348-.703 1.054-1.848 1.668-3.254 1.668-2.106 0-3.863-1.754-3.863-3.864ZM147.121 131.219c3.957 0 7.559 1.668 10.106 4.215a14.22 14.22 0 0 1 4.132 10.02c0 3.952-1.582 7.468-4.132 10.105-2.547 2.546-6.149 4.129-10.106 4.129a14.22 14.22 0 0 1-10.016-4.13c-2.55-2.636-4.132-6.152-4.132-10.105 0-3.867 1.582-7.469 4.132-10.02 2.547-2.546 6.149-4.214 10.016-4.214m4.57 9.754c-1.14-1.145-2.722-1.848-4.57-1.848a6.306 6.306 0 0 0-6.324 6.328c0 1.758.703 3.426 1.844 4.57a6.3 6.3 0 0 0 4.48 1.844c1.848 0 3.43-.703 4.57-1.844 1.141-1.144 1.844-2.812 1.844-4.57s-.703-3.34-1.844-4.48m0 0"/>
  <g clip-path="url(#b)">
    <path fill="#fff" d="M139.125 112.5h96.66a26.63 26.63 0 0 1 18.895 7.82c4.832 4.832 7.82 11.512 7.82 18.805v96.66a26.63 26.63 0 0 1-7.82 18.895 26.63 26.63 0 0 1-18.895 7.82h-96.66c-7.293 0-13.973-2.988-18.805-7.82a26.63 26.63 0 0 1-7.82-18.895v-96.66c0-7.293 2.988-13.973 7.82-18.805s11.512-7.82 18.805-7.82m96.66 7.82h-96.66c-5.184 0-9.84 2.11-13.27 5.535-3.425 3.43-5.535 8.086-5.535 13.27v96.66c0 5.188 2.11 9.93 5.535 13.36 3.43 3.335 8.086 5.535 13.27 5.535h96.66c5.188 0 9.93-2.2 13.36-5.535 3.335-3.43 5.535-8.172 5.535-13.36v-96.66c0-5.184-2.2-9.84-5.535-13.27a18.88 18.88 0 0 0-13.36-5.535m0 0"/>
  </g>
  <path fill="#fff" d="M139.918 164.52h14.496c1.672 0 3.164.617 4.219 1.671 1.144 1.055 1.933 2.547 1.933 4.305v67.223c0 1.672-.789 3.254-1.933 4.308-1.055 1.051-2.547 1.668-4.219 1.668h-14.496c-1.672 0-3.164-.617-4.219-1.668-1.23-1.054-1.933-2.636-1.933-4.308v-67.223c0-1.758.703-3.25 1.933-4.305 1.055-1.054 2.547-1.671 4.219-1.671m12.828 7.824h-11.16v63.531h11.16ZM176.559 164.344h14.5c1.668 0 3.164.703 4.218 1.672 1.23 1.14 1.934 2.636 1.934 4.304v.528a32.7 32.7 0 0 1 10.457-4.57c5.094-1.231 10.457-1.317 15.375-.176 5.012 1.23 9.668 3.867 12.918 7.996 3.254 3.957 5.187 9.316 5.187 15.996v47.449c0 1.672-.703 3.164-1.847 4.309-1.055.964-2.547 1.668-4.219 1.668h-14.586c-1.582 0-3.074-.704-4.219-1.668-1.14-1.145-1.843-2.637-1.843-4.309v-37.52c0-3.515-2.02-5.714-4.57-6.68-1.141-.44-2.462-.616-3.692-.616-1.317 0-2.637.265-3.863.703-2.903 1.054-5.098 3.254-5.098 6.593v37.696c0 1.672-.703 3.254-1.934 4.308-1.054 1.051-2.55 1.668-4.218 1.668h-14.5c-1.668 0-3.164-.617-4.215-1.668-1.145-1.054-1.934-2.636-1.934-4.308V170.32c0-1.668.79-3.164 1.934-4.304 1.05-.97 2.547-1.672 4.215-1.672m12.832 7.824h-11.16v63.707h11.16v-35.852c0-7.12 4.48-11.863 10.28-13.972 2.02-.703 4.216-1.055 6.415-1.145 2.195 0 4.394.352 6.5 1.145 5.45 2.02 9.668 6.59 9.668 13.972V235.7h11.07v-45.605c0-4.746-1.316-8.438-3.426-11.074-2.195-2.723-5.273-4.48-8.699-5.36-3.691-.879-7.734-.793-11.597.176-5.274 1.316-10.02 4.129-13.094 8.348-.703 1.054-1.848 1.668-3.254 1.668-2.106 0-3.863-1.754-3.863-3.864ZM147.121 131.219c3.957 0 7.559 1.668 10.106 4.215a14.22 14.22 0 0 1 4.132 10.02c0 3.952-1.582 7.468-4.132 10.105-2.547 2.546-6.149 4.129-10.106 4.129a14.22 14.22 0 0 1-10.016-4.13c-2.55-2.636-4.132-6.152-4.132-10.105 0-3.867 1.582-7.469 4.132-10.02 2.547-2.546 6.149-4.214 10.016-4.214m4.57 9.754c-1.14-1.145-2.722-1.848-4.57-1.848a6.306 6.306 0 0 0-6.324 6.328c0 1.758.703 3.426 1.844 4.57a6.3 6.3 0 0 0 4.48 1.844c1.848 0 3.43-.703 4.57-1.844 1.141-1.144 1.844-2.812 1.844-4.57s-.703-3.34-1.844-4.48m0 0"/>
</svg>
