<svg xmlns="http://www.w3.org/2000/svg" xmlns:xlink="http://www.w3.org/1999/xlink" width="500" zoomAndPan="magnify" viewBox="0 0 375 374.999991" height="500" preserveAspectRatio="xMidYMid meet" version="1.0"><defs><clipPath id="a2db7267f0"><path d="M 112.5 112.5 L 262.5 112.5 L 262.5 262.5 L 112.5 262.5 Z M 112.5 112.5 " clip-rule="nonzero"/></clipPath><clipPath id="00d58dcf35"><path d="M 112.5 112.5 L 262.5 112.5 L 262.5 262.5 L 112.5 262.5 Z M 112.5 112.5 " clip-rule="nonzero"/></clipPath></defs><g clip-path="url(#a2db7267f0)"><path fill="#000000" d="M 139.125 112.5 L 235.785156 112.5 C 243.167969 112.5 249.847656 115.488281 254.679688 120.320312 C 259.511719 125.152344 262.5 131.832031 262.5 139.125 L 262.5 235.785156 C 262.5 243.167969 259.511719 249.847656 254.679688 254.679688 C 249.847656 259.511719 243.167969 262.5 235.785156 262.5 L 139.125 262.5 C 131.832031 262.5 125.152344 259.511719 120.320312 254.679688 C 115.488281 249.847656 112.5 243.167969 112.5 235.785156 L 112.5 139.125 C 112.5 131.832031 115.488281 125.152344 120.320312 120.320312 C 125.152344 115.488281 131.832031 112.5 139.125 112.5 Z M 235.785156 120.320312 L 139.125 120.320312 C 133.941406 120.320312 129.285156 122.429688 125.855469 125.855469 C 122.429688 129.285156 120.320312 133.941406 120.320312 139.125 L 120.320312 235.785156 C 120.320312 240.972656 122.429688 245.714844 125.855469 249.144531 C 129.285156 252.480469 133.941406 254.679688 139.125 254.679688 L 235.785156 254.679688 C 240.972656 254.679688 245.714844 252.480469 249.144531 249.144531 C 252.480469 245.714844 254.679688 240.972656 254.679688 235.785156 L 254.679688 139.125 C 254.679688 133.941406 252.480469 129.285156 249.144531 125.855469 C 245.714844 122.429688 240.972656 120.320312 235.785156 120.320312 Z M 235.785156 120.320312 " fill-opacity="1" fill-rule="nonzero"/></g><path fill="#000000" d="M 139.917969 164.519531 L 154.414062 164.519531 C 156.085938 164.519531 157.578125 165.136719 158.632812 166.191406 C 159.777344 167.246094 160.566406 168.738281 160.566406 170.496094 L 160.566406 237.71875 C 160.566406 239.390625 159.777344 240.972656 158.632812 242.027344 C 157.578125 243.078125 156.085938 243.695312 154.414062 243.695312 L 139.917969 243.695312 C 138.246094 243.695312 136.753906 243.078125 135.699219 242.027344 C 134.46875 240.972656 133.765625 239.390625 133.765625 237.71875 L 133.765625 170.496094 C 133.765625 168.738281 134.46875 167.246094 135.699219 166.191406 C 136.753906 165.136719 138.246094 164.519531 139.917969 164.519531 Z M 152.746094 172.34375 L 141.585938 172.34375 L 141.585938 235.875 L 152.746094 235.875 Z M 152.746094 172.34375 " fill-opacity="1" fill-rule="nonzero"/><path fill="#000000" d="M 176.558594 164.34375 L 191.058594 164.34375 C 192.726562 164.34375 194.222656 165.046875 195.277344 166.015625 C 196.507812 167.15625 197.210938 168.652344 197.210938 170.320312 L 197.210938 170.847656 C 200.375 168.738281 203.976562 167.15625 207.667969 166.277344 C 212.761719 165.046875 218.125 164.960938 223.042969 166.101562 C 228.054688 167.332031 232.710938 169.96875 235.960938 174.097656 C 239.214844 178.054688 241.148438 183.414062 241.148438 190.09375 L 241.148438 237.542969 C 241.148438 239.214844 240.445312 240.707031 239.300781 241.851562 C 238.246094 242.816406 236.753906 243.519531 235.082031 243.519531 L 220.496094 243.519531 C 218.914062 243.519531 217.421875 242.816406 216.277344 241.851562 C 215.136719 240.707031 214.433594 239.214844 214.433594 237.542969 L 214.433594 200.023438 C 214.433594 196.507812 212.414062 194.308594 209.863281 193.34375 C 208.722656 192.902344 207.402344 192.726562 206.171875 192.726562 C 204.855469 192.726562 203.535156 192.992188 202.308594 193.429688 C 199.40625 194.484375 197.210938 196.683594 197.210938 200.023438 L 197.210938 237.71875 C 197.210938 239.390625 196.507812 240.972656 195.277344 242.027344 C 194.222656 243.078125 192.726562 243.695312 191.058594 243.695312 L 176.558594 243.695312 C 174.890625 243.695312 173.394531 243.078125 172.34375 242.027344 C 171.199219 240.972656 170.410156 239.390625 170.410156 237.71875 L 170.410156 170.320312 C 170.410156 168.652344 171.199219 167.15625 172.34375 166.015625 C 173.394531 165.046875 174.890625 164.34375 176.558594 164.34375 Z M 189.390625 172.167969 L 178.230469 172.167969 L 178.230469 235.875 L 189.390625 235.875 L 189.390625 200.023438 C 189.390625 192.902344 193.871094 188.160156 199.671875 186.050781 C 201.691406 185.347656 203.886719 184.996094 206.085938 184.90625 C 208.28125 184.90625 210.480469 185.257812 212.585938 186.050781 C 218.035156 188.070312 222.253906 192.640625 222.253906 200.023438 L 222.253906 235.699219 L 233.324219 235.699219 L 233.324219 190.09375 C 233.324219 185.347656 232.007812 181.65625 229.898438 179.019531 C 227.703125 176.296875 224.625 174.539062 221.199219 173.660156 C 217.507812 172.78125 213.464844 172.867188 209.601562 173.835938 C 204.328125 175.152344 199.582031 177.964844 196.507812 182.183594 C 195.804688 183.238281 194.660156 183.851562 193.253906 183.851562 C 191.148438 183.851562 189.390625 182.097656 189.390625 179.988281 Z M 189.390625 172.167969 " fill-opacity="1" fill-rule="nonzero"/><path fill="#000000" d="M 147.121094 131.21875 C 151.078125 131.21875 154.679688 132.886719 157.226562 135.433594 C 159.777344 137.984375 161.359375 141.585938 161.359375 145.453125 C 161.359375 149.40625 159.777344 152.921875 157.226562 155.558594 C 154.679688 158.105469 151.078125 159.6875 147.121094 159.6875 C 143.253906 159.6875 139.652344 158.105469 137.105469 155.558594 C 134.554688 152.921875 132.972656 149.40625 132.972656 145.453125 C 132.972656 141.585938 134.554688 137.984375 137.105469 135.433594 C 139.652344 132.886719 143.253906 131.21875 147.121094 131.21875 Z M 151.691406 140.972656 C 150.550781 139.828125 148.96875 139.125 147.121094 139.125 C 145.363281 139.125 143.78125 139.828125 142.640625 140.972656 C 141.5 142.113281 140.796875 143.695312 140.796875 145.453125 C 140.796875 147.210938 141.5 148.878906 142.640625 150.023438 C 143.78125 151.164062 145.363281 151.867188 147.121094 151.867188 C 148.96875 151.867188 150.550781 151.164062 151.691406 150.023438 C 152.832031 148.878906 153.535156 147.210938 153.535156 145.453125 C 153.535156 143.695312 152.832031 142.113281 151.691406 140.972656 Z M 151.691406 140.972656 " fill-opacity="1" fill-rule="nonzero"/><g clip-path="url(#00d58dcf35)"><path fill="#ffffff" d="M 139.125 112.5 L 235.785156 112.5 C 243.167969 112.5 249.847656 115.488281 254.679688 120.320312 C 259.511719 125.152344 262.5 131.832031 262.5 139.125 L 262.5 235.785156 C 262.5 243.167969 259.511719 249.847656 254.679688 254.679688 C 249.847656 259.511719 243.167969 262.5 235.785156 262.5 L 139.125 262.5 C 131.832031 262.5 125.152344 259.511719 120.320312 254.679688 C 115.488281 249.847656 112.5 243.167969 112.5 235.785156 L 112.5 139.125 C 112.5 131.832031 115.488281 125.152344 120.320312 120.320312 C 125.152344 115.488281 131.832031 112.5 139.125 112.5 Z M 235.785156 120.320312 L 139.125 120.320312 C 133.941406 120.320312 129.285156 122.429688 125.855469 125.855469 C 122.429688 129.285156 120.320312 133.941406 120.320312 139.125 L 120.320312 235.785156 C 120.320312 240.972656 122.429688 245.714844 125.855469 249.144531 C 129.285156 252.480469 133.941406 254.679688 139.125 254.679688 L 235.785156 254.679688 C 240.972656 254.679688 245.714844 252.480469 249.144531 249.144531 C 252.480469 245.714844 254.679688 240.972656 254.679688 235.785156 L 254.679688 139.125 C 254.679688 133.941406 252.480469 129.285156 249.144531 125.855469 C 245.714844 122.429688 240.972656 120.320312 235.785156 120.320312 Z M 235.785156 120.320312 " fill-opacity="1" fill-rule="nonzero"/></g><path fill="#ffffff" d="M 139.917969 164.519531 L 154.414062 164.519531 C 156.085938 164.519531 157.578125 165.136719 158.632812 166.191406 C 159.777344 167.246094 160.566406 168.738281 160.566406 170.496094 L 160.566406 237.71875 C 160.566406 239.390625 159.777344 240.972656 158.632812 242.027344 C 157.578125 243.078125 156.085938 243.695312 154.414062 243.695312 L 139.917969 243.695312 C 138.246094 243.695312 136.753906 243.078125 135.699219 242.027344 C 134.46875 240.972656 133.765625 239.390625 133.765625 237.71875 L 133.765625 170.496094 C 133.765625 168.738281 134.46875 167.246094 135.699219 166.191406 C 136.753906 165.136719 138.246094 164.519531 139.917969 164.519531 Z M 152.746094 172.34375 L 141.585938 172.34375 L 141.585938 235.875 L 152.746094 235.875 Z M 152.746094 172.34375 " fill-opacity="1" fill-rule="nonzero"/><path fill="#ffffff" d="M 176.558594 164.34375 L 191.058594 164.34375 C 192.726562 164.34375 194.222656 165.046875 195.277344 166.015625 C 196.507812 167.15625 197.210938 168.652344 197.210938 170.320312 L 197.210938 170.847656 C 200.375 168.738281 203.976562 167.15625 207.667969 166.277344 C 212.761719 165.046875 218.125 164.960938 223.042969 166.101562 C 228.054688 167.332031 232.710938 169.96875 235.960938 174.097656 C 239.214844 178.054688 241.148438 183.414062 241.148438 190.09375 L 241.148438 237.542969 C 241.148438 239.214844 240.445312 240.707031 239.300781 241.851562 C 238.246094 242.816406 236.753906 243.519531 235.082031 243.519531 L 220.496094 243.519531 C 218.914062 243.519531 217.421875 242.816406 216.277344 241.851562 C 215.136719 240.707031 214.433594 239.214844 214.433594 237.542969 L 214.433594 200.023438 C 214.433594 196.507812 212.414062 194.308594 209.863281 193.34375 C 208.722656 192.902344 207.402344 192.726562 206.171875 192.726562 C 204.855469 192.726562 203.535156 192.992188 202.308594 193.429688 C 199.40625 194.484375 197.210938 196.683594 197.210938 200.023438 L 197.210938 237.71875 C 197.210938 239.390625 196.507812 240.972656 195.277344 242.027344 C 194.222656 243.078125 192.726562 243.695312 191.058594 243.695312 L 176.558594 243.695312 C 174.890625 243.695312 173.394531 243.078125 172.34375 242.027344 C 171.199219 240.972656 170.410156 239.390625 170.410156 237.71875 L 170.410156 170.320312 C 170.410156 168.652344 171.199219 167.15625 172.34375 166.015625 C 173.394531 165.046875 174.890625 164.34375 176.558594 164.34375 Z M 189.390625 172.167969 L 178.230469 172.167969 L 178.230469 235.875 L 189.390625 235.875 L 189.390625 200.023438 C 189.390625 192.902344 193.871094 188.160156 199.671875 186.050781 C 201.691406 185.347656 203.886719 184.996094 206.085938 184.90625 C 208.28125 184.90625 210.480469 185.257812 212.585938 186.050781 C 218.035156 188.070312 222.253906 192.640625 222.253906 200.023438 L 222.253906 235.699219 L 233.324219 235.699219 L 233.324219 190.09375 C 233.324219 185.347656 232.007812 181.65625 229.898438 179.019531 C 227.703125 176.296875 224.625 174.539062 221.199219 173.660156 C 217.507812 172.78125 213.464844 172.867188 209.601562 173.835938 C 204.328125 175.152344 199.582031 177.964844 196.507812 182.183594 C 195.804688 183.238281 194.660156 183.851562 193.253906 183.851562 C 191.148438 183.851562 189.390625 182.097656 189.390625 179.988281 Z M 189.390625 172.167969 " fill-opacity="1" fill-rule="nonzero"/><path fill="#ffffff" d="M 147.121094 131.21875 C 151.078125 131.21875 154.679688 132.886719 157.226562 135.433594 C 159.777344 137.984375 161.359375 141.585938 161.359375 145.453125 C 161.359375 149.40625 159.777344 152.921875 157.226562 155.558594 C 154.679688 158.105469 151.078125 159.6875 147.121094 159.6875 C 143.253906 159.6875 139.652344 158.105469 137.105469 155.558594 C 134.554688 152.921875 132.972656 149.40625 132.972656 145.453125 C 132.972656 141.585938 134.554688 137.984375 137.105469 135.433594 C 139.652344 132.886719 143.253906 131.21875 147.121094 131.21875 Z M 151.691406 140.972656 C 150.550781 139.828125 148.96875 139.125 147.121094 139.125 C 145.363281 139.125 143.78125 139.828125 142.640625 140.972656 C 141.5 142.113281 140.796875 143.695312 140.796875 145.453125 C 140.796875 147.210938 141.5 148.878906 142.640625 150.023438 C 143.78125 151.164062 145.363281 151.867188 147.121094 151.867188 C 148.96875 151.867188 150.550781 151.164062 151.691406 150.023438 C 152.832031 148.878906 153.535156 147.210938 153.535156 145.453125 C 153.535156 143.695312 152.832031 142.113281 151.691406 140.972656 Z M 151.691406 140.972656 " fill-opacity="1" fill-rule="nonzero"/></svg>