<svg xmlns="http://www.w3.org/2000/svg" xmlns:xlink="http://www.w3.org/1999/xlink" width="500" zoomAndPan="magnify" viewBox="0 0 375 374.999991" height="500" preserveAspectRatio="xMidYMid meet" version="1.0"><path fill="#000000" d="M 242.660156 204.324219 C 242.042969 203.707031 241.375 203.15625 240.648438 202.671875 C 239.925781 202.1875 239.160156 201.777344 238.355469 201.445312 C 237.550781 201.109375 236.71875 200.859375 235.867188 200.6875 C 235.011719 200.519531 234.148438 200.433594 233.277344 200.433594 C 232.40625 200.433594 231.542969 200.519531 230.6875 200.6875 C 229.832031 200.859375 229 201.109375 228.195312 201.445312 C 227.390625 201.777344 226.628906 202.1875 225.902344 202.671875 C 225.179688 203.15625 224.507812 203.707031 223.890625 204.324219 L 219.480469 208.734375 C 218.789062 209.414062 218.042969 210.015625 217.234375 210.546875 C 216.429688 211.078125 215.578125 211.527344 214.6875 211.894531 C 213.792969 212.257812 212.871094 212.535156 211.921875 212.71875 C 210.976562 212.90625 210.019531 213 209.054688 213 C 208.089844 213 207.132812 212.90625 206.183594 212.71875 C 205.238281 212.535156 204.316406 212.257812 203.421875 211.894531 C 202.527344 211.527344 201.679688 211.078125 200.871094 210.546875 C 200.066406 210.015625 199.316406 209.414062 198.628906 208.734375 L 166.597656 176.804688 C 165.921875 176.113281 165.316406 175.367188 164.785156 174.558594 C 164.253906 173.753906 163.804688 172.902344 163.441406 172.007812 C 163.074219 171.117188 162.796875 170.195312 162.613281 169.246094 C 162.425781 168.300781 162.332031 167.34375 162.332031 166.378906 C 162.332031 165.414062 162.425781 164.457031 162.613281 163.507812 C 162.796875 162.558594 163.074219 161.640625 163.441406 160.746094 C 163.804688 159.851562 164.253906 159.003906 164.785156 158.195312 C 165.316406 157.390625 165.921875 156.640625 166.597656 155.953125 L 171.011719 151.539062 C 171.625 150.921875 172.175781 150.253906 172.660156 149.527344 C 173.144531 148.804688 173.554688 148.039062 173.890625 147.234375 C 174.222656 146.429688 174.472656 145.601562 174.644531 144.746094 C 174.816406 143.890625 174.898438 143.027344 174.898438 142.15625 C 174.898438 141.285156 174.816406 140.421875 174.644531 139.566406 C 174.472656 138.710938 174.222656 137.882812 173.890625 137.078125 C 173.554688 136.273438 173.144531 135.507812 172.660156 134.78125 C 172.175781 134.058594 171.625 133.386719 171.011719 132.773438 L 157.050781 118.691406 C 156.433594 118.074219 155.761719 117.527344 155.039062 117.046875 C 154.3125 116.566406 153.546875 116.15625 152.742188 115.824219 C 151.9375 115.492188 151.109375 115.242188 150.253906 115.074219 C 149.402344 114.90625 148.539062 114.820312 147.667969 114.820312 C 146.796875 114.820312 145.933594 114.90625 145.082031 115.074219 C 144.226562 115.242188 143.398438 115.492188 142.59375 115.824219 C 141.789062 116.15625 141.023438 116.566406 140.296875 117.046875 C 139.574219 117.527344 138.902344 118.074219 138.285156 118.691406 L 129.558594 127.417969 L 129.109375 127.839844 C 129.0625 127.902344 129.023438 127.96875 128.988281 128.035156 C 128.007812 129.058594 127.078125 130.128906 126.203125 131.242188 C 125.328125 132.355469 124.503906 133.507812 123.742188 134.703125 C 122.976562 135.894531 122.269531 137.121094 121.625 138.382812 C 120.980469 139.644531 120.394531 140.933594 119.875 142.253906 C 119.351562 143.570312 118.894531 144.910156 118.503906 146.273438 C 118.113281 147.632812 117.789062 149.011719 117.53125 150.40625 C 117.269531 151.796875 117.082031 153.199219 116.957031 154.613281 C 116.835938 156.023438 116.78125 157.4375 116.796875 158.855469 C 116.808594 160.273438 116.894531 161.6875 117.042969 163.09375 C 117.195312 164.503906 117.414062 165.902344 117.699219 167.289062 C 117.988281 168.679688 118.339844 170.046875 118.757812 171.402344 C 119.175781 172.757812 119.660156 174.085938 120.207031 175.394531 C 120.757812 176.699219 121.367188 177.976562 122.035156 179.226562 C 122.707031 180.472656 123.4375 181.6875 124.226562 182.863281 C 125.015625 184.042969 125.859375 185.175781 126.757812 186.273438 C 127.65625 187.367188 128.605469 188.417969 129.605469 189.421875 L 185.886719 245.699219 C 186.902344 246.714844 187.964844 247.671875 189.078125 248.582031 C 190.1875 249.488281 191.339844 250.339844 192.535156 251.132812 C 193.726562 251.929688 194.957031 252.664062 196.222656 253.335938 C 197.492188 254.011719 198.785156 254.621094 200.113281 255.171875 C 201.4375 255.71875 202.789062 256.199219 204.160156 256.613281 C 205.535156 257.027344 206.921875 257.375 208.332031 257.65625 C 209.738281 257.933594 211.15625 258.144531 212.582031 258.285156 C 214.011719 258.425781 215.441406 258.496094 216.875 258.496094 C 218.308594 258.496094 219.742188 258.425781 221.167969 258.285156 C 222.597656 258.144531 224.015625 257.933594 225.421875 257.65625 C 226.828125 257.375 228.21875 257.027344 229.589844 256.613281 C 230.964844 256.199219 232.3125 255.71875 233.640625 255.171875 C 234.964844 254.621094 236.261719 254.011719 237.527344 253.335938 C 238.792969 252.664062 240.023438 251.929688 241.21875 251.132812 C 242.410156 250.339844 243.5625 249.488281 244.675781 248.582031 C 245.785156 247.671875 246.847656 246.714844 247.867188 245.699219 L 256.59375 236.972656 C 257.207031 236.355469 257.753906 235.683594 258.238281 234.960938 C 258.71875 234.234375 259.125 233.46875 259.457031 232.664062 C 259.789062 231.859375 260.039062 231.03125 260.207031 230.175781 C 260.378906 229.324219 260.460938 228.460938 260.460938 227.589844 C 260.460938 226.71875 260.378906 225.855469 260.207031 225.003906 C 260.039062 224.148438 259.789062 223.320312 259.457031 222.515625 C 259.125 221.710938 258.71875 220.945312 258.238281 220.21875 C 257.753906 219.496094 257.207031 218.824219 256.59375 218.207031 Z M 141.679688 122.085938 C 142.074219 121.695312 142.503906 121.34375 142.964844 121.035156 C 143.425781 120.726562 143.914062 120.464844 144.429688 120.253906 C 144.941406 120.042969 145.472656 119.882812 146.015625 119.773438 C 146.5625 119.664062 147.113281 119.609375 147.667969 119.609375 C 148.222656 119.609375 148.773438 119.664062 149.320312 119.773438 C 149.863281 119.882812 150.394531 120.042969 150.90625 120.253906 C 151.421875 120.464844 151.910156 120.726562 152.371094 121.035156 C 152.832031 121.34375 153.261719 121.695312 153.65625 122.085938 L 167.636719 136.070312 C 168.03125 136.460938 168.382812 136.890625 168.6875 137.351562 C 168.996094 137.816406 169.257812 138.304688 169.46875 138.816406 C 169.683594 139.332031 169.84375 139.859375 169.949219 140.40625 C 170.058594 140.949219 170.113281 141.5 170.113281 142.054688 C 170.113281 142.613281 170.058594 143.164062 169.949219 143.707031 C 169.84375 144.253906 169.683594 144.78125 169.46875 145.296875 C 169.257812 145.808594 168.996094 146.296875 168.6875 146.761719 C 168.382812 147.222656 168.03125 147.652344 167.636719 148.042969 L 163.199219 152.457031 C 162.15625 153.507812 161.246094 154.664062 160.472656 155.929688 L 134.070312 129.699219 Z M 189.207031 242.378906 L 132.953125 186.125 C 132.097656 185.261719 131.28125 184.363281 130.507812 183.425781 C 129.734375 182.488281 129.003906 181.519531 128.320312 180.511719 C 127.636719 179.507812 127.003906 178.472656 126.417969 177.410156 C 125.828125 176.34375 125.292969 175.253906 124.808594 174.140625 C 124.320312 173.027344 123.890625 171.890625 123.507812 170.738281 C 123.128906 169.582031 122.800781 168.414062 122.53125 167.230469 C 122.261719 166.042969 122.042969 164.847656 121.882812 163.644531 C 121.722656 162.441406 121.621094 161.230469 121.570312 160.015625 C 121.523438 158.800781 121.53125 157.585938 121.597656 156.375 C 121.664062 155.160156 121.785156 153.953125 121.960938 152.75 C 122.140625 151.546875 122.375 150.355469 122.660156 149.175781 C 122.949219 147.992188 123.292969 146.828125 123.691406 145.679688 C 124.085938 144.53125 124.535156 143.402344 125.039062 142.296875 C 125.539062 141.191406 126.089844 140.109375 126.695312 139.050781 C 127.296875 137.996094 127.945312 136.972656 128.644531 135.976562 C 129.339844 134.980469 130.085938 134.019531 130.871094 133.09375 L 158.339844 160.5625 C 157.832031 162.261719 157.5625 163.996094 157.527344 165.769531 C 157.488281 167.542969 157.6875 169.285156 158.125 171.003906 C 158.5625 172.722656 159.21875 174.351562 160.097656 175.890625 C 160.976562 177.429688 162.042969 178.824219 163.300781 180.074219 L 195.257812 212.132812 C 196.507812 213.386719 197.902344 214.457031 199.441406 215.335938 C 200.980469 216.210938 202.609375 216.871094 204.328125 217.304688 C 206.046875 217.742188 207.789062 217.941406 209.5625 217.90625 C 211.335938 217.871094 213.070312 217.597656 214.769531 217.089844 L 242.238281 244.460938 C 241.3125 245.25 240.351562 245.992188 239.355469 246.6875 C 238.359375 247.386719 237.335938 248.035156 236.28125 248.640625 C 235.222656 249.242188 234.144531 249.792969 233.035156 250.292969 C 231.929688 250.796875 230.800781 251.246094 229.652344 251.644531 C 228.503906 252.039062 227.339844 252.382812 226.15625 252.671875 C 224.976562 252.960938 223.785156 253.191406 222.582031 253.371094 C 221.382812 253.546875 220.171875 253.667969 218.960938 253.734375 C 217.746094 253.800781 216.53125 253.808594 215.316406 253.761719 C 214.101562 253.710938 212.894531 253.609375 211.6875 253.449219 C 210.484375 253.289062 209.289062 253.074219 208.105469 252.800781 C 206.917969 252.53125 205.75 252.203125 204.59375 251.824219 C 203.441406 251.445312 202.304688 251.011719 201.191406 250.523438 C 200.078125 250.039062 198.988281 249.503906 197.925781 248.917969 C 196.859375 248.328125 195.824219 247.695312 194.820312 247.011719 C 193.816406 246.328125 192.84375 245.597656 191.90625 244.824219 C 190.96875 244.050781 190.070312 243.234375 189.207031 242.378906 Z M 253.246094 233.652344 L 245.808594 241.089844 L 219.40625 214.859375 C 220.667969 214.085938 221.824219 213.175781 222.875 212.132812 L 227.289062 207.695312 C 227.683594 207.300781 228.109375 206.953125 228.574219 206.644531 C 229.035156 206.335938 229.523438 206.074219 230.035156 205.863281 C 230.550781 205.648438 231.078125 205.488281 231.625 205.382812 C 232.167969 205.273438 232.71875 205.21875 233.277344 205.21875 C 233.832031 205.21875 234.382812 205.273438 234.925781 205.382812 C 235.472656 205.488281 236 205.648438 236.515625 205.863281 C 237.027344 206.074219 237.515625 206.335938 237.980469 206.644531 C 238.441406 206.953125 238.871094 207.300781 239.261719 207.695312 L 253.246094 221.675781 C 253.636719 222.070312 253.988281 222.5 254.296875 222.960938 C 254.605469 223.421875 254.867188 223.910156 255.078125 224.425781 C 255.289062 224.9375 255.449219 225.46875 255.558594 226.011719 C 255.667969 226.558594 255.722656 227.109375 255.722656 227.664062 C 255.722656 228.21875 255.667969 228.769531 255.558594 229.316406 C 255.449219 229.859375 255.289062 230.390625 255.078125 230.902344 C 254.867188 231.417969 254.605469 231.90625 254.296875 232.367188 C 253.988281 232.832031 253.636719 233.257812 253.246094 233.652344 Z M 253.246094 233.652344 " fill-opacity="1" fill-rule="nonzero"/><path fill="#000000" d="M 199.125 143.285156 C 198.804688 143.285156 198.5 143.34375 198.203125 143.460938 C 197.90625 143.578125 197.644531 143.746094 197.414062 143.964844 C 197.183594 144.183594 197 144.4375 196.867188 144.726562 C 196.734375 145.019531 196.660156 145.320312 196.644531 145.640625 C 196.644531 145.96875 196.707031 146.285156 196.832031 146.585938 C 196.960938 146.890625 197.140625 147.160156 197.371094 147.390625 C 197.605469 147.625 197.871094 147.804688 198.175781 147.929688 C 198.480469 148.054688 198.796875 148.117188 199.125 148.117188 C 200.042969 148.132812 200.957031 148.195312 201.867188 148.296875 C 202.78125 148.402344 203.6875 148.546875 204.582031 148.738281 C 205.480469 148.929688 206.367188 149.164062 207.242188 149.4375 C 208.117188 149.714844 208.980469 150.03125 209.824219 150.390625 C 210.667969 150.75 211.492188 151.148438 212.300781 151.585938 C 213.105469 152.023438 213.890625 152.5 214.652344 153.015625 C 215.410156 153.527344 216.144531 154.074219 216.855469 154.660156 C 217.5625 155.242188 218.242188 155.859375 218.890625 156.511719 C 219.539062 157.160156 220.152344 157.839844 220.738281 158.546875 C 221.320312 159.253906 221.871094 159.988281 222.382812 160.75 C 222.894531 161.511719 223.371094 162.296875 223.808594 163.105469 C 224.246094 163.910156 224.640625 164.738281 225 165.582031 C 225.359375 166.425781 225.675781 167.285156 225.949219 168.164062 C 226.226562 169.039062 226.457031 169.925781 226.648438 170.824219 C 226.835938 171.722656 226.984375 172.625 227.085938 173.539062 C 227.191406 174.449219 227.25 175.363281 227.265625 176.28125 C 227.28125 176.601562 227.355469 176.902344 227.488281 177.191406 C 227.621094 177.484375 227.800781 177.738281 228.03125 177.957031 C 228.261719 178.175781 228.527344 178.34375 228.820312 178.460938 C 229.117188 178.578125 229.425781 178.636719 229.742188 178.636719 C 230.070312 178.636719 230.386719 178.574219 230.691406 178.449219 C 230.996094 178.324219 231.261719 178.144531 231.496094 177.910156 C 231.730469 177.679688 231.90625 177.410156 232.035156 177.105469 C 232.160156 176.804688 232.222656 176.488281 232.222656 176.160156 C 232.207031 175.082031 232.136719 174.007812 232.015625 172.9375 C 231.894531 171.867188 231.722656 170.808594 231.5 169.753906 C 231.277344 168.699219 231.003906 167.660156 230.679688 166.632812 C 230.355469 165.605469 229.984375 164.597656 229.5625 163.605469 C 229.140625 162.617188 228.671875 161.648438 228.15625 160.703125 C 227.640625 159.757812 227.082031 158.835938 226.476562 157.945312 C 225.875 157.054688 225.230469 156.195312 224.542969 155.367188 C 223.855469 154.535156 223.128906 153.742188 222.363281 152.984375 C 221.601562 152.226562 220.800781 151.503906 219.96875 150.824219 C 219.136719 150.140625 218.269531 149.503906 217.375 148.90625 C 216.480469 148.304688 215.558594 147.753906 214.609375 147.246094 C 213.660156 146.734375 212.6875 146.273438 211.695312 145.859375 C 210.699219 145.445312 209.6875 145.078125 208.660156 144.761719 C 207.632812 144.445312 206.589844 144.179688 205.535156 143.960938 C 204.480469 143.746094 203.417969 143.582031 202.347656 143.46875 C 201.273438 143.355469 200.203125 143.292969 199.125 143.285156 Z M 199.125 143.285156 " fill-opacity="1" fill-rule="nonzero"/><path fill="#000000" d="M 251.683594 184.761719 C 252.003906 184.746094 252.304688 184.671875 252.59375 184.539062 C 252.882812 184.40625 253.136719 184.222656 253.359375 183.992188 C 253.578125 183.761719 253.746094 183.5 253.863281 183.203125 C 253.980469 182.90625 254.039062 182.601562 254.039062 182.28125 C 253.925781 178.132812 253.410156 174.035156 252.5 169.984375 C 251.585938 165.933594 250.292969 162.011719 248.617188 158.214844 C 246.945312 154.414062 244.917969 150.8125 242.542969 147.410156 C 240.167969 144.003906 237.488281 140.863281 234.503906 137.976562 C 231.691406 135.390625 228.671875 133.074219 225.441406 131.03125 C 222.210938 128.992188 218.824219 127.253906 215.277344 125.824219 C 211.734375 124.394531 208.089844 123.296875 204.347656 122.527344 C 200.601562 121.757812 196.820312 121.328125 193 121.242188 C 192.734375 121.3125 192.484375 121.417969 192.25 121.570312 C 192.019531 121.722656 191.820312 121.90625 191.648438 122.125 C 191.480469 122.339844 191.347656 122.582031 191.257812 122.84375 C 191.167969 123.101562 191.125 123.371094 191.125 123.648438 C 191.125 123.925781 191.167969 124.195312 191.257812 124.453125 C 191.347656 124.714844 191.480469 124.957031 191.648438 125.171875 C 191.820312 125.390625 192.019531 125.574219 192.25 125.726562 C 192.484375 125.878906 192.734375 125.984375 193 126.054688 C 196.523438 126.132812 200.011719 126.527344 203.464844 127.242188 C 206.914062 127.953125 210.273438 128.96875 213.542969 130.292969 C 216.808594 131.613281 219.929688 133.21875 222.90625 135.105469 C 225.882812 136.992188 228.667969 139.132812 231.253906 141.523438 C 234.011719 144.183594 236.484375 147.085938 238.675781 150.226562 C 240.871094 153.367188 242.738281 156.691406 244.28125 160.195312 C 245.828125 163.699219 247.019531 167.320312 247.863281 171.058594 C 248.703125 174.792969 249.175781 178.578125 249.28125 182.40625 C 249.292969 182.71875 249.367188 183.015625 249.496094 183.300781 C 249.621094 183.585938 249.796875 183.835938 250.019531 184.054688 C 250.242188 184.273438 250.5 184.441406 250.785156 184.566406 C 251.074219 184.6875 251.371094 184.753906 251.683594 184.761719 Z M 251.683594 184.761719 " fill-opacity="1" fill-rule="nonzero"/><path fill="#000000" d="M 242.660156 204.324219 C 242.042969 203.707031 241.375 203.15625 240.648438 202.671875 C 239.925781 202.1875 239.160156 201.777344 238.355469 201.445312 C 237.550781 201.109375 236.71875 200.859375 235.867188 200.6875 C 235.011719 200.519531 234.148438 200.433594 233.277344 200.433594 C 232.40625 200.433594 231.542969 200.519531 230.6875 200.6875 C 229.832031 200.859375 229 201.109375 228.195312 201.445312 C 227.390625 201.777344 226.628906 202.1875 225.902344 202.671875 C 225.179688 203.15625 224.507812 203.707031 223.890625 204.324219 L 219.480469 208.734375 C 218.789062 209.414062 218.042969 210.015625 217.234375 210.546875 C 216.429688 211.078125 215.578125 211.527344 214.6875 211.894531 C 213.792969 212.257812 212.871094 212.535156 211.921875 212.71875 C 210.976562 212.90625 210.019531 213 209.054688 213 C 208.089844 213 207.132812 212.90625 206.183594 212.71875 C 205.238281 212.535156 204.316406 212.257812 203.421875 211.894531 C 202.527344 211.527344 201.679688 211.078125 200.871094 210.546875 C 200.066406 210.015625 199.316406 209.414062 198.628906 208.734375 L 166.597656 176.804688 C 165.921875 176.113281 165.316406 175.367188 164.785156 174.558594 C 164.253906 173.753906 163.804688 172.902344 163.441406 172.007812 C 163.074219 171.117188 162.796875 170.195312 162.613281 169.246094 C 162.425781 168.300781 162.332031 167.34375 162.332031 166.378906 C 162.332031 165.414062 162.425781 164.457031 162.613281 163.507812 C 162.796875 162.558594 163.074219 161.640625 163.441406 160.746094 C 163.804688 159.851562 164.253906 159.003906 164.785156 158.195312 C 165.316406 157.390625 165.921875 156.640625 166.597656 155.953125 L 171.011719 151.539062 C 171.625 150.921875 172.175781 150.253906 172.660156 149.527344 C 173.144531 148.804688 173.554688 148.039062 173.890625 147.234375 C 174.222656 146.429688 174.472656 145.601562 174.644531 144.746094 C 174.816406 143.890625 174.898438 143.027344 174.898438 142.15625 C 174.898438 141.285156 174.816406 140.421875 174.644531 139.566406 C 174.472656 138.710938 174.222656 137.882812 173.890625 137.078125 C 173.554688 136.273438 173.144531 135.507812 172.660156 134.78125 C 172.175781 134.058594 171.625 133.386719 171.011719 132.773438 L 157.050781 118.691406 C 156.433594 118.074219 155.761719 117.527344 155.039062 117.046875 C 154.3125 116.566406 153.546875 116.15625 152.742188 115.824219 C 151.9375 115.492188 151.109375 115.242188 150.253906 115.074219 C 149.402344 114.90625 148.539062 114.820312 147.667969 114.820312 C 146.796875 114.820312 145.933594 114.90625 145.082031 115.074219 C 144.226562 115.242188 143.398438 115.492188 142.59375 115.824219 C 141.789062 116.15625 141.023438 116.566406 140.296875 117.046875 C 139.574219 117.527344 138.902344 118.074219 138.285156 118.691406 L 129.558594 127.417969 L 129.109375 127.839844 C 129.0625 127.902344 129.023438 127.96875 128.988281 128.035156 C 128.007812 129.058594 127.078125 130.128906 126.203125 131.242188 C 125.328125 132.355469 124.503906 133.507812 123.742188 134.703125 C 122.976562 135.894531 122.269531 137.121094 121.625 138.382812 C 120.980469 139.644531 120.394531 140.933594 119.875 142.253906 C 119.351562 143.570312 118.894531 144.910156 118.503906 146.273438 C 118.113281 147.632812 117.789062 149.011719 117.53125 150.40625 C 117.269531 151.796875 117.082031 153.199219 116.957031 154.613281 C 116.835938 156.023438 116.78125 157.4375 116.796875 158.855469 C 116.808594 160.273438 116.894531 161.6875 117.042969 163.09375 C 117.195312 164.503906 117.414062 165.902344 117.699219 167.289062 C 117.988281 168.679688 118.339844 170.046875 118.757812 171.402344 C 119.175781 172.757812 119.660156 174.085938 120.207031 175.394531 C 120.757812 176.699219 121.367188 177.976562 122.035156 179.226562 C 122.707031 180.472656 123.4375 181.6875 124.226562 182.863281 C 125.015625 184.042969 125.859375 185.175781 126.757812 186.273438 C 127.65625 187.367188 128.605469 188.417969 129.605469 189.421875 L 185.886719 245.699219 C 186.902344 246.714844 187.964844 247.671875 189.078125 248.582031 C 190.1875 249.488281 191.339844 250.339844 192.535156 251.132812 C 193.726562 251.929688 194.957031 252.664062 196.222656 253.335938 C 197.492188 254.011719 198.785156 254.621094 200.113281 255.171875 C 201.4375 255.71875 202.789062 256.199219 204.160156 256.613281 C 205.535156 257.027344 206.921875 257.375 208.332031 257.65625 C 209.738281 257.933594 211.15625 258.144531 212.582031 258.285156 C 214.011719 258.425781 215.441406 258.496094 216.875 258.496094 C 218.308594 258.496094 219.742188 258.425781 221.167969 258.285156 C 222.597656 258.144531 224.015625 257.933594 225.421875 257.65625 C 226.828125 257.375 228.21875 257.027344 229.589844 256.613281 C 230.964844 256.199219 232.3125 255.71875 233.640625 255.171875 C 234.964844 254.621094 236.261719 254.011719 237.527344 253.335938 C 238.792969 252.664062 240.023438 251.929688 241.21875 251.132812 C 242.410156 250.339844 243.5625 249.488281 244.675781 248.582031 C 245.785156 247.671875 246.847656 246.714844 247.867188 245.699219 L 256.59375 236.972656 C 257.207031 236.355469 257.753906 235.683594 258.238281 234.960938 C 258.71875 234.234375 259.125 233.46875 259.457031 232.664062 C 259.789062 231.859375 260.039062 231.03125 260.207031 230.175781 C 260.378906 229.324219 260.460938 228.460938 260.460938 227.589844 C 260.460938 226.71875 260.378906 225.855469 260.207031 225.003906 C 260.039062 224.148438 259.789062 223.320312 259.457031 222.515625 C 259.125 221.710938 258.71875 220.945312 258.238281 220.21875 C 257.753906 219.496094 257.207031 218.824219 256.59375 218.207031 Z M 141.679688 122.085938 C 142.074219 121.695312 142.503906 121.34375 142.964844 121.035156 C 143.425781 120.726562 143.914062 120.464844 144.429688 120.253906 C 144.941406 120.042969 145.472656 119.882812 146.015625 119.773438 C 146.5625 119.664062 147.113281 119.609375 147.667969 119.609375 C 148.222656 119.609375 148.773438 119.664062 149.320312 119.773438 C 149.863281 119.882812 150.394531 120.042969 150.90625 120.253906 C 151.421875 120.464844 151.910156 120.726562 152.371094 121.035156 C 152.832031 121.34375 153.261719 121.695312 153.65625 122.085938 L 167.636719 136.070312 C 168.03125 136.460938 168.382812 136.890625 168.6875 137.351562 C 168.996094 137.816406 169.257812 138.304688 169.46875 138.816406 C 169.683594 139.332031 169.84375 139.859375 169.949219 140.40625 C 170.058594 140.949219 170.113281 141.5 170.113281 142.054688 C 170.113281 142.613281 170.058594 143.164062 169.949219 143.707031 C 169.84375 144.253906 169.683594 144.78125 169.46875 145.296875 C 169.257812 145.808594 168.996094 146.296875 168.6875 146.761719 C 168.382812 147.222656 168.03125 147.652344 167.636719 148.042969 L 163.199219 152.457031 C 162.15625 153.507812 161.246094 154.664062 160.472656 155.929688 L 134.070312 129.699219 Z M 189.207031 242.378906 L 132.953125 186.125 C 132.097656 185.261719 131.28125 184.363281 130.507812 183.425781 C 129.734375 182.488281 129.003906 181.519531 128.320312 180.511719 C 127.636719 179.507812 127.003906 178.472656 126.417969 177.410156 C 125.828125 176.34375 125.292969 175.253906 124.808594 174.140625 C 124.320312 173.027344 123.890625 171.890625 123.507812 170.738281 C 123.128906 169.582031 122.800781 168.414062 122.53125 167.230469 C 122.261719 166.042969 122.042969 164.847656 121.882812 163.644531 C 121.722656 162.441406 121.621094 161.230469 121.570312 160.015625 C 121.523438 158.800781 121.53125 157.585938 121.597656 156.375 C 121.664062 155.160156 121.785156 153.953125 121.960938 152.75 C 122.140625 151.546875 122.375 150.355469 122.660156 149.175781 C 122.949219 147.992188 123.292969 146.828125 123.691406 145.679688 C 124.085938 144.53125 124.535156 143.402344 125.039062 142.296875 C 125.539062 141.191406 126.089844 140.109375 126.695312 139.050781 C 127.296875 137.996094 127.945312 136.972656 128.644531 135.976562 C 129.339844 134.980469 130.085938 134.019531 130.871094 133.09375 L 158.339844 160.5625 C 157.832031 162.261719 157.5625 163.996094 157.527344 165.769531 C 157.488281 167.542969 157.6875 169.285156 158.125 171.003906 C 158.5625 172.722656 159.21875 174.351562 160.097656 175.890625 C 160.976562 177.429688 162.042969 178.824219 163.300781 180.074219 L 195.257812 212.132812 C 196.507812 213.386719 197.902344 214.457031 199.441406 215.335938 C 200.980469 216.210938 202.609375 216.871094 204.328125 217.304688 C 206.046875 217.742188 207.789062 217.941406 209.5625 217.90625 C 211.335938 217.871094 213.070312 217.597656 214.769531 217.089844 L 242.238281 244.460938 C 241.3125 245.25 240.351562 245.992188 239.355469 246.6875 C 238.359375 247.386719 237.335938 248.035156 236.28125 248.640625 C 235.222656 249.242188 234.144531 249.792969 233.035156 250.292969 C 231.929688 250.796875 230.800781 251.246094 229.652344 251.644531 C 228.503906 252.039062 227.339844 252.382812 226.15625 252.671875 C 224.976562 252.960938 223.785156 253.191406 222.582031 253.371094 C 221.382812 253.546875 220.171875 253.667969 218.960938 253.734375 C 217.746094 253.800781 216.53125 253.808594 215.316406 253.761719 C 214.101562 253.710938 212.894531 253.609375 211.6875 253.449219 C 210.484375 253.289062 209.289062 253.074219 208.105469 252.800781 C 206.917969 252.53125 205.75 252.203125 204.59375 251.824219 C 203.441406 251.445312 202.304688 251.011719 201.191406 250.523438 C 200.078125 250.039062 198.988281 249.503906 197.925781 248.917969 C 196.859375 248.328125 195.824219 247.695312 194.820312 247.011719 C 193.816406 246.328125 192.84375 245.597656 191.90625 244.824219 C 190.96875 244.050781 190.070312 243.234375 189.207031 242.378906 Z M 253.246094 233.652344 L 245.808594 241.089844 L 219.40625 214.859375 C 220.667969 214.085938 221.824219 213.175781 222.875 212.132812 L 227.289062 207.695312 C 227.683594 207.300781 228.109375 206.953125 228.574219 206.644531 C 229.035156 206.335938 229.523438 206.074219 230.035156 205.863281 C 230.550781 205.648438 231.078125 205.488281 231.625 205.382812 C 232.167969 205.273438 232.71875 205.21875 233.277344 205.21875 C 233.832031 205.21875 234.382812 205.273438 234.925781 205.382812 C 235.472656 205.488281 236 205.648438 236.515625 205.863281 C 237.027344 206.074219 237.515625 206.335938 237.980469 206.644531 C 238.441406 206.953125 238.871094 207.300781 239.261719 207.695312 L 253.246094 221.675781 C 253.636719 222.070312 253.988281 222.5 254.296875 222.960938 C 254.605469 223.421875 254.867188 223.910156 255.078125 224.425781 C 255.289062 224.9375 255.449219 225.46875 255.558594 226.011719 C 255.667969 226.558594 255.722656 227.109375 255.722656 227.664062 C 255.722656 228.21875 255.667969 228.769531 255.558594 229.316406 C 255.449219 229.859375 255.289062 230.390625 255.078125 230.902344 C 254.867188 231.417969 254.605469 231.90625 254.296875 232.367188 C 253.988281 232.832031 253.636719 233.257812 253.246094 233.652344 Z M 253.246094 233.652344 " fill-opacity="1" fill-rule="nonzero"/><path fill="#000000" d="M 199.125 143.285156 C 198.804688 143.285156 198.5 143.34375 198.203125 143.460938 C 197.90625 143.578125 197.644531 143.746094 197.414062 143.964844 C 197.183594 144.183594 197 144.4375 196.867188 144.726562 C 196.734375 145.019531 196.660156 145.320312 196.644531 145.640625 C 196.644531 145.96875 196.707031 146.285156 196.832031 146.585938 C 196.960938 146.890625 197.140625 147.160156 197.371094 147.390625 C 197.605469 147.625 197.871094 147.804688 198.175781 147.929688 C 198.480469 148.054688 198.796875 148.117188 199.125 148.117188 C 200.042969 148.132812 200.957031 148.195312 201.867188 148.296875 C 202.78125 148.402344 203.6875 148.546875 204.582031 148.738281 C 205.480469 148.929688 206.367188 149.164062 207.242188 149.4375 C 208.117188 149.714844 208.980469 150.03125 209.824219 150.390625 C 210.667969 150.75 211.492188 151.148438 212.300781 151.585938 C 213.105469 152.023438 213.890625 152.5 214.652344 153.015625 C 215.410156 153.527344 216.144531 154.074219 216.855469 154.660156 C 217.5625 155.242188 218.242188 155.859375 218.890625 156.511719 C 219.539062 157.160156 220.152344 157.839844 220.738281 158.546875 C 221.320312 159.253906 221.871094 159.988281 222.382812 160.75 C 222.894531 161.511719 223.371094 162.296875 223.808594 163.105469 C 224.246094 163.910156 224.640625 164.738281 225 165.582031 C 225.359375 166.425781 225.675781 167.285156 225.949219 168.164062 C 226.226562 169.039062 226.457031 169.925781 226.648438 170.824219 C 226.835938 171.722656 226.984375 172.625 227.085938 173.539062 C 227.191406 174.449219 227.25 175.363281 227.265625 176.28125 C 227.28125 176.601562 227.355469 176.902344 227.488281 177.191406 C 227.621094 177.484375 227.800781 177.738281 228.03125 177.957031 C 228.261719 178.175781 228.527344 178.34375 228.820312 178.460938 C 229.117188 178.578125 229.425781 178.636719 229.742188 178.636719 C 230.070312 178.636719 230.386719 178.574219 230.691406 178.449219 C 230.996094 178.324219 231.261719 178.144531 231.496094 177.910156 C 231.730469 177.679688 231.90625 177.410156 232.035156 177.105469 C 232.160156 176.804688 232.222656 176.488281 232.222656 176.160156 C 232.207031 175.082031 232.136719 174.007812 232.015625 172.9375 C 231.894531 171.867188 231.722656 170.808594 231.5 169.753906 C 231.277344 168.699219 231.003906 167.660156 230.679688 166.632812 C 230.355469 165.605469 229.984375 164.597656 229.5625 163.605469 C 229.140625 162.617188 228.671875 161.648438 228.15625 160.703125 C 227.640625 159.757812 227.082031 158.835938 226.476562 157.945312 C 225.875 157.054688 225.230469 156.195312 224.542969 155.367188 C 223.855469 154.535156 223.128906 153.742188 222.363281 152.984375 C 221.601562 152.226562 220.800781 151.503906 219.96875 150.824219 C 219.136719 150.140625 218.269531 149.503906 217.375 148.90625 C 216.480469 148.304688 215.558594 147.753906 214.609375 147.246094 C 213.660156 146.734375 212.6875 146.273438 211.695312 145.859375 C 210.699219 145.445312 209.6875 145.078125 208.660156 144.761719 C 207.632812 144.445312 206.589844 144.179688 205.535156 143.960938 C 204.480469 143.746094 203.417969 143.582031 202.347656 143.46875 C 201.273438 143.355469 200.203125 143.292969 199.125 143.285156 Z M 199.125 143.285156 " fill-opacity="1" fill-rule="nonzero"/><path fill="#000000" d="M 251.683594 184.761719 C 252.003906 184.746094 252.304688 184.671875 252.59375 184.539062 C 252.882812 184.40625 253.136719 184.222656 253.359375 183.992188 C 253.578125 183.761719 253.746094 183.5 253.863281 183.203125 C 253.980469 182.90625 254.039062 182.601562 254.039062 182.28125 C 253.925781 178.132812 253.410156 174.035156 252.5 169.984375 C 251.585938 165.933594 250.292969 162.011719 248.617188 158.214844 C 246.945312 154.414062 244.917969 150.8125 242.542969 147.410156 C 240.167969 144.003906 237.488281 140.863281 234.503906 137.976562 C 231.691406 135.390625 228.671875 133.074219 225.441406 131.03125 C 222.210938 128.992188 218.824219 127.253906 215.277344 125.824219 C 211.734375 124.394531 208.089844 123.296875 204.347656 122.527344 C 200.601562 121.757812 196.820312 121.328125 193 121.242188 C 192.734375 121.3125 192.484375 121.417969 192.25 121.570312 C 192.019531 121.722656 191.820312 121.90625 191.648438 122.125 C 191.480469 122.339844 191.347656 122.582031 191.257812 122.84375 C 191.167969 123.101562 191.125 123.371094 191.125 123.648438 C 191.125 123.925781 191.167969 124.195312 191.257812 124.453125 C 191.347656 124.714844 191.480469 124.957031 191.648438 125.171875 C 191.820312 125.390625 192.019531 125.574219 192.25 125.726562 C 192.484375 125.878906 192.734375 125.984375 193 126.054688 C 196.523438 126.132812 200.011719 126.527344 203.464844 127.242188 C 206.914062 127.953125 210.273438 128.96875 213.542969 130.292969 C 216.808594 131.613281 219.929688 133.21875 222.90625 135.105469 C 225.882812 136.992188 228.667969 139.132812 231.253906 141.523438 C 234.011719 144.183594 236.484375 147.085938 238.675781 150.226562 C 240.871094 153.367188 242.738281 156.691406 244.28125 160.195312 C 245.828125 163.699219 247.019531 167.320312 247.863281 171.058594 C 248.703125 174.792969 249.175781 178.578125 249.28125 182.40625 C 249.292969 182.71875 249.367188 183.015625 249.496094 183.300781 C 249.621094 183.585938 249.796875 183.835938 250.019531 184.054688 C 250.242188 184.273438 250.5 184.441406 250.785156 184.566406 C 251.074219 184.6875 251.371094 184.753906 251.683594 184.761719 Z M 251.683594 184.761719 " fill-opacity="1" fill-rule="nonzero"/></svg>