<svg xmlns="http://www.w3.org/2000/svg" width="500" height="500" viewBox="0 0 375 375">
  <path d="M242.66 204.324a13 13 0 0 0-2.012-1.652 13 13 0 0 0-2.293-1.227 13.3 13.3 0 0 0-2.488-.757 13.4 13.4 0 0 0-2.59-.254q-1.305.001-2.59.254-1.284.255-2.492.757a13 13 0 0 0-2.293 1.227 13.4 13.4 0 0 0-2.011 1.652l-4.41 4.41a14.978 14.978 0 0 1-4.793 3.16q-1.343.548-2.766.825a14.7 14.7 0 0 1-5.738 0 15 15 0 0 1-2.762-.824 15 15 0 0 1-2.55-1.348 14.7 14.7 0 0 1-2.243-1.813l-32.031-31.93a15 15 0 0 1-1.813-2.245 14.6 14.6 0 0 1-1.344-2.551 14.4 14.4 0 0 1-.828-2.762 14.7 14.7 0 0 1 0-5.738 14.5 14.5 0 0 1 .828-2.762q.547-1.34 1.344-2.55a15 15 0 0 1 1.813-2.243l4.414-4.414a13.4 13.4 0 0 0 2.879-4.305q.497-1.205.754-2.488.255-1.283.253-2.59.002-1.305-.253-2.59a13.4 13.4 0 0 0-.754-2.488 13.34 13.34 0 0 0-2.879-4.305l-13.961-14.082a13 13 0 0 0-2.012-1.644q-1.09-.722-2.297-1.223a13.343 13.343 0 0 0-7.66-.75q-1.282.252-2.488.75-1.207.5-2.297 1.223a13 13 0 0 0-2.012 1.644l-8.726 8.727-.45.422a1.5 1.5 0 0 0-.12.195 43 43 0 0 0-2.786 3.207 43 43 0 0 0-2.46 3.461 43.608 43.608 0 0 0-3.867 7.55 43.778 43.778 0 0 0-2.344 8.152 43.4 43.4 0 0 0-.735 8.45 43.8 43.8 0 0 0 3.41 16.54 47 47 0 0 0 1.828 3.832 44 44 0 0 0 7.57 10.195l56.282 56.277a43.3 43.3 0 0 0 6.648 5.434 42 42 0 0 0 3.688 2.203 43.704 43.704 0 0 0 7.938 3.277c1.374.414 2.76.762 4.171 1.043q2.11.418 4.25.63a43.8 43.8 0 0 0 17.008-1.673 44 44 0 0 0 4.05-1.441 44.6 44.6 0 0 0 7.579-4.04 45 45 0 0 0 3.457-2.55 45 45 0 0 0 3.191-2.883l8.727-8.726q.919-.928 1.644-2.012.72-1.09 1.219-2.297.498-1.207.75-2.488c.172-.852.254-1.715.254-2.586q.002-1.308-.254-2.586a13 13 0 0 0-.75-2.488 13.5 13.5 0 0 0-1.219-2.297 13.5 13.5 0 0 0-1.644-2.012Zm-100.98-82.238q.592-.587 1.285-1.05.691-.465 1.465-.782a8.6 8.6 0 0 1 1.586-.48 8.4 8.4 0 0 1 3.304 0c.543.109 1.075.269 1.586.48a8.2 8.2 0 0 1 1.465.781q.692.464 1.285 1.05l13.98 13.985c.395.39.747.82 1.052 1.282a8.5 8.5 0 0 1 1.425 4.703q0 .838-.164 1.652a8.509 8.509 0 0 1-1.262 3.055c-.304.46-.656.89-1.05 1.281l-4.438 4.414a19 19 0 0 0-2.726 3.473L134.07 129.7Zm47.527 120.293-56.254-56.254a40 40 0 0 1-2.445-2.7 39 39 0 0 1-4.09-6.015 39.346 39.346 0 0 1-2.91-6.672 39.24 39.24 0 0 1-.848-21.562q.434-1.775 1.031-3.496a38 38 0 0 1 1.348-3.383q.748-1.659 1.656-3.246a39 39 0 0 1 1.95-3.074 39 39 0 0 1 2.226-2.883l27.469 27.469a19.4 19.4 0 0 0-.813 5.207c-.039 1.773.16 3.515.598 5.234a19.5 19.5 0 0 0 1.973 4.887 19.5 19.5 0 0 0 3.203 4.183l31.957 32.059a19.6 19.6 0 0 0 4.183 3.203 19.5 19.5 0 0 0 4.887 1.969q2.576.654 5.234.601a19.4 19.4 0 0 0 5.208-.816l27.468 27.37a40.019 40.019 0 0 1-5.957 4.18 39 39 0 0 1-3.246 1.653 38.9 38.9 0 0 1-10.453 3.078c-1.2.176-2.41.297-3.621.363a39.1 39.1 0 0 1-17.77-3.21 38.9 38.9 0 0 1-9.285-5.7 40 40 0 0 1-2.699-2.445m64.04-8.727-7.438 7.438-26.403-26.23a19 19 0 0 0 3.469-2.727l4.414-4.438c.395-.394.82-.742 1.285-1.05q.693-.464 1.461-.782a8 8 0 0 1 1.59-.48 8.35 8.35 0 0 1 3.3 0 8.51 8.51 0 0 1 3.055 1.262q.694.46 1.282 1.05l13.984 13.98q.586.594 1.05 1.286.465.691.782 1.465.317.77.48 1.586a8.4 8.4 0 0 1 0 3.304 8.6 8.6 0 0 1-.48 1.586 8.525 8.525 0 0 1-1.832 2.75M199.125 143.285a2.48 2.48 0 0 0-2.48 2.356q0 .493.187.945a2.5 2.5 0 0 0 1.344 1.344q.456.187.949.187 1.377.025 2.742.18a28.7 28.7 0 0 1 7.957 2.094q1.265.538 2.477 1.195 1.208.656 2.351 1.43a29 29 0 0 1 2.203 1.644q1.062.873 2.036 1.852a29 29 0 0 1 1.847 2.035 28.3 28.3 0 0 1 3.07 4.558 29 29 0 0 1 2.141 5.06 28.3 28.3 0 0 1 1.137 5.374q.157 1.365.18 2.742.023.478.222.91.199.439.543.766a2.47 2.47 0 0 0 1.711.68 2.48 2.48 0 0 0 2.48-2.477 33 33 0 0 0-.206-3.222 34 34 0 0 0-.516-3.184 33.462 33.462 0 0 0-1.937-6.148 33.7 33.7 0 0 0-5.02-8.239 32 32 0 0 0-2.18-2.383 33 33 0 0 0-4.988-4.078 32 32 0 0 0-2.766-1.66 33 33 0 0 0-2.914-1.387 34 34 0 0 0-3.035-1.097 34 34 0 0 0-3.125-.801 33.8 33.8 0 0 0-6.41-.676m0 0"/>
  <path d="M251.684 184.762c.32-.016.62-.09.91-.223q.433-.2.765-.547a2.48 2.48 0 0 0 .68-1.71 63.9 63.9 0 0 0-5.422-24.067 63.5 63.5 0 0 0-6.074-10.805 64 64 0 0 0-8.04-9.433 63.6 63.6 0 0 0-9.062-6.946 63.5 63.5 0 0 0-10.164-5.207 63 63 0 0 0-10.93-3.297A63.4 63.4 0 0 0 193 121.242c-.266.07-.516.176-.75.328q-.344.228-.602.555a2.47 2.47 0 0 0-.39 2.328q.137.395.39.719.257.327.602.555c.234.152.484.257.75.328a58 58 0 0 1 10.465 1.187q5.174 1.066 10.078 3.051a58 58 0 0 1 9.363 4.812 58 58 0 0 1 8.348 6.418 59 59 0 0 1 7.422 8.704 58.5 58.5 0 0 1 5.605 9.968 59 59 0 0 1 5 22.211q.02.469.215.895.188.427.524.754a2.458 2.458 0 0 0 1.664.707M242.66 204.324a13 13 0 0 0-2.012-1.652 13 13 0 0 0-2.293-1.227 13.3 13.3 0 0 0-2.488-.757 13.4 13.4 0 0 0-2.59-.254q-1.305.001-2.59.254-1.284.255-2.492.757a13 13 0 0 0-2.293 1.227 13.4 13.4 0 0 0-2.011 1.652l-4.41 4.41a14.978 14.978 0 0 1-4.793 3.16q-1.343.548-2.766.825a14.7 14.7 0 0 1-5.738 0 15 15 0 0 1-2.762-.824 15 15 0 0 1-2.55-1.348 14.7 14.7 0 0 1-2.243-1.813l-32.031-31.93a15 15 0 0 1-1.813-2.245 14.6 14.6 0 0 1-1.344-2.551 14.4 14.4 0 0 1-.828-2.762 14.7 14.7 0 0 1 0-5.738 14.5 14.5 0 0 1 .828-2.762q.547-1.34 1.344-2.55a15 15 0 0 1 1.813-2.243l4.414-4.414a13.4 13.4 0 0 0 2.879-4.305q.497-1.205.754-2.488.255-1.283.253-2.59.002-1.305-.253-2.59a13.4 13.4 0 0 0-.754-2.488 13.34 13.34 0 0 0-2.879-4.305l-13.961-14.082a13 13 0 0 0-2.012-1.644q-1.09-.722-2.297-1.223a13.343 13.343 0 0 0-7.66-.75q-1.282.252-2.488.75-1.207.5-2.297 1.223a13 13 0 0 0-2.012 1.644l-8.726 8.727-.45.422a1.5 1.5 0 0 0-.12.195 43 43 0 0 0-2.786 3.207 43 43 0 0 0-2.46 3.461 43.608 43.608 0 0 0-3.867 7.55 43.778 43.778 0 0 0-2.344 8.152 43.4 43.4 0 0 0-.735 8.45 43.8 43.8 0 0 0 3.41 16.54 47 47 0 0 0 1.828 3.832 44 44 0 0 0 7.57 10.195l56.282 56.277a43.3 43.3 0 0 0 6.648 5.434 42 42 0 0 0 3.688 2.203 43.704 43.704 0 0 0 7.938 3.277c1.374.414 2.76.762 4.171 1.043q2.11.418 4.25.63a43.8 43.8 0 0 0 17.008-1.673 44 44 0 0 0 4.05-1.441 44.6 44.6 0 0 0 7.579-4.04 45 45 0 0 0 3.457-2.55 45 45 0 0 0 3.191-2.883l8.727-8.726q.919-.928 1.644-2.012.72-1.09 1.219-2.297.498-1.207.75-2.488c.172-.852.254-1.715.254-2.586q.002-1.308-.254-2.586a13 13 0 0 0-.75-2.488 13.5 13.5 0 0 0-1.219-2.297 13.5 13.5 0 0 0-1.644-2.012Zm-100.98-82.238q.592-.587 1.285-1.05.691-.465 1.465-.782a8.6 8.6 0 0 1 1.586-.48 8.4 8.4 0 0 1 3.304 0c.543.109 1.075.269 1.586.48a8.2 8.2 0 0 1 1.465.781q.692.464 1.285 1.05l13.98 13.985c.395.39.747.82 1.052 1.282a8.5 8.5 0 0 1 1.425 4.703q0 .838-.164 1.652a8.509 8.509 0 0 1-1.262 3.055c-.304.46-.656.89-1.05 1.281l-4.438 4.414a19 19 0 0 0-2.726 3.473L134.07 129.7Zm47.527 120.293-56.254-56.254a40 40 0 0 1-2.445-2.7 39 39 0 0 1-4.09-6.015 39.346 39.346 0 0 1-2.91-6.672 39.24 39.24 0 0 1-.848-21.562q.434-1.775 1.031-3.496a38 38 0 0 1 1.348-3.383q.748-1.659 1.656-3.246a39 39 0 0 1 1.95-3.074 39 39 0 0 1 2.226-2.883l27.469 27.469a19.4 19.4 0 0 0-.813 5.207c-.039 1.773.16 3.515.598 5.234a19.5 19.5 0 0 0 1.973 4.887 19.5 19.5 0 0 0 3.203 4.183l31.957 32.059a19.6 19.6 0 0 0 4.183 3.203 19.5 19.5 0 0 0 4.887 1.969q2.576.654 5.234.601a19.4 19.4 0 0 0 5.208-.816l27.468 27.37a40.019 40.019 0 0 1-5.957 4.18 39 39 0 0 1-3.246 1.653 38.9 38.9 0 0 1-10.453 3.078c-1.2.176-2.41.297-3.621.363a39.1 39.1 0 0 1-17.77-3.21 38.9 38.9 0 0 1-9.285-5.7 40 40 0 0 1-2.699-2.445m64.04-8.727-7.438 7.438-26.403-26.23a19 19 0 0 0 3.469-2.727l4.414-4.438c.395-.394.82-.742 1.285-1.05q.693-.464 1.461-.782a8 8 0 0 1 1.59-.48 8.35 8.35 0 0 1 3.3 0 8.51 8.51 0 0 1 3.055 1.262q.694.46 1.282 1.05l13.984 13.98q.586.594 1.05 1.286.465.691.782 1.465.317.77.48 1.586a8.4 8.4 0 0 1 0 3.304 8.6 8.6 0 0 1-.48 1.586 8.525 8.525 0 0 1-1.832 2.75m0 0"/>
  <path d="M199.125 143.285a2.48 2.48 0 0 0-2.48 2.356q0 .493.187.945a2.5 2.5 0 0 0 1.344 1.344q.456.187.949.187 1.377.025 2.742.18a28.7 28.7 0 0 1 7.957 2.094q1.265.538 2.477 1.195 1.208.656 2.351 1.43a29 29 0 0 1 2.203 1.644q1.062.873 2.036 1.852a29 29 0 0 1 1.847 2.035 28.3 28.3 0 0 1 3.07 4.558 29 29 0 0 1 2.141 5.06 28.3 28.3 0 0 1 1.137 5.374q.157 1.365.18 2.742.023.478.222.91.199.439.543.766a2.47 2.47 0 0 0 1.711.68 2.48 2.48 0 0 0 2.48-2.477 33 33 0 0 0-.206-3.222 34 34 0 0 0-.516-3.184 33.462 33.462 0 0 0-1.937-6.148 33.7 33.7 0 0 0-5.02-8.239 32 32 0 0 0-2.18-2.383 33 33 0 0 0-4.988-4.078 32 32 0 0 0-2.766-1.66 33 33 0 0 0-2.914-1.387 34 34 0 0 0-3.035-1.097 34 34 0 0 0-3.125-.801 33.8 33.8 0 0 0-6.41-.676m0 0"/>
  <path d="M251.684 184.762c.32-.016.62-.09.91-.223q.433-.2.765-.547a2.48 2.48 0 0 0 .68-1.71 63.9 63.9 0 0 0-5.422-24.067 63.5 63.5 0 0 0-6.074-10.805 64 64 0 0 0-8.04-9.433 63.6 63.6 0 0 0-9.062-6.946 63.5 63.5 0 0 0-10.164-5.207 63 63 0 0 0-10.93-3.297A63.4 63.4 0 0 0 193 121.242c-.266.07-.516.176-.75.328q-.344.228-.602.555a2.47 2.47 0 0 0-.39 2.328q.137.395.39.719.257.327.602.555c.234.152.484.257.75.328a58 58 0 0 1 10.465 1.187q5.174 1.066 10.078 3.051a58 58 0 0 1 9.363 4.812 58 58 0 0 1 8.348 6.418 59 59 0 0 1 7.422 8.704 58.5 58.5 0 0 1 5.605 9.968 59 59 0 0 1 5 22.211q.02.469.215.895.188.427.524.754a2.458 2.458 0 0 0 1.664.707m0 0"/>
</svg>
