<svg xmlns="http://www.w3.org/2000/svg" width="500" height="500" viewBox="0 0 375 375">
  <defs>
    <clipPath id="a">
      <path d="M91 94h192.719v211H91Zm0 0"/>
    </clipPath>
    <clipPath id="b">
      <path d="M91 94h192.719v211H91Zm0 0"/>
    </clipPath>
  </defs>
  <g clip-path="url(#a)">
    <path d="m280.055 94.738-25.813 6.813a2.4 2.4 0 0 0-.383.144l-64.039 16.899h-36.152c-.645 0-1.266.09-1.86.242-16.734 2.602-34.03 24-37.41 28.371a7.76 7.76 0 0 0-1.05 7.64l9.472 23.5 1.157 2.868-5.551-2.246-3.492 8.676-9.329-3.774-14.578 36.191 46.41 18.774 14.579-36.191-9.325-3.77 3.493-8.676-6.106-2.469a7.9 7.9 0 0 0 .817-2.07 7.7 7.7 0 0 0-.352-4.68l-11.16-27.687c4.734-5.543 11.078-11.738 16.824-15.566v50.082l2.867 1.16-3.496 8.672 9.328 3.773-16.242 40.32-9.207-3.726-19.605 50.578c-2.387 6.16.66 13.09 6.804 15.484 6.145 2.39 13.063-.66 15.453-6.82l35.551-91.719c2.406 5.235 8.32 8.07 14.008 6.422l30.309-8.777 10.054 35.91a11.84 11.84 0 0 0 11.383 8.656 11.8 11.8 0 0 0 3.203-.445c6.29-1.77 9.957-8.313 8.192-14.617l-13.278-47.414a11.83 11.83 0 0 0-14.672-8.184l-18.425 5.336v-50.09l69.03-18.215c2.505-.66 2.04-6.43.364-10.62l13.586-3.587a2.67 2.67 0 0 0 1.899-3.261 2.666 2.666 0 0 0-3.258-1.907M138.66 197.242l-19.7-7.969 1.868-4.636 5.418 2.191a7.68 7.68 0 0 0 3.234 3.711 7.7 7.7 0 0 0 2.094.844 7.6 7.6 0 0 0 1.813.238c.96 0 1.941-.184 2.89-.566.067-.028.13-.063.196-.09l4.054 1.64Zm33.66-8.285-9.172-11.613 5.282-39.016c1.254.473 2.57.715 3.886.715h.008c1.317 0 2.633-.246 3.883-.715l5.285 39.016Zm-3.672-62.414h7.34l1.836 7.258-.281.441a8.1 8.1 0 0 1-5.227 1.899 8.12 8.12 0 0 1-5.218-1.895l-.282-.445Zm0 0"/>
  </g>
  <path d="M155.031 99.785c3.692 11.438 15.942 17.711 27.356 14.012 11.418-3.703 17.676-15.98 13.98-27.418-3.691-11.442-15.937-17.715-27.355-14.012-11.414 3.7-17.676 15.977-13.98 27.418m38.653-2.086s-9.18 19.258-23.325 3.043c0 0 14.375 2.692 23.325-3.043M258.902 247.418l-19.312 7.742h-14.805l-18.664 5.809-26.394 5.804-13.516 24.836-12.23 6.774-3.22 5.16h130.673l-12.875-47.094ZM276.922 161.813c0-10.688-8.645-19.356-19.309-19.356-10.668 0-19.312 8.668-19.312 19.356 0 10.687 8.644 19.351 19.312 19.351 10.664 0 19.309-8.664 19.309-19.351m-19.309 15.664c-8.62 0-15.633-7.024-15.633-15.66 0-8.641 7.012-15.672 15.633-15.672 8.617 0 15.63 7.03 15.63 15.671 0 8.637-7.013 15.66-15.63 15.66m0 0"/>
  <g clip-path="url(#b)">
    <path fill="#0cc0df" d="M280.355 94.723 254.5 101.53a2.4 2.4 0 0 0-.383.145l-64.14 16.886h-36.211a7.3 7.3 0 0 0-1.864.247c-16.757 2.597-34.082 23.98-37.464 28.351a7.74 7.74 0 0 0-1.055 7.637l9.488 23.488 1.16 2.863-5.558-2.242-3.5 8.668-9.344-3.77-14.602 36.169 46.485 18.761 14.601-36.168-9.343-3.77 3.5-8.667-6.114-2.469a7.9 7.9 0 0 0 .817-2.07 7.67 7.67 0 0 0-.352-4.676l-11.18-27.672c4.746-5.539 11.098-11.73 16.852-15.554v50.05l2.871 1.16-3.5 8.668 9.344 3.77-16.266 40.293-9.222-3.723-19.637 50.551c-2.395 6.156.66 13.082 6.816 15.473 6.153 2.39 13.082-.66 15.473-6.817l35.61-91.664c2.41 5.23 8.331 8.067 14.03 6.418l30.356-8.77 10.074 35.891c1.465 5.227 6.219 8.649 11.399 8.649 1.058 0 2.136-.145 3.207-.446 6.297-1.765 9.972-8.308 8.203-14.605l-13.297-47.387a11.841 11.841 0 0 0-14.695-8.18l-18.457 5.333v-50.059l69.144-18.207c2.504-.66 2.04-6.426.363-10.617l13.606-3.582a2.67 2.67 0 0 0-1.36-5.164m-141.62 102.445-19.727-7.965 1.867-4.633 5.426 2.188a7.66 7.66 0 0 0 3.242 3.707c.656.387 1.36.668 2.098.847a7.6 7.6 0 0 0 1.812.235 7.7 7.7 0 0 0 2.895-.567c.066-.023.129-.058.195-.09l4.062 1.641Zm33.714-8.281-9.187-11.606 5.289-38.992c1.258.469 2.574.715 3.894.715h.008c1.32 0 2.637-.246 3.89-.719l5.294 38.996Zm-3.676-62.38h7.348l1.84 7.255-.281.441a8.17 8.17 0 0 1-5.235 1.899 8.15 8.15 0 0 1-5.226-1.895l-.285-.445Zm0 0"/>
  </g>
  <path fill="#0cc0df" d="M155.133 99.766c3.699 11.433 15.969 17.703 27.398 14.004 11.438-3.704 17.703-15.97 14.004-27.403-3.7-11.433-15.965-17.703-27.402-14.004-11.43 3.7-17.703 15.969-14 27.403m38.715-2.082s-9.2 19.246-23.364 3.039c0 0 14.399 2.687 23.364-3.04M259.168 247.313l-19.34 7.738H225l-18.7 5.8-26.433 5.805-13.539 24.82-12.246 6.77-3.227 5.156h130.88L268.84 256.34ZM277.219 161.758c0-10.684-8.66-19.344-19.344-19.344-10.68 0-19.34 8.66-19.34 19.344 0 10.683 8.66 19.34 19.34 19.34 10.684 0 19.344-8.657 19.344-19.34m-19.344 15.652c-8.633 0-15.652-7.02-15.652-15.648 0-8.637 7.02-15.66 15.652-15.66s15.656 7.023 15.656 15.66c0 8.629-7.023 15.648-15.656 15.648m0 0"/>
</svg>
