<svg xmlns="http://www.w3.org/2000/svg" width="500" height="500" viewBox="0 0 375 375">
  <defs>
    <clipPath id="a">
      <path d="M73.066 89H301v197.05H73.066Zm0 0"/>
    </clipPath>
    <clipPath id="b">
      <path d="M73.066 89h228.75v197.05H73.066Zm0 0"/>
    </clipPath>
  </defs>
  <path d="m208.781 184.059 4.012.453c.812.093 1.555-.5 1.648-1.313l1.22-10.867 1.886 1.313a6.72 6.72 0 0 1 2.844 5.492v11.465h-4.446c-.836 0-1.504.668-1.504 1.48v3.152h16.91v-3.152c0-.812-.667-1.48-1.503-1.48h-4.157v-11.465c0-3.89-1.91-7.567-5.086-9.813l-4.23-2.984 1.648-14.688c.098-.812-.5-1.55-1.312-1.648l-4.012-.453a1.496 1.496 0 0 0-1.648 1.312l-3.559 31.524c-.12.86.477 1.597 1.29 1.672M170.613 161.684q0 1.133-.222 2.242-.219 1.112-.653 2.16-.433 1.05-1.066 1.992a11.3 11.3 0 0 1-1.43 1.742 11.6 11.6 0 0 1-1.746 1.434q-.945.628-1.988 1.062-1.051.434-2.16.657-1.115.217-2.246.218c-.758 0-1.504-.074-2.247-.218a11.6 11.6 0 0 1-4.152-1.72 11.6 11.6 0 0 1-1.742-1.433 11.6 11.6 0 0 1-1.434-1.742 11.6 11.6 0 0 1-1.718-4.152 11.4 11.4 0 0 1-.22-2.242 11.4 11.4 0 0 1 .876-4.407q.434-1.05 1.062-1.988.632-.943 1.434-1.746a11.3 11.3 0 0 1 1.742-1.43 11.4 11.4 0 0 1 4.152-1.718 11.4 11.4 0 0 1 4.493 0 11.4 11.4 0 0 1 4.148 1.718 11.3 11.3 0 0 1 3.176 3.176q.633.94 1.066 1.988.435 1.049.653 2.16.222 1.11.222 2.247M172.57 225.945h-17.746a8.02 8.02 0 0 1-7.953-6.808l-4.586-29.54a3.54 3.54 0 0 0-4.012-2.937c-1.91.285-3.226 2.102-2.937 4.012l4.61 29.562c1.144 7.38 7.402 12.754 14.878 12.754h2.653v15.117h-3.657a3.513 3.513 0 0 0-3.507 3.508 3.513 3.513 0 0 0 3.507 3.512h14.332a3.517 3.517 0 0 0 3.512-3.512 3.516 3.516 0 0 0-3.512-3.508H164.5v-15.117h8.047a3.52 3.52 0 0 0 3.512-3.511 3.484 3.484 0 0 0-3.489-3.532m0 0"/>
  <path d="m174.508 183.89-8.793-5.777a9.95 9.95 0 0 0-5.73-1.816h-1.626c-3.082 0-5.968 1.336-8 3.676-2.007 2.316-2.914 5.398-2.46 8.504l4.347 27.96c.406 2.56 2.602 4.47 5.207 4.47l23.238-.024 3.153 28.894a5.276 5.276 0 0 0 5.23 4.703c.192 0 .383 0 .574-.023a5.284 5.284 0 0 0 4.684-5.805l-3.656-33.597c-.285-2.676-2.438-4.61-5.254-4.703l-13.496.023-1.336-18.605c3.773 2.27 8.074 3.535 12.492 3.535h9.602a4.384 4.384 0 0 0 4.394-4.395 4.386 4.386 0 0 0-4.394-4.394h-9.602c-3.059-.047-6.02-.93-8.574-2.625m0 0"/>
  <path d="M179.164 202.996a3.516 3.516 0 0 0 3.512 3.508h29.113v45.11a3.517 3.517 0 0 0 3.512 3.511h20.758a3.517 3.517 0 0 0 3.511-3.512v-48.617a3.517 3.517 0 0 0-3.511-3.512h-53.383a3.517 3.517 0 0 0-3.512 3.512m0 0"/>
  <g clip-path="url(#a)">
    <path d="m298.207 169.922-106.84-79.379a6.59 6.59 0 0 0-7.879 0l-106.84 79.379c-2.937 2.172-3.535 6.328-1.359 9.242 2.172 2.934 6.328 3.555 9.242 1.36l13.805-10.247v109.157a6.62 6.62 0 0 0 6.617 6.617h164.973a6.615 6.615 0 0 0 6.617-6.617V170.277l13.805 10.246a6.57 6.57 0 0 0 3.941 1.313c2.031 0 4.012-.93 5.3-2.672a6.6 6.6 0 0 0-1.382-9.242M263.285 272.82H111.57V160.441l75.86-56.359 75.855 56.383Zm0 0"/>
  </g>
  <path fill="#0cc0df" d="m208.852 184.125 4.015.453c.813.098 1.551-.5 1.649-1.312l1.218-10.875 1.887 1.316a6.73 6.73 0 0 1 2.844 5.496v11.469h-4.445c-.836 0-1.504.672-1.504 1.484v3.153h16.918v-3.153c0-.812-.668-1.484-1.504-1.484h-4.16v-11.469c0-3.894-1.91-7.574-5.09-9.82l-4.23-2.988 1.648-14.7c.097-.812-.5-1.55-1.313-1.648l-4.015-.453a1.5 1.5 0 0 0-1.649 1.316l-3.562 31.543c-.118.86.48 1.602 1.293 1.672M170.664 161.734a11.582 11.582 0 0 1-1.941 6.398 11.6 11.6 0 0 1-3.18 3.18 11.6 11.6 0 0 1-4.152 1.72 11.4 11.4 0 0 1-4.493 0 11.6 11.6 0 0 1-4.152-1.719 11.6 11.6 0 0 1-3.18-3.18 11.6 11.6 0 0 1-1.718-4.153 11.4 11.4 0 0 1 0-4.492 11.6 11.6 0 0 1 .656-2.164q.434-1.044 1.062-1.988a11.6 11.6 0 0 1 3.18-3.18 11.6 11.6 0 0 1 4.152-1.719 11.4 11.4 0 0 1 4.493 0q1.114.224 2.16.657 1.049.434 1.992 1.062a11.6 11.6 0 0 1 3.18 3.18q.628.945 1.062 1.988a11.6 11.6 0 0 1 .88 4.41M172.621 226.043h-17.754a8.024 8.024 0 0 1-7.957-6.813l-4.59-29.562a3.544 3.544 0 0 0-4.015-2.938c-1.91.286-3.223 2.102-2.938 4.016l4.613 29.582c1.145 7.387 7.407 12.762 14.887 12.762h2.653v15.129h-3.657a3.517 3.517 0 0 0-3.511 3.511 3.514 3.514 0 0 0 3.511 3.512h14.34a3.517 3.517 0 0 0 3.512-3.512 3.52 3.52 0 0 0-3.512-3.511h-3.656v-15.13h8.05a3.52 3.52 0 0 0 3.516-3.51 3.49 3.49 0 0 0-3.492-3.536m0 0"/>
  <path fill="#0cc0df" d="m174.559 183.957-8.793-5.781c-1.653-1.149-3.61-1.817-5.739-1.817h-1.625c-3.082 0-5.972 1.336-8.004 3.68-2.007 2.316-2.914 5.402-2.46 8.508l4.347 27.984c.406 2.555 2.606 4.469 5.211 4.469l23.25-.023 3.156 28.914c.286 2.699 2.582 4.707 5.235 4.707.191 0 .383 0 .574-.024a5.283 5.283 0 0 0 4.684-5.808l-3.657-33.621c-.289-2.676-2.437-4.614-5.258-4.708l-13.503.024-1.336-18.617c3.773 2.27 8.074 3.539 12.496 3.539h9.605a4.39 4.39 0 0 0 4.399-4.399 4.39 4.39 0 0 0-4.399-4.398h-9.605c-3.059-.047-6.02-.93-8.578-2.629m0 0"/>
  <path fill="#0cc0df" d="M179.219 203.074a3.52 3.52 0 0 0 3.511 3.516h29.133v45.14a3.514 3.514 0 0 0 3.512 3.512h20.766a3.514 3.514 0 0 0 3.511-3.512v-48.656a3.517 3.517 0 0 0-3.511-3.512h-53.41a3.52 3.52 0 0 0-3.512 3.512m0 0"/>
  <g clip-path="url(#b)">
    <path fill="#0cc0df" d="M298.32 169.977 191.43 90.543a6.6 6.6 0 0 0-7.887 0l-106.89 79.434c-2.942 2.175-3.54 6.335-1.364 9.25 2.176 2.941 6.332 3.562 9.25 1.363l13.813-10.254V279.57a6.62 6.62 0 0 0 6.617 6.621h165.058a6.62 6.62 0 0 0 6.621-6.62V170.335l13.813 10.254a6.57 6.57 0 0 0 3.941 1.312c2.032 0 4.016-.93 5.305-2.675a6.607 6.607 0 0 0-1.387-9.25m-34.937 102.976H111.59v-112.46l75.898-56.4 75.895 56.423Zm0 0"/>
  </g>
</svg>
