<svg xmlns="http://www.w3.org/2000/svg" xmlns:xlink="http://www.w3.org/1999/xlink" width="500" zoomAndPan="magnify" viewBox="0 0 375 374.999991" height="500" preserveAspectRatio="xMidYMid meet" version="1.0"><defs><clipPath id="41aed42b53"><path d="M 73.066406 89 L 301 89 L 301 286.050781 L 73.066406 286.050781 Z M 73.066406 89 " clip-rule="nonzero"/></clipPath><clipPath id="1f7bef8a5f"><path d="M 73.066406 89 L 301.816406 89 L 301.816406 286.050781 L 73.066406 286.050781 Z M 73.066406 89 " clip-rule="nonzero"/></clipPath></defs><path fill="#000000" d="M 208.78125 184.058594 L 212.792969 184.511719 C 213.605469 184.605469 214.347656 184.011719 214.441406 183.199219 L 215.660156 172.332031 L 217.546875 173.644531 C 219.339844 174.910156 220.390625 176.964844 220.390625 179.136719 L 220.390625 190.601562 L 215.945312 190.601562 C 215.109375 190.601562 214.441406 191.269531 214.441406 192.082031 L 214.441406 195.234375 L 231.351562 195.234375 L 231.351562 192.082031 C 231.351562 191.269531 230.683594 190.601562 229.847656 190.601562 L 225.691406 190.601562 L 225.691406 179.136719 C 225.691406 175.246094 223.78125 171.570312 220.605469 169.324219 L 216.375 166.339844 L 218.023438 151.652344 C 218.121094 150.839844 217.523438 150.101562 216.710938 150.003906 L 212.699219 149.550781 C 211.886719 149.457031 211.144531 150.050781 211.050781 150.863281 L 207.492188 182.386719 C 207.371094 183.246094 207.96875 183.984375 208.78125 184.058594 Z M 208.78125 184.058594 " fill-opacity="1" fill-rule="nonzero"/><path fill="#000000" d="M 170.613281 161.683594 C 170.613281 162.4375 170.539062 163.1875 170.390625 163.925781 C 170.246094 164.667969 170.027344 165.386719 169.738281 166.085938 C 169.449219 166.785156 169.09375 167.449219 168.671875 168.078125 C 168.253906 168.707031 167.777344 169.285156 167.242188 169.820312 C 166.707031 170.355469 166.125 170.832031 165.496094 171.253906 C 164.867188 171.671875 164.203125 172.027344 163.507812 172.316406 C 162.808594 172.605469 162.085938 172.824219 161.347656 172.972656 C 160.605469 173.117188 159.855469 173.191406 159.101562 173.191406 C 158.34375 173.191406 157.597656 173.117188 156.855469 172.972656 C 156.113281 172.824219 155.394531 172.605469 154.695312 172.316406 C 153.996094 172.027344 153.332031 171.671875 152.703125 171.253906 C 152.074219 170.832031 151.496094 170.355469 150.960938 169.820312 C 150.425781 169.285156 149.949219 168.707031 149.527344 168.078125 C 149.109375 167.449219 148.753906 166.785156 148.464844 166.085938 C 148.175781 165.386719 147.957031 164.667969 147.808594 163.925781 C 147.660156 163.1875 147.589844 162.4375 147.589844 161.683594 C 147.589844 160.925781 147.660156 160.175781 147.808594 159.4375 C 147.957031 158.695312 148.175781 157.976562 148.464844 157.277344 C 148.753906 156.578125 149.109375 155.914062 149.527344 155.289062 C 149.949219 154.660156 150.425781 154.078125 150.960938 153.542969 C 151.496094 153.007812 152.074219 152.53125 152.703125 152.113281 C 153.332031 151.691406 153.996094 151.335938 154.695312 151.046875 C 155.394531 150.757812 156.113281 150.539062 156.855469 150.394531 C 157.597656 150.246094 158.34375 150.171875 159.101562 150.171875 C 159.855469 150.171875 160.605469 150.246094 161.347656 150.394531 C 162.085938 150.539062 162.808594 150.757812 163.507812 151.046875 C 164.203125 151.335938 164.867188 151.691406 165.496094 152.113281 C 166.125 152.53125 166.707031 153.007812 167.242188 153.542969 C 167.777344 154.078125 168.253906 154.660156 168.671875 155.289062 C 169.09375 155.914062 169.449219 156.578125 169.738281 157.277344 C 170.027344 157.976562 170.246094 158.695312 170.390625 159.4375 C 170.539062 160.175781 170.613281 160.925781 170.613281 161.683594 Z M 170.613281 161.683594 " fill-opacity="1" fill-rule="nonzero"/><path fill="#000000" d="M 172.570312 225.945312 L 154.824219 225.945312 C 150.835938 225.945312 147.492188 223.078125 146.871094 219.136719 L 142.285156 189.597656 C 141.976562 187.6875 140.183594 186.375 138.273438 186.660156 C 136.363281 186.945312 135.046875 188.761719 135.335938 190.671875 L 139.945312 220.234375 C 141.089844 227.613281 147.347656 232.988281 154.824219 232.988281 L 157.476562 232.988281 L 157.476562 248.105469 L 153.820312 248.105469 C 151.886719 248.105469 150.3125 249.679688 150.3125 251.613281 C 150.3125 253.550781 151.886719 255.125 153.820312 255.125 L 168.152344 255.125 C 170.085938 255.125 171.664062 253.550781 171.664062 251.613281 C 171.664062 249.679688 170.085938 248.105469 168.152344 248.105469 L 164.5 248.105469 L 164.5 232.988281 L 172.546875 232.988281 C 174.480469 232.988281 176.058594 231.410156 176.058594 229.476562 C 176.082031 227.519531 174.507812 225.945312 172.570312 225.945312 Z M 172.570312 225.945312 " fill-opacity="1" fill-rule="nonzero"/><path fill="#000000" d="M 174.507812 183.890625 L 165.714844 178.113281 C 164.070312 176.964844 162.109375 176.296875 159.984375 176.296875 C 159.984375 176.296875 159.960938 176.296875 159.960938 176.296875 L 158.359375 176.296875 C 155.277344 176.296875 152.390625 177.632812 150.359375 179.972656 C 148.351562 182.289062 147.445312 185.371094 147.898438 188.476562 L 152.246094 216.4375 C 152.652344 218.996094 154.847656 220.90625 157.453125 220.90625 L 180.691406 220.882812 L 183.84375 249.777344 C 184.132812 252.472656 186.425781 254.480469 189.074219 254.480469 C 189.265625 254.480469 189.457031 254.480469 189.648438 254.457031 C 192.539062 254.144531 194.640625 251.542969 194.332031 248.652344 L 190.675781 215.054688 C 190.390625 212.378906 188.238281 210.445312 185.421875 210.351562 L 171.925781 210.375 L 170.589844 191.769531 C 174.363281 194.039062 178.664062 195.304688 183.082031 195.304688 L 192.683594 195.304688 C 195.117188 195.304688 197.078125 193.347656 197.078125 190.910156 C 197.078125 188.476562 195.117188 186.515625 192.683594 186.515625 L 183.082031 186.515625 C 180.023438 186.46875 177.0625 185.585938 174.507812 183.890625 Z M 174.507812 183.890625 " fill-opacity="1" fill-rule="nonzero"/><path fill="#000000" d="M 179.164062 202.996094 C 179.164062 204.929688 180.742188 206.503906 182.675781 206.503906 L 211.789062 206.503906 L 211.789062 251.613281 C 211.789062 253.550781 213.367188 255.125 215.300781 255.125 L 236.058594 255.125 C 237.992188 255.125 239.570312 253.550781 239.570312 251.613281 L 239.570312 202.996094 C 239.570312 201.058594 237.992188 199.484375 236.058594 199.484375 L 182.675781 199.484375 C 180.742188 199.484375 179.164062 201.058594 179.164062 202.996094 Z M 179.164062 202.996094 " fill-opacity="1" fill-rule="nonzero"/><g clip-path="url(#41aed42b53)"><path fill="#000000" d="M 298.207031 169.921875 L 191.367188 90.542969 C 189.027344 88.800781 185.828125 88.800781 183.488281 90.542969 L 76.648438 169.921875 C 73.710938 172.09375 73.113281 176.25 75.289062 179.164062 C 77.460938 182.097656 81.617188 182.71875 84.53125 180.523438 L 98.335938 170.277344 L 98.335938 279.433594 C 98.335938 283.089844 101.300781 286.050781 104.953125 286.050781 L 269.925781 286.050781 C 273.582031 286.050781 276.542969 283.089844 276.542969 279.433594 L 276.542969 170.277344 L 290.347656 180.523438 C 291.542969 181.40625 292.902344 181.835938 294.289062 181.835938 C 296.320312 181.835938 298.300781 180.90625 299.589844 179.164062 C 301.765625 176.226562 301.144531 172.09375 298.207031 169.921875 Z M 263.285156 272.820312 L 111.570312 272.820312 L 111.570312 160.441406 L 187.429688 104.082031 L 263.285156 160.464844 Z M 263.285156 272.820312 " fill-opacity="1" fill-rule="nonzero"/></g><path fill="#0cc0df" d="M 208.851562 184.125 L 212.867188 184.578125 C 213.679688 184.675781 214.417969 184.078125 214.515625 183.265625 L 215.734375 172.390625 L 217.621094 173.707031 C 219.414062 174.972656 220.464844 177.027344 220.464844 179.203125 L 220.464844 190.671875 L 216.019531 190.671875 C 215.183594 190.671875 214.515625 191.34375 214.515625 192.15625 L 214.515625 195.308594 L 231.433594 195.308594 L 231.433594 192.15625 C 231.433594 191.34375 230.765625 190.671875 229.929688 190.671875 L 225.769531 190.671875 L 225.769531 179.203125 C 225.769531 175.308594 223.859375 171.628906 220.679688 169.382812 L 216.449219 166.394531 L 218.097656 151.695312 C 218.195312 150.882812 217.597656 150.144531 216.785156 150.046875 L 212.769531 149.59375 C 211.957031 149.5 211.214844 150.097656 211.121094 150.910156 L 207.558594 182.453125 C 207.441406 183.3125 208.039062 184.054688 208.851562 184.125 Z M 208.851562 184.125 " fill-opacity="1" fill-rule="nonzero"/><path fill="#0cc0df" d="M 170.664062 161.734375 C 170.664062 162.492188 170.589844 163.238281 170.441406 163.980469 C 170.292969 164.722656 170.074219 165.441406 169.785156 166.140625 C 169.496094 166.839844 169.140625 167.503906 168.722656 168.132812 C 168.300781 168.761719 167.824219 169.34375 167.289062 169.878906 C 166.753906 170.414062 166.171875 170.890625 165.542969 171.3125 C 164.914062 171.730469 164.25 172.085938 163.550781 172.375 C 162.855469 172.664062 162.132812 172.882812 161.390625 173.03125 C 160.648438 173.179688 159.902344 173.253906 159.144531 173.253906 C 158.386719 173.253906 157.640625 173.179688 156.898438 173.03125 C 156.15625 172.882812 155.433594 172.664062 154.738281 172.375 C 154.039062 172.085938 153.375 171.730469 152.746094 171.3125 C 152.117188 170.890625 151.535156 170.414062 151 169.878906 C 150.464844 169.34375 149.988281 168.761719 149.566406 168.132812 C 149.148438 167.503906 148.792969 166.839844 148.503906 166.140625 C 148.214844 165.441406 147.996094 164.722656 147.847656 163.980469 C 147.699219 163.238281 147.625 162.492188 147.625 161.734375 C 147.625 160.976562 147.699219 160.230469 147.847656 159.488281 C 147.996094 158.746094 148.214844 158.023438 148.503906 157.324219 C 148.792969 156.628906 149.148438 155.964844 149.566406 155.335938 C 149.988281 154.707031 150.464844 154.125 151 153.589844 C 151.535156 153.054688 152.117188 152.578125 152.746094 152.15625 C 153.375 151.738281 154.039062 151.382812 154.738281 151.09375 C 155.433594 150.804688 156.15625 150.585938 156.898438 150.4375 C 157.640625 150.289062 158.386719 150.214844 159.144531 150.214844 C 159.902344 150.214844 160.648438 150.289062 161.390625 150.4375 C 162.132812 150.585938 162.855469 150.804688 163.550781 151.09375 C 164.25 151.382812 164.914062 151.738281 165.542969 152.15625 C 166.171875 152.578125 166.753906 153.054688 167.289062 153.589844 C 167.824219 154.125 168.300781 154.707031 168.722656 155.335938 C 169.140625 155.964844 169.496094 156.628906 169.785156 157.324219 C 170.074219 158.023438 170.292969 158.746094 170.441406 159.488281 C 170.589844 160.230469 170.664062 160.976562 170.664062 161.734375 Z M 170.664062 161.734375 " fill-opacity="1" fill-rule="nonzero"/><path fill="#0cc0df" d="M 172.621094 226.042969 L 154.867188 226.042969 C 150.875 226.042969 147.53125 223.171875 146.910156 219.230469 L 142.320312 189.667969 C 142.011719 187.757812 140.21875 186.445312 138.304688 186.730469 C 136.394531 187.015625 135.082031 188.832031 135.367188 190.746094 L 139.980469 220.328125 C 141.125 227.714844 147.386719 233.089844 154.867188 233.089844 L 157.519531 233.089844 L 157.519531 248.21875 L 153.863281 248.21875 C 151.925781 248.21875 150.351562 249.796875 150.351562 251.730469 C 150.351562 253.667969 151.925781 255.242188 153.863281 255.242188 L 168.203125 255.242188 C 170.136719 255.242188 171.714844 253.667969 171.714844 251.730469 C 171.714844 249.796875 170.136719 248.21875 168.203125 248.21875 L 164.546875 248.21875 L 164.546875 233.089844 L 172.597656 233.089844 C 174.535156 233.089844 176.113281 231.515625 176.113281 229.578125 C 176.136719 227.617188 174.558594 226.042969 172.621094 226.042969 Z M 172.621094 226.042969 " fill-opacity="1" fill-rule="nonzero"/><path fill="#0cc0df" d="M 174.558594 183.957031 L 165.765625 178.175781 C 164.113281 177.027344 162.15625 176.359375 160.027344 176.359375 C 160.027344 176.359375 160.003906 176.359375 160.003906 176.359375 L 158.402344 176.359375 C 155.320312 176.359375 152.429688 177.695312 150.398438 180.039062 C 148.390625 182.355469 147.484375 185.441406 147.9375 188.546875 L 152.285156 216.53125 C 152.691406 219.085938 154.890625 221 157.496094 221 L 180.746094 220.976562 L 183.902344 249.890625 C 184.1875 252.589844 186.484375 254.597656 189.136719 254.597656 C 189.328125 254.597656 189.519531 254.597656 189.710938 254.574219 C 192.601562 254.265625 194.703125 251.660156 194.394531 248.765625 L 190.738281 215.144531 C 190.449219 212.46875 188.300781 210.53125 185.480469 210.4375 L 171.976562 210.460938 L 170.640625 191.84375 C 174.414062 194.113281 178.714844 195.382812 183.136719 195.382812 L 192.742188 195.382812 C 195.179688 195.382812 197.140625 193.421875 197.140625 190.984375 C 197.140625 188.546875 195.179688 186.585938 192.742188 186.585938 L 183.136719 186.585938 C 180.078125 186.539062 177.117188 185.65625 174.558594 183.957031 Z M 174.558594 183.957031 " fill-opacity="1" fill-rule="nonzero"/><path fill="#0cc0df" d="M 179.21875 203.074219 C 179.21875 205.011719 180.796875 206.589844 182.730469 206.589844 L 211.863281 206.589844 L 211.863281 251.730469 C 211.863281 253.667969 213.4375 255.242188 215.375 255.242188 L 236.140625 255.242188 C 238.078125 255.242188 239.652344 253.667969 239.652344 251.730469 L 239.652344 203.074219 C 239.652344 201.140625 238.078125 199.5625 236.140625 199.5625 L 182.730469 199.5625 C 180.796875 199.5625 179.21875 201.140625 179.21875 203.074219 Z M 179.21875 203.074219 " fill-opacity="1" fill-rule="nonzero"/><g clip-path="url(#1f7bef8a5f)"><path fill="#0cc0df" d="M 298.320312 169.976562 L 191.429688 90.542969 C 189.085938 88.800781 185.886719 88.800781 183.542969 90.542969 L 76.652344 169.976562 C 73.710938 172.152344 73.113281 176.3125 75.289062 179.226562 C 77.464844 182.167969 81.621094 182.789062 84.539062 180.589844 L 98.351562 170.335938 L 98.351562 279.570312 C 98.351562 283.226562 101.3125 286.191406 104.96875 286.191406 L 270.027344 286.191406 C 273.683594 286.191406 276.648438 283.226562 276.648438 279.570312 L 276.648438 170.335938 L 290.460938 180.589844 C 291.65625 181.472656 293.015625 181.902344 294.402344 181.902344 C 296.433594 181.902344 298.417969 180.972656 299.707031 179.226562 C 301.882812 176.289062 301.261719 172.152344 298.320312 169.976562 Z M 263.382812 272.953125 L 111.589844 272.953125 L 111.589844 160.492188 L 187.488281 104.09375 L 263.382812 160.515625 Z M 263.382812 272.953125 " fill-opacity="1" fill-rule="nonzero"/></g></svg>