<svg xmlns="http://www.w3.org/2000/svg" width="500" height="500" viewBox="0 0 375 375">
  <defs>
    <clipPath id="a">
      <path d="M69.45 80.367H303v214.5H69.45Zm0 0"/>
    </clipPath>
  </defs>
  <g clip-path="url(#a)">
    <path d="M299.992 200.938c-2.695-4.29-6.918-7.274-11.887-8.399a19 19 0 0 0-7.324-.238v-45.54c8.215-3.269 14.043-11.296 14.043-20.663v-1.856c0-.508-.133-1.012-.398-1.469l-23.961-40.976a2.91 2.91 0 0 0-2.508-1.438H161.305a2.91 2.91 0 0 0-2.508 1.438l-23.961 40.976c-.266.457-.395.961-.395 1.47v1.855c0 9.367 5.825 17.394 14.04 20.664v51.394c-4.29.742-8.45 2.297-12.454 4.68l-32.16 19.121-4.808-8.086a2.91 2.91 0 0 0-3.985-1.012l-24.023 14.309a2.906 2.906 0 0 0-.832 4.246l47.035 62.3a2.9 2.9 0 0 0 2.32 1.153c.508 0 1.02-.129 1.485-.406l16.668-9.926a2.91 2.91 0 0 0 1.332-1.781c.187-.746.07-1.54-.32-2.2l-5.9-9.91 11.716-6.769 54.16 13.629c2.277.578 4.523.863 6.73.863 4.836 0 9.473-1.379 13.836-4.129l74.742-47.054c8.875-5.59 11.555-17.36 5.97-26.246m-27.394-58.418c-8.7 0-15.84-6.81-16.38-15.38h32.762c-.546 8.57-7.68 15.38-16.382 15.38m-109.63-56.352h103.325l20.562 35.168H142.406Zm87.368 40.973c-.54 8.57-7.68 15.379-16.379 15.379-8.703 0-15.836-6.81-16.383-15.38Zm-38.64 0c-.544 8.57-7.684 15.379-16.383 15.379-8.704 0-15.836-6.81-16.383-15.38Zm-71.41 0h32.765c-.543 8.57-7.68 15.379-16.383 15.379s-15.84-6.81-16.383-15.38m14 21.058a23 23 0 0 0 2.382.133c8.27 0 15.496-4.547 19.324-11.27 3.828 6.723 11.055 11.27 19.324 11.27s15.496-4.547 19.325-11.27c3.828 6.723 11.054 11.27 19.324 11.27s15.496-4.547 19.324-11.27c3.828 6.723 11.055 11.27 19.324 11.27q1.207-.002 2.383-.133v46.067c-.414.218-.824.449-1.219.703l-52.722 33.191c1.199-8.547-4.332-16.629-13.043-18.719l-.02-.004v-49.054c0-1.602-1.3-2.906-2.906-2.906h-31.559a2.907 2.907 0 0 0-2.902 2.906v40.094l-7.367-1.766c-3.028-.727-6.02-1.086-8.957-1.074v-49.438Zm47.882 59.848-25.75-6.176V163.29h25.75Zm-81.844 80.101-43.511-57.64 18.742-11.164 36.707 61.691Zm170.602-65.882-74.742 47.054c-4.965 3.13-10.364 3.989-16.055 2.555l-55.305-13.918a2.9 2.9 0 0 0-2.156.3l-12.8 7.395-23.032-38.703 32.152-19.12c7.227-4.302 14.719-5.434 22.899-3.474l44.75 10.735c6.023 1.445 9.761 7.176 8.508 13.047-1.223 5.726-7 9.43-13.16 8.414l-34.583-5.68a2.904 2.904 0 0 0-3.336 2.399 2.9 2.9 0 0 0 2.399 3.335l34.582 5.68q1.5.244 2.976.242c3.848 0 7.473-1.23 10.395-3.363l.012.016 62.418-39.297c2.972-1.875 6.511-2.469 9.964-1.684 3.458.781 6.391 2.856 8.258 5.828 3.887 6.18 2.028 14.356-4.144 18.239m-67.922-31.903h32.746c1.602 0 2.902-1.3 2.902-2.906v-27.074c0-1.602-1.3-2.906-2.902-2.906h-32.746a2.907 2.907 0 0 0-2.902 2.906v27.074c0 1.606 1.3 2.906 2.902 2.906m2.902-27.074h26.938v21.266h-26.938Zm0 0"/>
    <path fill="#0cc0df" d="M299.844 200.8c-2.696-4.284-6.914-7.265-11.88-8.39a19 19 0 0 0-7.316-.238v-45.488c8.207-3.262 14.028-11.282 14.028-20.641v-1.852c0-.507-.13-1.011-.395-1.464l-23.945-40.93a2.91 2.91 0 0 0-2.504-1.438H161.246a2.91 2.91 0 0 0-2.508 1.438l-23.945 40.93a2.9 2.9 0 0 0-.395 1.464v1.852c0 9.36 5.825 17.379 14.032 20.64v51.337c-4.285.746-8.446 2.296-12.446 4.675l-32.136 19.102-4.809-8.078a2.906 2.906 0 0 0-3.98-1.012L71.05 227a2.9 2.9 0 0 0-1.364 1.934c-.16.808.032 1.648.532 2.308l47.004 62.23a2.9 2.9 0 0 0 2.316 1.15c.508 0 1.023-.13 1.484-.407l16.66-9.914a2.902 2.902 0 0 0 1.008-3.977l-5.894-9.898 11.71-6.762 54.122 13.613q3.42.865 6.73.864c4.832 0 9.465-1.38 13.828-4.125l74.692-47.004c8.871-5.578 11.547-17.336 5.965-26.211m-27.375-58.35c-8.696 0-15.828-6.802-16.371-15.36h32.742c-.547 8.558-7.676 15.36-16.371 15.36M162.91 86.163h103.258l20.547 35.125H142.359Zm87.313 40.926c-.543 8.558-7.676 15.36-16.371 15.36-8.7 0-15.829-6.802-16.375-15.36Zm-38.621 0c-.543 8.558-7.676 15.36-16.372 15.36s-15.824-6.802-16.37-15.36Zm-71.36 0h32.742c-.543 8.558-7.675 15.36-16.37 15.36-8.7 0-15.833-6.802-16.372-15.36m13.988 21.031a23 23 0 0 0 2.383.133c8.266 0 15.485-4.543 19.309-11.258 3.828 6.715 11.047 11.258 19.312 11.258s15.489-4.543 19.313-11.258c3.824 6.715 11.047 11.258 19.312 11.258s15.485-4.543 19.313-11.258c3.824 6.715 11.047 11.258 19.312 11.258q1.201-.002 2.38-.133v46.016c-.41.215-.825.449-1.22.699l-52.687 33.156c1.2-8.539-4.328-16.61-13.035-18.699l-.02-.004v-49c0-1.601-1.3-2.902-2.902-2.902h-31.54a2.904 2.904 0 0 0-2.901 2.902v40.05l-7.36-1.765c-3.027-.722-6.015-1.082-8.953-1.074v-49.379Zm47.852 59.777-25.734-6.164v-38.543h25.734Zm-81.793 80.012-43.484-57.574 18.734-11.152 36.684 61.62Zm170.496-65.805-74.695 47c-4.961 3.125-10.36 3.98-16.047 2.547l-55.266-13.898a2.9 2.9 0 0 0-2.156.3l-12.793 7.384-23.016-38.657 32.133-19.097c7.22-4.297 14.707-5.426 22.88-3.47l44.722 10.724c6.023 1.44 9.758 7.167 8.504 13.027-1.223 5.722-6.992 9.422-13.153 8.406L167.34 230.7a2.9 2.9 0 0 0-3.332 2.395 2.9 2.9 0 0 0 2.394 3.332l34.559 5.672c1.004.164 1.992.242 2.976.242 3.844 0 7.465-1.227 10.387-3.356l.012.016 62.379-39.254c2.969-1.871 6.504-2.469 9.957-1.684 3.453.786 6.387 2.856 8.254 5.825 3.883 6.172 2.023 14.34-4.14 18.218m-67.879-31.867h32.723c1.601 0 2.902-1.3 2.902-2.902v-27.047c0-1.601-1.3-2.902-2.902-2.902h-32.723a2.904 2.904 0 0 0-2.902 2.902v27.047c0 1.601 1.3 2.902 2.902 2.902m2.899-27.047h26.922v21.243h-26.922Zm0 0"/>
  </g>
</svg>
